<svg width="109" height="47" viewBox="0 0 109 47" fill="none" xmlns="http://www.w3.org/2000/svg">
<path d="M47.0001 0H0V47H47.0001V0Z" fill="#E82133"/>
<path fill-rule="evenodd" clip-rule="evenodd" d="M15.7023 27.7901C16.0906 27.7537 16.3697 27.4382 16.3697 27.0863V16.9897C16.3697 13.2399 21.1753 11.4317 23.748 15.8004C26.3449 20.2541 27.8497 22.8632 27.8497 22.8632V16.9897C27.8497 13.2399 32.6553 11.4317 35.228 15.8004C37.8249 20.2541 39.3297 22.8632 39.3297 22.8632V13.3127H45.0818V30.0352C45.0818 34.3311 40.0335 34.9985 37.9826 31.5763C36.757 29.5619 33.6018 24.3559 33.6018 24.3559V30.0352C33.6382 34.3311 28.59 34.9985 26.5027 31.5763C25.277 29.5619 22.1582 24.3559 22.1582 24.3559V29.477C22.1582 32.1225 20.6171 33.5058 18.2143 33.5058H12.6563C-1.57843 33.5058 -1.69975 13.3127 12.4621 13.3127H15.6173V19.0284H12.1466C6.34594 19.0284 5.71492 27.7901 12.535 27.7901H15.6901H15.7023Z" fill="white"/>
<path d="M41.4298 30.9572C41.0657 30.9572 40.7017 30.7631 40.4468 30.4111C40.374 30.2898 33.7239 19.6228 32.0371 16.8317C31.8793 16.6133 31.6366 16.5162 31.4182 16.589C31.1876 16.6618 31.0541 16.9045 31.0541 17.2443V29.6709C31.0541 30.2776 30.7629 30.7509 30.2896 30.9087C29.8284 31.0543 29.3309 30.8601 29.0154 30.4111C28.9304 30.2898 22.256 19.6228 20.5692 16.8317C20.4114 16.6133 20.1687 16.5162 19.9503 16.589C19.7197 16.6618 19.5862 16.9045 19.5862 17.2443V29.5859C19.5862 30.3383 18.9916 30.9329 18.2392 30.9329H12.2808C6.89269 30.9329 4.44141 27.0375 4.44141 23.4212C4.44141 21.4553 5.12093 19.6107 6.35873 18.2273C7.75429 16.674 9.72027 15.8609 12.0381 15.8609H15.7029V16.5041H12.0381C9.9023 16.5041 8.10624 17.2443 6.84417 18.6642C5.71559 19.9262 5.08454 21.613 5.08454 23.4212C5.08454 28.1418 8.81007 30.2898 12.2808 30.2898H18.2392C18.6397 30.2898 18.943 29.9743 18.943 29.5859V17.2443C18.943 16.6254 19.2586 16.14 19.7562 15.9822C20.2416 15.8245 20.7876 16.0187 21.1032 16.4677V16.4919C22.79 19.2588 29.4886 29.95 29.5614 30.0592C29.707 30.2655 29.9255 30.3626 30.1075 30.3019C30.3017 30.2412 30.4231 30.0107 30.4231 29.683V17.2565C30.4231 16.6376 30.7386 16.1522 31.2361 15.9944C31.7215 15.8366 32.2555 16.0308 32.5832 16.4798V16.5041C34.27 19.2709 40.9323 29.9621 40.9929 30.0713C41.1386 30.2776 41.3691 30.3747 41.5633 30.3019C41.7696 30.2412 41.8909 29.9985 41.8909 29.683V13.3125H42.5341V29.683C42.5341 30.2898 42.2429 30.763 41.7575 30.9208C41.6482 30.9572 41.539 30.9693 41.4298 30.9693" fill="#E82133"/>
<path d="M52.9102 20.1998H54.7547V16.0859H56.9269V20.1998H60.3733V21.5711H56.9269V27.8208C56.9269 28.7188 57.0361 29.3498 57.2545 29.726C57.473 30.0901 57.8371 30.2842 58.3346 30.2842C58.7593 30.2842 59.1355 30.1993 59.451 30.0415C59.7665 29.8838 60.0457 29.7139 60.3127 29.5318L60.8345 30.3692C60.7131 30.5027 60.5432 30.6361 60.3248 30.7818C60.1064 30.9274 59.8637 31.073 59.5846 31.1944C59.3055 31.3279 59.0021 31.4249 58.6623 31.5099C58.3225 31.5948 57.9706 31.6434 57.6187 31.6434C56.6964 31.6434 55.9804 31.4007 55.495 30.9031C55.0096 30.4177 54.7547 29.5925 54.7547 28.4518V21.5589H52.9102V20.1876V20.1998Z" fill="#231F20"/>
<path d="M67.1189 22.1248C66.8034 22.2947 66.5364 22.501 66.3301 22.7195C66.1238 22.95 65.9053 23.2777 65.6626 23.7024V30.3526H67.4708V31.4205H61.9492V30.3526H63.4904V21.2632H61.9492V20.1953H65.6626V22.3554H65.7476C65.9781 21.8821 66.2572 21.4817 66.5728 21.1298C66.8883 20.7778 67.2524 20.4744 67.6528 20.1953H69.643V22.1248H67.1067H67.1189Z" fill="#231F20"/>
<path d="M85.7044 31.4283L81.724 21.271H80.5469V20.2031H85.4374V21.271H84.054L86.5539 28.0061L87.1 30.3361H87.2091L87.7917 28.0061L90.1338 21.271H88.8596V20.2031H92.8521V21.271H91.5657L87.9495 31.4283H85.7044Z" fill="#231F20"/>
<path d="M102.18 29.9518C101.816 30.4736 101.306 30.8983 100.651 31.2017C99.9956 31.5051 99.219 31.6629 98.3452 31.6629C97.4715 31.6629 96.622 31.5294 95.9182 31.2503C95.2143 30.9712 94.6318 30.5828 94.1585 30.0731C93.6852 29.5635 93.3333 28.9567 93.0906 28.2286C92.8479 27.5126 92.7266 26.6995 92.7266 25.8258C92.7266 23.9205 93.1877 22.4643 94.1221 21.4692C95.0565 20.4741 96.355 19.9766 98.0418 19.9766C98.6001 19.9766 99.1461 20.0494 99.6801 20.195C100.214 20.3406 100.687 20.5712 101.112 20.8989C101.525 21.2265 101.864 21.6634 102.119 22.2095C102.374 22.7555 102.508 23.423 102.508 24.2239C102.508 24.4666 102.495 24.7215 102.459 25.0006C102.435 25.2676 102.386 25.5588 102.338 25.85H95.0565C95.0565 26.4811 95.1415 27.0514 95.2992 27.5611C95.457 28.0708 95.6997 28.5198 96.0273 28.8839C96.355 29.2601 96.7676 29.5392 97.253 29.7455C97.7384 29.9518 98.3209 30.061 98.9883 30.061C99.5344 30.061 100.032 29.9639 100.505 29.7819C100.979 29.5999 101.343 29.3814 101.622 29.1387L102.192 29.9518H102.18ZM97.9204 20.9959C97.4957 20.9959 97.1074 21.0566 96.7797 21.1901C96.4521 21.3236 96.1729 21.5299 95.9302 21.8333C95.6997 22.1366 95.5055 22.525 95.372 23.0225C95.2386 23.5079 95.1414 24.1268 95.105 24.8549H100.129C100.141 24.7215 100.153 24.6001 100.166 24.4545C100.166 24.321 100.166 24.1997 100.166 24.0783C100.166 23.1317 99.9835 22.3915 99.6194 21.8333C99.2553 21.275 98.685 20.9959 97.9204 20.9959Z" fill="#231F20"/>
<path d="M108.469 31.4335H103.215V30.3656H104.756V16.4585H102.996V15.3906H106.928V30.3656H108.469V31.4335Z" fill="#231F20"/>
<path d="M79.5497 30.36C79.5255 30.0931 79.5012 29.7897 79.4891 29.4499C79.4769 29.1101 79.4649 28.7824 79.4649 28.4548C79.4649 27.6781 79.4891 26.8893 79.5134 26.0641C79.5498 25.2389 79.5619 24.3895 79.5619 23.4915C79.5619 23.0789 79.5255 22.6663 79.4527 22.2415C79.3799 21.8168 79.21 21.4406 78.9551 21.1129C78.7003 20.7732 78.3241 20.5062 77.8508 20.2999C77.3654 20.0936 76.7344 19.9844 75.9456 19.9844C75.0233 19.9844 74.2224 20.0936 73.5428 20.2999C72.8632 20.5183 72.2686 20.761 71.771 21.028V22.1081C72.936 21.4892 73.9433 21.2828 74.5015 21.2222C74.5015 21.2222 74.5015 21.2222 74.5136 21.2222C74.5136 21.2222 74.5136 21.2222 74.5258 21.2222C74.7928 21.1979 74.9626 21.1858 74.9626 21.1858C75.1083 21.1858 75.266 21.1858 75.3995 21.1858C76.1397 21.1858 76.6616 21.4163 76.9528 21.8775C77.2441 22.3386 77.3897 23.0061 77.3897 23.8798V24.4866C77.3897 24.6929 77.3775 24.9113 77.3532 25.1297C76.2489 25.1419 75.2782 25.2147 74.453 25.3239C73.6278 25.4453 72.936 25.6273 72.3778 25.8943C71.8196 26.1612 71.4069 26.5131 71.1278 26.9743C70.8487 27.4354 70.7031 28.0058 70.7031 28.7097C70.7031 29.1708 70.7881 29.5712 70.9458 29.9353C71.1036 30.2994 71.3342 30.6028 71.6254 30.8697C71.9167 31.1246 72.2564 31.3309 72.6569 31.4644C73.0574 31.61 73.4821 31.6828 73.9554 31.6828C74.4287 31.6828 74.8534 31.6221 75.2417 31.4886C75.63 31.3551 75.9699 31.1853 76.249 30.979C76.5281 30.7605 76.7708 30.5178 76.9528 30.2508C77.1349 29.9839 77.2684 29.7047 77.3412 29.4135H77.4382L77.6446 31.4401H80.9575V30.3722H79.5619L79.5497 30.36ZM77.3532 28.5397C77.2562 28.7218 77.1348 28.916 76.9892 29.1223C76.8436 29.3286 76.6737 29.4984 76.4674 29.6683C76.2732 29.8382 76.0305 29.9717 75.7757 30.0688C75.5087 30.178 75.2175 30.2266 74.8777 30.2266C74.2952 30.2266 73.8462 30.0567 73.5064 29.729C73.1787 29.3892 73.0089 28.9038 73.0089 28.2607C73.0089 27.9451 73.0695 27.6539 73.1908 27.3748C73.3122 27.0957 73.5307 26.853 73.8462 26.6588C74.1617 26.4646 74.5985 26.2947 75.1689 26.1734C75.7271 26.052 76.4552 25.9913 77.3532 25.9913V28.5397Z" fill="#231F20"/>
</svg>
