<svg width="127" height="40" viewBox="0 0 127 40" fill="none" xmlns="http://www.w3.org/2000/svg">
<path d="M107.902 9.81864H116.614V18.4297H118.195V9.81864H126.936V8.36668H118.195V0H116.614V8.36668H107.902V9.81864Z" fill="#231F20"/>
<path d="M76.9968 40.0016C71.9941 40.0016 68.6445 37.0976 68.6445 32.7993V21.1406H73.0579V32.7993C73.0579 35.2863 75.1855 36.1633 76.9968 36.1633C79.4551 36.1633 80.9932 34.8694 80.9932 32.7993V21.1406H85.4066V32.7993C85.4066 37.1839 82.1002 40.0016 76.9968 40.0016Z" fill="#231F20"/>
<path d="M57.3133 39.9985C53.5613 39.9985 50.298 38.8341 47.351 36.419L47.1641 36.2608L49.6798 33.2131L49.8667 33.3569C51.5918 34.737 53.9925 36.3039 57.3708 36.3039C59.139 36.3039 61.2091 35.7002 61.2091 34.0038C61.2091 32.5519 59.6997 32.1494 56.9251 31.9193C53.4606 31.7037 48.1991 31.3731 48.1991 26.4566C48.1991 22.1151 52.138 20.5625 55.8182 20.5625C59.4984 20.5625 62.6755 21.8851 64.3431 23.0064L64.5586 23.1501L61.9998 26.2697L61.8129 26.1259C61.2235 25.6802 59.0384 24.2571 55.7032 24.2571C54.1938 24.2571 52.5836 24.7746 52.5836 26.2121C52.5836 27.4916 54.5819 27.6641 56.6952 27.8366L57.0258 27.8654C60.2172 28.081 65.5793 28.4404 65.5793 33.6301C65.5793 37.6696 62.5604 39.9985 57.2989 39.9985" fill="#231F20"/>
<path d="M126.518 39.454H110.547V21.125H125.886V24.9921H114.932V27.9822H121.516V31.8349H114.932V35.6157H126.518V39.454Z" fill="#231F20"/>
<path d="M44.119 21.125H39.7344V39.454H44.119V21.125Z" fill="#231F20"/>
<path d="M36.0014 39.454H20.0156V21.125H35.3689V24.9921H24.4146V27.9822H30.9987V31.8349H24.4146V35.6157H36.0014V39.454Z" fill="#231F20"/>
<path d="M17.4687 39.454H2.58984V21.125H6.97442V35.6157H17.4687V39.454Z" fill="#231F20"/>
<path d="M103.302 32.138C105.53 31.0742 106.809 29.2197 106.809 27.0059C106.809 25.5683 106.263 24.2026 105.271 23.1532C103.977 21.8019 102.166 21.1406 99.7365 21.1406H89.6016V39.4697H93.9862V32.9143H98.9027L102.511 39.4697H107.557L103.302 32.1524V32.138ZM100.153 29.1047H94.0005V24.9071H99.8802C100.57 24.9071 101.275 24.9933 101.835 25.5971C102.195 25.9565 102.396 26.4453 102.396 26.9916C102.396 28.1991 101.433 29.1047 100.153 29.1047Z" fill="#231F20"/>
<path d="M111.599 18.3172H96.7344V0.03125H101.119V14.4789H111.599V18.3172Z" fill="#231F20"/>
<path d="M93.7305 18.3172H77.7734V0.03125H93.098V3.88397H82.158V6.87406H88.7421V10.7124H82.158V14.4789H93.7305V18.3172Z" fill="#231F20"/>
<path d="M67.5513 18.3172H63.8711L55.375 0.03125H60.3346L65.7974 12.7825L71.2602 0.03125H76.0473L67.5513 18.3172Z" fill="#231F20"/>
<path d="M10.8536 18.3172H6.46907V3.88397H0V0.03125H17.2939V3.88397H10.8536V18.3172Z" fill="#231F20"/>
<path d="M50.6463 0.03125H46.9805L38.4844 18.3315H43.1422L44.7523 14.5651H52.6732L54.312 18.3315H59.128L50.6319 0.03125H50.6463ZM46.3048 11L48.7199 5.36463L51.1351 11H46.3048Z" fill="#231F20"/>
<path d="M33.1388 11.0208C35.3671 9.957 36.6321 8.10261 36.6321 5.88875C36.6321 4.45118 36.0858 3.09979 35.0939 2.03598C33.8001 0.684668 31.9888 0.0234375 29.5737 0.0234375H19.4531V18.3237H23.8377V11.7684H28.7399L32.3338 18.3237H37.3653L33.1101 11.0208H33.1388ZM29.9905 8.00194H23.8521V3.81865H29.7174C30.4074 3.81865 31.1118 3.90487 31.6725 4.50865C32.0319 4.86805 32.2332 5.35685 32.2332 5.88875C32.2332 7.08194 31.27 8.00194 29.9905 8.00194Z" fill="#231F20"/>
</svg>
