<svg width="158" height="29" viewBox="0 0 158 29" fill="none" xmlns="http://www.w3.org/2000/svg">
<path d="M74.1408 16.753C74.1408 16.753 74.24 16.815 74.2771 16.8522C75.3184 15.8605 76.3473 14.8688 77.2894 13.7903C77.5126 13.5424 77.4134 13.3316 77.2027 13.1333C76.3473 12.3027 75.4052 11.5961 74.4879 10.8399C74.4135 10.778 74.3267 10.6788 74.2028 10.7408C74.0912 10.8028 74.116 10.9268 74.116 11.0259C74.116 12.935 74.116 14.844 74.116 16.753M65.6121 13.5919C65.6121 11.2614 65.6121 8.93093 65.6121 6.60042C65.6121 6.32771 65.6741 6.00539 65.4261 5.81945C65.1286 5.58392 64.7815 5.23684 64.3972 5.3732C64.0501 5.49716 64.2237 5.95582 64.2237 6.25333C64.2237 9.68711 64.1865 13.1209 64.2237 16.5423C64.2361 17.8315 63.7155 18.7488 62.637 19.3686C61.4717 20.0504 60.1825 20.2736 58.8437 20.286C58.6578 20.286 58.4222 20.286 58.3602 20.0628C58.2982 19.8149 58.5338 19.7158 58.7074 19.6662C59.8726 19.3315 60.1205 18.5505 60.0833 17.3976C59.9966 14.8936 60.0461 12.3895 60.0709 9.88544C60.0709 9.27802 59.9469 8.80696 59.3643 8.48465C58.8561 8.19954 59.1784 7.91443 59.4883 7.71609C60.5172 7.03429 61.5461 6.3773 62.5626 5.68311C62.8973 5.45997 63.5047 5.29879 63.4675 4.95169C63.4303 4.5674 62.8105 4.57982 62.4263 4.46825C58.5462 3.303 54.7529 3.68727 51.0092 5.07566C50.5629 5.23681 50.1291 5.44757 49.6952 5.63351C49.4969 5.72029 49.2862 5.85665 49.1126 5.63351C48.9762 5.43517 49.125 5.26162 49.2614 5.12526C51.877 2.15014 55.0133 0.241108 59.104 0.365072C61.2362 0.427053 63.232 1.19561 65.2278 1.9022C66.9137 2.49723 68.6121 3.09227 70.4343 3.07987C71.0417 3.07987 71.6367 3.03027 72.1946 2.75755C72.3681 2.67078 72.5665 2.57161 72.7276 2.75755C72.8888 2.9559 72.7524 3.11705 72.616 3.26581C71.8474 4.12116 71.1285 5.01371 70.1616 5.64592C69.3806 6.16657 68.55 6.45167 67.5831 6.21614C66.8393 6.04259 66.7774 6.09219 66.7774 6.88555C66.7774 10.8152 66.7774 14.7448 66.7774 18.6744C66.7774 19.319 66.7774 19.9761 66.7774 20.6207C66.7774 21.0669 66.9385 21.1909 67.3724 21.0669C68.1038 20.8686 68.8104 20.6207 69.5046 20.3232C69.8393 20.1744 69.988 19.9265 69.988 19.567C69.988 17.2737 69.988 14.9927 69.988 12.6994C69.988 12.3895 69.9012 12.1044 69.6905 11.8689C69.3806 11.5094 69.5046 11.2738 69.8889 11.0507C71.7855 9.98462 73.7689 9.06728 75.616 7.90202C75.9507 7.69129 76.2606 7.75329 76.5581 8.00122C77.9465 9.16647 79.2976 10.3813 80.5373 11.7077C81.0207 12.2284 80.9959 12.3399 80.4505 12.7738C78.5167 14.3357 76.6573 15.972 75.0086 17.8315C74.7978 18.0794 74.6119 18.3398 74.4507 18.6249C74.1036 19.2199 74.364 19.9761 75.0086 20.2488C75.5292 20.4719 76.0622 20.4719 76.5953 20.3604C77.5498 20.1744 78.4671 19.8645 79.372 19.4926C79.5332 19.4306 79.7067 19.3562 79.8431 19.5174C79.9546 19.6661 79.8803 19.8025 79.7687 19.9265C79.0249 20.7446 78.3184 21.5876 77.5374 22.3561C76.5953 23.2983 75.43 23.4718 74.178 23.1743C72.7772 22.852 71.5499 22.195 70.5582 21.1413C70.2607 20.8314 70.0872 20.8562 69.7525 21.0917C64.7691 24.7487 59.4139 25.0957 53.9471 22.4429C50.9224 20.9678 49.3977 18.4017 49.6705 14.8812C49.8068 13.1581 50.5878 11.6581 51.7406 10.3689C53.7612 8.11279 56.3644 6.73677 59.1288 5.6211C59.2899 5.55912 59.4883 5.48474 59.5999 5.65829C59.761 5.91861 59.5131 6.03019 59.352 6.16655C57.4554 7.77807 55.757 9.58795 54.976 11.9928C54.1703 14.4721 54.381 16.9266 55.9926 19.0711C57.0958 20.5463 58.7693 21.1413 60.542 21.4141C61.98 21.6372 63.4179 21.6 64.8683 21.4512C65.4013 21.4017 65.5625 21.2033 65.5625 20.695C65.5377 18.3273 65.5625 15.9473 65.5625 13.5672" fill="#010101"/>
<path d="M16.5474 13.5458C16.5474 11.2153 16.5474 8.88483 16.5474 6.55432C16.5474 6.2816 16.6218 5.95929 16.3491 5.77335C16.0392 5.56261 15.7293 5.17833 15.3326 5.35188C14.9979 5.50063 15.159 5.93451 15.159 6.24441C15.159 9.62861 15.1095 13.0252 15.1714 16.4094C15.2086 18.0581 14.4401 19.0622 13.0269 19.6696C12.0476 20.0911 11.0062 20.2895 9.94016 20.2771C9.71702 20.2771 9.40715 20.339 9.35756 20.0167C9.30798 19.7068 9.63029 19.6696 9.82863 19.5705C9.9402 19.5085 10.0641 19.4713 10.1881 19.4217C10.8079 19.1614 11.1054 18.7523 11.1054 18.0333C11.0682 15.3185 11.093 12.5913 11.1054 9.87653C11.1054 9.34349 11.0186 8.86002 10.4856 8.55011C9.98974 8.2526 10.0022 8.05427 10.498 7.70717C11.5517 6.98819 12.6178 6.3064 13.6715 5.58741C13.9566 5.38907 14.4772 5.26508 14.4276 4.90559C14.3904 4.57089 13.8574 4.5957 13.5475 4.49653C9.86582 3.34367 6.22129 3.66598 2.61396 4.85603C1.91976 5.07917 1.25033 5.40148 0.568533 5.67419C0.407381 5.73618 0.23389 5.82295 0.0851337 5.67419C-0.0884149 5.48825 0.0354818 5.30229 0.171841 5.15353C2.73788 2.33957 5.72546 0.356146 9.69229 0.34375C11.9608 0.34375 14.0433 1.13714 16.1383 1.88092C17.7622 2.45115 19.3986 3.02137 21.1589 3.07096C21.8779 3.08335 22.5845 3.03377 23.2415 2.72386C23.4026 2.64948 23.5638 2.55029 23.7125 2.73623C23.8241 2.87259 23.7621 3.03378 23.6629 3.15774C22.758 4.22383 21.853 5.31469 20.5762 5.97169C19.944 6.3064 19.2746 6.38078 18.568 6.20723C17.8738 6.03368 17.7375 6.14525 17.7251 6.82704C17.7251 11.4013 17.7251 15.9755 17.7251 20.5622C17.7251 21.0704 17.8986 21.1944 18.3821 21.0828C19.2002 20.8845 19.9812 20.587 20.7498 20.2275C20.9605 20.1283 21.1961 19.93 21.3696 20.2275C21.5308 20.4878 21.2952 20.6738 21.1217 20.8225C19.944 21.8638 18.6052 22.6324 17.1301 23.1778C14.1674 24.2811 11.1426 24.3802 8.0807 23.6612C5.76259 23.1158 3.66766 22.1117 2.16771 20.1779C-0.014046 17.3515 0.18428 13.3723 2.53958 10.6203C4.57258 8.25262 7.20058 6.83942 10.0269 5.68656C10.2129 5.61219 10.4732 5.46343 10.6096 5.72375C10.7708 6.02126 10.4484 6.13283 10.2749 6.26919C8.53939 7.68238 7.17584 9.36829 6.20892 11.4013C5.18003 13.5707 5.36595 17.9837 7.65927 19.806C8.83692 20.7357 10.1633 21.2192 11.6137 21.4423C13.0269 21.6655 14.4525 21.6283 15.878 21.4795C16.3863 21.4299 16.5474 21.2316 16.535 20.7605C16.5102 19.5457 16.535 18.3432 16.535 17.1284V13.5707" fill="#010101"/>
<path d="M103.445 15.2708C103.445 16.4112 103.445 17.5517 103.445 18.7046C103.445 20.4276 103.272 20.2665 105.069 20.2789C105.553 20.2789 105.763 20.1053 105.763 19.6095C105.751 16.9814 105.763 14.341 105.763 11.713C105.763 10.7461 105.615 10.585 104.71 10.2503C103.817 9.91555 103.458 10.1635 103.458 11.1304C103.458 12.5064 103.458 13.8948 103.458 15.2708M99.3174 15.841C99.3174 14.4774 99.3669 13.1138 99.3174 11.7626C99.1686 8.53956 102.764 7.33712 104.908 8.58915C106.42 9.48168 106.433 9.45687 107.858 8.37839C108.813 7.64701 109.011 7.67179 109.718 8.63871C110.102 9.15935 110.462 9.69242 110.858 10.2131C111.119 10.5478 111.156 10.8577 110.722 11.056C109.929 11.4031 109.78 12.0105 109.792 12.8287C109.842 15.0352 109.829 17.2294 109.792 19.4359C109.792 20.3161 110.053 21.0846 110.548 21.7912C111.875 23.6631 111.813 24.3325 110.177 25.9812C109.42 26.7374 108.577 27.3696 107.66 27.8902C106.693 28.4356 105.639 28.6464 104.536 28.3241C103.768 28.101 102.999 27.8778 102.255 27.6051C101.053 27.196 99.8752 27.0101 98.6727 27.6175C98.524 27.6919 98.3504 27.8035 98.2017 27.6423C98.0653 27.4935 98.1149 27.32 98.1645 27.1465C98.8339 24.8779 102.305 23.5143 104.363 24.7167C104.735 24.9399 105.106 25.163 105.466 25.3986C105.9 25.6713 106.371 25.7952 106.892 25.7333C107.685 25.6217 107.908 25.1754 107.487 24.506C106.966 23.6631 106.408 22.8449 106.049 21.9028C105.887 21.4813 105.677 21.4565 105.317 21.7169C104.722 22.1507 104.115 22.5598 103.483 22.9317C101.908 23.849 99.8008 22.8821 99.4413 21.097C99.3545 20.7004 99.3174 20.2789 99.3174 19.8698C99.305 18.531 99.3174 17.1922 99.3174 15.8534" fill="#010101"/>
<path d="M21.7306 14.1698V8.21961C21.7306 7.73615 21.7058 7.27748 21.1728 7.01716C20.8753 6.8684 20.9497 6.62046 21.1356 6.42212C22.4744 5.02134 23.8257 3.63298 25.1769 2.23219C25.3008 2.10823 25.4372 1.97185 25.6355 2.05863C25.871 2.17019 25.8587 2.40574 25.8711 2.61648C25.8711 4.30238 25.8711 5.97585 25.8711 7.66175C25.8711 8.13282 25.8711 8.6163 25.8711 9.08736C25.8711 9.44686 25.9578 9.5956 26.3173 9.34768C26.5156 9.21132 26.714 9.09973 26.9247 8.97576C28.5734 7.99645 31.2015 8.5915 32.3172 10.203C32.5775 10.5749 32.5898 11.0212 32.5898 11.4427C32.5898 14.9384 32.5898 18.4342 32.5898 21.9299C32.5898 24.558 31.2883 25.7108 29.2057 26.4794C28.3503 26.7893 27.4702 26.9876 26.5652 27.1116C26.3669 27.1364 26.1437 27.1736 26.057 26.9504C25.9454 26.6901 26.1562 26.5538 26.3545 26.4546C27.7925 25.6736 28.3751 24.4588 28.3503 22.8349C28.3007 19.1904 28.3503 15.5458 28.3379 11.9013C28.3379 10.922 27.0115 10.0914 26.1066 10.4881C25.8835 10.5873 25.8711 10.7856 25.8711 10.9716C25.8711 13.8599 25.8711 16.7607 25.8711 19.649C25.8711 20.2193 26.2925 20.4672 26.714 20.6903C27.2222 20.9382 27.1602 21.1986 26.7511 21.4837C26.0569 21.9672 25.3628 22.4382 24.681 22.9216C24.2843 23.1944 23.9248 23.1572 23.5654 22.8473C23.0695 22.4258 22.6232 21.9672 22.2017 21.4837C21.8422 21.0746 21.6935 20.6283 21.6935 20.0705C21.7183 18.1119 21.7059 16.1409 21.7059 14.1822L21.7306 14.1698Z" fill="#010101"/>
<path d="M147.116 14.1161C147.116 12.1575 147.116 10.1865 147.116 8.22788C147.116 7.74442 147.104 7.31054 146.571 7.01303C146.161 6.78989 146.434 6.50478 146.657 6.28165C147.401 5.51307 148.157 4.73211 148.913 3.96354C149.434 3.4181 149.967 2.87267 150.488 2.33962C150.636 2.19087 150.785 1.98012 151.021 2.05449C151.318 2.15366 151.256 2.43877 151.256 2.6619C151.256 4.73209 151.256 6.80229 151.256 8.87247C151.256 9.05842 151.17 9.31876 151.331 9.43032C151.541 9.57908 151.703 9.30634 151.889 9.21957C152.508 8.93445 153.017 8.4014 153.748 8.35181C154.913 8.27743 155.855 8.87247 156.822 9.40551C157.64 9.86417 158.012 10.546 158 11.5253C157.95 15.0211 157.95 18.5168 158 22.0126C158.025 24.0332 157.07 25.372 155.31 26.2026C154.256 26.6984 153.116 26.9587 151.95 27.1075C151.752 27.1323 151.541 27.1695 151.442 26.9339C151.343 26.6612 151.566 26.562 151.752 26.4505C153.215 25.6571 153.81 24.3555 153.822 22.7564C153.835 19.1738 153.822 15.5913 153.822 12.0087C153.822 10.9675 152.508 10.0997 151.517 10.4592C151.281 10.546 151.256 10.7319 151.256 10.9303V19.6077C151.256 20.1779 151.641 20.4383 152.087 20.649C152.57 20.8721 152.595 21.1449 152.161 21.4424C151.479 21.9258 150.785 22.4093 150.103 22.8927C149.707 23.1654 149.347 23.1407 148.988 22.8183C148.467 22.3597 147.971 21.8886 147.525 21.3556C147.215 20.9961 147.091 20.587 147.091 20.1035C147.104 18.0953 147.091 16.0872 147.091 14.0789" fill="#010101"/>
<path d="M141.381 15.8966C141.381 14.1735 141.381 12.4504 141.381 10.7273C141.381 10.4174 141.431 10.0455 140.985 9.95872C140.191 9.80996 139.212 10.6157 139.212 11.4215V20.2105C139.212 21.5741 139.212 21.5493 140.6 21.7229C141.232 21.8096 141.394 21.5741 141.394 20.9914C141.369 19.2931 141.394 17.5825 141.394 15.8842M135.071 19.5163C135.071 17.1238 135.071 14.7313 135.071 12.3388C135.071 12.0537 135.072 11.7686 135.034 11.4959C134.935 10.9504 134.625 10.7769 134.105 10.9876C133.857 11.0868 133.596 11.248 133.398 10.9876C133.175 10.6777 133.485 10.529 133.671 10.3554C134.452 9.64882 135.245 8.94224 136.026 8.23565C136.633 7.67781 136.906 7.6778 137.501 8.26043C137.836 8.59513 138.183 8.92981 138.493 9.2893C138.753 9.59921 139.001 9.59925 139.336 9.4009C139.906 9.0662 140.501 8.74389 141.108 8.45877C142.844 7.64061 145.385 9.11576 145.422 11.0372C145.484 14.4462 145.435 17.8552 145.422 21.2642C145.422 21.7972 145.175 22.2063 144.716 22.5038C143.997 22.9501 143.241 23.198 142.385 23.0616C141.592 22.9377 140.811 22.8261 140.018 22.7021C139.336 22.603 139.224 22.6897 139.212 23.3963C139.212 24.0657 139.175 24.7351 139.212 25.4045C139.261 26.1731 138.89 26.669 138.257 27.0285C137.464 27.4871 136.596 27.7474 135.716 27.9706C135.208 28.1069 135.071 27.7722 135.059 27.3508C135.047 26.5822 135.059 25.8012 135.059 25.0202V19.5163" fill="#010101"/>
<path d="M128.201 17.1769V15.491C128.201 14.2018 127.626 13.8754 126.478 14.5117C126.205 14.6605 126.019 14.8092 126.031 15.1439C126.031 16.8298 126.032 18.5033 126.056 20.1892C126.056 20.4248 126.131 20.6603 126.205 20.8834C126.329 21.2057 126.589 21.3421 126.924 21.3049C127.494 21.2429 128.201 20.4868 128.201 19.8917C128.201 18.9868 128.201 18.0819 128.201 17.1769ZM132.354 15.677V19.557C132.354 19.8174 132.354 20.0653 132.465 20.3132C132.837 21.0694 133.11 21.1314 133.767 20.6231C133.866 20.5363 133.978 20.462 134.077 20.3876C134.238 20.2636 134.399 20.1397 134.585 20.3256C134.759 20.4992 134.796 20.7223 134.622 20.9082C133.829 21.7016 133.073 22.5445 132.118 23.1396C131.821 23.3255 131.498 23.2759 131.188 23.1396C130.445 22.8173 129.825 22.309 129.279 21.7264C129.019 21.4413 128.845 21.3669 128.498 21.6892C127.841 22.309 127.122 22.8544 126.23 23.1396C124.11 23.7966 121.953 22.2594 121.953 20.0529C121.953 18.6025 121.978 17.1645 121.953 15.7142C121.953 15.1811 122.139 14.896 122.635 14.6977C124.271 14.0283 125.895 13.3341 127.519 12.6275C128.238 12.3176 128.35 12.0201 128.201 11.0531C128.102 10.4457 127.68 10.173 127.122 10.0986C126.193 9.98707 125.387 10.3342 124.693 10.9416C124.222 11.3631 123.85 11.8589 123.478 12.3671C123.255 12.6647 122.994 12.925 122.622 12.6399C122.263 12.3548 122.585 12.0944 122.746 11.8713C123.391 11.0036 124.048 10.1482 124.705 9.29284C125.3 8.52427 126.23 8.33835 127.085 8.07803C128.027 7.79291 129.007 7.7929 129.949 8.10281C131.684 8.68544 132.279 10.0738 132.354 11.7226C132.416 13.0366 132.366 14.3506 132.366 15.677H132.354Z" fill="#010101"/>
<path d="M91.8064 16.8728C93.0956 15.8811 94.0873 14.8274 95.017 13.7117C95.2153 13.4638 95.0666 13.2654 94.8806 13.1043C94.0501 12.3977 93.2072 11.6911 92.3642 10.9969C92.2527 10.8977 92.1163 10.7738 91.9675 10.8234C91.7568 10.8977 91.8188 11.1085 91.8188 11.2696C91.8188 12.6084 91.8188 13.9348 91.8188 15.2736V16.8728H91.8064ZM87.666 16.1414C87.666 15.1249 87.666 14.1208 87.666 13.1043C87.666 12.6084 87.666 12.1374 87.3189 11.7035C87.0214 11.3316 87.4056 11.1828 87.666 11.0341C88.8188 10.4019 89.9841 9.79448 91.1369 9.16227C91.8311 8.77798 92.5377 8.39368 93.2195 7.9846C93.6162 7.73667 93.9385 7.71187 94.3228 8.04657C95.6864 9.23661 97.0748 10.4019 98.302 11.7283C98.7235 12.1745 98.6367 12.3977 98.2028 12.7448C96.1822 14.3687 94.236 16.0546 92.5501 18.038C92.1286 18.5339 91.8063 19.0297 92.141 19.6743C92.4633 20.2941 93.046 20.4305 93.6906 20.4057C94.8062 20.3685 95.8351 19.9718 96.864 19.5628C97.0872 19.476 97.3599 19.2281 97.5706 19.5132C97.7814 19.7983 97.4715 19.9719 97.3103 20.1578C96.7153 20.8148 96.0955 21.447 95.5253 22.1164C94.5088 23.2817 93.232 23.5048 91.8188 23.1453C90.48 22.7982 89.2899 22.1784 88.3354 21.1371C87.9139 20.6661 87.6784 20.1454 87.6908 19.5008C87.7156 18.3851 87.6908 17.2571 87.6908 16.129" fill="#010101"/>
<path d="M38.4429 16.7655C39.633 15.9226 40.5255 14.7945 41.5048 13.7532C41.7279 13.5053 41.5544 13.3317 41.3809 13.1582C40.6247 12.4268 39.8313 11.7326 38.976 11.1128C38.8148 11.0012 38.6661 10.7285 38.4305 10.8773C38.2446 10.9888 38.3313 11.2367 38.3313 11.4227C38.3313 12.997 38.3313 14.5714 38.3313 16.1457C38.3313 16.344 38.2569 16.5796 38.4553 16.7779M39.3479 23.3108C37.5132 23.1124 35.9016 22.4554 34.662 21.0175C34.2901 20.5836 34.1538 20.1001 34.1538 19.5299C34.1662 17.3233 34.1538 15.1292 34.1538 12.9227C34.1538 12.5136 34.1538 12.1169 33.8191 11.7822C33.5092 11.4599 33.7571 11.2243 34.0422 11.0756C34.9471 10.5797 35.8645 10.1087 36.7818 9.61282C37.7859 9.06738 38.79 8.50954 39.7817 7.9393C40.1164 7.74096 40.3891 7.70377 40.7114 7.97649C42.1494 9.17894 43.5254 10.4682 44.827 11.8194C45.1741 12.1789 45.1493 12.3896 44.7526 12.6871C42.8436 14.1375 41.1205 15.7986 39.4594 17.5341C39.2238 17.782 39.0008 18.0547 38.8148 18.3398C38.1454 19.3068 38.6289 20.348 39.8065 20.41C40.9966 20.472 42.0998 20.0629 43.1907 19.6539C43.2775 19.6291 43.3518 19.5795 43.4262 19.5423C43.6246 19.4555 43.8477 19.3191 44.0213 19.5299C44.232 19.7902 43.9965 19.9637 43.8477 20.1373C43.2279 20.8191 42.5957 21.5009 41.9635 22.1827C41.2569 22.9141 40.4264 23.3727 39.3727 23.3232" fill="#010101"/>
<path d="M85.8287 10.1191C85.8287 13.1562 85.8411 16.2057 85.8163 19.2428C85.8163 19.9618 86.0394 20.4205 86.684 20.7428C87.2295 21.0155 87.2542 21.2262 86.7956 21.5857C86.0766 22.1683 85.3205 22.7138 84.6015 23.2964C84.3164 23.5319 84.0684 23.5195 83.8081 23.2592C83.6097 23.0609 83.3866 22.8873 83.1635 22.7138C82.0726 21.908 81.6139 20.9163 81.6387 19.4659C81.7503 15.0652 81.6759 10.6646 81.6759 6.26386C81.6759 5.87957 81.8247 5.44569 81.1057 5.48288C80.7338 5.49528 80.833 5.12339 81.0065 4.90025C81.3164 4.51597 81.6512 4.14407 81.9735 3.77218C82.9156 2.6813 83.8577 1.59042 84.8246 0.51194C85.0229 0.288806 85.1965 -0.132675 85.5808 0.0408738C85.9155 0.202026 85.8163 0.611094 85.8163 0.921003C85.8163 3.9829 85.8163 7.04481 85.8163 10.1191" fill="#010101"/>
<path d="M113.039 16.2139C113.039 14.5776 113.039 12.9289 113.039 11.2925C113.039 11.1066 113.139 10.8587 112.915 10.7719C112.717 10.6975 112.581 10.9207 112.432 11.0322C112.382 11.0694 112.345 11.1314 112.283 11.1562C112.085 11.2925 111.899 11.6272 111.639 11.3545C111.378 11.0942 111.415 10.7471 111.676 10.4868C112.184 9.99094 112.717 9.50746 113.25 9.0364C113.523 8.78848 113.82 8.56535 114.068 8.30502C114.539 7.78438 115.048 7.82159 115.581 8.16868C115.915 8.39182 116.262 8.62733 116.51 8.96203C116.733 9.28433 116.969 9.3339 117.217 8.98681C117.304 8.86284 117.415 8.75129 117.514 8.65212C118.556 7.63562 118.841 7.64804 119.783 8.75131C119.932 8.92486 120.118 9.07361 120.291 9.24716C120.725 9.65624 121.134 9.61905 121.518 9.17278C121.704 8.96204 121.866 8.73889 122.064 8.52815C122.213 8.367 122.411 8.35462 122.597 8.46618C122.77 8.57775 122.808 8.76369 122.721 8.92484C122.151 10.0405 121.605 11.181 120.638 12.0115C120.056 12.5198 119.547 12.4826 118.952 11.9743C118.655 11.7264 118.395 11.4289 118.109 11.1686C117.923 10.995 117.7 10.9082 117.452 11.0074C117.205 11.1066 117.192 11.3421 117.192 11.5529C117.192 14.2553 117.155 16.9453 117.217 19.6477C117.242 21.0856 117.973 21.4575 119.262 20.8377C119.423 20.7634 119.585 20.6394 119.721 20.8253C119.894 21.0609 119.857 21.3088 119.684 21.5443C118.581 22.9699 116.027 23.5029 114.415 22.722C113.411 22.2385 112.903 21.6063 113.015 20.4162C113.126 19.0278 113.039 17.6147 113.039 16.2139Z" fill="#010101"/>
</svg>
