<svg width="151" height="39" viewBox="0 0 151 39" fill="none" xmlns="http://www.w3.org/2000/svg">
<path d="M117.25 10.8232C122.594 10.7654 126.299 13.699 127.534 19.082C127.862 20.4903 127.977 21.9569 128.209 23.5195L127.225 23.5C122.536 23.5 117.848 23.5002 113.159 23.5195C111.828 23.5195 111.847 23.4809 112.06 24.7344C112.291 26.2393 112.445 27.7836 112.851 29.25C113.989 33.2436 117.694 35.3468 121.591 35.2119C123.385 35.154 125.025 34.7099 126.511 33.6875C126.858 33.456 127.263 33.2244 127.476 33.8223C127.533 34.0152 127.457 34.3437 127.303 34.498C126.647 35.1733 126.009 35.8672 125.257 36.4268C118.697 41.3854 107.063 39.34 104.709 28.8633C103.937 25.4483 104.13 22.0138 105.461 18.6953C107.41 13.8333 111.848 10.8811 117.25 10.8232ZM85.2803 12.5986C86.4763 12.1935 87.576 11.731 88.7334 11.4609C93.2096 10.3612 97.3001 12.0784 99.7119 15.9951C101.12 18.2718 101.757 20.7611 101.776 23.4043C101.796 26.086 101.448 28.7102 100.31 31.1797C98.3222 35.4627 94.9456 37.9519 90.2959 38.7236C86.9197 39.283 83.582 38.8388 80.2637 38.2793C79.5112 38.1442 78.7583 37.971 78.0059 37.8359C77.6779 37.778 77.6006 37.6231 77.6006 37.3145C77.6199 27.5325 77.6396 17.7507 77.6396 7.96875C77.6396 7.21628 77.5235 6.44388 77.3691 5.69141C77.0797 4.32174 76.2887 3.41488 74.8418 3.16406C74.6682 3.14477 74.4751 3.12572 74.3594 3.0293C74.1857 2.89424 73.9736 2.68146 73.9736 2.50781C73.9741 2.35344 74.2242 2.08361 74.417 2.04492C77.176 1.50469 79.9353 1.00336 82.6943 0.482422C83.5047 0.328068 84.3156 0.173648 85.2803 0V12.5986ZM139.766 10.8633C142.486 10.7282 145.168 10.902 147.754 11.8281C148.41 12.0596 148.698 12.3491 148.641 13.082C148.563 13.9309 148.641 14.78 148.641 15.6289H148.757L148.776 15.668C148.776 16.6518 148.738 17.636 148.776 18.6006C148.795 19.1405 148.409 19.1594 148.081 19.2559C147.715 19.3906 147.638 19.102 147.503 18.832C146.847 17.5008 146.287 16.1117 145.477 14.877C144.435 13.2755 142.814 12.5229 140.885 12.5615C139.206 12.6001 137.972 13.5259 137.489 14.9922C136.891 16.8058 137.238 18.485 138.627 19.4883C139.765 20.2986 141.02 20.9346 142.274 21.5713C143.471 22.1886 144.725 22.6524 145.901 23.2891C150.377 25.6815 151.535 30.9676 148.525 35.0771C146.943 37.2381 144.686 38.2806 142.139 38.7051C138.299 39.3417 134.556 38.7824 130.852 37.6826C130.331 37.5283 130.1 37.2187 130.1 36.6592C130.08 34.4792 130.041 32.3186 129.964 30.1387C129.964 29.6949 130.158 29.5591 130.505 29.4434C130.948 29.2894 131.084 29.5978 131.199 29.9062C131.855 31.4883 132.569 33.0325 133.707 34.3252C135.424 36.2931 137.566 37.0836 140.132 36.4277C141.772 36.0033 142.66 34.7689 142.988 33.2061C143.336 31.4889 142.756 29.9835 141.193 29.1152C139.804 28.3435 138.337 27.7072 136.871 27.0898C135.251 26.3953 133.63 25.7003 132.376 24.3691C130.833 22.7485 130.35 20.7998 130.543 18.6582C130.91 14.6257 133.418 12.4069 137.064 11.2686C137.933 10.9984 138.859 10.9212 139.766 10.8633ZM40.6748 10.8311C44.0705 10.9275 47.0809 11.9305 49.4541 14.458C51.4028 16.5418 52.4056 19.0507 52.8301 21.8291C52.9651 22.7744 53.0036 23.7391 53.0615 24.2793L53.043 24.9834C52.9066 28.5676 52.1305 31.6306 50.0322 34.2354C47.6977 37.1292 44.6688 38.6725 40.9453 38.8848C38.9194 39.0005 36.9509 38.9431 35.0215 38.2871C31.6837 37.1488 29.3689 34.891 28.0762 31.6689C26.4748 27.6751 26.3584 23.565 27.709 19.4746C29.5999 13.8023 34.4622 10.6382 40.6748 10.8311ZM30.1758 0.768555C30.2144 1.63665 30.2922 2.50495 30.3115 3.37305C30.3694 5.66905 30.3693 7.98524 30.4658 10.2812C30.485 10.9368 30.3109 11.2646 29.6553 11.3418C29.4044 11.3611 29.1727 11.458 28.9219 11.5352C28.536 10.5897 28.1884 9.68245 27.7832 8.79492C26.78 6.59565 25.4104 4.70495 23.0762 3.74023C22.3237 3.43153 21.5513 3.25805 20.7217 3.27734C18.696 3.31592 16.6702 3.27711 14.6445 3.25781H13.8535C13.8149 3.99089 13.7371 4.68538 13.7178 5.37988C13.6406 9.50881 13.5635 13.6572 13.4863 17.7861C13.4863 18.6736 13.4865 18.6929 14.3545 18.6543C15.7437 18.5964 17.1138 18.5191 18.5029 18.4033C19.4483 18.3261 20.2398 17.825 20.6836 17.0146C21.2045 16.0885 21.6676 15.0656 21.957 14.043C22.1307 13.445 22.3043 13.1946 22.9023 13.291C23.0759 13.3103 23.2498 13.291 23.4619 13.291V25.8125H22.1689C22.0339 25.3302 21.9371 24.8283 21.7441 24.3652C21.4548 23.6515 21.1844 22.9374 20.7793 22.3008C20.1234 21.2785 19.1783 20.7001 17.9053 20.6807C16.4583 20.6614 15.0302 20.5647 13.5254 20.5068C13.5061 20.8155 13.4668 21.028 13.4668 21.2402C13.6019 24.8867 13.7568 28.5137 13.9111 32.1602C13.9304 32.7004 14.1037 33.2605 14.2002 33.8008C14.6248 35.8842 16.1106 36.6364 18.0205 36.8486C18.1749 36.8679 18.3105 36.8872 18.4648 36.9258C19.1205 37.0545 19.4034 37.4792 19.3135 38.1992H0L0.0380859 38.1611V37.0029C0.597617 36.9065 1.13847 36.7715 1.67871 36.6943C3.16425 36.4821 4.22546 35.6909 4.61133 34.2246C4.90072 33.1442 5.18969 32.0252 5.20898 30.9062C5.32475 24.8286 5.42188 18.7508 5.42188 12.6924C5.42186 10.5315 5.15142 8.37061 4.99707 6.19043C4.97778 5.80455 4.86186 5.43788 4.74609 5.07129C4.22516 3.2964 3.20286 2.46619 1.37012 2.25391C0.945645 2.21532 0.539972 2.13894 0.0576172 2.08105V0.768555H30.1758ZM68.7061 11.9385C70.5776 10.6844 72.604 10.3181 74.7842 11.0898C75.305 11.2635 75.4786 11.4759 75.2471 12.0547C74.4174 14.1577 73.626 16.2993 72.835 18.4023L72.0381 18.1543C71.2412 17.8839 70.4955 17.6162 69.7285 17.457C68.1851 17.1484 66.6801 17.283 65.291 18.1318C64.828 18.4212 64.5774 18.7691 64.5967 19.3672C64.6739 23.7662 64.6931 28.1459 64.751 32.5449C64.751 33.2781 64.8864 34.0305 65.0215 34.7637C65.253 35.9213 65.9283 36.6542 67.1631 36.8086C67.5682 36.8665 67.9736 36.925 68.3594 36.9443C69.4201 37.0215 69.4197 37.0214 69.2461 38.1787H53.4258C53.2522 37.1178 53.2516 37.0789 54.2354 36.9053C55.9525 36.6159 56.7629 36.0373 56.9365 33.7607C57.3417 28.4356 57.3036 23.1103 57.0527 17.7852C57.0527 17.38 56.9754 16.9747 56.8789 16.5889C56.5316 14.9296 55.9911 14.4281 54.3125 14.1387C54.139 14.1002 53.9465 14.1188 53.8115 14.0225C53.6379 13.9067 53.3867 13.7137 53.3867 13.54C53.3869 13.3664 53.6184 13.0776 53.792 13.0391C54.9689 12.7497 56.1649 12.5174 57.3418 12.2666C59.6764 11.7843 62.0111 11.3215 64.3457 10.8584C64.4421 10.8391 64.5578 10.8581 64.7119 10.8389V16.6084C64.7119 16.6084 64.8093 16.6467 64.8672 16.666C65.0794 16.3188 65.311 15.9713 65.5039 15.624C66.3142 14.1771 67.317 12.8838 68.7061 11.9385ZM41.8516 13.5713C40.501 12.2786 38.4946 12.3361 37.3369 13.7832C36.7389 14.5355 36.2953 15.4422 36.0059 16.3682C35.1183 19.0115 35.06 21.7711 35.0986 24.7617L35.0469 25.5762C35.0385 27.5005 35.1926 29.5874 35.7158 31.6299C36.1403 33.3085 36.6614 34.9685 37.9541 36.2227C39.2081 37.4381 41.0606 37.4958 42.2568 36.2227C42.8935 35.5667 43.4913 34.7366 43.7422 33.8877C44.2052 32.267 44.5527 30.5885 44.707 28.8906C44.9964 25.4564 44.9963 21.9836 44.3018 18.5879C43.9159 16.7164 43.2986 14.9412 41.8516 13.5713ZM91.8594 16.6895C90.451 14.3743 88.6758 13.641 85.9941 14.374C85.589 14.4898 85.4531 14.6446 85.4531 15.0498V25.6035L85.376 25.623C85.4531 29.1152 85.5117 32.6075 85.5889 36.0996C85.5889 36.5238 85.6466 36.8514 86.167 36.9287C87.9033 37.1409 89.505 36.7747 90.5469 35.3086C91.28 34.2861 91.9168 33.1475 92.3799 31.9707C93.634 28.7487 93.731 25.3527 93.4609 21.957C93.3259 20.1048 92.8433 18.3101 91.8594 16.6895ZM118.601 13.7754C117.848 12.4636 116.44 12.271 115.282 13.2549C114.781 13.6793 114.279 14.2194 114.009 14.8174C113.488 15.9942 113.083 17.2292 112.735 18.4639C112.485 19.4092 112.387 20.4126 112.214 21.4736C114.896 21.3965 117.424 21.3389 120.028 21.2617L120.023 20.2148C120.028 19.8725 120.028 19.5447 120.009 19.2168C119.932 18.368 119.874 17.4997 119.662 16.6895C119.392 15.7055 119.102 14.6629 118.601 13.7754Z" fill="#22629E"/>
</svg>
