<svg width="129" height="47" viewBox="0 0 129 47" fill="none" xmlns="http://www.w3.org/2000/svg">
<path d="M45.6181 14.0204C47.6507 16.0212 48.4429 18.9833 48.4694 21.774C48.4704 22.0035 48.4702 22.233 48.4698 22.4625C48.4698 22.567 48.4699 22.6715 48.4699 22.776C48.4701 23.0612 48.4698 23.3464 48.4696 23.6317C48.4693 23.94 48.4694 24.2483 48.4694 24.5566C48.4695 25.0901 48.4693 25.6237 48.469 26.1572C48.4685 26.9286 48.4684 27.7 48.4683 28.4714C48.4682 29.7231 48.4678 30.9747 48.4673 32.2264C48.4668 33.442 48.4664 34.6575 48.4662 35.8731C48.4662 35.9106 48.4662 35.9481 48.4662 35.9867C48.4661 36.3634 48.466 36.7401 48.466 37.1167C48.4654 40.2727 48.4644 43.4287 48.4632 46.5848C46.4412 46.5848 44.4193 46.5848 42.3361 46.5848C42.3178 46.0383 42.2996 45.4918 42.2809 44.9288C42.1625 45.0187 42.0441 45.1087 41.9221 45.2013C40.1049 46.5469 37.7902 47.239 35.5318 46.9256C34.1895 46.7074 33.0571 46.139 32.069 45.2048C32.0269 45.1662 31.9848 45.1276 31.9414 45.0879C30.5894 43.8064 30.261 42.0137 30.0439 40.2438C30.0373 40.1901 30.0307 40.1364 30.0239 40.0811C29.9291 39.2602 29.903 38.4405 29.9025 37.6149C29.9024 37.5659 29.9024 37.5169 29.9023 37.4665C29.9055 34.833 30.2426 32.2363 32.0138 30.1906C32.0539 30.1434 32.0939 30.0961 32.1352 30.0475C32.7329 29.3617 33.3896 28.7022 34.1114 28.1483C34.1799 28.093 34.2483 28.0375 34.3167 27.982C34.9908 27.4397 35.7067 26.9665 36.4288 26.4918C36.7825 26.2583 37.1306 26.0167 37.4785 25.7747C37.5774 25.7061 37.6763 25.6374 37.7752 25.5688C37.9927 25.4178 38.2099 25.2665 38.4271 25.1151C38.6309 24.973 38.8352 24.8314 39.0399 24.6903C39.915 24.0857 40.7695 23.4483 41.5633 22.7388C41.5917 22.7156 41.6201 22.6924 41.6493 22.6686C41.8257 22.5137 41.8888 22.436 41.9358 22.1984C41.9374 22.119 41.9372 22.0395 41.9356 21.9601C41.9362 21.8946 41.9362 21.8946 41.9368 21.8277C41.9377 21.6837 41.9362 21.5399 41.9346 21.3959C41.9345 21.2948 41.9346 21.1937 41.9347 21.0926C41.9347 20.8804 41.9336 20.6683 41.9316 20.4561C41.9291 20.1871 41.929 19.918 41.9298 19.6489C41.9301 19.4398 41.9294 19.2307 41.9283 19.0215C41.9279 18.9225 41.9278 18.8235 41.9279 18.7245C41.9283 17.5403 41.7219 16.25 40.8802 15.349C40.4662 14.9589 40.0089 14.8746 39.4549 14.885C39.1765 14.9055 38.9835 14.9766 38.7481 15.1213C38.7157 15.1381 38.6832 15.1549 38.6498 15.1722C37.889 15.6217 37.5663 16.7043 37.3518 17.5047C37.2231 18.0239 37.2173 18.5329 37.2187 19.0652C37.218 19.1573 37.2172 19.2494 37.2163 19.3415C37.2137 19.677 37.2134 20.0125 37.2129 20.3479C37.2095 21.1005 37.2061 21.853 37.2025 22.6284C35.0713 22.6284 32.9401 22.6284 30.7442 22.6284C30.4194 20.0294 30.9346 17.1078 32.5106 14.9716C32.6183 14.8349 32.7287 14.7016 32.8418 14.5693C32.8782 14.5261 32.9147 14.4829 32.9522 14.4384C34.4651 12.6862 36.7703 11.956 39.0135 11.7886C41.4483 11.6277 43.8329 12.3046 45.6181 14.0204ZM41.5874 26.9373C41.1827 27.2096 40.7732 27.4729 40.3592 27.7308C40.3033 27.7657 40.2473 27.8006 40.1896 27.8366C39.9195 28.0045 39.6488 28.1715 39.3773 28.3372C38.914 28.6202 38.4552 28.907 38.0098 29.2178C37.9542 29.2561 37.9542 29.2561 37.8975 29.2953C37.2225 29.7749 36.9038 30.3261 36.7389 31.1385C36.684 31.4885 36.6813 31.836 36.6817 32.1895C36.6812 32.2704 36.6806 32.3513 36.68 32.4322C36.6786 32.6495 36.6782 32.8667 36.6781 33.084C36.6779 33.2203 36.6776 33.3566 36.6771 33.4928C36.6756 33.9698 36.6749 34.4468 36.6751 34.9238C36.6752 35.366 36.6734 35.8082 36.6708 36.2504C36.6686 36.6323 36.6677 37.0141 36.6679 37.396C36.6679 37.6231 36.6674 37.8502 36.6657 38.0773C36.664 38.2911 36.6641 38.5048 36.6653 38.7185C36.6654 38.7962 36.6651 38.8739 36.664 38.9516C36.6526 39.8877 37.0291 40.704 37.6648 41.3891C38.284 41.9688 38.9972 42.1484 39.8195 42.132C40.3582 42.1051 40.7768 41.8606 41.1592 41.4905C41.7942 40.7486 42.0798 39.7695 42.0733 38.8053C42.0735 38.7268 42.0735 38.7268 42.0736 38.6468C42.0738 38.473 42.0732 38.2993 42.0726 38.1256C42.0726 38.0004 42.0726 37.8753 42.0726 37.7501C42.0727 37.4114 42.072 37.0727 42.0713 36.7341C42.0706 36.3797 42.0705 36.0254 42.0704 35.671C42.0701 35.0766 42.0694 34.4822 42.0684 33.8878C42.0674 33.2758 42.0666 32.6638 42.0661 32.0518C42.0661 32.014 42.0661 31.9762 42.066 31.9373C42.0659 31.7478 42.0658 31.5583 42.0656 31.3687C42.0645 29.7984 42.0625 28.2282 42.0601 26.6579C41.9116 26.6579 41.7127 26.8522 41.5874 26.9373Z" fill="black"/>
<path d="M109.147 13.4202C110.511 14.516 111.477 15.869 112.222 17.4424C112.238 17.4757 112.254 17.5089 112.271 17.5432C113.914 20.9767 114.08 25.0885 113.964 28.8272C113.962 28.8992 113.96 28.9712 113.958 29.0454C113.954 29.1461 113.954 29.1461 113.951 29.2489C113.949 29.3087 113.947 29.3685 113.945 29.4301C113.933 29.5862 113.933 29.5862 113.878 29.807C109.798 29.807 105.717 29.807 101.513 29.807C101.518 31.5079 101.523 33.2087 101.527 34.9612C101.528 35.4968 101.529 36.0324 101.53 36.5842C101.532 37.0674 101.532 37.0674 101.534 37.5506C101.535 37.7646 101.535 37.9786 101.535 38.1926C101.535 38.4667 101.536 38.7408 101.538 39.0149C101.538 39.1148 101.538 39.2147 101.538 39.3145C101.534 40.6667 101.857 42.1516 102.821 43.1565C103.339 43.6394 103.874 43.8108 104.579 43.7909C105.154 43.735 105.548 43.4815 105.929 43.0547C106.709 42.0095 106.883 40.6316 106.885 39.3658C106.886 39.2879 106.886 39.21 106.887 39.1321C106.888 38.9236 106.889 38.7151 106.89 38.5065C106.891 38.2875 106.892 38.0685 106.894 37.8495C106.896 37.436 106.898 37.0226 106.9 36.6091C106.902 36.1379 106.905 35.6667 106.908 35.1954C106.914 34.2273 106.918 33.2591 106.923 32.2909C107.814 32.2896 108.706 32.2887 109.597 32.2881C110.011 32.2878 110.425 32.2874 110.839 32.2868C111.2 32.2862 111.56 32.2859 111.921 32.2857C112.112 32.2857 112.303 32.2855 112.494 32.2851C112.707 32.2846 112.92 32.2846 113.133 32.2847C113.197 32.2845 113.261 32.2843 113.326 32.2841C113.384 32.2841 113.442 32.2842 113.501 32.2843C113.577 32.2842 113.577 32.2842 113.654 32.2841C113.768 32.2909 113.768 32.2909 113.823 32.3461C113.886 32.7682 113.887 33.1966 113.889 33.6224C113.89 33.6848 113.89 33.7471 113.89 33.8114C113.891 34.0118 113.892 34.2122 113.892 34.4126C113.892 34.4809 113.892 34.5492 113.892 34.6196C113.891 35.6035 113.868 36.5618 113.712 37.5348C113.697 37.6425 113.681 37.7502 113.666 37.8578C113.244 40.6295 112.085 43.4904 109.766 45.2041C107.796 46.6023 105.197 47.164 102.808 46.818C102.632 46.7863 102.459 46.7442 102.286 46.6979C102.251 46.689 102.216 46.6801 102.18 46.671C100.967 46.358 99.9292 45.7407 99.0294 44.8763C98.9767 44.8271 98.924 44.7778 98.8697 44.7271C97.481 43.4075 96.671 41.5771 96.0487 39.798C96.0333 39.7544 96.018 39.7108 96.0022 39.6659C94.6686 35.8195 94.3808 31.5408 94.4461 27.5006C94.4481 27.3651 94.4496 27.2296 94.4511 27.0941C94.4955 23.234 94.9038 19.0053 97.2631 15.7864C97.3055 15.7283 97.3479 15.6703 97.3916 15.6105C97.7089 15.1839 98.0556 14.7909 98.4222 14.4064C98.463 14.3627 98.5038 14.3191 98.5458 14.274C101.384 11.3168 105.929 10.9003 109.147 13.4202ZM102.673 15.124C101.462 16.5363 101.487 18.4826 101.497 20.2366C101.498 20.4671 101.498 20.6976 101.498 20.9281C101.498 21.3627 101.5 21.7972 101.501 22.2317C101.504 22.8203 101.505 23.4089 101.506 23.9975C101.507 24.922 101.51 25.8465 101.513 26.771C103.226 26.771 104.938 26.771 106.702 26.771C106.74 26.3922 106.765 26.0307 106.764 25.6523C106.765 25.5986 106.765 25.5448 106.765 25.4894C106.765 25.3127 106.765 25.136 106.765 24.9594C106.765 24.8344 106.765 24.7095 106.765 24.5846C106.765 24.3224 106.765 24.0603 106.765 23.7981C106.764 23.4676 106.764 23.137 106.765 22.8065C106.767 21.0998 106.767 21.0998 106.734 19.3935C106.732 19.326 106.73 19.2585 106.727 19.1889C106.678 17.8233 106.447 16.261 105.449 15.2409C105.03 14.8545 104.628 14.5521 104.042 14.5101C103.512 14.533 103.041 14.7474 102.673 15.124Z" fill="black"/>
<path d="M80.5002 13.3937C80.761 13.6077 81.006 13.8366 81.2482 14.0712C81.2898 14.1107 81.2898 14.1107 81.3323 14.151C82.2942 15.064 83.0164 16.1802 83.5666 17.3831C83.5863 17.4256 83.6059 17.4681 83.6262 17.5119C84.9933 20.4884 85.3458 23.8477 85.3401 27.0908C85.3398 27.291 85.3401 27.4912 85.3405 27.6913C85.3405 27.8219 85.3404 27.9525 85.3403 28.0831C85.3404 28.1413 85.3405 28.1994 85.3406 28.2594C85.3391 28.777 85.3066 29.2835 85.2777 29.8029C81.1792 29.8029 77.0807 29.8029 72.8579 29.8029C72.8648 32.3252 72.8648 32.3252 72.8717 34.8985C72.8726 35.4278 72.8735 35.9572 72.8744 36.5025C72.8762 36.9804 72.8762 36.9804 72.8783 37.4583C72.8793 37.6698 72.8796 37.8813 72.8796 38.0928C72.8795 38.3639 72.8805 38.6349 72.8823 38.906C72.8828 39.0047 72.8829 39.1033 72.8826 39.202C72.8787 40.588 73.2027 42.1236 74.1827 43.1611C74.6944 43.6312 75.2663 43.8019 75.9508 43.7872C76.4353 43.7453 76.8992 43.5334 77.2187 43.1611C77.9959 42.1225 78.228 40.8432 78.2299 39.5748C78.2304 39.4947 78.2309 39.4147 78.2315 39.3347C78.233 39.1197 78.2339 38.9048 78.2346 38.6899C78.2355 38.4644 78.2369 38.2389 78.2384 38.0134C78.2409 37.5874 78.243 37.1614 78.2448 36.7355C78.2473 36.1591 78.2507 35.5828 78.254 35.0065C78.2592 34.0999 78.2632 33.1934 78.2675 32.2869C80.5444 32.2869 82.8214 32.2869 85.1673 32.2869C85.2965 33.7723 85.2965 33.7723 85.2915 34.3913C85.2911 34.4631 85.2907 34.5349 85.2903 34.6089C85.258 38.1528 84.5157 41.9536 81.9117 44.5421C80.0611 46.3196 77.5467 46.9244 75.0506 46.8747C73.0255 46.8224 71.3768 45.8902 69.9755 44.4793C66.8547 41.1818 66.1512 35.6928 65.9029 31.3485C65.9007 31.311 65.8985 31.2736 65.8962 31.235C65.8562 30.5384 65.8387 29.8441 65.8384 29.1463C65.8382 29.0443 65.838 28.9424 65.8378 28.8404C65.8375 28.6281 65.8374 28.4157 65.8374 28.2034C65.8374 27.9898 65.8371 27.7761 65.8363 27.5624C65.8235 23.8955 66.1421 20.1642 67.9452 16.8863C67.9663 16.8479 67.9873 16.8096 68.009 16.77C68.3138 16.2203 68.6493 15.7149 69.0492 15.2304C69.0744 15.1993 69.0995 15.1682 69.1255 15.1362C70.5009 13.4432 72.2946 12.3868 74.4035 11.8632C74.4625 11.8484 74.4625 11.8484 74.5227 11.8332C76.5772 11.3332 78.8773 12.1069 80.5002 13.3937ZM74.0413 15.1131C72.7474 16.488 72.8314 18.7146 72.8412 20.4696C72.8422 20.6919 72.8423 20.9142 72.8425 21.1366C72.843 21.5553 72.8443 21.974 72.846 22.3927C72.8482 22.9601 72.8491 23.5275 72.8501 24.0949C72.8516 24.9856 72.8549 25.8763 72.8579 26.767C74.5884 26.767 76.3189 26.767 78.1019 26.767C78.1051 25.4637 78.1051 25.4637 78.1073 24.1604C78.1079 23.628 78.1087 23.0955 78.1102 22.563C78.1113 22.175 78.112 21.787 78.1122 21.399C78.1124 21.1941 78.1127 20.9893 78.1135 20.7844C78.148 17.8089 78.148 17.8089 76.7971 15.2465C75.9343 14.4093 74.9584 14.2777 74.0413 15.1131Z" fill="black"/>
<path d="M17.7776 0.383021C17.8212 0.383044 17.8649 0.383068 17.9099 0.383092C18.2111 0.383256 18.5123 0.383449 18.8136 0.383668C18.8697 0.383708 18.8697 0.383708 18.9271 0.38375C19.6467 0.384293 20.3664 0.385434 21.0861 0.386471C21.0861 1.91659 21.0861 3.44671 21.0861 5.02319C18.7909 5.02319 16.4957 5.02319 14.131 5.02319C14.131 18.7396 14.131 32.456 14.131 46.5881C11.8176 46.5881 9.50418 46.5881 7.12069 46.5881C7.12069 32.8717 7.12069 19.1553 7.12069 5.02319C4.77086 5.02319 2.42103 5.02319 0 5.02319C0 3.51129 0 1.99939 0 0.44167C1.93521 0.432332 3.87041 0.42327 5.80562 0.414569C5.9163 0.414072 6.02699 0.413573 6.13767 0.413075C10.0176 0.395629 13.8976 0.380874 17.7776 0.383021Z" fill="black"/>
<path d="M48.3555 12.0781C50.596 12.0781 52.8365 12.0781 55.145 12.0781C55.2138 12.3192 55.2734 12.5372 55.316 12.7806C55.3322 12.8718 55.3322 12.8718 55.3486 12.9648C55.36 13.0308 55.3715 13.0969 55.3833 13.1649C55.3958 13.2358 55.4083 13.3068 55.4211 13.3799C55.4558 13.577 55.4902 13.7741 55.5245 13.9712C55.562 14.1859 55.5997 14.4006 55.6374 14.6152C55.7032 14.9904 55.7689 15.3657 55.8345 15.741C55.9303 16.2889 56.0263 16.8368 56.1224 17.3847C56.2441 18.0791 56.3659 18.7735 56.4875 19.468C56.7926 21.2105 57.0984 22.9529 57.4045 24.6952C57.4275 24.8263 57.4505 24.9573 57.4735 25.0884C57.5647 25.6076 57.6559 26.1269 57.7472 26.6462C57.9766 27.952 58.2059 29.2579 58.4352 30.5637C58.4838 30.841 58.5325 31.1183 58.5812 31.3956C58.6686 31.8931 58.7559 32.3906 58.8433 32.8882C58.9276 32.5682 58.9912 32.2501 59.0437 31.9235C59.0563 31.847 59.0563 31.847 59.0691 31.7688C59.097 31.5984 59.1246 31.428 59.1523 31.2575C59.1723 31.1347 59.1924 31.0118 59.2125 30.889C59.2672 30.5539 59.3217 30.2188 59.3762 29.8836C59.4284 29.5625 59.4808 29.2415 59.5332 28.9204C59.6382 28.277 59.743 27.6335 59.8478 26.9901C59.9468 26.3813 60.046 25.7725 60.1453 25.1637C60.1512 25.1271 60.1572 25.0904 60.1634 25.0526C60.1875 24.9046 60.2117 24.7566 60.2358 24.6087C60.6406 22.1264 61.0448 19.6441 61.4475 17.1615C61.4724 17.0082 61.4973 16.8549 61.5222 16.7016C61.5526 16.5139 61.5831 16.3262 61.6135 16.1385C61.6195 16.1019 61.6254 16.0653 61.6315 16.0275C61.7073 15.5608 61.7829 15.0941 61.8586 14.6274C61.9012 14.3642 61.9439 14.101 61.9866 13.8378C62.0063 13.7161 62.0261 13.5943 62.0458 13.4726C62.0726 13.3068 62.0995 13.1411 62.1264 12.9754C62.138 12.9031 62.138 12.9031 62.1499 12.8294C62.1572 12.785 62.1644 12.7406 62.1718 12.6949C62.178 12.6568 62.1842 12.6187 62.1905 12.5794C62.2132 12.4487 62.2396 12.3186 62.2656 12.1885C63.7411 12.1885 65.2166 12.1885 66.7368 12.1885C66.4195 14.0285 66.4195 14.0285 66.2869 14.7422C66.2714 14.8262 66.2559 14.9103 66.2404 14.9944C66.1988 15.2193 66.1571 15.4442 66.1154 15.6691C66.0701 15.9135 66.025 16.1579 65.9798 16.4024C65.9017 16.8246 65.8236 17.2468 65.7454 17.669C65.6306 18.2885 65.5161 18.9079 65.4015 19.5274C65.2598 20.2932 65.1182 21.0591 64.9765 21.8249C64.9655 21.8841 64.9546 21.9433 64.9433 22.0042C64.9323 22.0633 64.9214 22.1225 64.9101 22.1834C64.5479 24.1406 64.1862 26.098 63.8245 28.0553C63.7098 28.6764 63.595 29.2974 63.4802 29.9184C63.0743 32.115 62.6686 34.3115 62.2635 36.5082C62.1828 36.9457 62.1021 37.3832 62.0214 37.8206C62.01 37.8819 61.9987 37.9432 61.9871 38.0063C61.9417 38.2524 61.8963 38.4984 61.8509 38.7445C61.7188 39.4604 61.5868 40.1763 61.4549 40.8922C61.3726 41.3384 61.2903 41.7846 61.208 42.2307C61.1606 42.4875 61.1133 42.7443 61.066 43.0011C61.0223 43.2384 60.9785 43.4757 60.9347 43.713C60.9191 43.7974 60.9036 43.8819 60.888 43.9663C60.7277 44.8379 60.5573 45.7074 60.3889 46.5775C58.6402 46.5775 56.8915 46.5775 55.0898 46.5775C54.6478 44.3809 54.6478 44.3809 54.4925 43.6015C54.4816 43.547 54.4708 43.4925 54.4596 43.4364C54.1458 41.8611 53.8382 40.2847 53.5304 38.7082C53.5229 38.6697 53.5153 38.6311 53.5076 38.5914C53.3747 37.911 53.2419 37.2306 53.1092 36.5502C52.8685 35.3169 52.6274 34.0836 52.3859 32.8504C52.3779 32.8098 52.3699 32.7691 52.3617 32.7272C52.273 32.2744 52.1843 31.8216 52.0956 31.3688C51.9335 30.5408 51.7713 29.7129 51.6092 28.8849C51.6012 28.8441 51.5932 28.8032 51.585 28.7611C51.343 27.5257 51.1013 26.2902 50.8597 25.0546C50.8485 24.9974 50.8485 24.9974 50.8371 24.9391C50.6741 24.1053 50.5111 23.2715 50.3482 22.4377C50.2898 22.1389 50.2315 21.8402 50.1731 21.5414C50.1585 21.4667 50.1439 21.3919 50.1293 21.3171C49.9064 20.1763 49.683 19.0356 49.4593 17.8949C49.3996 17.5902 49.3399 17.2856 49.2802 16.9809C49.2719 16.9385 49.2635 16.896 49.255 16.8522C49.2134 16.6399 49.1718 16.4275 49.1302 16.2152C49.0412 15.7608 48.952 15.3064 48.8628 14.852C48.8024 14.5446 48.7422 14.2373 48.682 13.9299C48.6473 13.7524 48.6125 13.5749 48.5776 13.3975C48.5397 13.205 48.5021 13.0125 48.4644 12.8199C48.4477 12.7351 48.4477 12.7351 48.4306 12.6486C48.4156 12.5716 48.4156 12.5716 48.4003 12.4929C48.3916 12.4485 48.3829 12.404 48.3739 12.3582C48.3555 12.2437 48.3555 12.2437 48.3555 12.0781Z" fill="black"/>
<path d="M86.7188 0.0546875C88.8136 0.0546875 90.9084 0.0546875 93.0666 0.0546875C93.0666 15.4105 93.0666 30.7663 93.0666 46.5875C90.9718 46.5875 88.877 46.5875 86.7188 46.5875C86.7188 31.2317 86.7188 15.8758 86.7188 0.0546875Z" fill="black"/>
<path d="M128.061 11.4794C128.116 11.5346 128.116 11.5346 128.123 11.6405C128.123 11.6873 128.123 11.734 128.123 11.7822C128.123 11.8624 128.123 11.8624 128.123 11.9443C128.123 12.0034 128.123 12.0626 128.123 12.1235C128.123 12.1855 128.123 12.2474 128.123 12.3112C128.123 12.517 128.122 12.7228 128.122 12.9286C128.122 13.0708 128.122 13.213 128.121 13.3553C128.121 13.6921 128.121 14.0289 128.12 14.3658C128.12 14.7492 128.119 15.1325 128.119 15.5159C128.119 16.3048 128.118 17.0936 128.116 17.8825C128.086 17.8827 128.055 17.8829 128.023 17.8831C127.697 17.8854 127.371 17.8893 127.045 17.8939C126.924 17.8955 126.803 17.8966 126.682 17.8974C125.185 17.9077 123.515 18.1237 122.376 19.2072C121.774 19.8918 121.736 20.6292 121.74 21.4946C121.739 21.6031 121.739 21.7116 121.739 21.8201C121.737 22.1169 121.738 22.4137 121.738 22.7105C121.738 23.0311 121.737 23.3517 121.737 23.6722C121.735 24.2272 121.735 24.7822 121.735 25.3372C121.735 26.1396 121.734 26.942 121.732 27.7444C121.73 29.0463 121.729 30.3483 121.728 31.6502C121.728 32.9147 121.726 34.1792 121.725 35.4437C121.725 35.5022 121.725 35.5022 121.725 35.5619C121.724 35.9536 121.723 36.3453 121.723 36.737C121.722 37.5349 121.721 38.3328 121.72 39.1307C121.72 39.1858 121.72 39.1858 121.72 39.2419C121.716 41.6899 121.715 44.1379 121.713 46.586C119.546 46.586 117.378 46.586 115.145 46.586C115.145 35.1101 115.145 23.6342 115.145 11.8106C117.203 11.8106 119.261 11.8106 121.382 11.8106C121.4 12.3752 121.418 12.9399 121.437 13.5217C121.566 13.4352 121.695 13.3487 121.827 13.2595C123.635 12.0762 125.856 11.1312 128.061 11.4794Z" fill="black"/>
<path d="M29.8106 11.8656C29.8658 11.9208 29.8658 11.9208 29.8726 12.0268C29.8726 12.0735 29.8725 12.1203 29.8724 12.1685C29.8726 12.2487 29.8726 12.2487 29.8727 12.3305C29.8725 12.3897 29.8723 12.4489 29.8721 12.5098C29.8721 12.5717 29.8721 12.6337 29.8721 12.6975C29.8721 12.9033 29.8716 13.109 29.8712 13.3148C29.8711 13.4571 29.871 13.5993 29.871 13.7416C29.8708 14.0784 29.8703 14.4152 29.8698 14.7521C29.8692 15.1354 29.8689 15.5188 29.8686 15.9022C29.868 16.691 29.867 17.4799 29.8658 18.2687C29.793 18.2692 29.7202 18.2698 29.6452 18.2703C29.3694 18.2725 29.0937 18.2762 28.818 18.2802C28.6997 18.2817 28.5815 18.2829 28.4632 18.2837C26.9744 18.2942 25.2445 18.5012 24.1251 19.5935C23.6733 20.1288 23.5107 20.6582 23.5113 21.3573C23.5112 21.3941 23.5112 21.4309 23.5111 21.4689C23.511 21.5918 23.5113 21.7147 23.5116 21.8376C23.5117 21.9268 23.5117 22.0161 23.5116 22.1053C23.5116 22.3503 23.5119 22.5953 23.5123 22.8403C23.5127 23.1048 23.5127 23.3693 23.5128 23.6338C23.5129 24.0928 23.5133 24.5517 23.5138 25.0107C23.5145 25.6779 23.5148 26.3452 23.515 27.0124C23.5154 28.0998 23.516 29.1873 23.5168 30.2747C23.5168 30.3398 23.5169 30.4049 23.5169 30.4719C23.5173 31.0637 23.5178 31.6555 23.5182 32.2473C23.5185 32.6377 23.5188 33.0281 23.519 33.4185C23.5191 33.4826 23.5191 33.5467 23.5192 33.6128C23.5199 34.6926 23.5205 35.7724 23.5209 36.8522C23.5211 37.4564 23.5214 38.0606 23.5221 38.6648C23.5263 42.6971 23.5263 42.6971 23.5054 44.1767C23.5048 44.2148 23.5043 44.253 23.5037 44.2923C23.4932 45.0201 23.4774 45.7477 23.4627 46.4754C21.3133 46.4754 19.1638 46.4754 16.9492 46.4754C16.9492 35.1635 16.9492 23.8516 16.9492 12.1968C19.0076 12.1968 21.066 12.1968 23.1867 12.1968C23.2049 12.7615 23.2231 13.3262 23.2419 13.908C23.3558 13.8294 23.4696 13.7509 23.5869 13.67C25.3784 12.4685 27.6117 11.5302 29.8106 11.8656Z" fill="black"/>
<path d="M59.8359 0.210938C60.5281 0.210938 61.2203 0.210938 61.9335 0.210938C62.2256 0.722137 62.5155 1.2339 62.7994 1.74961C62.838 1.81952 62.8765 1.88942 62.9151 1.95933C63.1547 2.39426 63.3918 2.83048 63.6274 3.26759C63.8863 3.74771 64.1511 4.22415 64.4215 4.69788C64.7207 5.22302 65.0092 5.75293 65.3006 6.28283C65.3189 4.27911 65.3371 2.27538 65.3558 0.210938C66.0298 0.210938 66.7038 0.210938 67.3982 0.210938C67.3982 3.58084 67.3982 6.95074 67.3982 10.4228C66.7425 10.4228 66.0867 10.4228 65.411 10.4228C65.2556 10.1342 65.2556 10.1342 65.0971 9.83972C64.8527 9.38705 64.6037 8.93743 64.3485 8.4908C64.0361 7.94347 63.7403 7.38821 63.4464 6.83091C63.1598 6.28799 62.8667 5.74974 62.5613 5.21713C62.3448 4.83957 62.1401 4.45863 61.9335 4.07487C61.9153 6.16968 61.8971 8.26448 61.8783 10.4228C61.2043 10.4228 60.5303 10.4228 59.8359 10.4228C59.8359 7.05286 59.8359 3.68296 59.8359 0.210938Z" fill="black"/>
<path d="M27.984 0.217919C28.0651 0.251219 28.0651 0.251219 28.1478 0.285192C28.564 0.474363 28.8784 0.722043 29.1983 1.0459C29.2501 1.09586 29.2501 1.09586 29.3029 1.14682C29.7455 1.60638 30.1919 2.38301 30.1919 3.03307C29.9435 3.11198 29.695 3.19059 29.4463 3.26891C29.3618 3.29559 29.2772 3.32237 29.1927 3.34923C29.0713 3.38781 28.9497 3.42609 28.8281 3.46431C28.7903 3.47639 28.7526 3.48846 28.7136 3.5009C28.5557 3.55028 28.4266 3.58506 28.26 3.58506C28.2405 3.52643 28.2211 3.4678 28.2011 3.40739C28.0173 2.87329 27.8416 2.43194 27.3388 2.12574C27.0063 1.96889 26.6625 1.91417 26.3053 2.0259C25.8198 2.23259 25.5652 2.50587 25.3344 2.97787C24.7904 4.34235 24.6784 6.07522 25.2395 7.45762C25.442 7.89274 25.6635 8.26 26.1244 8.44258C26.5707 8.5636 26.9614 8.46959 27.3595 8.24874C27.907 7.89637 28.1419 7.32208 28.3704 6.73141C28.998 6.90907 29.625 7.08719 30.2471 7.2834C30.1831 8.24443 29.7477 9.08445 29.0506 9.74084C28.3283 10.3569 27.4816 10.6452 26.5328 10.6124C25.4508 10.5224 24.5288 10.0926 23.8095 9.26711C22.9516 8.16521 22.7161 6.8752 22.7228 5.50668C22.7229 5.46404 22.723 5.42139 22.7231 5.37746C22.7256 4.74774 22.7485 4.14269 22.9056 3.52986C22.9148 3.49323 22.924 3.45659 22.9335 3.41884C23.2124 2.33573 23.7632 1.22645 24.7272 0.604312C25.6693 0.049836 26.9355 -0.220044 27.984 0.217919Z" fill="black"/>
<path d="M47.9686 0.117188C48.6062 0.117188 49.2437 0.117188 49.9006 0.117188C49.9006 3.52352 49.9006 6.92986 49.9006 10.4394C49.263 10.4394 48.6255 10.4394 47.9686 10.4394C47.9413 10.1935 47.9413 10.1935 47.9134 9.94262C47.8787 9.96859 47.844 9.99456 47.8082 10.0213C47.3027 10.389 46.7892 10.623 46.147 10.5498C45.6614 10.4478 45.2921 10.2858 44.9327 9.94262C44.8988 9.91096 44.8649 9.87929 44.83 9.84667C43.9273 8.91397 43.8529 7.56524 43.869 6.34498C43.8891 5.34057 44.1999 4.26781 44.9327 3.53953C45.4576 3.09424 45.9189 2.95259 46.6042 2.96835C47.1426 3.01868 47.4593 3.23679 47.9134 3.53953C47.9316 2.41016 47.9498 1.28078 47.9686 0.117188ZM46.3023 5.092C45.8107 5.70071 45.8623 6.67327 45.9383 7.40982C46.0077 7.87655 46.167 8.24595 46.4955 8.58334C46.7195 8.7188 46.9312 8.8068 47.1965 8.76662C47.5024 8.66926 47.7739 8.48655 47.9686 8.23145C48.0307 8.00805 48.0268 7.79414 48.0214 7.56346C48.0215 7.46785 48.0215 7.46785 48.0215 7.37032C48.0211 7.23605 48.0196 7.10178 48.0171 6.96753C48.0135 6.76202 48.0137 6.55677 48.0144 6.35123C48.0135 6.22056 48.0124 6.0899 48.0111 5.95923C48.0111 5.89788 48.0112 5.83652 48.0112 5.7733C48.0054 5.42813 48.0054 5.42813 47.837 5.13483C47.7894 5.1002 47.7417 5.06558 47.6926 5.0299C47.6448 4.98892 47.597 4.94793 47.5477 4.90571C47.1255 4.59459 46.6378 4.73673 46.3023 5.092Z" fill="black"/>
<path d="M42.4643 3.13322C42.5103 3.16374 42.5103 3.16374 42.5573 3.19488C42.6073 3.22448 42.6574 3.25408 42.7091 3.28458C43.1723 3.77352 43.2369 4.42639 43.2322 5.06811C43.2322 5.12633 43.2322 5.18454 43.2322 5.24453C43.2321 5.43537 43.2313 5.62621 43.2304 5.81705C43.2302 5.95 43.2301 6.08295 43.2299 6.2159C43.2295 6.56464 43.2284 6.91337 43.2272 7.2621C43.2261 7.61843 43.2256 7.97476 43.225 8.33109C43.2239 9.02938 43.2219 9.72767 43.2196 10.426C42.5821 10.426 41.9445 10.426 41.2877 10.426C41.2872 10.2616 41.2866 10.0972 41.2861 9.92782C41.2842 9.38517 41.2812 8.84252 41.2775 8.29987C41.2753 7.97081 41.2736 7.64176 41.2727 7.31269C41.2719 6.99521 41.27 6.67776 41.2673 6.3603C41.2665 6.23908 41.2661 6.11786 41.266 5.99664C41.2659 5.82706 41.2644 5.65754 41.2626 5.48796C41.2629 5.43766 41.2632 5.38735 41.2634 5.33552C41.2599 5.05906 41.2599 5.05906 41.1314 4.81966C40.9513 4.70049 40.8379 4.71212 40.6253 4.74046C40.2003 4.87388 39.8845 5.20521 39.5765 5.51324C39.5696 5.66607 39.5662 5.81758 39.5652 5.97048C39.5646 6.01841 39.5641 6.06633 39.5635 6.11571C39.5618 6.2749 39.5604 6.4341 39.559 6.59329C39.5579 6.70336 39.5567 6.81342 39.5556 6.92349C39.5525 7.21378 39.5498 7.50408 39.5471 7.79438C39.5444 8.09037 39.5413 8.38635 39.5382 8.68234C39.5323 9.26354 39.5267 9.84475 39.5213 10.426C38.902 10.426 38.2826 10.426 37.6445 10.426C37.6445 8.00327 37.6445 5.58059 37.6445 3.08449C38.2639 3.08449 38.8832 3.08449 39.5213 3.08449C39.5486 3.41237 39.5486 3.41237 39.5765 3.74687C39.663 3.6797 39.7495 3.61253 39.8387 3.54333C40.5334 3.03648 41.6491 2.67239 42.4643 3.13322Z" fill="black"/>
<path d="M55.341 3.48422C56.0753 4.03907 56.348 4.80324 56.5239 5.68313C56.5239 6.19317 56.5239 6.70321 56.5239 7.2287C55.1942 7.2287 53.8644 7.2287 52.4944 7.2287C52.6728 8.07433 52.6728 8.07433 53.212 8.66388C53.4933 8.75765 53.8188 8.77491 54.1027 8.6794C54.4731 8.48014 54.6576 8.12806 54.868 7.78069C55.2016 7.87977 55.5117 8.02872 55.827 8.17399C55.8835 8.19982 55.9399 8.22565 55.998 8.25226C56.1366 8.31572 56.2751 8.37933 56.4135 8.44308C56.3445 9.03318 55.8977 9.53863 55.4752 9.93346C55.0324 10.2671 54.4846 10.4995 53.9296 10.5406C53.8944 10.5435 53.8591 10.5463 53.8228 10.5493C53.0401 10.5837 52.2866 10.312 51.7009 9.79891C51.6148 9.71598 51.5296 9.63212 51.4456 9.54706C51.4145 9.51718 51.3834 9.48729 51.3514 9.4565C50.5929 8.66404 50.4753 7.53622 50.4849 6.49759C50.5072 5.58315 50.724 4.76801 51.28 4.02716C51.3042 3.99322 51.3284 3.95928 51.3533 3.92431C52.2739 2.73132 54.1753 2.68338 55.341 3.48422ZM52.8428 4.83099C52.5914 5.1319 52.4944 5.46008 52.4944 5.84873C53.2412 5.84873 53.9881 5.84873 54.7576 5.84873C54.6905 5.24533 54.5928 4.97567 54.145 4.59834C53.705 4.28667 53.1826 4.4799 52.8428 4.83099Z" fill="black"/>
<path d="M35.6582 3.53024C35.6927 3.55386 35.7271 3.57748 35.7626 3.60182C36.4598 4.13575 36.7198 5.00947 36.8509 5.83887C36.8862 6.12411 36.8914 6.40669 36.8899 6.69383C36.8894 6.78416 36.8894 6.78416 36.889 6.8763C36.8743 7.89315 36.6167 8.90716 35.9243 9.68148C35.4274 10.1637 34.8064 10.482 34.1126 10.5405C34.0728 10.5444 34.033 10.5482 33.9919 10.5522C33.2531 10.5875 32.5465 10.323 31.9735 9.86778C31.186 9.1368 30.8509 8.11394 30.7947 7.06028C30.7512 5.87818 30.9517 4.69738 31.73 3.76893C32.7552 2.66793 34.4706 2.69641 35.6582 3.53024ZM33.1674 4.74117C32.6019 5.44015 32.6811 6.55082 32.7327 7.39417C32.7998 7.92439 32.9465 8.3702 33.3226 8.7638C33.5517 8.91511 33.7296 8.95546 34.0022 8.93974C34.305 8.84478 34.4907 8.64523 34.6646 8.38775C34.94 7.84483 34.9594 7.25598 34.9579 6.65933C34.9588 6.59078 34.9597 6.52222 34.9606 6.45158C34.9609 5.85683 34.9067 5.11558 34.4723 4.65837C34.0431 4.28439 33.5554 4.3424 33.1674 4.74117Z" fill="black"/>
<path d="M72.9186 3.63997C73.3749 4.02265 73.6102 4.54716 73.6914 5.13034C73.6967 5.25805 73.6994 5.38588 73.7001 5.51369C73.7004 5.55055 73.7006 5.5874 73.7009 5.62538C73.7015 5.70497 73.702 5.78457 73.7024 5.86417C73.703 5.99105 73.7041 6.11791 73.7053 6.24479C73.7087 6.60539 73.7117 6.96599 73.7135 7.32661C73.7147 7.54783 73.7167 7.76903 73.7191 7.99024C73.7199 8.07363 73.7203 8.15702 73.7205 8.24041C73.7219 8.82381 73.7882 9.36191 73.9122 9.93266C73.9304 10.0237 73.9486 10.1148 73.9674 10.2087C73.3662 10.2087 72.7651 10.2087 72.1458 10.2087C72.0911 9.99007 72.0911 9.99007 72.0354 9.76707C71.9847 9.79766 71.9341 9.82826 71.8819 9.85978C71.2005 10.2653 70.5566 10.4625 69.7574 10.2772C69.2244 10.0921 68.7449 9.77147 68.482 9.25992C68.2431 8.75002 68.2472 8.02662 68.4268 7.497C68.5436 7.22879 68.6962 7.00529 68.889 6.78632C68.9167 6.75351 68.9444 6.72071 68.9729 6.68692C69.6273 5.96889 70.6622 5.70595 71.5938 5.57194C71.7042 5.56955 71.8146 5.56875 71.925 5.57194C71.889 5.29513 71.8601 5.07903 71.6869 4.85435C71.417 4.65342 71.2135 4.60091 70.8762 4.63355C70.2727 4.79607 69.9606 5.06603 69.6066 5.57194C69.3366 5.45026 69.145 5.25457 68.9304 5.05445C68.8893 5.0173 68.8482 4.98016 68.8058 4.94189C68.767 4.90574 68.7281 4.8696 68.6881 4.83236C68.6525 4.79953 68.6169 4.7667 68.5802 4.73287C68.5027 4.63355 68.5027 4.63355 68.5027 4.41276C68.9469 3.75793 69.6639 3.36362 70.4208 3.18458C71.2753 3.03638 72.1875 3.15615 72.9186 3.63997ZM70.3473 7.53366C70.1801 7.7216 70.0479 7.90388 70.0484 8.16155C70.0695 8.40055 70.1167 8.58162 70.269 8.77348C70.4262 8.89574 70.601 8.91348 70.7982 8.90868C71.0868 8.85497 71.3458 8.7051 71.5938 8.55269C71.6547 8.51853 71.7156 8.48438 71.7784 8.44919C71.9026 8.34212 71.9237 8.28448 71.9511 8.12008C71.9577 7.92629 71.9538 7.73558 71.9457 7.54185C71.9442 7.47465 71.9427 7.40744 71.9412 7.3382C71.9373 7.17254 71.9318 7.00708 71.925 6.84152C71.3733 6.84152 70.7356 7.15586 70.3473 7.53366Z" fill="black"/>
<path d="M78.5457 3.19895C78.5928 3.21831 78.64 3.23766 78.6886 3.2576C79.0767 3.43417 79.4464 3.68291 79.7601 3.97174C79.8064 4.09745 79.8064 4.09745 79.8153 4.19254C79.4669 4.50672 79.1175 4.81973 78.7665 5.13092C78.5283 5.04443 78.3148 4.92435 78.0972 4.79628C77.721 4.57532 77.4397 4.47444 77.0001 4.52373C76.7586 4.64229 76.6032 4.76775 76.5033 5.02052C76.4941 5.21864 76.4941 5.21864 76.5585 5.40692C76.7597 5.60362 76.9691 5.68698 77.2347 5.76226C77.273 5.77376 77.3112 5.78525 77.3506 5.7971C77.554 5.85782 77.7582 5.91502 77.9628 5.97098C78.674 6.16767 79.3828 6.42053 79.8096 7.06354C80.0917 7.57272 80.1096 8.16908 80.0018 8.73223C79.8106 9.38633 79.4143 9.8781 78.8217 10.2092C77.9884 10.6401 77.001 10.6273 76.1169 10.3748C75.5901 10.1706 75.1884 9.89014 74.7921 9.49165C74.7567 9.45885 74.7213 9.42604 74.6848 9.39225C74.592 9.30535 74.592 9.30535 74.4609 9.16045C74.4609 9.10581 74.4609 9.05116 74.4609 8.99486C74.5903 8.88165 74.5903 8.88165 74.7645 8.75681C75.0061 8.58348 75.2398 8.40576 75.4647 8.21107C75.5649 8.16687 75.5649 8.16687 75.6997 8.20245C75.843 8.27837 75.9618 8.36358 76.0893 8.46357C76.5213 8.77087 77.0112 8.94476 77.543 8.85988C77.7097 8.81716 77.849 8.75641 77.9937 8.66366C78.079 8.493 78.0651 8.35486 78.0489 8.16687C77.752 7.80642 77.2745 7.73694 76.8398 7.63117C76.182 7.46945 75.481 7.25541 75.0681 6.6765C74.6839 6.00342 74.5751 5.38167 74.7156 4.61494C74.9132 4.01004 75.3506 3.5635 75.8961 3.25415C76.7189 2.86135 77.7051 2.84356 78.5457 3.19895Z" fill="black"/>
<path d="M81.5248 0.828125C82.1442 0.828125 82.7635 0.828125 83.4016 0.828125C83.4016 1.57497 83.4016 2.32181 83.4016 3.09129C83.7841 3.09129 84.1667 3.09129 84.5608 3.09129C84.5608 3.60133 84.5608 4.11136 84.5608 4.63686C84.1783 4.63686 83.7957 4.63686 83.4016 4.63686C83.4076 5.12245 83.4138 5.60804 83.4203 6.09362C83.4234 6.3191 83.4263 6.54457 83.4291 6.77006C83.4317 6.98766 83.4346 7.20527 83.4376 7.42287C83.4388 7.50588 83.4398 7.5889 83.4407 7.67191C83.4421 7.7882 83.4437 7.90448 83.4455 8.02077C83.4468 8.12005 83.4468 8.12005 83.4481 8.22134C83.4519 8.40091 83.4519 8.40091 83.512 8.61119C83.8581 8.66584 84.2042 8.72049 84.5608 8.77679C84.5608 9.34147 84.5608 9.90616 84.5608 10.488C83.791 10.6163 82.9551 10.625 82.2976 10.1568C81.8651 9.81491 81.6558 9.35919 81.5248 8.83199C81.5155 8.68682 81.5108 8.5479 81.5123 8.40302C81.5123 8.36205 81.5123 8.32107 81.5123 8.27886C81.5123 8.14476 81.5132 8.01067 81.5141 7.87657C81.5143 7.78307 81.5144 7.68956 81.5145 7.59606C81.5149 7.35095 81.516 7.10586 81.5173 6.86075C81.5184 6.61025 81.5189 6.35974 81.5194 6.10923C81.5206 5.61844 81.5226 5.12765 81.5248 4.63686C81.197 4.63686 80.8691 4.63686 80.5312 4.63686C80.5312 4.12682 80.5312 3.61678 80.5312 3.09129C80.8591 3.09129 81.187 3.09129 81.5248 3.09129C81.5248 2.34444 81.5248 1.5976 81.5248 0.828125Z" fill="black"/>
<path d="M53.9816 0.164062C54.0794 0.164071 54.1772 0.164386 54.275 0.164938C54.3264 0.165017 54.3778 0.165095 54.4307 0.165175C54.5955 0.165485 54.7603 0.166178 54.9251 0.166879C55.0365 0.167156 55.148 0.167408 55.2594 0.167634C55.5332 0.168244 55.807 0.169197 56.0808 0.170329C56.0291 0.231543 55.9772 0.292651 55.9253 0.353715C55.8965 0.387756 55.8676 0.421797 55.8379 0.45687C55.709 0.602677 55.5699 0.729919 55.4253 0.860317C55.3965 0.886458 55.3676 0.912598 55.3378 0.939531C55.1455 1.11311 54.9513 1.28442 54.7556 1.45414C54.6258 1.56769 54.4977 1.68311 54.3697 1.7987C54.1597 1.98819 53.9481 2.17551 53.7347 2.36104C53.6876 2.40233 53.6411 2.44442 53.5969 2.48869C53.4784 2.49353 53.3598 2.49459 53.2413 2.49408C53.1693 2.4939 53.0972 2.49372 53.023 2.49354C52.9463 2.49308 52.8697 2.49261 52.793 2.49214C52.7162 2.49186 52.6393 2.49161 52.5624 2.49138C52.3736 2.49073 52.1849 2.48982 51.9961 2.48869C52.0931 2.28599 52.213 2.12124 52.3514 1.9436C52.3756 1.91248 52.3998 1.88136 52.4247 1.8493C52.5024 1.74947 52.5804 1.64987 52.6585 1.55031C52.6843 1.51732 52.7101 1.48433 52.7366 1.45034C53.7365 0.171071 53.7365 0.171071 53.9816 0.164062Z" fill="black"/>
</svg>
