<svg width="170" height="19" viewBox="0 0 170 19" fill="none" xmlns="http://www.w3.org/2000/svg">
<path d="M21.932 18.6347H28.1171L31.4386 0.40625H25.2403L24.0242 6.93136H18.6498L19.879 0.40625H13.6808L10.3594 18.6347H16.5576L17.7998 11.8089H23.1743L21.932 18.6347Z" fill="#010101"/>
<path d="M34.9426 0.393326L33.0596 10.5275C32.9027 11.3121 32.8242 12.0836 32.8242 12.8029C32.8242 18.1772 37.7279 18.988 40.6701 18.988C46.8421 18.988 49.4966 17.0265 50.4643 11.7175L52.5434 0.367188H46.3452L44.5799 9.89989C44.0176 12.8813 43.6122 14.4374 41.3108 14.4374C39.807 14.4374 39.0747 13.6659 39.0747 12.0836C39.0747 11.4821 39.1663 10.7368 39.3624 9.80835L41.1539 0.367188H34.9557V0.393326H34.9426Z" fill="#010101"/>
<path d="M94.9213 9.43951H93.1298L93.9536 5.15045H95.6274C96.9874 5.15045 97.7197 5.80428 97.7197 6.99423C97.7197 8.51109 96.6604 9.43951 94.9213 9.43951ZM85.2709 18.6322H91.4691L92.3321 13.9378H95.2482C100.636 13.9378 103.63 11.1394 103.63 6.03964C103.63 2.4567 101.041 0.390625 96.4905 0.390625H88.5792L85.2578 18.6322H85.2709Z" fill="#010101"/>
<path d="M113.858 14.2925C112.263 14.2925 111.321 13.181 111.321 11.3373C111.321 10.6442 111.387 10.0296 111.531 9.32348C112.001 6.9305 112.799 4.73365 115.323 4.73365C116.931 4.73365 117.873 5.84515 117.873 7.68893C117.873 8.38198 117.807 8.99658 117.664 9.7027C117.193 12.0695 116.395 14.2925 113.871 14.2925M115.676 0C108.942 0 104.914 4.17137 104.914 11.1934C104.914 16.0709 108.118 19 113.479 19C120.213 19 124.241 14.8286 124.241 7.80661C124.267 2.90296 121.063 0 115.676 0Z" fill="#010101"/>
<path d="M145.788 18.6347H151.986L154.432 5.28376H159.087L159.989 0.40625H144.141L143.238 5.28376H148.194L145.788 18.6347Z" fill="#010101"/>
<path d="M135.525 7.1397C133.576 6.55126 132.765 6.30281 132.765 5.4267C132.765 4.83826 133.171 4.13215 134.348 4.13215C135.224 4.13215 135.943 4.60289 136.231 5.30901L141.697 3.88369C141.056 1.30764 138.754 0 134.766 0C127.273 0 126.685 4.8121 126.685 6.27665C126.685 9.25807 128.333 11.0888 131.915 12.0303C132.857 12.2788 133.942 12.5533 133.942 13.5471C133.942 14.3317 133.328 14.8417 132.269 14.8417C131.301 14.8417 130.268 14.2925 129.915 13.351L124.527 14.7502C125.116 17.457 127.77 19 131.942 19C135.119 19 140.441 18.1893 140.441 12.6841C140.467 9.925 138.846 8.12044 135.525 7.15279" fill="#010101"/>
<path d="M6.90433 18.6347L10.2388 0.40625H0V18.6347H6.90433Z" fill="#2DB997"/>
<path d="M162.646 0.40625L159.324 18.6347H169.576V0.40625H162.646Z" fill="#2DB997"/>
<path d="M56.0714 0.390625L52.75 18.6322H58.9351L59.9289 13.2578H65.1333L65.9833 8.668H60.7789L61.3673 5.28122H68.6378L69.5401 0.390625H56.0714Z" fill="#010101"/>
<path d="M72.3136 0.390625L68.9922 18.6322H75.1904L76.158 13.2578H81.3886L82.2385 8.668H77.0342L77.6095 5.28122H84.893L85.7823 0.390625H72.3136Z" fill="#010101"/>
</svg>
