<svg width="129" height="54" viewBox="0 0 129 54" fill="none" xmlns="http://www.w3.org/2000/svg">
<path d="M0 0.0184309C5.27904 0.0123345 5.27904 0.0123345 7.48942 0.0110501C7.99528 0.0107542 8.50114 0.0104488 9.007 0.0101275C9.0704 0.0100877 9.13379 0.0100478 9.19911 0.0100067C10.2201 0.00935084 11.2411 0.00815999 12.262 0.00676863C13.3113 0.00535078 14.3605 0.00451456 15.4098 0.00420866C16.0562 0.00400214 16.7027 0.00335192 17.3492 0.00211845C17.7936 0.00131413 18.238 0.00107912 18.6824 0.00127424C18.9381 0.00137024 19.1938 0.00123215 19.4495 0.000412023C20.7826 -0.00365174 22.1017 0.017097 23.4106 0.305002C23.4704 0.317846 23.5302 0.33069 23.5917 0.343923C25.3794 0.741534 27.0544 1.42986 28.5185 2.53774C28.5944 2.59512 28.5944 2.59512 28.6718 2.65366C31.0429 4.52516 32.2155 7.62995 32.6943 10.5239C32.7034 10.5786 32.7034 10.5786 32.7127 10.6343C32.754 10.9089 32.7568 11.1788 32.751 11.4561C32.8041 11.4255 32.8573 11.395 32.9122 11.3636C34.2626 10.5961 35.6594 10.0092 37.1849 9.69256C37.2351 9.68196 37.2852 9.67137 37.3369 9.66045C38.7524 9.37427 40.353 9.35436 41.7701 9.64217C41.8209 9.65245 41.8717 9.66273 41.9241 9.67332C43.8157 10.0688 45.5722 10.8929 46.9976 12.2087C47.0973 12.3001 47.1993 12.3867 47.3031 12.4732C48.5346 13.5505 49.6485 15.1799 50.1342 16.7466C50.1569 16.6992 50.1569 16.6992 50.1801 16.6508C51.1011 14.7399 52.3385 12.9762 54.0643 11.708C54.1217 11.6647 54.1792 11.6214 54.2367 11.5781C54.6619 11.2619 55.1084 10.9991 55.5758 10.7507C55.6076 10.7334 55.6394 10.7161 55.6722 10.6983C57.0988 9.92628 58.773 9.48941 60.3972 9.48078C60.4421 9.48043 60.4871 9.48007 60.5334 9.4797C61.9696 9.47093 63.3043 9.55773 64.6957 9.94449C64.7362 9.95557 64.7767 9.96666 64.8184 9.97807C65.7914 10.2519 66.7463 10.7171 67.5677 11.3049C67.6429 11.3581 67.6429 11.3581 67.7195 11.4124C68.2193 11.777 68.6924 12.1776 69.1297 12.615C69.1463 11.8002 69.163 10.9855 69.1801 10.146C73.4367 10.146 77.6933 10.146 82.0789 10.146C82.0789 10.462 82.0789 10.7779 82.0789 11.1034C82.1614 11.0467 82.1614 11.0467 82.2454 10.9888C83.0181 10.4622 83.7985 9.96623 84.699 9.69256C84.7322 9.68204 84.7654 9.67152 84.7996 9.66068C85.8342 9.34638 87.1844 9.36369 88.226 9.64217C88.2634 9.65138 88.3008 9.66059 88.3393 9.67007C89.813 10.0364 91.0582 10.8282 92.1561 11.8592C92.1827 11.884 92.2092 11.9088 92.2365 11.9343C93.0524 12.7038 93.6626 13.5903 94.2045 14.5681C94.2267 14.6083 94.249 14.6484 94.272 14.6898C94.2887 14.7201 94.3055 14.7504 94.3227 14.7816C94.3263 14.181 94.3289 13.5805 94.3306 12.98C94.3314 12.7011 94.3324 12.4222 94.3342 12.1433C94.3358 11.8738 94.3367 11.6042 94.3371 11.3347C94.3374 11.2323 94.3379 11.1298 94.3387 11.0274C94.3629 9.94531 94.3629 9.94531 93.8929 9.00329C93.1362 8.31193 92.0604 8.40088 91.098 8.33214C91.098 5.60524 91.098 2.87835 91.098 0.068817C95.9034 0.068817 100.709 0.068817 105.66 0.068817C105.685 7.35162 105.685 7.35162 105.71 14.7816C105.91 14.5155 106.109 14.2495 106.315 13.9754C107.017 13.0972 107.81 12.3031 108.733 11.6576C108.781 11.624 108.781 11.624 108.829 11.5897C110.253 10.5842 111.858 9.95317 113.57 9.64217C113.636 9.62969 113.636 9.62969 113.703 9.61696C115.157 9.35283 116.804 9.37806 118.256 9.64217C118.327 9.65474 118.327 9.65474 118.4 9.66756C120.595 10.066 122.623 11.0629 124.215 12.6299C124.301 12.7144 124.388 12.7977 124.475 12.8809C124.832 13.2251 125.148 13.5888 125.444 13.9861C125.511 14.0758 125.58 14.1646 125.648 14.2533C126.032 14.7565 126.359 15.2897 126.671 15.8397C126.706 15.9022 126.706 15.9022 126.742 15.966C128.336 18.8106 128.995 22.2369 128.997 25.4764C128.997 25.553 128.997 25.6295 128.997 25.7061C128.998 25.8657 128.998 26.0253 128.998 26.185C128.998 26.3451 128.998 26.5052 128.999 26.6653C129.004 27.8283 129.002 28.9957 128.837 30.1493C124.032 30.1493 119.227 30.1493 114.276 30.1493C114.303 32.4665 114.303 32.4665 115.334 34.5329C115.547 34.7025 115.766 34.7801 116.039 34.7848C116.394 34.7249 116.636 34.5717 116.845 34.281C117.395 33.3763 117.504 32.4771 117.601 31.409C121.276 31.409 124.95 31.409 128.736 31.409C128.736 34.3411 127.754 37.5675 125.915 39.8738C125.862 39.9416 125.862 39.9416 125.807 40.0108C125.397 40.5233 124.961 41.0177 124.454 41.4358C124.412 41.4727 124.37 41.5096 124.326 41.5476C123.662 42.123 122.913 42.5907 122.136 42.9978C122.102 43.016 122.067 43.0342 122.032 43.053C120.633 43.7879 119.018 44.2082 117.45 44.3582C117.399 44.3637 117.349 44.3692 117.296 44.3749C114.305 44.6488 111.11 43.8815 108.761 41.9555C108.417 41.6649 108.095 41.3515 107.776 41.0327C107.759 41.9472 107.743 42.8617 107.725 43.8039C102.737 43.8039 97.749 43.8039 92.6096 43.8039C92.593 43.1555 92.5764 42.507 92.5592 41.8389C92.4428 42.0218 92.3264 42.2047 92.2065 42.3931C91.2994 43.5728 89.8829 44.2248 88.4338 44.4201C86.5954 44.6318 84.6011 44.305 83.1164 43.1426C82.8524 42.9284 82.6143 42.6908 82.3812 42.4435C82.4898 43.1766 82.6657 43.8511 83.1874 44.4086C83.2162 44.4394 83.245 44.4703 83.2746 44.5021C83.9075 45.1134 84.7135 45.239 85.5556 45.3155C85.5556 48.0092 85.5556 50.7028 85.5556 53.4781C79.869 53.4781 74.1824 53.4781 68.3235 53.4781C68.3235 50.7844 68.3235 48.0908 68.3235 45.3155C68.6727 45.2823 69.0219 45.249 69.3816 45.2148C70.0449 45.069 70.6637 44.8799 71.0507 44.2826C71.6459 43.2183 71.512 41.8811 71.5048 40.7015C71.5037 40.5109 71.5033 40.3204 71.5028 40.1298C71.5017 39.7589 71.5 39.3881 71.4978 39.0173C71.4716 39.064 71.4454 39.1107 71.4184 39.1588C70.0564 41.5735 67.9668 43.1905 65.2976 43.9425C64.1539 44.2459 62.9549 44.3847 61.7733 44.4086C61.7104 44.4106 61.6475 44.4126 61.5826 44.4147C58.2565 44.4741 55.1673 43.3773 52.7542 41.0831C52.7214 41.0523 52.6885 41.0215 52.6546 40.9898C52.3946 40.7393 52.1722 40.4586 51.9481 40.1761C51.9086 40.1274 51.8691 40.0787 51.8284 40.0285C51.1453 39.1681 50.5313 38.1792 50.1342 37.153C50.0294 37.2578 49.998 37.324 49.9438 37.4596C49.9266 37.5019 49.9093 37.5441 49.8915 37.5876C49.8728 37.6333 49.8542 37.679 49.835 37.7261C49.0672 39.556 47.819 41.2254 46.204 42.3931C46.1746 42.4144 46.1453 42.4357 46.115 42.4576C43.5775 44.2702 40.2718 44.7187 37.2405 44.244C35.1832 43.8946 33.2744 43.0918 31.6425 41.7885C31.6134 41.7654 31.5844 41.7422 31.5545 41.7184C30.8541 41.1538 30.2119 40.5058 29.627 39.8234C29.5817 39.772 29.5363 39.7205 29.4908 39.6691C27.3987 37.2562 26.6565 33.9756 26.4527 30.8547C26.4484 30.7993 26.4441 30.7438 26.4397 30.6867C26.394 30.0373 26.3947 29.3884 26.3957 28.7375C26.396 28.544 26.3957 28.3504 26.3954 28.1569C26.3953 27.4757 26.4062 26.7981 26.4527 26.1184C26.4058 26.1496 26.3589 26.1808 26.3106 26.2129C25.096 27.0165 23.811 27.3566 22.3714 27.4788C22.32 27.4832 22.32 27.4832 22.2675 27.4877C20.3834 27.6353 18.4631 27.5164 16.577 27.4788C16.5813 28.0085 16.5861 28.5381 16.5915 29.0677C16.594 29.3137 16.5963 29.5597 16.5983 29.8057C16.6002 30.0439 16.6025 30.282 16.6051 30.5202C16.6061 30.6103 16.6068 30.7004 16.6074 30.7905C16.592 32.2974 16.592 32.2974 17.2141 33.623C17.9024 34.2939 19.0664 34.268 19.9529 34.3314C19.9529 37.4573 19.9529 40.5833 19.9529 43.8039C13.3684 43.8039 6.78398 43.8039 0 43.8039C0 40.678 0 37.552 0 34.3314C0.315921 34.3147 0.631841 34.2981 0.957336 34.281C2.02579 34.1409 2.02579 34.1409 2.85784 33.5104C3.31152 32.7932 3.3408 31.9947 3.33828 31.1687C3.33839 31.0849 3.33855 31.0011 3.33875 30.9172C3.33917 30.6886 3.33897 30.4599 3.33865 30.2312C3.33843 29.984 3.33878 29.7367 3.33906 29.4894C3.3395 29.0057 3.33941 28.5219 3.33912 28.0382C3.33889 27.6449 3.33886 27.2515 3.33897 26.8582C3.33899 26.7741 3.33899 26.7741 3.33901 26.6883C3.33905 26.5744 3.33908 26.4605 3.33911 26.3466C3.3394 25.2794 3.33907 24.2123 3.33853 23.1451C3.33808 22.2303 3.33815 21.3155 3.33862 20.4007C3.33916 19.3374 3.33937 18.274 3.33906 17.2106C3.33903 17.0971 3.339 16.9836 3.33897 16.8701C3.33895 16.8143 3.33894 16.7585 3.33892 16.7009C3.33883 16.3083 3.33898 15.9157 3.33922 15.5231C3.3395 15.0443 3.33942 14.5655 3.33889 14.0867C3.33862 13.8426 3.33852 13.5985 3.33885 13.3544C3.33915 13.1306 3.33898 12.9068 3.33845 12.683C3.33834 12.6024 3.33839 12.5218 3.33864 12.4412C3.34106 11.5804 3.30147 10.683 2.72085 9.99488C2.00983 9.30838 0.91461 9.33761 0 9.28947C0 6.23003 0 3.17058 0 0.0184309ZM1.25965 1.27808C1.25965 3.48953 1.25965 5.70097 1.25965 7.97943C1.54232 8.01269 1.82498 8.04594 2.11622 8.08021C2.97045 8.31749 3.5848 8.68133 4.04939 9.44279C4.38687 10.054 4.59093 10.7256 4.5919 11.4249C4.59202 11.4615 4.59213 11.498 4.59226 11.5357C4.59259 11.6582 4.59257 11.7807 4.59255 11.9032C4.59272 11.9919 4.5929 12.0806 4.59311 12.1693C4.59361 12.4131 4.5938 12.6569 4.59394 12.9008C4.59413 13.1637 4.59462 13.4267 4.59506 13.6897C4.59605 14.3249 4.59656 14.9601 4.59701 15.5954C4.59723 15.8947 4.5975 16.1941 4.59776 16.4935C4.59862 17.4892 4.59935 18.4849 4.59971 19.4806C4.59981 19.7389 4.59991 19.9973 4.60001 20.2556C4.60003 20.3198 4.60005 20.384 4.60008 20.4502C4.6005 21.4894 4.60177 22.5285 4.60341 23.5677C4.60508 24.6354 4.60598 25.7031 4.60615 26.7708C4.60625 27.3699 4.60669 27.969 4.60798 28.5682C4.60908 29.0787 4.60948 29.5891 4.60899 30.0996C4.60876 30.3598 4.60885 30.6199 4.60984 30.88C4.61073 31.1189 4.61067 31.3577 4.60989 31.5966C4.60977 31.6823 4.60999 31.768 4.61059 31.8538C4.61363 32.314 4.58293 32.7516 4.49444 33.2041C4.48649 33.2449 4.47855 33.2856 4.47036 33.3277C4.32449 34.0098 3.97248 34.6585 3.40401 35.0769C2.70444 35.5192 2.03223 35.595 1.20927 35.6918C1.20927 37.8866 1.20927 40.0814 1.20927 42.3427C6.97898 42.3427 12.7487 42.3427 18.6932 42.3427C18.6932 40.098 18.6932 37.8533 18.6932 35.5406C18.3939 35.5074 18.0947 35.4741 17.7863 35.4398C17.0517 35.2779 16.3765 35.0274 15.9234 34.3939C15.4744 33.6638 15.3532 32.8939 15.3517 32.0491C15.3512 31.9851 15.3507 31.9211 15.3502 31.8552C15.3488 31.6818 15.348 31.5084 15.3474 31.335C15.3466 31.1531 15.3452 30.9711 15.3439 30.7891C15.3416 30.4455 15.3397 30.1018 15.3381 29.7581C15.3361 29.3665 15.3336 28.9748 15.3311 28.5832C15.3259 27.7784 15.3214 26.9736 15.3174 26.1688C15.3807 26.169 15.3807 26.169 15.4454 26.1691C16.626 26.172 16.626 26.172 17.8066 26.1718C17.8442 26.1717 17.8818 26.1716 17.9206 26.1716C21.7233 26.1643 25.0643 25.9917 27.9013 23.1614C27.9387 23.1229 27.9761 23.0845 28.0147 23.0449C27.9801 23.6953 27.9177 24.3412 27.8499 24.9889C27.7475 25.9704 27.7019 26.9392 27.7029 27.926C27.7029 27.9838 27.703 28.0417 27.703 28.1012C27.7073 31.1375 27.9488 34.3838 29.4255 37.1026C29.4432 37.1359 29.4609 37.1693 29.4792 37.2037C29.9121 38.0169 30.4389 38.7954 31.1049 39.4371C31.1941 39.5263 31.2746 39.62 31.3559 39.7164C32.0255 40.4839 32.9211 41.0979 33.8091 41.587C33.8473 41.6085 33.8854 41.63 33.9248 41.6522C34.8043 42.1459 35.7159 42.5149 36.6937 42.7647C36.7382 42.7761 36.7828 42.7876 36.8286 42.7993C37.7008 43.0081 38.5608 43.0759 39.4555 43.0702C39.5331 43.0699 39.5331 43.0699 39.6124 43.0697C40.4302 43.0658 41.2216 43.0296 42.022 42.8466C42.1007 42.8288 42.1007 42.8288 42.181 42.8106C44.641 42.2305 46.6629 40.7459 47.9945 38.6084C48.9869 36.978 49.555 35.1861 49.9094 33.3196C49.9326 33.2229 49.9326 33.2229 49.983 33.1725C49.9931 33.2064 50.0032 33.2402 50.0136 33.2751C50.5906 35.2022 51.3015 37.0324 52.5023 38.6646C52.5243 38.6945 52.5463 38.7243 52.5689 38.7551C54.2785 41.0536 56.6886 42.5296 59.5203 42.9781C61.4328 43.2532 63.4173 43.1134 65.25 42.4939C65.3022 42.4766 65.3022 42.4766 65.3555 42.4589C66.6262 42.0321 67.727 41.3356 68.7103 40.432C68.7905 40.3603 68.8731 40.2913 68.9577 40.2248C69.0674 40.1355 69.1552 40.0476 69.2462 39.94C69.3363 39.8341 69.4261 39.729 69.5212 39.6276C70.3388 38.7514 70.944 37.6797 71.4475 36.5987C71.4741 36.5418 71.4741 36.5418 71.5013 36.4836C72.1093 35.1679 72.5228 33.7462 72.7575 32.3159C72.761 33.6593 72.7637 35.0026 72.7653 36.346C72.7661 36.9698 72.7672 37.5936 72.7689 38.2175C72.7704 38.7616 72.7714 39.3057 72.7717 39.8498C72.7719 40.1375 72.7724 40.4253 72.7735 40.713C72.7745 40.9846 72.7748 41.2562 72.7746 41.5278C72.7746 41.6268 72.7749 41.7257 72.7755 41.8247C72.7823 43.0215 72.6493 44.139 71.9009 45.114C71.8705 45.1543 71.84 45.1945 71.8086 45.236C71.2152 45.9607 70.4294 46.2319 69.5328 46.424C69.5328 48.253 69.5328 50.0821 69.5328 51.9665C74.388 51.9665 79.2432 51.9665 84.2455 51.9665C84.2455 50.1375 84.2455 48.3085 84.2455 46.424C83.9629 46.3409 83.6802 46.2577 83.389 46.1721C82.3976 45.7025 81.7169 44.9217 81.3375 43.8966C81.0912 43.1885 81.0664 42.4544 81.0442 41.7123C81.0421 41.6428 81.0399 41.5732 81.0377 41.5036C81.0331 41.3585 81.0287 41.2134 81.0244 41.0682C81.0188 40.8847 81.0131 40.7012 81.0072 40.5177C81.0027 40.3741 80.9983 40.2305 80.9939 40.0869C80.9908 39.9871 80.9877 39.8874 80.9845 39.7876C80.9709 39.3291 80.9682 38.8713 80.9704 38.4126C80.9949 38.4705 81.0193 38.5284 81.0444 38.588C81.8629 40.4975 83.2827 41.8741 85.1987 42.6669C86.5601 43.2044 87.9293 43.2334 89.2829 42.6527C90.6359 42.0484 91.607 41.0311 92.3577 39.7731C92.4072 39.6907 92.4072 39.6907 92.4577 39.6067C93.1621 38.3626 93.4907 36.9799 93.7685 35.591C93.7851 37.8025 93.8018 40.0139 93.8189 42.2924C97.9757 42.2924 102.133 42.2924 106.415 42.2924C106.432 40.0975 106.449 37.9027 106.466 35.6414C106.532 35.9407 106.599 36.24 106.667 36.5483C106.711 36.7047 106.753 36.8555 106.806 37.0081C106.818 37.0451 106.831 37.082 106.844 37.1201C106.985 37.5191 107.172 37.8901 107.373 38.2615C107.389 38.2919 107.405 38.3222 107.421 38.3535C107.92 39.3011 108.643 40.1287 109.489 40.7808C109.536 40.8199 109.583 40.859 109.632 40.8993C110.386 41.5107 111.253 41.9527 112.159 42.2924C112.196 42.3062 112.233 42.3201 112.27 42.3344C113.123 42.6518 114.027 42.8486 114.931 42.9474C115.002 42.9558 115.002 42.9558 115.075 42.9643C117.766 43.2274 120.747 42.5534 122.942 40.9319C123.02 40.8748 123.02 40.8748 123.1 40.8166C123.482 40.5338 123.834 40.2238 124.177 39.8954C124.246 39.8292 124.316 39.7635 124.386 39.6979C126.296 37.8574 127.169 35.2447 127.426 32.6686C124.566 32.6686 121.707 32.6686 118.76 32.6686C118.635 33.1674 118.635 33.1674 118.508 33.6763C118.216 34.541 117.841 35.3957 116.996 35.8429C116.45 36.0771 115.853 36.1157 115.283 35.9437C114.4 35.5803 113.974 34.955 113.615 34.0957C113.481 33.7472 113.395 33.3862 113.318 33.0213C113.311 32.9852 113.303 32.949 113.295 32.9118C113.186 32.3789 113.145 31.8408 113.11 31.2987C113.107 31.2391 113.103 31.1795 113.099 31.118C113.055 30.3589 113.04 29.5997 113.016 28.8393C117.855 28.8393 122.693 28.8393 127.678 28.8393C127.712 28.5721 127.735 28.3354 127.737 28.0699C127.737 28.0357 127.737 28.0014 127.738 27.9661C127.738 27.8536 127.739 27.7411 127.739 27.6286C127.739 27.5894 127.739 27.5501 127.739 27.5097C127.74 27.3007 127.741 27.0916 127.741 26.8826C127.741 26.7134 127.742 26.5442 127.743 26.3751C127.771 22.1531 126.941 17.6255 124.051 14.3785C124.028 14.3526 124.005 14.3267 123.981 14.3C122.167 12.2428 119.563 11.0408 116.845 10.8011C116.699 10.7938 116.553 10.7917 116.407 10.7908C116.366 10.7905 116.326 10.7901 116.285 10.7898C116.156 10.7889 116.026 10.7886 115.897 10.7885C115.853 10.7884 115.809 10.7884 115.764 10.7883C115.121 10.7888 114.502 10.8124 113.873 10.9522C113.8 10.967 113.727 10.9818 113.654 10.9965C111.204 11.5153 108.985 13.0016 107.524 15.0335C107.502 15.0637 107.48 15.0939 107.457 15.125C106.063 17.0397 105.247 19.2811 104.765 21.5837C104.752 21.6481 104.738 21.7125 104.724 21.7789C104.586 22.4673 104.5 23.1525 104.4 23.8511C104.375 12.7024 104.375 12.7024 104.35 1.32847C100.392 1.32847 96.4349 1.32847 92.3577 1.32847C92.3577 3.17411 92.3577 5.01975 92.3577 6.92133C92.6902 6.95458 93.0228 6.98783 93.3654 7.0221C94.1393 7.21385 94.7521 7.5366 95.1951 8.21877C95.5142 8.78617 95.5902 9.38388 95.5885 10.0221C95.5885 10.081 95.5885 10.1399 95.5886 10.2006C95.5887 10.3637 95.5885 10.5267 95.5882 10.6898C95.588 10.8657 95.5881 11.0417 95.5881 11.2177C95.5882 11.5225 95.588 11.8272 95.5877 12.132C95.5873 12.5727 95.5872 13.0133 95.5871 13.4539C95.587 14.1689 95.5867 14.8838 95.5862 15.5987C95.5857 16.2931 95.5854 16.9876 95.5852 17.682C95.5852 17.7248 95.5851 17.7676 95.5851 17.8117C95.5851 18.0265 95.585 18.2413 95.5849 18.4561C95.5844 20.2376 95.5835 22.0191 95.5824 23.8007C95.5738 23.7469 95.5651 23.6932 95.5563 23.6379C95.5239 23.4362 95.4914 23.2346 95.4588 23.033C95.4448 22.9462 95.4309 22.8594 95.4169 22.7725C95.3219 22.1807 95.2229 21.5916 95.088 21.0074C95.0798 20.9711 95.0716 20.9349 95.0631 20.8975C94.4131 18.0358 93.2766 15.2347 91.2492 13.0684C91.2053 13.0212 91.1614 12.974 91.1161 12.9253C90.0237 11.7772 88.4955 10.8284 86.879 10.7404C85.1319 10.7058 83.5336 11.3619 82.2744 12.5679C81.5476 13.2913 81.1728 14.1748 80.8193 15.1343C80.8027 13.9038 80.786 12.6734 80.7689 11.4057C77.3769 11.4057 73.9849 11.4057 70.4901 11.4057C70.4735 13.3511 70.4569 15.2965 70.4397 17.3009C70.2901 16.9517 70.1404 16.6025 69.9863 16.2428C69.7005 15.6963 69.418 15.2069 69.0289 14.7312C69.0081 14.7053 68.9873 14.6794 68.9658 14.6528C68.3766 13.9229 67.7275 13.3108 66.9631 12.7661C66.9194 12.735 66.9194 12.735 66.8749 12.7032C64.7111 11.1868 61.9063 10.4173 59.2871 10.8764C58.9013 10.9497 58.523 11.0456 58.1455 11.1538C58.1087 11.1641 58.0719 11.1743 58.034 11.185C56.5789 11.6 55.2359 12.3948 54.1276 13.4176C54.0257 13.511 53.9214 13.6 53.8155 13.6888C52.9567 14.4428 52.3196 15.4161 51.7465 16.3939C51.7271 16.4267 51.7077 16.4595 51.6877 16.4933C50.903 17.8362 50.4295 19.3701 50.0838 20.8783C50.0671 20.8783 50.0505 20.8783 50.0334 20.8783C50.0276 20.8454 50.0218 20.8126 50.0159 20.7788C49.4515 17.6175 48.2053 14.4719 45.5114 12.5428C43.1992 10.9332 40.3849 10.4963 37.6358 10.9792C35.6377 11.357 33.717 12.1396 32.1422 13.4434C32.0455 13.5219 32.0455 13.5219 31.8944 13.6227C31.8956 13.5611 31.8969 13.4995 31.8981 13.4361C31.8951 10.3625 30.9007 6.77851 28.7705 4.50279C28.7476 4.47803 28.7247 4.45327 28.7011 4.42775C28.354 4.05543 27.9737 3.74009 27.5612 3.44468C27.5188 3.41402 27.5188 3.41402 27.4755 3.38274C24.9788 1.59599 22.0042 1.2501 19.0215 1.26054C18.7821 1.2612 18.5427 1.26097 18.3033 1.26086C17.8905 1.26078 17.4776 1.26124 17.0648 1.2621C16.468 1.26334 15.8711 1.26372 15.2743 1.26391C14.3055 1.26424 13.3367 1.26524 12.3679 1.26668C11.4279 1.26807 10.4879 1.26914 9.54795 1.26978C9.46075 1.26984 9.46075 1.26984 9.37179 1.2699C9.08008 1.2701 8.78837 1.27029 8.49667 1.27048C6.08433 1.27204 3.67199 1.27482 1.25965 1.27808Z" fill="#2AACE2"/>
<path d="M84.964 17.8314C86.0326 18.5706 86.3644 20.025 86.5897 21.228C87.2801 25.1963 87.7674 31.1993 85.5055 35.15C85.1749 35.5778 84.7525 35.9706 84.2001 36.0568C83.5539 36.1144 82.9541 36.0737 82.4319 35.6478C81.9517 35.1735 81.7118 34.6001 81.5454 33.9594C81.5301 33.9014 81.5301 33.9014 81.5145 33.8422C81.3198 33.0441 81.3133 32.238 81.3143 31.422C81.3141 31.3079 81.3138 31.1938 81.3135 31.0798C81.3129 30.7723 81.3128 30.4649 81.3129 30.1575C81.313 29.8997 81.3128 29.6419 81.3125 29.3841C81.3119 28.7407 81.312 28.0972 81.3123 27.4537C81.3125 26.8975 81.312 26.3412 81.311 25.785C81.31 25.2111 81.3096 24.6372 81.3098 24.0633C81.3099 23.7422 81.3098 23.4211 81.3091 23.1001C81.3084 22.7978 81.3085 22.4956 81.3092 22.1933C81.3093 22.0833 81.3092 21.9732 81.3088 21.8632C81.3041 20.5441 81.3883 19.1197 82.3264 18.1004C83.0146 17.4496 84.1595 17.3527 84.964 17.8314ZM83.1186 19.5443C82.6087 20.5485 82.6227 21.8196 82.6243 22.9177C82.6241 23.0151 82.6239 23.1125 82.6236 23.2099C82.6229 23.4712 82.6229 23.7325 82.623 23.9939C82.623 24.2136 82.6228 24.4333 82.6225 24.653C82.622 25.1722 82.622 25.6914 82.6223 26.2106C82.6226 26.7426 82.622 27.2747 82.6209 27.8067C82.62 28.2668 82.6197 28.7268 82.6199 29.1869C82.6199 29.4602 82.6198 29.7335 82.6191 30.0069C82.4833 32.3501 82.4833 32.3501 83.2932 34.4444C83.4354 34.5543 83.5225 34.599 83.7032 34.5905C84.0431 34.5316 84.2824 34.3976 84.493 34.1244C85.0997 33.2169 85.2815 32.1234 85.422 31.0591C85.4296 31.0022 85.4372 30.9453 85.4451 30.8867C85.5967 29.6412 85.6277 28.3936 85.6241 27.1406C85.6235 26.9427 85.6239 26.7449 85.6244 26.547C85.6265 25.7185 85.6122 24.893 85.5639 24.0659C85.5618 24.0298 85.5597 23.9937 85.5575 23.9565C85.4666 21.4641 85.4666 21.4641 84.4115 19.2813C84.1975 19.0957 84.0035 19.0247 83.7193 19.0448C83.4374 19.1174 83.2719 19.3056 83.1186 19.5443Z" fill="#2AACE2"/>
<path d="M62.3391 18.0751C62.4415 18.1484 62.536 18.2261 62.6306 18.3092C62.6594 18.3327 62.6882 18.3562 62.7178 18.3804C63.2279 18.8356 63.5224 19.5402 63.7391 20.1735C63.7516 20.2098 63.7641 20.2462 63.777 20.2837C64.1186 21.298 64.2855 22.3443 64.4067 23.4045C64.413 23.4592 64.413 23.4592 64.4194 23.5151C64.5101 24.3176 64.5535 25.1156 64.5555 25.9228C64.5557 25.9824 64.5557 25.9824 64.5559 26.0432C64.5567 26.2544 64.5572 26.4657 64.5574 26.6769C64.5576 26.8468 64.5583 27.0168 64.5595 27.1867C64.5656 28.1092 64.5524 29.0252 64.4762 29.945C64.4731 29.9826 64.47 30.0202 64.4668 30.0589C64.3073 31.9494 64.0756 34.3892 62.5802 35.7428C62.1075 36.101 61.6546 36.1922 61.0686 36.1458C60.4717 36.0554 60.021 35.6587 59.6637 35.192C58.5373 33.5586 58.3213 31.3207 58.1966 29.3941C58.1922 29.3287 58.1878 29.2632 58.1833 29.1958C58.1382 28.4781 58.1362 27.7606 58.1368 27.0417C58.1368 26.9782 58.1369 26.9146 58.1369 26.8491C58.1454 20.3277 58.1454 20.3277 60.041 18.319C60.6891 17.7248 61.5812 17.6113 62.3391 18.0751ZM60.7191 19.6349C59.9044 20.7942 59.7156 22.3662 59.5445 23.7351C59.5403 23.7685 59.5361 23.8019 59.5318 23.8364C59.3871 25.0068 59.3294 26.1993 59.3555 27.3787C59.3564 27.4248 59.3573 27.4709 59.3582 27.5184C59.3834 31.2374 59.3834 31.2374 60.8659 34.4868C61.0293 34.6221 61.1411 34.6798 61.3521 34.7161C61.6935 34.6529 61.888 34.4429 62.087 34.1729C64.0657 31.0278 63.6374 25.3274 62.8493 21.8624C62.5123 20.3897 62.5123 20.3897 61.5725 19.2665C61.1825 19.2281 60.9713 19.3295 60.7191 19.6349Z" fill="#2AACE2"/>
<path d="M36.4781 28.8438C40.7513 28.8438 45.0245 28.8438 49.4273 28.8438C49.4605 29.3925 49.4938 29.9412 49.528 30.5065C49.6298 31.1707 49.6298 31.1707 49.747 31.8313C49.7964 32.1111 49.8376 32.3923 49.8808 32.6731C47.37 32.6897 44.8593 32.7063 42.2725 32.7235C42.1893 33.056 42.1062 33.3886 42.0205 33.7312C41.735 34.6007 41.3285 35.4164 40.5011 35.885C39.8889 36.1549 39.2221 36.1753 38.5984 35.9441C37.7759 35.5748 37.3339 34.8565 37.0197 34.0461C36.6992 33.1725 36.5807 32.2374 36.5282 31.3132C36.5223 31.2114 36.5156 31.1096 36.509 31.0079C36.4663 30.2839 36.4781 29.5732 36.4781 28.8438ZM37.7377 30.1538C37.7206 32.4979 37.7206 32.4979 38.7454 34.5374C38.9734 34.7327 39.1961 34.8397 39.5012 34.8397C39.9585 34.7426 40.2138 34.5177 40.4704 34.1345C40.7314 33.6904 40.875 33.2247 40.9782 32.7235C40.9902 32.6653 40.9902 32.6653 41.0025 32.606C41.0746 32.2222 41.0871 31.8612 41.1136 31.4638C43.4913 31.4472 45.869 31.4306 48.3188 31.4134C48.3194 30.7621 48.3194 30.7621 48.1676 30.1538C44.7258 30.1538 41.2839 30.1538 37.7377 30.1538Z" fill="#2BACE2"/>
<path d="M15.3164 8.99219C18.9239 8.99219 18.9239 8.99219 19.6905 9.70389C20.1578 10.2122 20.428 10.8028 20.6069 11.4611C20.6229 11.5196 20.6229 11.5196 20.6393 11.5793C20.83 12.3293 20.8283 13.092 20.8305 13.8607C20.8308 13.9106 20.8312 13.9604 20.8315 14.0118C20.8364 15.2439 20.7904 16.8704 19.8887 17.8306C18.6582 18.9483 16.8404 18.5655 15.3164 18.5655C15.3164 15.4063 15.3164 12.2471 15.3164 8.99219ZM16.6264 10.3022C16.6264 12.6134 16.6264 14.9246 16.6264 17.3059C17.8115 17.3907 17.8115 17.3907 18.8434 16.9028C19.5326 16.1372 19.5166 14.9195 19.5144 13.9517C19.5142 13.8109 19.5154 13.6701 19.5167 13.5293C19.5201 12.5475 19.4263 11.502 18.793 10.7053C18.1902 10.1132 17.4772 10.3022 16.6264 10.3022Z" fill="#2AACE2"/>
<path d="M40.8257 18.1231C42.146 19.4096 42.2929 21.4888 42.3326 23.2259C42.3358 23.513 42.3309 23.7795 42.2743 24.0624C40.3456 24.0624 38.4168 24.0624 36.4296 24.0624C36.3962 23.5282 36.377 23.0375 36.417 22.5099C36.4217 22.4442 36.4265 22.3786 36.4315 22.3109C36.5476 20.8136 36.8431 19.1021 38.0419 18.0664C38.8608 17.4422 40.0389 17.4539 40.8257 18.1231ZM38.3946 19.6284C37.7809 20.6052 37.6892 21.6712 37.6892 22.8027C38.77 22.8027 39.8508 22.8027 40.9643 22.8027C40.9643 21.6739 40.923 20.5782 40.2589 19.6284C40.2399 19.5991 40.221 19.5697 40.2014 19.5395C40.027 19.2962 39.7762 19.1774 39.5031 19.0742C39.0358 18.9994 38.6637 19.2706 38.3946 19.6284Z" fill="#2AACE2"/>
<path d="M117.474 18.3495C118.437 19.1763 118.736 20.6836 118.843 21.8844C118.85 21.9835 118.85 21.9835 118.858 22.0846C118.861 22.1196 118.864 22.1546 118.867 22.1907C118.914 22.8058 118.96 23.4397 118.858 24.0496C116.929 24.0496 115.001 24.0496 113.013 24.0496C112.981 23.5015 112.958 22.9945 112.998 22.453C113.002 22.3882 113.007 22.3233 113.012 22.2565C113.111 20.9926 113.349 19.5429 114.223 18.5576C114.248 18.5274 114.273 18.4971 114.298 18.466C115.149 17.517 116.53 17.6487 117.474 18.3495ZM115.112 19.4621C114.638 20.0491 114.438 20.7793 114.33 21.5146C114.324 21.5552 114.318 21.5958 114.311 21.6376C114.261 22.0279 114.273 22.3875 114.273 22.79C115.354 22.79 116.435 22.79 117.548 22.79C117.548 21.5408 117.432 20.5188 116.748 19.4708C116.504 19.2261 116.247 19.0744 115.897 19.0551C115.563 19.0739 115.334 19.2185 115.112 19.4621Z" fill="#2AACE2"/>
</svg>
