<svg width="134" height="37" viewBox="0 0 134 37" fill="none" xmlns="http://www.w3.org/2000/svg">
<path d="M9.26172 8.77375H9.6222C9.9828 6.99651 10.4207 5.60565 10.9358 4.614C11.4381 3.60947 11.979 2.8754 12.5199 2.41177C13.0737 1.94815 13.6146 1.66481 14.1555 1.56178C14.6964 1.45876 15.1858 1.40725 15.6108 1.40725H17.4911V31.2469H13.898V31.8522H24.3296V31.2469H20.7364V1.40725H22.6168C23.0547 1.40725 23.5312 1.45876 24.0721 1.56178C24.613 1.66481 25.1539 1.94815 25.7077 2.41177C26.2614 2.8754 26.7894 3.60947 27.2917 4.614C27.794 5.61853 28.2319 7.00939 28.6054 8.77375H28.9658V0.789062H9.26172V8.77375Z" fill="black"/>
<path d="M52.1297 31.2378C51.8335 31.3794 51.5374 31.4568 51.2541 31.4568C50.623 31.4568 50.1722 31.1476 49.8889 30.5424C49.6055 29.9371 49.3995 29.2545 49.2707 28.4946C49.1806 28.0052 49.129 27.3871 49.0904 26.6659C49.0518 25.9318 49.0261 25.1848 48.9874 24.3993C48.9488 23.6137 48.9102 22.8539 48.8587 22.1069C48.8071 21.3599 48.7169 20.7031 48.5881 20.1236C48.3692 19.1319 48.0086 18.3334 47.4935 17.7024C46.9783 17.0713 46.4117 16.5691 45.7936 16.1956C45.1754 15.8221 44.5701 15.5517 43.9776 15.3843C43.3852 15.2297 42.9087 15.1138 42.561 15.0623V14.9721C43.8102 14.7661 44.8147 14.3668 45.5746 13.7744C46.3344 13.182 46.901 12.5253 47.3131 11.8169C47.7124 11.1086 47.9701 10.4132 48.086 9.71773C48.2019 9.03517 48.2661 8.48133 48.2661 8.04346C48.2661 7.16771 48.1116 6.24048 47.8025 5.24883C47.4934 4.25718 46.9526 3.36855 46.2056 2.58296C45.3556 1.68146 44.4541 1.14057 43.4882 0.947393C42.5224 0.754214 41.389 0.664062 40.1141 0.664062C39.8565 0.664062 39.599 0.664088 39.3414 0.689845C39.0838 0.702723 38.8263 0.715588 38.5687 0.715588C38.3111 0.741345 38.0534 0.767086 37.7959 0.779965C37.5383 0.792843 37.2808 0.805747 37.0232 0.805747H30.8672V1.41104H34.4604V31.2507H30.8672V31.856H41.299V31.2507H37.7058V15.5002H40.9512C41.3118 15.5002 41.7497 15.5388 42.252 15.6032C42.7542 15.6804 43.2307 15.8994 43.6943 16.2858C44.158 16.6592 44.57 17.2646 44.9049 18.0759C45.2526 18.8873 45.4715 20.0206 45.5488 21.4759L45.7807 25.4424C45.8451 26.55 45.961 27.5159 46.1155 28.3401C46.2829 29.1643 46.5276 29.8726 46.8753 30.4393C47.223 31.006 47.6737 31.431 48.2533 31.7272C48.8199 32.0234 49.5412 32.1651 50.404 32.1651C50.8548 32.1651 51.2412 32.1264 51.5502 32.0491C51.8593 31.9718 52.1298 31.8817 52.3487 31.7658C52.5676 31.6499 52.748 31.5211 52.8897 31.3923C53.0313 31.2635 53.16 31.1348 53.263 31.0189L52.9669 30.5424C52.735 30.8643 52.4646 31.0961 52.1555 31.2378M40.655 14.882H37.68V1.41104C37.9633 1.35953 38.2982 1.32087 38.6975 1.30799C39.0967 1.29511 39.4958 1.28225 39.8822 1.28225C40.4488 1.28225 41.0156 1.3595 41.5822 1.50116C42.1618 1.64283 42.6769 1.95194 43.1405 2.41557C43.6041 2.8792 43.9776 3.57466 44.2738 4.48904C44.5571 5.40342 44.7116 6.61394 44.7116 8.13362C44.7116 9.47299 44.6086 10.5806 44.4155 11.4434C44.2223 12.3192 43.9518 13.0017 43.5912 13.5168C43.2306 14.0191 42.8056 14.3797 42.3163 14.5858C41.814 14.7918 41.2732 14.8949 40.6679 14.8949" fill="black"/>
<path d="M64.6365 0H63.941L56.098 31.2305H53.5352V31.8359H61.1978V31.2305H56.5616L58.854 22.1383H66.4651L68.6417 31.2305H65.1644V31.8359H75.1325V31.2305H72.5439L64.6365 0ZM59.0343 21.5201L62.4212 8.07489L66.1818 21.5201H59.0471H59.0343Z" fill="black"/>
<path d="M110.95 24.8232C110.731 25.8406 110.383 26.8194 109.92 27.7724C109.456 28.7254 108.864 29.5368 108.117 30.2193C107.383 30.9019 106.456 31.2496 105.348 31.2496H99.6428V15.4991H102.09C102.811 15.4991 103.403 15.6794 103.854 16.04C104.305 16.4006 104.665 16.89 104.949 17.5082C105.219 18.1135 105.438 18.8089 105.58 19.6074C105.734 20.393 105.876 21.2043 106.018 22.0543H106.353V8.49319H106.018C105.799 9.80681 105.567 10.8757 105.335 11.6999C105.103 12.5242 104.82 13.181 104.485 13.6575C104.15 14.134 103.751 14.4688 103.288 14.6362C102.824 14.8036 102.257 14.8938 101.6 14.8938H99.6299V1.42283H104.64C105.464 1.42283 106.172 1.56449 106.752 1.8607C107.331 2.15691 107.834 2.59482 108.259 3.18723C108.684 3.77964 109.044 4.51373 109.34 5.36371C109.637 6.22658 109.92 7.21823 110.19 8.35155H110.525V0.804688H86.7257V1.40998H90.0096L83.4029 26.7035L76.7061 1.40998H80.0545V0.804688H70.7305V1.40998H73.4478L81.6515 32.5117H82.4113L90.5248 1.40998H96.5906V31.2496H93.2422V31.8549H111.671V22.299H111.337C111.272 22.9687 111.13 23.8058 110.912 24.8232" fill="black"/>
<path d="M133.118 22.2962C132.616 25.0651 131.831 27.2416 130.749 28.8386C129.667 30.4355 128.173 31.234 126.28 31.234H120.51V1.39436H124.103V0.789062H113.672V1.39436H117.265V31.234H113.672V31.8393H133.466V22.2834H133.106L133.118 22.2962Z" fill="black"/>
<path d="M116.788 33.7459C116.788 33.7459 116.788 33.733 116.801 33.7202C116.801 33.7202 116.814 33.7073 116.826 33.6945C116.839 33.6945 116.865 33.6944 116.891 33.6816C116.916 33.6816 116.955 33.6816 116.994 33.6816C117.02 33.6816 117.045 33.6816 117.071 33.6816C117.097 33.6816 117.135 33.6816 117.174 33.6816C117.213 33.6816 117.251 33.6816 117.29 33.6816C117.329 33.6816 117.367 33.6816 117.393 33.6816C117.393 33.7073 117.393 33.7202 117.393 33.7459C117.393 33.7846 117.393 33.8103 117.354 33.8103C117.264 33.8232 117.213 33.8361 117.174 33.8619C117.148 33.8876 117.135 33.9134 117.135 33.9392C117.135 33.9392 117.135 33.9777 117.135 34.0421C117.135 34.1065 117.135 34.2096 117.148 34.3513C117.148 34.4929 117.161 34.6989 117.174 34.9436C117.174 35.1883 117.2 35.4974 117.213 35.858C117.213 35.9096 117.226 35.9353 117.264 35.9611C117.29 35.9869 117.354 35.9997 117.445 36.0126C117.457 36.0126 117.47 36.0126 117.47 36.0384C117.47 36.0384 117.47 36.0641 117.47 36.077C117.47 36.0898 117.47 36.1156 117.47 36.1413C117.38 36.1413 117.303 36.1413 117.238 36.1284C117.174 36.1284 117.11 36.1284 117.045 36.1284C117.019 36.1284 116.994 36.1284 116.955 36.1284C116.917 36.1284 116.878 36.1284 116.839 36.1284C116.801 36.1284 116.762 36.1284 116.723 36.1284C116.685 36.1284 116.646 36.1284 116.62 36.1284C116.62 36.1027 116.62 36.0898 116.62 36.0641C116.62 36.0254 116.633 35.9997 116.659 35.9997C116.762 35.9868 116.826 35.9611 116.865 35.9353C116.904 35.9224 116.916 35.8838 116.916 35.8323C116.916 35.8323 116.916 35.7808 116.916 35.6906C116.916 35.6005 116.916 35.4975 116.904 35.3815C116.904 35.2656 116.891 35.124 116.878 34.9823C116.878 34.8406 116.878 34.7119 116.865 34.5831C116.865 34.4543 116.865 34.3513 116.852 34.2611C116.852 34.171 116.852 34.1194 116.852 34.0937L116.041 36.0512C116.041 36.0512 116.028 36.0899 116.015 36.1027C116.015 36.1027 115.989 36.1156 115.976 36.1156C115.963 36.1156 115.951 36.1156 115.938 36.1156L115.036 34.0293C115.036 34.0293 115.036 34.1194 115.036 34.2096C115.036 34.2997 115.036 34.4156 115.023 34.5444C115.023 34.6732 115.01 34.8149 114.998 34.9565C114.985 35.0982 114.985 35.2399 114.972 35.3558C114.972 35.4845 114.972 35.5876 114.959 35.6648C114.959 35.755 114.959 35.7937 114.959 35.7937C114.959 35.8709 115.049 35.9224 115.217 35.9482C115.242 35.9482 115.255 35.9739 115.255 36.0126C115.255 36.0255 115.255 36.0512 115.255 36.077C115.191 36.077 115.126 36.0769 115.062 36.0641C114.998 36.0641 114.946 36.0641 114.895 36.0641C114.856 36.0641 114.804 36.0641 114.74 36.0641C114.676 36.0641 114.611 36.0641 114.547 36.077C114.547 36.0512 114.547 36.0383 114.547 36.0126C114.547 35.9739 114.56 35.9611 114.585 35.9482C114.65 35.9353 114.701 35.9224 114.74 35.8966C114.779 35.8709 114.804 35.8323 114.804 35.7937C114.804 35.7679 114.804 35.7164 114.804 35.6005C114.804 35.4974 114.804 35.3815 114.817 35.2398C114.817 35.0982 114.83 34.9436 114.843 34.7891C114.843 34.6346 114.856 34.4801 114.869 34.3513C114.869 34.2225 114.869 34.1066 114.882 34.0164C114.895 33.9263 114.882 33.8876 114.882 33.8876C114.882 33.849 114.869 33.8232 114.83 33.7974C114.804 33.7845 114.74 33.7588 114.65 33.7459C114.624 33.7459 114.611 33.7202 114.611 33.6816C114.611 33.6687 114.611 33.6429 114.611 33.6172C114.637 33.6172 114.676 33.6172 114.714 33.6172C114.753 33.6172 114.792 33.6172 114.843 33.6172C114.882 33.6172 114.92 33.6172 114.959 33.6172C114.998 33.6172 115.023 33.6172 115.049 33.6172C115.088 33.6172 115.126 33.6172 115.152 33.6172C115.178 33.6172 115.204 33.6171 115.217 33.63C115.229 33.63 115.242 33.63 115.242 33.6558C115.242 33.6558 115.255 33.6687 115.255 33.6816L116.041 35.5361L116.801 33.6816L116.788 33.7459Z" fill="black"/>
<path d="M119.23 35.1962H118.406L118.174 35.7887C118.174 35.7887 118.148 35.8402 118.148 35.8659C118.148 35.9175 118.226 35.956 118.38 35.9818C118.393 35.9818 118.406 35.9818 118.419 35.9947C118.432 36.0076 118.419 36.0205 118.419 36.0334C118.419 36.0462 118.419 36.072 118.419 36.0977C118.355 36.0977 118.277 36.0977 118.213 36.0977C118.136 36.0977 118.071 36.0977 117.994 36.0977C117.942 36.0977 117.891 36.0977 117.839 36.0977C117.788 36.0977 117.736 36.0978 117.672 36.1106C117.672 36.0978 117.672 36.0719 117.672 36.0462C117.672 36.0333 117.672 36.0205 117.672 36.0076C117.672 36.0076 117.698 35.9818 117.711 35.9818C117.788 35.9818 117.839 35.9561 117.878 35.9303C117.917 35.9046 117.942 35.8788 117.955 35.8402L118.844 33.6895C118.844 33.6895 118.883 33.625 118.908 33.625C118.908 33.625 118.934 33.625 118.96 33.625L119.861 35.8402C119.861 35.8402 119.913 35.9045 119.964 35.9174C120.016 35.9303 120.067 35.9561 120.119 35.9561C120.132 35.9561 120.145 35.956 120.158 35.9689C120.158 35.9689 120.158 35.9947 120.158 36.0205C120.158 36.0334 120.158 36.0591 120.158 36.0849C120.08 36.0849 120.003 36.0849 119.926 36.0849C119.848 36.0849 119.784 36.0849 119.707 36.0849C119.63 36.0849 119.565 36.0849 119.475 36.0849C119.385 36.0849 119.308 36.0849 119.23 36.0849C119.23 36.0591 119.23 36.0462 119.23 36.0205C119.23 35.9947 119.23 35.9818 119.243 35.9689C119.243 35.9689 119.256 35.9689 119.269 35.9689C119.333 35.9689 119.385 35.9432 119.423 35.9303C119.462 35.9174 119.488 35.8917 119.488 35.853C119.488 35.8402 119.488 35.8144 119.475 35.8015L119.243 35.1833L119.23 35.1962ZM119.166 35.0417L118.818 34.1402L118.457 35.0417H119.166Z" fill="black"/>
<path d="M122.325 36.0641C122.209 36.0898 122.094 36.1028 121.978 36.1156C121.862 36.1156 121.72 36.1284 121.566 36.1284C121.36 36.1284 121.166 36.0899 121.012 36.0384C120.857 35.974 120.729 35.8838 120.625 35.7679C120.522 35.652 120.445 35.5232 120.394 35.3687C120.342 35.2141 120.316 35.0467 120.316 34.8793C120.316 34.7376 120.342 34.5831 120.394 34.4285C120.445 34.274 120.522 34.1452 120.625 34.0293C120.729 33.9134 120.857 33.8103 121.012 33.7331C121.166 33.6558 121.347 33.6172 121.553 33.6172C121.63 33.6172 121.694 33.6172 121.759 33.6172C121.823 33.6172 121.901 33.6171 121.965 33.6429C122.029 33.6429 122.106 33.6687 122.171 33.6816C122.235 33.6944 122.313 33.7073 122.39 33.7331C122.39 33.8232 122.403 33.9134 122.416 34.0035C122.428 34.0937 122.441 34.1838 122.467 34.2739C122.467 34.2739 122.454 34.2739 122.441 34.2739C122.429 34.2739 122.416 34.2739 122.403 34.2739C122.364 34.2739 122.338 34.2611 122.325 34.2224C122.287 34.055 122.21 33.9392 122.094 33.8619C121.991 33.7846 121.836 33.7588 121.643 33.7588C121.488 33.7588 121.347 33.7846 121.231 33.8361C121.115 33.8876 121.012 33.9649 120.935 34.055C120.857 34.1452 120.793 34.2482 120.754 34.377C120.716 34.5058 120.69 34.6346 120.69 34.7891C120.69 34.9565 120.716 35.1111 120.767 35.2656C120.819 35.4073 120.883 35.5361 120.973 35.6391C121.063 35.7422 121.166 35.8194 121.282 35.8837C121.398 35.9481 121.527 35.9739 121.669 35.9739C121.746 35.9739 121.81 35.974 121.888 35.9611C121.965 35.9611 122.016 35.9353 122.068 35.9224V35.3558C122.068 35.2914 122.042 35.2399 122.003 35.2141C121.965 35.1884 121.901 35.1754 121.797 35.1626C121.772 35.1626 121.759 35.1626 121.759 35.1368C121.759 35.124 121.759 35.1111 121.759 35.0982C121.759 35.0853 121.759 35.0596 121.759 35.0338C121.836 35.0338 121.913 35.0338 121.991 35.0467C122.081 35.0467 122.158 35.0467 122.222 35.0467C122.287 35.0467 122.364 35.0467 122.441 35.0467C122.532 35.0467 122.596 35.0467 122.66 35.0338C122.66 35.0596 122.66 35.0724 122.66 35.0982C122.66 35.1239 122.66 35.1369 122.647 35.1497C122.647 35.1497 122.622 35.1626 122.609 35.1626C122.532 35.1626 122.48 35.1884 122.441 35.2141C122.416 35.2399 122.39 35.2785 122.39 35.3172V35.9739C122.39 35.9739 122.39 36.0126 122.377 36.0255C122.364 36.0384 122.325 36.0512 122.274 36.0641" fill="black"/>
<path d="M124.34 35.1962H123.515L123.283 35.7887C123.283 35.7887 123.258 35.8402 123.258 35.8659C123.258 35.9175 123.335 35.956 123.489 35.9818C123.502 35.9818 123.515 35.9818 123.528 35.9947C123.541 36.0076 123.528 36.0205 123.528 36.0334C123.528 36.0462 123.528 36.072 123.528 36.0977C123.464 36.0977 123.386 36.0977 123.322 36.0977C123.245 36.0977 123.18 36.0977 123.103 36.0977C123.052 36.0977 123 36.0977 122.949 36.0977C122.897 36.0977 122.846 36.0978 122.781 36.1106C122.781 36.0978 122.781 36.0719 122.781 36.0462C122.781 36.0333 122.781 36.0205 122.781 36.0076C122.781 36.0076 122.794 35.9818 122.82 35.9818C122.897 35.9818 122.949 35.9561 122.987 35.9303C123.026 35.9174 123.052 35.8788 123.077 35.8402L123.966 33.6895C123.966 33.6895 124.005 33.625 124.043 33.625C124.043 33.625 124.069 33.625 124.095 33.625L124.996 35.8402C124.996 35.8402 125.048 35.9045 125.099 35.9174C125.151 35.9303 125.202 35.9561 125.254 35.9561C125.267 35.9561 125.28 35.956 125.293 35.9689C125.293 35.9689 125.305 35.9947 125.305 36.0205C125.305 36.0334 125.305 36.0591 125.305 36.0849C125.228 36.0849 125.151 36.0849 125.074 36.0849C124.996 36.0849 124.932 36.0849 124.855 36.0849C124.777 36.0849 124.713 36.0849 124.623 36.0849C124.533 36.0849 124.455 36.0849 124.378 36.0849C124.378 36.0591 124.378 36.0462 124.378 36.0205C124.378 35.9947 124.378 35.9818 124.391 35.9689C124.391 35.9689 124.404 35.9689 124.417 35.9689C124.481 35.9689 124.533 35.9432 124.571 35.9303C124.61 35.9174 124.636 35.8917 124.636 35.853C124.636 35.8402 124.636 35.8144 124.623 35.8015L124.391 35.1833L124.34 35.1962ZM124.275 35.0417L123.927 34.1402L123.567 35.0417H124.275Z" fill="black"/>
<path d="M125.912 35.9362H126.762C126.84 35.9362 126.904 35.9361 126.969 35.9104C127.02 35.8975 127.059 35.8589 127.097 35.8331C127.136 35.7945 127.162 35.7559 127.187 35.7044C127.213 35.6529 127.239 35.5884 127.265 35.5112C127.265 35.4854 127.278 35.4726 127.291 35.4726C127.303 35.4726 127.316 35.4726 127.329 35.4726C127.355 35.4726 127.381 35.4725 127.406 35.4983C127.381 35.6013 127.368 35.7172 127.355 35.8073C127.355 35.9104 127.329 35.9876 127.329 36.052C127.329 36.0778 127.329 36.1036 127.303 36.1165C127.29 36.1165 127.265 36.1293 127.252 36.1293C127.2 36.1293 127.149 36.1293 127.084 36.1293C127.02 36.1293 126.943 36.1293 126.865 36.1293H125.436C125.436 36.1293 125.436 36.0778 125.449 36.0649L126.853 33.8756H126.028C125.938 33.8756 125.874 33.8756 125.822 33.8884C125.771 33.8884 125.732 33.9143 125.693 33.94C125.655 33.9658 125.629 34.0044 125.616 34.0559C125.591 34.1074 125.578 34.1718 125.565 34.2491C125.565 34.2748 125.552 34.2877 125.539 34.2877C125.526 34.2877 125.513 34.3006 125.488 34.3006C125.475 34.3006 125.462 34.3006 125.449 34.3006C125.436 34.3006 125.423 34.3006 125.41 34.2877C125.423 34.1846 125.436 34.0816 125.449 33.9915C125.449 33.9013 125.462 33.8241 125.475 33.7726C125.475 33.7211 125.5 33.6953 125.552 33.6953C125.603 33.6953 125.655 33.6953 125.706 33.6953C125.771 33.6953 125.835 33.6953 125.912 33.6953H127.342C127.342 33.6953 127.342 33.7468 127.329 33.7726L125.938 35.962L125.912 35.9362Z" fill="black"/>
<path d="M128.282 35.8198C128.282 35.8198 128.295 35.91 128.334 35.9229C128.372 35.9358 128.437 35.9615 128.527 35.9744C128.553 35.9744 128.566 36.0002 128.566 36.0388C128.566 36.0517 128.566 36.0775 128.566 36.1032C128.488 36.1032 128.411 36.1032 128.334 36.0903C128.257 36.0903 128.179 36.0903 128.115 36.0903C128.05 36.0903 127.973 36.0903 127.896 36.0903C127.819 36.0903 127.741 36.0903 127.664 36.1032C127.664 36.0775 127.664 36.0646 127.664 36.0388C127.664 36.0002 127.677 35.9873 127.703 35.9744C127.793 35.9615 127.857 35.9358 127.896 35.9229C127.935 35.91 127.947 35.8714 127.947 35.8198V33.9396C127.947 33.9396 127.935 33.8494 127.896 33.8366C127.857 33.8108 127.793 33.798 127.703 33.7851C127.69 33.7851 127.677 33.7851 127.677 33.7593C127.677 33.7593 127.677 33.7335 127.677 33.7206C127.677 33.7077 127.677 33.682 127.677 33.6562C127.754 33.6562 127.832 33.6562 127.909 33.6562C127.986 33.6562 128.063 33.6562 128.128 33.6562C128.192 33.6562 128.257 33.6562 128.347 33.6562C128.424 33.6562 128.501 33.6562 128.579 33.6562C128.579 33.682 128.579 33.6949 128.579 33.7206C128.579 33.7593 128.566 33.7722 128.54 33.7851C128.45 33.798 128.385 33.8237 128.347 33.8366C128.308 33.8623 128.295 33.8881 128.295 33.9396V35.8198H128.282Z" fill="black"/>
<path d="M130.781 35.503V33.9575C130.781 33.9575 130.755 33.8674 130.716 33.8416C130.678 33.8159 130.613 33.803 130.523 33.7902C130.497 33.7902 130.484 33.7643 130.484 33.7257C130.484 33.7128 130.484 33.6871 130.484 33.6613C130.549 33.6613 130.613 33.6613 130.677 33.6613C130.742 33.6613 130.806 33.6613 130.858 33.6613C130.909 33.6613 130.974 33.6613 131.025 33.6613C131.09 33.6613 131.141 33.6613 131.206 33.6613C131.206 33.6871 131.206 33.6999 131.206 33.7257C131.206 33.7643 131.206 33.7902 131.167 33.7902C131.077 33.7902 131.025 33.8159 130.999 33.8416C130.974 33.8674 130.948 33.9061 130.948 33.9447V36.1212C130.948 36.1212 130.935 36.1212 130.922 36.1212H130.896C130.884 36.1212 130.858 36.1212 130.845 36.1083C130.832 36.1083 130.806 36.0825 130.794 36.0567L129.287 34.0735V35.8249C129.287 35.8249 129.3 35.9151 129.338 35.928C129.377 35.9537 129.441 35.9666 129.531 35.9795C129.557 35.9795 129.57 36.0053 129.57 36.0439C129.57 36.0568 129.57 36.0825 129.57 36.1083C129.506 36.1083 129.441 36.1083 129.377 36.0954C129.313 36.0954 129.261 36.0954 129.197 36.0954C129.145 36.0954 129.094 36.0954 129.016 36.0954C128.952 36.0954 128.887 36.0954 128.836 36.1083C128.836 36.0825 128.836 36.0568 128.836 36.0439C128.836 36.0053 128.836 35.9923 128.875 35.9795C128.965 35.9666 129.029 35.9408 129.055 35.928C129.081 35.9022 129.106 35.8764 129.106 35.8249V33.9189C129.106 33.9189 129.093 33.8545 129.068 33.8288C129.042 33.803 128.978 33.7901 128.888 33.7773C128.862 33.7773 128.849 33.7515 128.849 33.7129C128.849 33.7129 128.849 33.6871 128.849 33.6742C128.849 33.6742 128.849 33.6613 128.849 33.6484C128.9 33.6484 128.939 33.6484 128.99 33.6484C129.029 33.6484 129.068 33.6484 129.119 33.6484C129.158 33.6484 129.196 33.6484 129.235 33.6484C129.312 33.6484 129.351 33.6484 129.377 33.6484C129.403 33.6484 129.415 33.6614 129.441 33.6871L130.768 35.4644L130.781 35.503Z" fill="black"/>
<path d="M132.149 33.8256V34.7786H132.729C132.729 34.7786 132.819 34.7528 132.832 34.7013C132.857 34.6498 132.87 34.5982 132.883 34.521C132.883 34.4823 132.909 34.4695 132.947 34.4695C132.947 34.4695 132.96 34.4695 132.973 34.4695H132.999C132.999 34.521 132.999 34.5854 132.986 34.6498C132.986 34.7142 132.986 34.7786 132.986 34.8301C132.986 34.8688 132.986 34.9203 132.986 34.9847C132.986 35.0491 132.986 35.1134 132.999 35.1907C132.973 35.1907 132.96 35.1907 132.947 35.1907C132.909 35.1907 132.883 35.1778 132.87 35.1392C132.87 35.0748 132.844 35.0104 132.819 34.9589C132.793 34.9074 132.767 34.8816 132.716 34.8816H132.136V35.7573C132.136 35.7573 132.175 35.8475 132.239 35.8604C132.304 35.8733 132.42 35.8861 132.574 35.8861H132.78C132.857 35.8861 132.909 35.8861 132.973 35.8475C133.025 35.8217 133.076 35.796 133.115 35.7573C133.154 35.7187 133.192 35.6801 133.218 35.6286C133.257 35.5771 133.282 35.5256 133.308 35.4612C133.308 35.4483 133.334 35.4354 133.36 35.4354C133.373 35.4354 133.385 35.4354 133.398 35.4354C133.411 35.4354 133.424 35.4483 133.437 35.4612C133.411 35.5127 133.398 35.5642 133.373 35.6286C133.36 35.693 133.347 35.7573 133.334 35.8217C133.321 35.8861 133.295 35.9376 133.282 35.9763C133.269 36.0149 133.244 36.0407 133.218 36.0407C133.192 36.0407 133.166 36.0407 133.128 36.0407C133.089 36.0407 133.051 36.0407 133.012 36.0407C132.973 36.0407 132.922 36.0407 132.883 36.0407C132.845 36.0407 132.806 36.0407 132.767 36.0407H131.956C131.879 36.0407 131.814 36.0407 131.724 36.0407C131.647 36.0407 131.569 36.0406 131.492 36.0535C131.492 36.0278 131.492 36.002 131.492 35.9891C131.492 35.9505 131.505 35.9376 131.531 35.9248C131.621 35.9119 131.685 35.8862 131.737 35.8733C131.776 35.8475 131.801 35.8217 131.801 35.7702V33.877C131.801 33.877 131.788 33.7998 131.75 33.7741C131.711 33.7483 131.647 33.7354 131.544 33.7097C131.518 33.7097 131.505 33.6839 131.505 33.6452V33.6195C131.505 33.6195 131.505 33.6066 131.505 33.5938C131.608 33.5938 131.698 33.6066 131.776 33.6066C131.853 33.6066 131.904 33.6066 131.969 33.6066H132.703C132.819 33.6066 132.909 33.6066 132.986 33.6066C133.063 33.6066 133.128 33.6066 133.154 33.6066C133.192 33.6066 133.205 33.6324 133.218 33.671C133.218 33.7097 133.244 33.7611 133.244 33.8127C133.244 33.8642 133.257 33.9286 133.269 33.993C133.269 34.0574 133.295 34.1089 133.321 34.1604C133.295 34.1733 133.282 34.1862 133.257 34.1862C133.218 34.1862 133.205 34.1862 133.192 34.1475C133.166 34.0831 133.141 34.0316 133.102 33.9801C133.063 33.9286 133.038 33.9029 133.012 33.8642C132.973 33.8385 132.935 33.8127 132.883 33.7998C132.832 33.7869 132.767 33.7741 132.69 33.7741H132.136L132.149 33.8256Z" fill="black"/>
<path d="M0.0257823 27.7263C0.0257823 27.7263 0 27.6619 0 27.6362C0 27.5846 0.0514954 27.5331 0.141645 27.5202L5.51206 26.0649L1.01746 24.8415C1.01746 24.8415 0.94023 24.8157 0.901594 24.8157C0.862958 24.8157 0.837101 24.8157 0.798465 24.8157C0.695436 24.8157 0.618253 24.8543 0.566739 24.9445C0.515224 25.0346 0.47662 25.1634 0.437984 25.3437C0.437984 25.4081 0.37356 25.4339 0.244775 25.4339C0.180382 25.4339 0.128849 25.4339 0.0644557 25.421C0.0773343 25.2665 0.0902506 25.1119 0.103129 24.9574C0.103129 24.79 0.11602 24.6483 0.11602 24.5196C0.11602 24.3779 0.116008 24.2362 0.103129 24.0688C0.103129 23.9142 0.0773343 23.7855 0.0644557 23.6953C0.0902129 23.6953 0.115901 23.6953 0.154537 23.6953C0.193172 23.6953 0.219017 23.6953 0.244775 23.6953C0.360682 23.6953 0.424961 23.734 0.450718 23.7984C0.476476 23.9658 0.528116 24.1074 0.57963 24.1847C0.631144 24.2749 0.734147 24.3392 0.875812 24.3778L7.44385 26.1938C7.44385 26.1938 7.46963 26.2582 7.46963 26.2839C7.46963 26.3483 7.40519 26.3998 7.26353 26.4385L2.04781 27.8808L7.44385 29.349C7.44385 29.349 7.46963 29.4005 7.46963 29.4391C7.46963 29.5035 7.40519 29.5551 7.26353 29.5937L0.811356 31.4482C0.708327 31.474 0.631144 31.5255 0.57963 31.6028C0.528116 31.68 0.476476 31.8217 0.450718 32.0277C0.424961 32.0921 0.360682 32.1179 0.244775 32.1179C0.206139 32.1179 0.154618 32.1179 0.0773469 32.105C0.0773469 32.0277 0.0902506 31.9376 0.103129 31.8475C0.103129 31.7573 0.103142 31.6542 0.11602 31.5641C0.11602 31.4739 0.11602 31.371 0.11602 31.2808C0.11602 31.1907 0.11602 31.1133 0.11602 31.0489C0.11602 30.9073 0.116008 30.727 0.103129 30.5338C0.103129 30.3278 0.0773343 30.1346 0.0644557 29.9672C0.141727 29.9672 0.19326 29.9543 0.244775 29.9543C0.360682 29.9543 0.412227 29.9929 0.437984 30.0444C0.463742 30.2119 0.502333 30.3406 0.553848 30.4308C0.605362 30.5209 0.695436 30.5724 0.798465 30.5724C0.849979 30.5724 0.888583 30.5725 0.927219 30.5467L5.49917 29.246L0 27.7649L0.0257823 27.7263Z" fill="black"/>
<path d="M3.73482 23.3255C3.21967 23.3255 2.74317 23.2483 2.29242 23.1066C1.84167 22.9649 1.44238 22.7717 1.10754 22.527C0.772695 22.2823 0.502239 21.9862 0.296182 21.6642C0.0901248 21.3422 0 20.9945 0 20.6339C0 20.1317 0.103016 19.6938 0.309073 19.3203C0.51513 18.9468 0.785599 18.6378 1.13332 18.3931C1.48104 18.1484 1.88033 17.968 2.3182 17.8521C2.76895 17.7233 3.24543 17.6719 3.73482 17.6719C4.31435 17.6719 4.84233 17.7491 5.30596 17.8908C5.76959 18.0453 6.15599 18.2514 6.47796 18.5089C6.79992 18.7665 7.04454 19.0756 7.21197 19.4362C7.37939 19.7968 7.46963 20.1703 7.46963 20.5696C7.46963 20.9688 7.37953 21.3551 7.19923 21.69C7.01893 22.0248 6.77413 22.321 6.43928 22.5657C6.10444 22.8104 5.71818 23.0036 5.25456 23.1324C4.79093 23.274 4.28858 23.3384 3.72192 23.3384M6.94157 20.3635C6.94157 20.093 6.87714 19.8484 6.74836 19.6166C6.61957 19.3976 6.42648 19.2044 6.19467 19.037C5.96285 18.8825 5.67949 18.7536 5.35753 18.6635C5.03556 18.5733 4.67502 18.5347 4.28866 18.5347C3.76064 18.5347 3.25835 18.5733 2.8076 18.6635C2.35685 18.7536 1.95755 18.8825 1.62271 19.0499C1.28787 19.2302 1.01744 19.4491 0.837138 19.7195C0.64396 19.99 0.553848 20.2991 0.553848 20.6597C0.553848 20.8915 0.605368 21.1233 0.721275 21.3422C0.837182 21.5612 1.00462 21.7415 1.22356 21.9089C1.44249 22.0763 1.71294 22.2051 2.02202 22.3081C2.34399 22.3983 2.70456 22.4498 3.11667 22.4498C3.65757 22.4498 4.17262 22.3983 4.63625 22.3081C5.09988 22.218 5.51209 22.0763 5.85981 21.9089C6.20753 21.7286 6.4651 21.5096 6.65828 21.2521C6.85145 20.9945 6.94157 20.6983 6.94157 20.3635Z" fill="black"/>
<path d="M4.09506 14.8068V15.4508H6.52913C6.69655 15.4508 6.79959 15.3993 6.86398 15.2705C6.92838 15.1546 6.96699 14.9742 7.00563 14.7296C7.01851 14.6652 7.08293 14.6266 7.19884 14.6266C7.25035 14.6266 7.31462 14.6265 7.39189 14.6394C7.37901 14.7939 7.36625 14.9871 7.35337 15.2061C7.35337 15.425 7.34048 15.6439 7.34048 15.8629C7.34048 16.0174 7.3405 16.1849 7.35337 16.3781C7.35337 16.5712 7.37901 16.7515 7.39189 16.9318C7.31462 16.9318 7.26309 16.9447 7.21157 16.9447C7.10854 16.9447 7.04429 16.9061 7.03141 16.8546C6.99277 16.6356 6.92839 16.4811 6.87687 16.3909C6.81248 16.3008 6.70931 16.2621 6.56764 16.2621H0.926825C0.785161 16.2621 0.682145 16.3008 0.617752 16.3909C0.54048 16.4811 0.488972 16.6356 0.463215 16.8803C0.463215 16.9318 0.38607 16.9705 0.270163 16.9705C0.231527 16.9705 0.167115 16.9705 0.0898438 16.9576C0.102722 16.7773 0.115481 16.6098 0.12836 16.4166C0.12836 16.2363 0.141251 16.0561 0.141251 15.8887V14.7296C0.141251 14.1114 0.321595 13.6349 0.669316 13.3258C1.01704 13.0168 1.49351 12.8493 2.08593 12.8493C2.25335 12.8493 2.4208 12.8751 2.6011 12.9137C2.7814 12.9523 2.94885 13.0297 3.11628 13.1069C3.2837 13.1971 3.43823 13.3129 3.59278 13.4546C3.73444 13.5963 3.85037 13.7637 3.94052 13.9569L6.51624 12.5145C6.70941 12.4115 6.83812 12.2826 6.91539 12.1538C6.99266 12.0251 7.04418 11.8963 7.08282 11.7804C7.0957 11.7289 7.1472 11.7031 7.23735 11.7031C7.30175 11.7031 7.36618 11.7031 7.44346 11.716C7.43058 11.8448 7.41766 12.0122 7.40478 12.2054C7.40478 12.3986 7.39189 12.566 7.39189 12.7334C7.39189 12.8493 7.32761 12.9781 7.18595 13.1069C7.05716 13.2357 6.88971 13.3387 6.67077 13.4546L4.10795 14.8326L4.09506 14.8068ZM3.64434 14.9871C3.64434 14.5879 3.52843 14.2789 3.32238 14.0599C3.10344 13.841 2.71707 13.738 2.17617 13.738C1.94435 13.738 1.73831 13.7637 1.54513 13.8023C1.35195 13.8539 1.18451 13.9182 1.04285 14.0213C0.901181 14.1243 0.785261 14.2531 0.70799 14.4205C0.630718 14.5879 0.592127 14.7811 0.592127 15.0258V15.4508H3.65723V15L3.64434 14.9871Z" fill="black"/>
<path d="M6.54202 9.9215C6.6708 9.9215 6.7609 9.8829 6.81242 9.79275C6.86393 9.7026 6.88961 9.58667 6.88961 9.445V8.50489C6.88961 8.33747 6.86392 8.19579 6.79953 8.07988C6.74801 7.96397 6.67067 7.86096 6.56764 7.77081C6.46461 7.68066 6.33592 7.60339 6.18138 7.539C6.02684 7.47461 5.85938 7.4102 5.66621 7.35868C5.60181 7.3458 5.57613 7.30715 5.57613 7.25563C5.57613 7.22987 5.57599 7.19123 5.60175 7.16547C5.62751 7.12684 5.64045 7.10114 5.66621 7.0625C5.88514 7.10114 6.11702 7.13973 6.37459 7.17836C6.61928 7.217 6.90249 7.24278 7.21157 7.28141C7.28884 7.28141 7.34035 7.30714 7.36611 7.3329C7.39186 7.35866 7.40478 7.39731 7.40478 7.43595C7.40478 7.53898 7.40476 7.65486 7.379 7.8094C7.36612 7.95106 7.35337 8.07983 7.35337 8.19574V10.3465C7.35337 10.4753 7.35323 10.6427 7.36611 10.8488C7.36611 11.0549 7.3919 11.248 7.40478 11.4283C7.32751 11.4283 7.27598 11.4412 7.22446 11.4412C7.12143 11.4412 7.05702 11.4154 7.04414 11.351C6.99263 11.1192 6.94127 10.9518 6.87687 10.8616C6.81248 10.7715 6.7222 10.7329 6.58053 10.7329H0.926825C0.785161 10.7329 0.669266 10.7715 0.617752 10.8488C0.553359 10.9261 0.501851 11.0806 0.463215 11.3124C0.463215 11.3382 0.437552 11.3639 0.398917 11.3768C0.360281 11.3897 0.321532 11.4026 0.282896 11.4026C0.231382 11.4026 0.167115 11.4026 0.0898438 11.3897C0.102722 11.1965 0.115481 11.0033 0.12836 10.8101C0.12836 10.6169 0.141251 10.4624 0.141251 10.3207C0.141251 10.1276 0.141239 9.92153 0.12836 9.70259C0.12836 9.48365 0.102722 9.29046 0.0898438 9.12304C0.167115 9.12304 0.218648 9.11015 0.270163 9.11015C0.398948 9.11015 0.463215 9.13591 0.463215 9.20031C0.501851 9.445 0.553359 9.62528 0.617752 9.74119C0.695023 9.85709 0.810993 9.9215 1.00417 9.9215H6.54202Z" fill="black"/>
<path d="M3.73559 0.953125C4.17346 0.953125 4.61135 1.0175 5.03634 1.1334C5.46133 1.24931 5.84772 1.42963 6.19544 1.67432C6.54317 1.90614 6.81365 2.2152 7.03258 2.5758C7.23864 2.9364 7.34165 3.37426 7.34165 3.85076V5.61512C7.34165 5.75678 7.34167 5.9371 7.35455 6.1174C7.35455 6.31058 7.38018 6.49087 7.39306 6.67117C7.31579 6.67117 7.26426 6.68406 7.21274 6.68406C7.10971 6.68406 7.04546 6.64542 7.03258 6.5939C6.96819 6.37497 6.90376 6.23332 6.83937 6.13029C6.77498 6.04014 6.68487 5.98865 6.55608 5.98865H0.915263C0.773599 5.98865 0.670426 6.02725 0.606033 6.1174C0.54164 6.20755 0.490277 6.36208 0.438763 6.58101C0.438763 6.61965 0.412943 6.6326 0.374307 6.65836C0.335671 6.67124 0.297079 6.68406 0.258444 6.68406C0.219808 6.68406 0.155396 6.68405 0.078125 6.67117C0.0910036 6.55526 0.103907 6.43937 0.103907 6.3621C0.103907 6.27195 0.10392 6.19466 0.116798 6.10451C0.116798 6.02724 0.116798 5.94998 0.116798 5.87271V3.86365C0.116798 3.37427 0.206911 2.96217 0.400089 2.58869C0.593268 2.22809 0.850807 1.91901 1.17277 1.67432C1.49474 1.42963 1.88111 1.24931 2.31898 1.1334C2.75685 1.0175 3.22043 0.953125 3.70981 0.953125M3.94169 1.86749C2.80838 1.86749 1.95843 2.08644 1.40465 2.52431C0.850877 2.96218 0.580408 3.60611 0.580408 4.4561V5.20308H6.47873C6.55601 5.20308 6.62043 5.19016 6.67194 5.1644C6.72346 5.13864 6.76205 5.08714 6.78781 5.00987C6.81356 4.94547 6.83938 4.84248 6.85226 4.72657C6.86514 4.61067 6.87805 4.45606 6.87805 4.26289C6.87805 3.82502 6.81361 3.43866 6.67194 3.14246C6.53028 2.83337 6.33699 2.5887 6.07942 2.39552C5.82185 2.20234 5.5128 2.07354 5.1522 1.98339C4.7916 1.89324 4.37955 1.8546 3.9288 1.8546" fill="black"/>
</svg>
