<svg width="159" height="30" viewBox="0 0 159 30" fill="none" xmlns="http://www.w3.org/2000/svg">
<path d="M11.0389 18.4478C12.4486 18.4478 13.506 17.5919 13.506 16.0437C13.506 14.3822 12.3983 13.6396 11.0389 13.6396H6.46975V18.5107H11.0389V18.4478ZM10.4851 9.25925C11.7186 9.25925 12.6374 8.57957 12.6374 7.15724C12.6374 5.7349 11.7186 5.11815 10.4221 5.11815H6.41951V9.19633H10.4851V9.25925ZM0 0.0078125H11.6556C13.8709 0.0078125 15.5451 0.561633 16.7786 1.49307C18.138 2.60073 18.8806 4.21187 18.8806 6.17545C18.8806 8.4537 17.9618 9.87605 16.1115 10.7446V10.8704C18.5785 11.676 20.0008 13.8913 20.0008 16.5472C20.0008 19.203 19.0191 21.0533 17.408 22.2868C16.0486 23.2812 14.3241 23.7092 11.9829 23.7092H0.0251987V0.0329727L0 0.0078125Z" fill="#010101"/>
<path d="M27.1242 0.0078125H21.0195V23.7469H27.1242V0.0078125Z" fill="#010101"/>
<path d="M39.8387 15.3118C39.8387 12.3538 38.92 10.5035 37.0697 10.5035C35.2194 10.5035 34.3508 12.3538 34.3508 15.3118C34.3508 18.2698 35.2068 20.183 37.0697 20.183C38.92 20.12 39.8387 18.2698 39.8387 15.3118ZM28.3594 15.3118C28.3594 9.94973 31.8082 6.375 37.1829 6.375C42.5576 6.375 45.9434 10.0127 45.9434 15.3118C45.9434 20.6109 42.5576 24.2486 37.1829 24.2486C31.8082 24.2486 28.3594 20.6739 28.3594 15.3118Z" fill="#010101"/>
<path d="M58.0879 15.3118C58.0879 12.3538 57.1691 10.5035 55.3188 10.5035C53.4685 10.5035 52.5999 12.3538 52.5999 15.3118C52.5999 18.2698 53.4685 20.183 55.3188 20.183C57.1691 20.12 58.0879 18.2698 58.0879 15.3118ZM46.6211 15.3118C46.6211 9.94973 50.07 6.375 55.4446 6.375C60.8193 6.375 64.1423 9.94973 64.1423 15.3118C64.1423 20.6739 60.7563 24.2486 55.3816 24.2486C50.007 24.2486 46.6211 20.6739 46.6211 15.3118Z" fill="#010101"/>
<path d="M65.3633 6.78775H71.04V9.31776H71.1659C72.2735 7.34159 73.8218 6.29688 76.2889 6.29688C78.4413 6.29688 80.0524 7.34158 80.858 9.19188H80.9838C82.3432 6.97656 84.1305 6.29688 86.2199 6.29688C90.1723 6.29688 91.8339 9.19187 91.8339 13.0813V23.6921H85.9179V14.126C85.9179 12.4016 85.364 11.2939 83.8788 11.2939C82.3935 11.2939 81.6634 12.6533 81.6634 14.5036V23.6921H75.7476V14.126C75.7476 12.4016 75.1938 11.2939 73.7085 11.2939C72.2232 11.2939 71.4932 12.6533 71.4932 14.5036V23.6921H65.3885V6.78775H65.3633Z" fill="#010101"/>
<path d="M105.026 15.117C105.026 12.3982 104.045 10.6109 102.245 10.6109C100.445 10.6109 99.2865 12.3982 99.2865 15.117C99.2865 17.8358 100.457 19.6232 102.245 19.6232C104.032 19.6232 105.026 17.8988 105.026 15.117ZM99.2865 21.4735H99.2236V23.6888H93.5469V0H99.4627V8.50885H99.5886C100.696 7.02358 102.245 6.218 104.397 6.218C108.651 6.218 111.118 10.0444 111.118 15.1674C111.118 20.907 108.462 24.23 104.019 24.23C102.169 24.23 100.256 23.3741 99.2739 21.4609" fill="#010101"/>
<path d="M117.725 13.4463H123.15C123.025 11.4072 121.917 10.3625 120.495 10.3625C118.833 10.2995 117.902 11.4701 117.725 13.4463ZM111.809 15.2336C111.809 9.9345 115.321 6.29688 120.381 6.29688C122.911 6.29688 124.824 7.10242 126.297 8.51217C128.273 10.4254 129.142 13.3834 129.079 16.8322H117.725C117.977 18.9343 118.959 20.0419 120.746 20.0419C121.791 20.0419 122.722 19.551 123.087 18.4434H128.827C127.845 22.3328 124.824 24.2334 120.557 24.2334C115.321 24.1705 111.797 20.5957 111.797 15.2336" fill="#010101"/>
<path d="M135.79 9.68666H135.916C137.15 7.34547 138.748 6.41406 140.787 6.41406C141.278 6.41406 141.593 6.47699 141.769 6.60286V11.7761H141.643C138.131 11.1593 136.092 12.8209 136.092 16.6473V23.7338H130.113V6.77906H135.79V9.6741V9.68666Z" fill="#010101"/>
<path d="M153.372 14.6252C153.372 12.5231 152.39 10.7987 150.653 10.7987C148.916 10.7987 147.934 12.284 147.934 14.6252C147.934 16.9663 148.979 18.5145 150.653 18.5145C152.327 18.5145 153.372 16.8531 153.372 14.6252ZM142.396 23.7508H148.136C148.387 24.4934 149.117 25.1731 150.54 25.1731C152.453 25.1731 153.133 24.0025 153.133 22.2151V20.9816H153.007C152.075 22.0893 150.779 22.8948 148.941 22.8948C145.304 22.8948 142.094 20.1886 142.094 14.8769C142.094 10.0057 144.687 6.24219 148.627 6.24219C150.905 6.24219 152.264 7.16106 153.196 8.5834H153.321V6.7331H158.998V21.4096C158.998 24.1158 158.079 26.2178 156.657 27.4513C155.184 28.7478 153.082 29.3016 150.678 29.3016C146.122 29.3646 142.975 27.5143 142.421 23.7508" fill="#010101"/>
</svg>
