<svg width="143" height="37" viewBox="0 0 143 37" fill="none" xmlns="http://www.w3.org/2000/svg">
<path d="M23.5988 0.90625V1.26296H26.6966L18.8115 26.8707L9.46204 1.26296H12.541V0.90625H0V1.26296H3.30418L16.2583 36.6519L27.3724 1.26296H30.3575V0.90625H23.5988Z" fill="#231F20"/>
<path fill-rule="evenodd" clip-rule="evenodd" d="M84.3741 0.281655V12.5786H84.0924C83.5668 10.1567 82.8158 7.79124 81.5204 5.66978C79.9809 3.17284 77.5216 0.35671 74.3112 0.35671C66.9518 0.35671 66.2759 13.5549 66.2759 18.5863C66.2759 23.092 66.6326 27.748 68.266 31.9533C69.4112 34.9196 71.0821 36.3653 74.161 36.3653C76.6017 36.3653 79.2112 35.1261 80.5067 33.0047C80.8446 32.4415 80.8633 31.8408 80.8633 31.2025V21.7028H77.653V21.3273H89.443V21.7028H86.6832V35.9146H86.4392C85.7445 34.7506 84.6557 33.9998 83.2476 33.9998C82.2338 33.9998 81.2388 34.3565 80.3564 34.8446L79.568 35.2764C77.7656 36.0837 76.0384 36.6656 74.0484 36.6656C64.9055 36.6656 60.043 26.9219 60.043 18.8304C60.043 12.9166 62.2958 6.58974 67.0832 2.89127C69.2422 1.23916 71.833 0 74.5928 0C75.6817 0 76.7519 0.337959 77.7469 0.732213L78.479 1.01387C79.3239 1.33303 80.225 1.61465 81.1262 1.61465C82.2526 1.61465 83.2476 0.882386 84.1112 0.244071H84.3928L84.3741 0.281655Z" fill="#231F20"/>
<path fill-rule="evenodd" clip-rule="evenodd" d="M87.8867 0.898438H100.447V1.25515H97.1047V28.5525C97.1047 32.8329 101.498 35.4238 105.365 35.4238C109.514 35.4238 113.006 32.5325 113.006 28.3084V1.27394H109.064V0.91723H141.505V13.5709H141.261C140.886 10.2291 140.247 6.79345 137.938 4.16509C135.61 1.51796 132.437 1.27394 129.189 1.27394H125.679V17.5509C126.392 17.626 127.124 17.6824 127.875 17.6824C132.287 17.6824 133.432 14.641 133.639 10.8862H133.958V25.1732H133.639C133.076 21.7563 131.574 18.0954 127.575 18.0954C126.937 18.0954 126.317 18.1329 125.697 18.1892V35.5927H130.973C133.695 35.5927 136.417 34.41 138.351 32.4951C140.003 30.8805 141.148 28.759 141.543 26.4874C141.768 25.2107 141.862 23.9153 141.937 22.6199H142.219V35.9494H116.855V35.5927H119.802V1.27394H113.57V28.421C113.57 34.0345 108.238 36.5126 103.244 36.5126C97.5929 36.5126 91.3599 33.7717 91.3599 27.3134V1.27394H87.9242V0.91723L87.8867 0.898438Z" fill="#231F20"/>
<path fill-rule="evenodd" clip-rule="evenodd" d="M52.5713 5.6492C50.0368 2.51395 46.0755 0.148438 41.964 0.148438C37.477 0.148438 33.4594 2.62659 30.7747 6.11855C28.0524 9.66683 26.7383 14.135 26.7383 18.5657C26.7383 22.9964 28.1651 27.8588 31.1126 31.4822C33.6846 34.655 37.6648 37.0018 41.8326 37.0018C46.282 37.0018 50.2809 34.4861 52.928 31.0317C55.6315 27.4834 56.9644 23.0152 56.9644 18.5845C56.9644 14.1538 55.5 9.27258 52.59 5.6492M41.8326 36.4574C34.905 36.4574 33.0839 23.691 33.0839 18.5657C33.0839 13.4404 34.8862 0.674164 41.8326 0.674164C48.7789 0.674164 50.5813 13.4592 50.5813 18.5657C50.5813 23.6722 48.7602 36.4574 41.8326 36.4574Z" fill="#231F20"/>
</svg>
