<svg width="163" height="23" viewBox="0 0 163 23" fill="none" xmlns="http://www.w3.org/2000/svg">
<path d="M4.66202 12.6675V6.51747L2.81192 7.33748C2.81192 7.33748 2.34203 8.39748 2.42202 9.92748C2.48202 11.1275 3.15202 12.5575 3.67202 13.1575L4.66202 12.6675ZM10.0819 0.0174741C10.5419 0.0574741 11.252 0.28748 11.792 0.75748C12.362 1.31748 12.492 2.15748 12.292 2.92748C12.112 3.60748 11.9119 3.96747 11.2119 4.43747C10.5019 4.91747 9.65201 4.87747 9.65201 4.87747V7.83748L11.0919 9.00748L9.65201 10.1675V14.2075C9.65201 14.2075 11.102 13.3775 11.992 11.5275C11.992 11.5275 12.032 11.4275 12.112 11.2375C12.192 11.7375 12.1419 12.7375 11.5819 14.0275C11.1619 14.9975 10.392 15.9375 9.42202 16.4675C7.71202 17.4175 6.43203 17.5075 5.05203 17.2175C3.44203 16.8875 1.97196 15.9775 0.981962 14.3975C0.281962 13.2875 -0.0280189 11.9975 0.00198113 10.6075C0.0619811 7.87747 2.09191 5.51747 4.43191 4.63747C4.72191 4.52747 4.83196 4.45748 5.23196 4.41748C5.04196 4.54748 4.83192 4.70747 4.56192 4.88747C3.80192 5.38747 3.16199 6.36747 2.88199 7.13747L7.43191 5.10747V11.4675L3.76199 13.3075C4.18199 13.8875 5.45202 14.7675 6.54202 14.8875C8.39202 15.0875 9.47195 14.2875 9.47195 14.2875V10.1675L8.04202 9.00748L9.47195 7.84748V4.87747C8.69195 4.78747 7.74191 4.52747 7.18191 4.38747C6.36191 4.18747 3.64194 3.41747 3.21194 3.35747C2.78194 3.29747 2.25192 3.31748 1.94192 3.59748C1.62192 3.88748 1.42192 4.38748 1.56192 4.84748C1.64192 5.10748 1.82193 5.25747 1.95193 5.40747C1.95193 5.40747 1.79199 5.39748 1.51199 5.22748C1.00199 4.91748 0.601918 4.31748 0.561918 3.56748C0.501918 2.58748 0.901942 1.71747 1.71194 1.12747C2.41194 0.677475 3.20198 0.387474 4.12198 0.517474C5.46198 0.707474 7.26198 1.46748 8.87198 1.84748C9.49198 1.99748 9.97202 2.04747 10.412 1.79747C10.612 1.64747 10.9719 1.26747 10.6819 0.767474C10.3419 0.177474 9.68199 0.187481 9.13199 0.0874815C9.61199 -0.0125185 9.71193 -0.0125259 10.0719 0.0174741" fill="#231F20"/>
<path d="M27.7911 11.0666L25.7211 12.5766V7.53656L27.7911 11.0666ZM27.7411 6.22656C27.7411 6.22656 26.3411 7.07655 25.4111 7.63655C24.4711 8.18655 23.2111 8.80656 23.2111 8.80656V14.6766L22.3711 15.3466L22.4811 15.4766L23.3011 14.8166L25.8711 17.1366L30.3311 13.6066L30.2211 13.4766L27.7611 15.4066L25.7311 13.5066V12.7966L29.8011 9.80656L27.7411 6.22656Z" fill="#231F20"/>
<path d="M16.0502 19.3403C16.6402 19.4803 17.6702 19.5703 18.9102 18.9403C20.2902 18.2503 20.9801 16.7803 20.9701 15.2803L21.0302 13.1503V8.50031L21.9102 7.82031L21.8101 7.69031L20.9401 8.34032L18.9401 6.11031L16.3701 8.31032V0.820312L13.1602 3.30031C13.3002 3.39031 13.7601 3.47031 13.7701 4.11031V14.6103L12.4102 15.6203L12.5001 15.7603L13.1602 15.2703L14.9901 16.9703L17.8701 14.6803L17.7601 14.5503L17.0801 15.0903L16.3601 14.3803V8.5303L17.2101 7.82031L18.4601 9.37032C18.4601 9.37032 18.4601 13.1603 18.4601 14.4103C18.4501 15.7503 18.4401 17.4203 17.7401 18.2303C17.0401 19.0403 16.7502 19.1103 16.0402 19.3203" fill="#231F20"/>
<path d="M36.0092 18.8063C34.8592 18.6763 34.3792 17.9763 34.3892 17.4263C34.3892 17.0763 34.7193 16.3863 35.4193 16.2863C36.1193 16.1863 36.8292 16.5163 37.4392 17.2263L40.0992 14.2962L39.9692 14.1862L39.2592 14.9863C38.5392 14.1663 37.5092 13.6362 36.4792 13.4962V4.55626L43.3792 17.1163C43.3792 17.1163 43.4492 17.2563 43.7292 17.2563C43.9692 17.2563 43.9193 17.0563 43.9193 17.0563V4.41626C44.4793 4.39626 45.3292 4.08625 45.7492 3.65625C47.0792 2.28625 46.5392 0.80625 46.3892 0.65625C46.3092 1.30625 45.8092 1.95625 44.9692 1.96625C43.8792 1.96625 43.2092 1.16626 43.2092 1.16626L40.5493 4.18625L40.6791 4.29625L41.4392 3.42625C42.3692 4.28625 43.0492 4.36625 43.7492 4.40625V11.7363L38.6292 2.44626C38.1692 1.67626 37.4592 1.00625 36.3592 0.996246C35.0892 0.996246 34.1792 2.10625 34.0692 3.07625C33.9492 4.16625 34.0892 4.41626 34.0892 4.41626C34.0892 4.41626 34.2792 3.20625 35.0292 3.21625C35.6992 3.21625 36.0492 3.84625 36.3292 4.31625V7.00626C35.6292 7.05626 33.8192 7.13625 33.7092 9.01625C33.7092 9.71625 34.1392 10.4463 34.5192 10.6963C35.0092 11.0163 35.3892 11.0163 35.3892 11.0163C35.3892 11.0163 34.7992 10.7063 34.9792 10.0863C35.1392 9.53626 36.2892 9.44625 36.3292 9.67625V13.4763C35.7792 13.4763 34.0092 13.5362 33.2092 15.0462C32.7292 15.9662 32.7592 16.9962 33.2692 17.7162C33.6892 18.3062 34.5593 19.0663 36.0393 18.8063" fill="#231F20"/>
<path d="M50.641 11.0666L48.5709 12.5766V7.53656L50.641 11.0666ZM50.5809 6.22656C50.5809 6.22656 49.181 7.07655 48.251 7.63655C47.311 8.18655 46.051 8.80656 46.051 8.80656V14.6766L45.2109 15.3466L45.3209 15.4766L46.141 14.8166L48.7009 17.1366L53.161 13.6066L53.051 13.4766L50.5909 15.4066L48.5609 13.5066V12.7966L52.631 9.80656L50.5709 6.22656H50.5809Z" fill="#231F20"/>
<path d="M56.8093 17.1772L54.6193 15.3572L53.6593 16.0572L53.5593 15.9172L54.5293 15.2072V10.1272C54.5793 8.03718 52.6093 8.55719 52.7193 6.33719C52.7693 5.36719 53.7093 4.62718 54.1893 4.37718C54.6993 4.11718 55.2493 4.11719 55.2493 4.11719C55.2493 4.11719 54.3593 4.67718 54.5693 5.48718C54.8993 6.72718 57.0193 6.83718 57.0593 8.48718V14.2472L58.6293 15.4972L59.0394 15.1772V8.93718L58.1993 8.09718L60.3693 6.17719L62.3593 7.93718L61.5993 8.75719V14.2872L63.4593 15.8172L63.7894 15.6072V8.95718L62.9393 8.16719L65.1193 6.17719L67.1593 7.85718L67.9693 7.13718L68.0793 7.26718L66.2493 8.87718V14.2972L61.5693 17.1872L59.1694 15.2872L56.7894 17.1672" fill="#231F20"/>
<path d="M152.692 11.0666L150.622 12.5766V7.53656L152.692 11.0666ZM152.632 6.22656C152.632 6.22656 151.232 7.07655 150.302 7.63655C149.362 8.18655 148.102 8.80656 148.102 8.80656V14.6766L147.262 15.3466L147.372 15.4766L148.192 14.8166L150.762 17.1366L155.222 13.6066L155.112 13.4766L152.652 15.4066L150.622 13.5066V12.7966L154.692 9.80656L152.632 6.22656Z" fill="#231F20"/>
<path d="M131.691 8.68001L131.802 8.81001L132.641 8.09001L133.891 9.5V14.34L133.281 14.9L135.231 17.09L137.221 15.13L136.401 14.28V8.42001L136.901 8.02L138.271 9.63V14.46L137.751 14.98L139.581 17.04L141.542 15.08L140.821 14.33L140.802 8.44L141.331 8.01001L142.771 9.60001V14.4L142.302 14.87L144.321 17.08L147.031 14.57L146.911 14.45L146.261 15.05L145.241 13.94V8.45001L146.221 7.71001L146.121 7.57001L145.141 8.31001L143.302 6.25L140.661 8.33L138.811 6.32001L136.261 8.31001L134.401 6.33L131.691 8.68001Z" fill="#231F20"/>
<path d="M126.172 8.52905L126.282 8.65906L126.992 8.04906L128.102 9.35905V14.8991L127.322 15.5891L127.432 15.7091L128.252 15.0091L130.042 17.0791L132.632 14.7691L132.522 14.6391L131.752 15.3091L130.692 14.0791V8.65906L131.592 7.87906L131.482 7.74905L130.622 8.48906L128.742 6.28906L126.172 8.52905Z" fill="#231F20"/>
<path d="M126.922 3.93625L128.862 2.15625L130.452 3.91626L128.492 5.68625L126.922 3.93625Z" fill="#231F20"/>
<path d="M118.889 12.6675V6.51747L117.039 7.33748C117.039 7.33748 116.569 8.39748 116.649 9.92748C116.709 11.1275 117.379 12.5575 117.899 13.1575L118.889 12.6675ZM124.299 0.0174741C124.759 0.0574741 125.469 0.28748 126.009 0.75748C126.579 1.31748 126.709 2.15748 126.509 2.92748C126.329 3.60748 126.129 3.96747 125.429 4.43747C124.729 4.91747 123.869 4.87747 123.869 4.87747V7.83748L125.309 9.00748L123.869 10.1675V14.2075C123.869 14.2075 125.309 13.3775 126.209 11.5275C126.209 11.5275 126.249 11.4275 126.329 11.2375C126.409 11.7375 126.369 12.7375 125.799 14.0275C125.379 14.9975 124.609 15.9375 123.639 16.4675C121.929 17.4175 120.649 17.5075 119.269 17.2175C117.659 16.8875 116.199 15.9775 115.199 14.3975C114.499 13.2875 114.179 11.9975 114.209 10.6075C114.269 7.87747 116.299 5.51747 118.639 4.63747C118.929 4.52747 119.039 4.45748 119.439 4.41748C119.249 4.54748 119.039 4.70747 118.769 4.88747C118.009 5.38747 117.369 6.36747 117.089 7.13747L121.639 5.10747V11.4675L117.969 13.3075C118.389 13.8875 119.659 14.7675 120.749 14.8875C122.599 15.0875 123.689 14.2875 123.689 14.2875V10.1675L122.259 9.00748L123.689 7.84748V4.87747C122.909 4.78747 121.959 4.52747 121.399 4.38747C120.579 4.18747 117.859 3.41747 117.429 3.35747C116.999 3.29747 116.469 3.31748 116.149 3.59748C115.829 3.88748 115.629 4.38748 115.769 4.84748C115.849 5.10748 116.019 5.25747 116.159 5.40747C116.159 5.40747 115.999 5.39748 115.719 5.22748C115.209 4.91748 114.809 4.31748 114.769 3.56748C114.709 2.58748 115.109 1.71747 115.919 1.12747C116.619 0.677475 117.409 0.387474 118.329 0.517474C119.669 0.707474 121.469 1.46748 123.079 1.84748C123.699 1.99748 124.179 2.04747 124.619 1.79747C124.819 1.64747 125.179 1.26747 124.889 0.767474C124.549 0.177474 123.889 0.187481 123.339 0.0874815C123.819 -0.0125185 123.919 -0.0125259 124.279 0.0174741" fill="#231F20"/>
<path d="M158.428 7.355V10.265L159.398 11.115C159.398 11.115 161.508 9.43501 162.268 7.86501C162.268 7.86501 161.319 9.155 160.049 8.755C158.979 8.435 158.428 7.355 158.428 7.355ZM156.078 15.075C156.078 15.075 156.998 13.555 158.588 13.875C160.108 14.185 160.638 15.795 160.638 15.795V12.095L159.578 11.175C158.418 12.345 156.338 14.035 156.088 15.065M157.588 17.885C157.288 17.975 156.008 17.665 155.698 16.335C155.398 15.035 156.298 14.165 157.658 12.775L156.049 11.305V8.505C156.049 8.505 157.228 7.91501 158.148 7.33501C159.078 6.75501 160.018 6.125 160.018 6.125C160.018 6.125 160.708 6.995 161.488 6.925C162.708 6.815 162.648 5.855 162.618 5.625C162.828 5.995 163.388 7.105 161.238 9.575L162.988 10.985V14.625C162.988 14.625 160.958 15.675 159.038 17.085C159.038 17.085 157.968 15.745 157.038 16.385C156.408 16.815 156.698 17.545 157.578 17.875" fill="#231F20"/>
<path d="M87.3621 13.7497L89.6221 15.7897V9.53969L87.3621 7.44969V13.7497ZM92.0121 8.64969L92.8021 7.92969L92.9121 8.05969L92.1421 8.76968V14.5597C92.1421 14.5597 90.6821 15.3297 89.6721 15.8997C88.6621 16.4697 87.572 17.1497 87.572 17.1497L84.9021 14.8997L84.192 15.5097L84.082 15.3797L84.822 14.7297V8.50969H84.832C84.832 8.50969 86.0921 7.93969 87.1521 7.33969C88.1021 6.79969 89.1621 6.17969 89.1621 6.17969L92.0021 8.64969H92.0121Z" fill="#231F20"/>
<path d="M97.2617 8.06001L98.9517 6.33C98.9517 6.33 99.1817 6.54 99.4017 6.64C99.5217 6.7 100.042 6.97001 100.512 6.71001C100.772 6.57001 100.802 6.53 101.082 6.27C101.142 7.62 100.492 8.57001 99.6816 8.96001C99.3516 9.12001 98.3817 9.43001 97.3817 8.20001V14.43L98.4517 15.38L99.3517 14.64L99.4517 14.77L96.6417 17.11L94.5017 15.17L93.7317 15.89L93.6117 15.76L94.7817 14.7V9.32001L93.8917 8.13L93.1217 8.81001L93.0117 8.69L95.7317 6.25L97.2517 8.07001" fill="#231F20"/>
<path d="M104.42 10.6559L107.56 6.09593C107.56 6.09593 107.97 6.58592 108.69 6.77592C109.67 7.02592 110.52 6.08594 110.52 6.08594C110.36 7.30594 109.74 8.68593 108.46 8.90593C107.34 9.09593 106.29 8.21593 106.29 8.21593L106.09 8.53593L110.44 15.1159L111.31 14.3559L111.42 14.4859L108.43 17.0959L104.41 10.6759" fill="#231F20"/>
<path d="M101.822 4.56718C101.822 3.58718 101.422 2.97718 100.892 3.01718L104.312 0.617188V14.2172L105.222 15.1672L105.902 14.5772L106.012 14.7072L103.252 17.1172L101.382 15.3672L100.632 16.0272L100.512 15.8972L101.822 14.7672V4.57718" fill="#231F20"/>
<path d="M79.8609 8.3903C79.8609 8.3903 79.481 8.82031 78.891 8.82031C78.301 8.82031 77.911 8.3903 77.911 8.3903V10.2503C77.911 10.2503 78.301 9.82031 78.891 9.82031C79.481 9.82031 79.8609 10.2303 79.8609 10.2303V8.3903ZM79.8609 4.40031L78.541 3.24031L77.901 3.74031V8.11031C77.901 8.11031 78.291 8.61031 78.891 8.61031C79.491 8.61031 79.8609 8.13031 79.8609 8.13031V4.40031ZM77.901 16.7703C77.901 16.7703 78.701 16.9803 79.281 16.5003C79.931 15.9703 79.8609 15.2203 79.8609 15.2203V10.5103C79.8609 10.5103 79.491 10.0303 78.891 10.0303C78.291 10.0303 77.901 10.5303 77.901 10.5303V16.7703ZM73.2209 4.34032C73.2209 3.42032 72.8509 2.91031 72.2409 2.90031C71.3709 2.88031 71.171 4.11031 71.171 4.11031C71.171 4.11031 71.011 3.16032 71.801 2.31032C72.251 1.83032 73.0809 1.16031 74.3709 1.47031C75.7109 1.80031 76.0909 2.83031 76.0909 3.75031V16.4003C76.0909 16.4003 76.6009 16.4603 76.9409 16.5403C77.3409 16.6203 77.7209 16.7303 77.7209 16.7303V1.47031H77.891V3.5303L80.641 1.32031L82.651 3.11031L83.5909 2.30031L83.7009 2.43031L82.7209 3.27031V15.0403C82.6709 15.8103 82.5509 16.5903 81.8209 17.0403C80.2009 18.0003 78.251 16.8903 76.521 16.6403C75.231 16.4503 73.2109 16.2103 72.7009 17.3903C72.5309 17.7803 72.541 18.3803 73.131 18.7703C74.301 19.5603 79.5309 17.4503 81.3209 18.2903C82.9509 19.0503 82.9509 20.2603 82.7009 21.0803C82.2809 22.6303 80.3209 22.9003 80.3209 22.9003C80.3209 22.9003 81.281 22.3403 81.001 21.4203C80.861 20.9603 80.551 20.8203 79.521 20.9403C77.281 21.2003 74.601 22.2803 72.801 21.5303C71.871 21.1503 71.221 19.9803 71.281 18.8503C71.331 17.2103 73.2209 16.5603 73.2209 16.5603V10.5003C73.1609 10.2603 72.1609 10.3203 71.9309 10.7703C71.5909 11.4403 72.3509 11.7503 72.3509 11.7503C72.3509 11.7503 71.7309 11.8403 71.2009 11.2403C70.9509 10.9403 70.4109 9.91031 71.1109 8.96031C71.6809 8.17031 72.3609 8.03031 73.2209 7.94031V4.36031V4.34032Z" fill="#231F20"/>
</svg>
