<svg width="149" height="43" viewBox="0 0 149 43" fill="none" xmlns="http://www.w3.org/2000/svg">
<path d="M15.0062 31.8618C15.0062 31.8618 16.624 28.5974 16.8696 25.3908C16.8696 25.3908 16.9706 24.5819 16.6239 24.5241C16.2773 24.4664 15.844 24.9864 15.7863 25.4919C15.7285 25.9975 15.7574 27.6441 15.4685 28.0485C15.4685 28.0485 14.963 28.5541 14.3708 28.4241C14.3708 28.4241 13.6918 28.0485 13.9085 27.3985C13.9085 27.3985 14.0096 27.0952 14.3129 26.9363C14.3129 26.9363 14.4718 26.633 14.3129 26.5608C14.154 26.4741 13.6341 26.4597 13.4897 26.8208C13.4897 26.8208 13.0852 27.3841 13.0274 27.5574C12.9696 27.7307 12.6807 27.7596 12.6807 27.7596C12.6807 27.7596 12.1608 27.803 12.1608 27.5574C12.1608 27.3119 12.3485 25.5641 12.8396 25.0297C12.8396 25.0297 13.2441 24.2931 13.1286 24.062C13.1286 24.062 13.0562 23.6431 11.8862 23.8164C11.8862 23.8164 10.9619 23.8886 10.9186 23.4698C10.9186 23.4698 10.6874 22.7475 11.5107 22.6464C11.5107 22.6464 13.4174 22.2853 13.4029 20.8987C13.4029 20.8987 13.403 19.541 12.4064 19.0065L11.0486 18.2265C11.0486 18.2265 10.4419 17.851 10.9041 17.5332C10.9041 17.5332 11.1208 17.3744 11.8141 17.4321C11.8141 17.4321 12.2619 17.5477 12.3775 17.3166C12.3775 17.3166 12.4642 17.0999 12.4064 17.0132L12.3486 16.9266C12.3486 16.9266 12.2185 16.6666 12.6085 16.681C12.6085 16.681 13.374 16.681 14.0818 17.6055C14.0818 17.6055 14.443 18.1688 14.9196 18.0532C14.9196 18.0532 15.353 18.1543 15.4685 17.1144L15.5406 15.6988C15.5406 15.6988 15.5118 15.0055 15.7429 15.0777C15.7429 15.0777 15.9307 15.0633 15.9596 15.2944C15.9596 15.2944 16.0029 15.5833 16.104 15.4966C16.104 15.4966 16.2918 15.3088 16.3062 14.8322C16.3062 14.8322 16.3063 14.0666 16.7107 14.0955C16.7107 14.0955 17.4183 13.9078 17.4761 14.4277C17.4761 14.4277 17.5628 15.9299 17.4761 16.7677C17.4761 16.7677 17.3751 17.461 17.7506 17.4466C17.7506 17.4466 18.2272 17.5188 18.6028 17.0132C18.9783 16.5077 19.9172 15.3666 21.535 15.4822C21.535 15.4822 22.1993 15.4822 22.3582 15.5833C22.3582 15.5833 22.3583 15.8288 22.0983 16.1611C22.0983 16.1611 21.1449 17.8655 20.4227 18.5588C20.4227 18.5588 19.9317 18.9054 19.9317 19.0932C19.9317 19.0932 19.8595 19.3387 20.4661 19.3387C21.0728 19.3387 22.6327 19.2376 22.6327 19.2376C22.6327 19.2376 23.0372 19.2087 22.9794 19.4254C22.9216 19.642 22.2571 21.0142 21.1016 21.462C21.1016 21.462 20.1772 21.6065 20.0906 22.1553C20.0906 22.1553 20.1629 22.6031 20.7117 22.9497L22.6472 24.4375C22.6472 24.4375 23.4849 25.1308 22.5749 25.1886L19.9895 25.2319C19.9895 25.2319 19.7584 25.1741 19.7728 25.3619C19.7873 25.5497 19.9317 26.7341 19.7439 27.0952C19.5561 27.4563 19.3683 27.7163 19.1661 27.7019C18.9639 27.7019 18.704 27.673 18.704 27.673C18.704 27.673 18.2128 27.3697 18.0973 26.5463C18.0973 26.5463 18.0394 26.373 17.8372 26.4019C17.8372 26.4019 17.4761 26.2719 17.505 27.6007C17.5339 28.9296 17.4039 30.0274 17.3028 30.2874C17.3028 30.2874 17.2161 29.9551 17.1295 29.8829C17.1295 29.8829 16.9272 29.8396 16.9561 30.2007C16.985 30.5618 16.7539 31.8473 16.7539 31.8473H14.9918L15.0062 31.8618Z" fill="#25B4B4"/>
<path d="M25.6816 27.6315C23.2261 30.0148 19.9474 31.4737 16.3508 31.4737C8.76765 31.4737 2.58555 24.9883 2.58555 17.0296C2.58555 9.07089 8.75321 2.5855 16.3508 2.5855C19.9474 2.5855 23.2261 4.04431 25.6816 6.42759V3.06214C23.0383 1.14107 19.8174 0 16.3508 0C7.33769 0 0 7.64093 0 17.0296C0 26.4182 7.33769 34.0591 16.3508 34.0591C19.8174 34.0591 23.0383 32.918 25.6816 30.997V27.6315Z" fill="#231F20"/>
<path d="M30.0423 0V37.8868C30.0423 39.2734 28.9157 40.4145 27.5146 40.4145H24.6836V43H27.5146C30.3312 43 32.6278 40.7034 32.6278 37.8868V0H30.0423Z" fill="#231F20"/>
<path d="M48.5749 20.5283C47.5783 20.5283 46.6395 20.3116 45.7295 19.8928C44.8195 19.4739 44.025 18.8383 43.3173 18.0439C42.6239 17.2351 42.0752 16.2528 41.6563 15.0973C41.2375 13.9418 41.0352 12.6274 41.0352 11.1685C41.0352 9.70967 41.2374 8.38082 41.6419 7.1964C42.0463 6.01199 42.6095 4.98647 43.3317 4.13427C44.0395 3.28207 44.8772 2.6321 45.845 2.16989C46.8127 1.70768 47.8383 1.47656 48.9505 1.47656C49.7738 1.47656 50.5105 1.59213 51.1749 1.80879C51.8394 2.02545 52.4748 2.34321 53.067 2.74765L53.5438 1.86658H54.4825L54.5837 8.36642H53.6303C53.5004 7.73088 53.3126 7.05197 53.067 6.30088C52.8215 5.56423 52.5182 4.9287 52.1859 4.40871C51.8104 3.83095 51.3627 3.36876 50.8572 3.03655C50.3372 2.70433 49.7593 2.54541 49.0949 2.54541C48.3438 2.54541 47.6361 2.73319 46.9861 3.09429C46.3361 3.46984 45.7727 4.00428 45.2961 4.72648C44.8483 5.4198 44.4872 6.30088 44.2272 7.38418C43.9672 8.45305 43.8372 9.65193 43.8372 10.9808C43.8372 12.1508 43.9673 13.2196 44.2417 14.1874C44.5161 15.1551 44.8918 16.0218 45.3973 16.7584C45.8884 17.4806 46.4806 18.0584 47.1739 18.4628C47.8528 18.8817 48.6182 19.0839 49.456 19.0839C50.0915 19.0839 50.6694 18.9683 51.1894 18.7517C51.7238 18.535 52.186 18.2462 52.5615 17.8851C52.9515 17.5095 53.2981 17.0762 53.587 16.5995C53.8759 16.1229 54.1214 15.6029 54.3092 15.0251L55.1904 15.4873C54.526 17.2928 53.6303 18.5928 52.5181 19.3583C51.4059 20.1383 50.0915 20.5283 48.5749 20.5283Z" fill="#231F20"/>
<path d="M67.2823 19.8611C66.9212 20.0056 66.5889 20.1211 66.3145 20.2222C66.04 20.3089 65.7222 20.3522 65.3756 20.3522C64.7689 20.3522 64.2778 20.1933 63.9167 19.89C63.5556 19.5722 63.3245 19.1245 63.2234 18.5179H63.1511C62.6456 19.1389 62.0969 19.6156 61.5191 19.9333C60.9413 20.2656 60.2335 20.4244 59.4246 20.4244C58.558 20.4244 57.8502 20.1356 57.2869 19.5434C56.7236 18.9656 56.4492 18.2 56.4492 17.2612C56.4492 16.7701 56.507 16.3368 56.637 15.9468C56.767 15.5568 56.9546 15.2102 57.2002 14.9068C57.3879 14.6468 57.648 14.4157 57.9657 14.2135C58.2835 14.0113 58.5868 13.8524 58.8613 13.7368C59.2079 13.5924 59.9157 13.3179 60.999 12.928C62.0823 12.538 62.79 12.2202 63.1656 12.0036V10.7325C63.1656 10.6169 63.1512 10.4002 63.1079 10.0825C63.0646 9.7647 62.9778 9.46139 62.8334 9.18695C62.6745 8.86918 62.4579 8.59477 62.169 8.36367C61.8801 8.13256 61.4758 8.00257 60.9558 8.00257C60.5947 8.00257 60.2624 8.07476 59.959 8.20476C59.6557 8.33476 59.4391 8.47921 59.3091 8.62365C59.3091 8.79698 59.3524 9.04253 59.4246 9.38919C59.4968 9.7214 59.5401 10.0247 59.5401 10.3136C59.5401 10.6169 59.4103 10.8914 59.1647 11.1369C58.9192 11.3825 58.5724 11.5125 58.1391 11.5125C57.7491 11.5125 57.4602 11.368 57.2725 11.0502C57.0847 10.7469 56.9981 10.4003 56.9981 10.0247C56.9981 9.64918 57.1279 9.25919 57.3735 8.89809C57.619 8.53699 57.9513 8.2192 58.3558 7.93032C58.7024 7.68477 59.1357 7.48258 59.6268 7.32369C60.1324 7.15036 60.6091 7.07812 61.0857 7.07812C61.7357 7.07812 62.3134 7.12147 62.8045 7.22257C63.2956 7.32368 63.729 7.5259 64.1334 7.85812C64.5378 8.17589 64.8267 8.6092 65.0434 9.15808C65.2456 9.70695 65.3466 10.4003 65.3466 11.2669C65.3466 12.4946 65.3468 13.578 65.3034 14.5313C65.2746 15.4846 65.2745 16.5101 65.2745 17.6367C65.2745 17.969 65.3323 18.2434 65.4334 18.4311C65.5345 18.6189 65.7078 18.7923 65.9244 18.9367C66.04 19.0089 66.2278 19.0522 66.4878 19.0667C66.7478 19.0811 67.0078 19.0667 67.2678 19.0667V19.89L67.2823 19.8611ZM63.1945 13.058C62.5301 13.2747 61.9524 13.4768 61.4468 13.6935C60.9413 13.8957 60.4791 14.1557 60.0602 14.459C59.6702 14.7479 59.3669 15.0946 59.1358 15.499C58.9047 15.9034 58.8036 16.3801 58.8036 16.929C58.8036 17.6368 58.9769 18.1712 59.3091 18.5034C59.6558 18.8356 60.0747 19.0089 60.6091 19.0089C61.158 19.0089 61.6489 18.8645 62.0678 18.5612C62.4867 18.2579 62.848 17.9112 63.1368 17.5068L63.2089 13.058H63.1945Z" fill="#231F20"/>
<path d="M77.2471 9.04793C77.2471 9.48126 77.146 9.87129 76.9582 10.2179C76.756 10.5502 76.4672 10.7235 76.0627 10.7235C75.6294 10.7235 75.2971 10.5935 75.066 10.3479C74.8349 10.1024 74.7193 9.82794 74.7193 9.52461C74.7193 9.33684 74.7338 9.16349 74.7627 9.0046C74.7916 8.84572 74.8206 8.70131 74.835 8.54243C74.4739 8.54243 74.0406 8.70131 73.5495 9.03352C73.0584 9.36573 72.6395 9.82793 72.2928 10.4201V17.8011C72.2928 18.1044 72.3506 18.3499 72.4517 18.5377C72.5528 18.7255 72.7261 18.8699 72.9428 18.9566C73.1305 19.0433 73.3905 19.101 73.6939 19.1444C73.9972 19.1877 74.2717 19.2166 74.4884 19.231V20.0832H68.4073V19.231C68.5806 19.2166 68.7684 19.2021 68.9562 19.1732C69.1439 19.1588 69.3174 19.1155 69.4474 19.0721C69.6641 18.9999 69.8229 18.8555 69.9384 18.6677C70.0396 18.4799 70.0973 18.2199 70.0973 17.9166V10.0879C70.0973 9.82791 70.0395 9.56795 69.924 9.30796C69.8084 9.04797 69.6496 8.84572 69.4474 8.68683C69.303 8.58572 69.1295 8.51354 68.9273 8.45576C68.725 8.41243 68.5084 8.38353 68.2773 8.35465V7.50245L72.1195 7.21355L72.2784 7.38687V9.17797H72.3362C72.8129 8.48465 73.3617 7.95021 73.9539 7.58911C74.5462 7.22801 75.095 7.05469 75.5861 7.05469C76.0772 7.05469 76.4816 7.22801 76.7849 7.58911C77.0883 7.93577 77.2471 8.4124 77.2471 9.0046" fill="#231F20"/>
<path d="M83.8361 20.0945H78.2607V19.2423C78.434 19.2278 78.6218 19.2134 78.824 19.1989C79.0118 19.1845 79.1851 19.1412 79.3296 19.0978C79.5462 19.0256 79.7051 18.8812 79.8206 18.6934C79.9217 18.5056 79.9795 18.2456 79.9795 17.9423V10.1136C79.9795 9.83916 79.9217 9.59359 79.8061 9.36248C79.6906 9.13138 79.5318 8.94361 79.3296 8.78473C79.1851 8.68362 78.9683 8.59696 78.6795 8.52474C78.405 8.45252 78.1452 8.4092 77.9141 8.39475V7.54256L81.9872 7.25366L82.1461 7.42698V17.7689C82.1461 18.0723 82.2038 18.3178 82.3049 18.5201C82.4061 18.7223 82.5795 18.8667 82.7962 18.9534C82.9695 19.0256 83.1283 19.0978 83.3017 19.1411C83.4606 19.1845 83.6483 19.2134 83.8506 19.2423V20.0945H83.8361ZM82.3628 2.24156C82.3628 2.73266 82.2183 3.15156 81.9294 3.52711C81.6405 3.88821 81.2794 4.07599 80.8461 4.07599C80.4416 4.07599 80.1095 3.90264 79.8061 3.55598C79.5173 3.20932 79.3729 2.81932 79.3729 2.37155C79.3729 1.8949 79.5173 1.4905 79.8061 1.14384C80.095 0.797185 80.4416 0.609375 80.8461 0.609375C81.2938 0.609375 81.655 0.782699 81.9438 1.10047C82.2327 1.43268 82.3772 1.80825 82.3772 2.25602" fill="#231F20"/>
<path d="M96.9618 13.7337C96.9618 15.6403 96.413 17.2436 95.3297 18.5291C94.2319 19.8291 92.9753 20.4646 91.5309 20.4646C90.8953 20.4646 90.2743 20.3635 89.6677 20.1468C89.061 19.9302 88.4832 19.6413 87.9488 19.2802L87.0821 20.7535L86.3599 20.5802C86.4033 19.9447 86.4321 19.1791 86.4465 18.2836C86.461 17.3881 86.4754 16.5358 86.4754 15.6981V3.13173C86.4754 2.84284 86.4177 2.554 86.3021 2.26512C86.1866 1.97624 86.0278 1.75957 85.84 1.62957C85.6955 1.51402 85.45 1.44178 85.1033 1.38401C84.7567 1.32623 84.4823 1.29736 84.2656 1.26847V0.445149L88.4976 0.15625L88.6565 0.34403V8.70716L88.7433 8.73604C89.2199 8.17272 89.7543 7.75383 90.3321 7.46495C90.9098 7.19051 91.4732 7.0461 92.0221 7.0461C93.4376 7.0461 94.622 7.6672 95.5753 8.89494C96.5286 10.1227 97.0052 11.7404 97.0052 13.7193M94.5209 13.8204C94.5209 13.1848 94.4631 12.5348 94.3331 11.8848C94.2031 11.2204 94.0153 10.6571 93.7408 10.166C93.4809 9.66049 93.1342 9.27046 92.7009 8.95269C92.2676 8.63492 91.762 8.49051 91.1553 8.49051C90.6064 8.49051 90.1298 8.60605 89.7254 8.83715C89.3209 9.06826 88.9453 9.40048 88.6131 9.79047V17.1714C88.6565 17.3736 88.7577 17.6191 88.8877 17.8936C89.0177 18.168 89.2055 18.428 89.451 18.6736C89.6821 18.9191 89.9564 19.1069 90.2453 19.2513C90.5342 19.3958 90.9097 19.4824 91.3286 19.4824C92.2819 19.4824 93.0476 18.9769 93.6398 17.9658C94.2176 16.9547 94.5209 15.5681 94.5209 13.8059" fill="#231F20"/>
<path d="M110.384 13.7337C110.384 15.6403 109.835 17.2436 108.752 18.5291C107.654 19.8291 106.398 20.4646 104.953 20.4646C104.318 20.4646 103.697 20.3635 103.09 20.1468C102.483 19.9302 101.906 19.6413 101.357 19.2802L100.49 20.7535L99.7679 20.5802C99.8113 19.9447 99.8401 19.1791 99.8545 18.2836C99.869 17.3881 99.8834 16.5358 99.8834 15.6981V3.13173C99.8834 2.84284 99.8257 2.554 99.6957 2.26512C99.5801 1.97624 99.4213 1.75957 99.2335 1.62957C99.0891 1.51402 98.8291 1.44178 98.4824 1.38401C98.1357 1.32623 97.8612 1.29736 97.6445 1.26847V0.445149L101.877 0.15625L102.036 0.34403V8.70716L102.122 8.73604C102.599 8.17272 103.133 7.75383 103.711 7.46495C104.289 7.19051 104.852 7.0461 105.401 7.0461C106.817 7.0461 108.001 7.6672 108.954 8.89494C109.908 10.1227 110.384 11.7404 110.384 13.7193M107.943 13.8204C107.943 13.1848 107.885 12.5348 107.755 11.8848C107.625 11.2204 107.438 10.6571 107.178 10.166C106.918 9.66049 106.571 9.27046 106.138 8.95269C105.704 8.64936 105.199 8.49051 104.592 8.49051C104.043 8.49051 103.567 8.60605 103.162 8.83715C102.743 9.06826 102.382 9.40048 102.05 9.79047V17.1714C102.093 17.3736 102.195 17.6191 102.325 17.8936C102.455 18.168 102.642 18.428 102.888 18.6736C103.119 18.9191 103.379 19.1069 103.682 19.2513C103.971 19.3958 104.347 19.4824 104.766 19.4824C105.719 19.4824 106.484 18.9769 107.077 17.9658C107.669 16.9547 107.958 15.5681 107.958 13.8059" fill="#231F20"/>
<path d="M122.339 17.0976C121.862 18.1087 121.212 18.9175 120.403 19.5097C119.594 20.1164 118.655 20.4053 117.601 20.4053C116.677 20.4053 115.853 20.232 115.16 19.8564C114.466 19.4953 113.889 19.0042 113.441 18.3976C112.993 17.7765 112.647 17.0543 112.43 16.231C112.213 15.4076 112.098 14.541 112.098 13.6166C112.098 12.7933 112.213 11.9844 112.459 11.19C112.69 10.3956 113.051 9.68778 113.499 9.05225C113.947 8.44559 114.495 7.95451 115.16 7.57897C115.824 7.20342 116.561 7.01562 117.384 7.01562C118.208 7.01562 118.944 7.16009 119.551 7.44897C120.158 7.73786 120.634 8.14227 121.01 8.64781C121.371 9.12447 121.631 9.68778 121.819 10.3522C121.992 11.0022 122.079 11.7099 122.079 12.4755V13.3277H114.438C114.438 14.1654 114.51 14.9165 114.654 15.5954C114.799 16.2743 115.03 16.8665 115.333 17.3865C115.636 17.8776 116.041 18.282 116.532 18.5709C117.023 18.8598 117.601 19.0042 118.28 19.0042C118.959 19.0042 119.58 18.8309 120.071 18.4698C120.576 18.1087 121.053 17.4731 121.53 16.5343L122.353 17.0831L122.339 17.0976ZM119.753 12.2588C119.753 11.7822 119.71 11.2622 119.638 10.7278C119.565 10.1789 119.45 9.71666 119.276 9.35556C119.103 8.96557 118.858 8.64782 118.54 8.38783C118.222 8.14228 117.832 8.01227 117.341 8.01227C116.518 8.01227 115.839 8.38781 115.304 9.13891C114.756 9.89 114.466 10.93 114.423 12.2588H119.753Z" fill="#231F20"/>
<path d="M134.606 19.8611C134.245 20.0056 133.913 20.1211 133.639 20.2222C133.364 20.3089 133.046 20.3522 132.7 20.3522C132.093 20.3522 131.602 20.1933 131.241 19.89C130.88 19.5722 130.649 19.1245 130.548 18.5179H130.476C129.97 19.1389 129.421 19.6156 128.843 19.9333C128.266 20.2656 127.558 20.4244 126.749 20.4244C125.882 20.4244 125.174 20.1356 124.611 19.5434C124.048 18.9656 123.773 18.2 123.773 17.2612C123.773 16.7701 123.831 16.3368 123.961 15.9468C124.091 15.5568 124.279 15.2102 124.525 14.9068C124.727 14.6468 124.972 14.4157 125.29 14.2135C125.608 14.0113 125.911 13.8524 126.185 13.7368C126.532 13.5924 127.254 13.3179 128.323 12.928C129.392 12.538 130.114 12.2202 130.49 12.0036V10.7325C130.49 10.6169 130.475 10.4002 130.432 10.0825C130.389 9.7647 130.302 9.46139 130.158 9.18695C129.999 8.86918 129.782 8.59477 129.493 8.36367C129.204 8.13256 128.8 8.00257 128.28 8.00257C127.919 8.00257 127.587 8.07476 127.283 8.20476C126.98 8.33476 126.763 8.47921 126.633 8.62365C126.633 8.79698 126.677 9.04253 126.749 9.38919C126.821 9.7214 126.864 10.0247 126.864 10.3136C126.864 10.6169 126.734 10.8914 126.489 11.1369C126.243 11.3825 125.897 11.5125 125.463 11.5125C125.073 11.5125 124.784 11.368 124.597 11.0502C124.409 10.7469 124.322 10.4003 124.322 10.0247C124.322 9.64918 124.452 9.25919 124.698 8.89809C124.958 8.53699 125.276 8.2192 125.68 7.93032C126.027 7.68477 126.46 7.48258 126.951 7.32369C127.457 7.15036 127.933 7.07812 128.41 7.07812C129.06 7.07812 129.638 7.12147 130.129 7.22257C130.62 7.32368 131.053 7.5259 131.458 7.85812C131.862 8.17589 132.151 8.6092 132.368 9.15808C132.57 9.70695 132.671 10.4003 132.671 11.2669C132.671 12.4946 132.671 13.578 132.628 14.5313C132.599 15.4846 132.599 16.5101 132.599 17.6367C132.599 17.969 132.657 18.2434 132.758 18.4311C132.859 18.6334 133.032 18.7923 133.249 18.9367C133.364 19.0089 133.552 19.0522 133.798 19.0667C134.058 19.0667 134.318 19.0667 134.578 19.0667V19.89L134.606 19.8611ZM130.519 13.058C129.854 13.2747 129.277 13.4768 128.771 13.6935C128.265 13.8957 127.803 14.1557 127.384 14.459C126.994 14.7479 126.691 15.0946 126.46 15.499C126.229 15.9034 126.128 16.3801 126.128 16.929C126.128 17.6368 126.301 18.1712 126.633 18.5034C126.98 18.8356 127.399 19.0089 127.933 19.0089C128.482 19.0089 128.973 18.8645 129.392 18.5612C129.811 18.2579 130.172 17.9112 130.461 17.5068L130.533 13.058H130.519Z" fill="#231F20"/>
<path d="M148.5 20.0911H142.867V19.2389C143.04 19.2244 143.242 19.21 143.459 19.1956C143.675 19.1811 143.849 19.1378 143.993 19.0944C144.21 19.0222 144.369 18.8778 144.484 18.69C144.585 18.5022 144.643 18.2422 144.643 17.9389V11.4246C144.643 10.5291 144.455 9.83579 144.065 9.34469C143.675 8.85359 143.213 8.60803 142.65 8.60803C142.231 8.60803 141.855 8.68024 141.509 8.82468C141.162 8.96912 140.859 9.14247 140.599 9.34469C140.339 9.54691 140.137 9.74913 139.978 9.98023C139.819 10.2113 139.718 10.3847 139.646 10.5291V17.8234C139.646 18.1122 139.703 18.3578 139.804 18.5456C139.92 18.7333 140.079 18.8778 140.295 18.9789C140.454 19.0655 140.642 19.1233 140.83 19.1666C141.018 19.21 141.22 19.2389 141.422 19.2533V20.1055H135.774V19.2533C135.948 19.2389 136.136 19.2244 136.323 19.21C136.511 19.1955 136.684 19.1522 136.814 19.1089C137.031 19.0366 137.19 18.8922 137.306 18.7044C137.407 18.5166 137.464 18.2567 137.464 17.9533V10.1246C137.464 9.83576 137.407 9.56132 137.291 9.31577C137.176 9.07022 137.017 8.86804 136.814 8.7236C136.67 8.6225 136.497 8.55024 136.294 8.50691C136.092 8.46358 135.876 8.43472 135.645 8.40583V7.55359L139.487 7.26474L139.646 7.43806V9.22911H139.703C139.891 9.02689 140.122 8.78138 140.411 8.49249C140.686 8.20361 140.96 7.97248 141.205 7.7847C141.494 7.58249 141.841 7.40918 142.231 7.26474C142.635 7.1203 143.083 7.0625 143.574 7.0625C144.687 7.0625 145.51 7.43806 146.044 8.20359C146.579 8.95469 146.839 9.96578 146.839 11.2369V17.8378C146.839 18.1411 146.882 18.3867 146.983 18.56C147.07 18.7478 147.243 18.8922 147.46 18.9933C147.648 19.08 147.806 19.1378 147.951 19.1666C148.081 19.21 148.283 19.2244 148.514 19.2389V20.0911H148.5Z" fill="#231F20"/>
<path d="M52.6471 25.1221C52.4304 25.1221 52.1559 25.1654 51.8381 25.2232C51.5059 25.281 51.2316 25.3532 51.0149 25.4399C50.7549 25.541 50.5671 25.7143 50.4805 25.9599C50.3938 26.2054 50.3359 26.4654 50.3359 26.7398V37.5585C50.3359 38.1218 50.2348 38.7284 50.0326 39.364C49.8304 39.9995 49.5271 40.5628 49.1226 41.0539C48.6604 41.6317 48.1115 42.0939 47.476 42.4116C46.8405 42.7439 46.1182 42.9027 45.2949 42.9027C44.0238 42.9027 42.9983 42.5128 42.2039 41.7328C41.4094 40.9528 41.0195 39.8984 41.0195 38.5551C41.0195 37.9773 41.1496 37.4573 41.4385 37.0096C41.7129 36.5618 42.1028 36.3307 42.6373 36.3307C43.0995 36.3307 43.4751 36.4751 43.7639 36.764C44.0528 37.0529 44.1972 37.4284 44.1972 37.9051C44.1972 38.1795 44.1394 38.454 44.0383 38.7284C43.9372 39.0029 43.8217 39.2484 43.7061 39.4651C43.5906 39.6673 43.4605 39.8984 43.3016 40.1584C43.1572 40.4184 43.0417 40.6639 42.9839 40.8806C43.1428 41.1695 43.4028 41.415 43.7495 41.6317C44.0961 41.8484 44.5583 41.9495 45.1505 41.9495C45.7427 41.9495 46.1904 41.805 46.5515 41.5161C46.9127 41.2272 47.1872 40.8373 47.3605 40.3606C47.5338 39.9128 47.6494 39.364 47.7216 38.714C47.7938 38.064 47.8371 37.3274 47.8371 36.5329V26.8699C47.8371 26.5665 47.7938 26.321 47.7071 26.1187C47.6205 25.9165 47.4327 25.7432 47.1438 25.5843C46.8983 25.4399 46.5949 25.3388 46.2338 25.2665C45.8727 25.1943 45.5694 25.151 45.3383 25.1365V24.2266H52.6615V25.1365L52.6471 25.1221Z" fill="#231F20"/>
<path d="M65.3745 35.9849C65.3745 36.8805 65.2445 37.7471 64.9845 38.6137C64.7245 39.4804 64.3634 40.2026 63.8867 40.8092C63.3523 41.4881 62.7168 42.0081 62.0091 42.3403C61.3013 42.6725 60.5068 42.8459 59.6113 42.8459C58.8747 42.8459 58.1814 42.687 57.517 42.3836C56.8526 42.0803 56.2602 41.6325 55.7547 41.0548C55.2491 40.477 54.8448 39.7837 54.5414 38.946C54.2381 38.1226 54.0938 37.1838 54.0938 36.1583C54.0938 34.1794 54.6137 32.5617 55.6681 31.2906C56.7225 30.034 58.0947 29.3984 59.7991 29.3984C61.5035 29.3984 62.7457 29.9906 63.8001 31.1895C64.8545 32.3883 65.3745 33.9772 65.3745 35.9705M62.948 36.0138C62.948 35.3783 62.8902 34.6994 62.7747 33.9772C62.6591 33.2694 62.4856 32.6483 62.2545 32.1572C62.009 31.6228 61.6768 31.2039 61.2724 30.8717C60.868 30.5539 60.3768 30.3951 59.7846 30.3951C59.1924 30.3951 58.6725 30.554 58.2392 30.8862C57.8203 31.2184 57.4735 31.6517 57.1991 32.2295C56.9535 32.7495 56.7658 33.3416 56.6647 34.0205C56.5636 34.6849 56.5203 35.3349 56.5203 35.956C56.5203 36.7793 56.578 37.5449 56.708 38.2382C56.8236 38.9315 57.0258 39.567 57.2858 40.1159C57.5458 40.6648 57.8924 41.0981 58.2968 41.4159C58.7013 41.7336 59.1924 41.8781 59.7846 41.8781C60.7668 41.8781 61.5323 41.3581 62.1101 40.3182C62.6734 39.2782 62.9624 37.8482 62.9624 36.0283" fill="#231F20"/>
<path d="M79.4017 42.2167L75.6319 42.5056L75.4585 42.3323V40.729H75.3864C75.1986 40.9456 74.9819 41.1767 74.7508 41.4223C74.5197 41.6678 74.2453 41.8845 73.942 42.0867C73.5953 42.3178 73.2486 42.4912 72.9308 42.6067C72.5986 42.7223 72.1364 42.78 71.5442 42.78C70.5187 42.78 69.7532 42.4189 69.2188 41.6823C68.6843 40.9456 68.4243 39.8912 68.4243 38.4901V32.4236C68.4243 32.1203 68.3665 31.8603 68.2654 31.6437C68.1643 31.427 68.0055 31.2537 67.8033 31.0948C67.6588 30.9937 67.4855 30.9214 67.2688 30.8637C67.0522 30.8203 66.8354 30.777 66.5898 30.7625V29.9104L70.4465 29.607L70.6198 29.7804V38.5913C70.6198 39.5157 70.8076 40.1945 71.1831 40.6568C71.5587 41.119 72.0065 41.3501 72.5265 41.3501C72.9598 41.3501 73.3353 41.2778 73.6675 41.1334C73.9997 40.9889 74.2887 40.8156 74.5053 40.6134C74.722 40.4401 74.8952 40.2379 75.0685 40.0357C75.2274 39.8334 75.3574 39.6457 75.4441 39.4723V32.2936C75.4441 32.0192 75.3863 31.7592 75.2852 31.5425C75.1697 31.3259 75.0253 31.1381 74.8231 30.9792C74.6786 30.8781 74.4763 30.8204 74.2019 30.7915C73.9275 30.777 73.6097 30.7481 73.263 30.7337V29.8815L77.4663 29.5781L77.6396 29.7515V39.8046C77.6396 40.0934 77.6974 40.339 77.8129 40.5556C77.914 40.7578 78.073 40.9312 78.2608 41.0756C78.4052 41.1768 78.5641 41.2345 78.7663 41.2634C78.9685 41.2923 79.1706 41.3067 79.4162 41.3212V42.1734L79.4017 42.2167Z" fill="#231F20"/>
<path d="M89.6519 31.4007C89.6519 31.834 89.5507 32.224 89.3629 32.5707C89.1607 32.9029 88.8718 33.0762 88.4674 33.0762C88.0341 33.0762 87.7019 32.9462 87.4708 32.7007C87.2397 32.4551 87.1242 32.1807 87.1242 31.8774C87.1242 31.6896 87.1241 31.5163 87.1674 31.3718C87.1963 31.2129 87.2252 31.0685 87.2397 30.9096C86.8786 30.9096 86.4452 31.0685 85.9541 31.4007C85.463 31.7329 85.0442 32.1951 84.6975 32.7873V40.1683C84.6975 40.4716 84.7553 40.7172 84.8564 40.9049C84.9575 41.0927 85.1309 41.2371 85.3476 41.3238C85.5354 41.4104 85.7952 41.4682 86.0985 41.5116C86.4019 41.5549 86.6764 41.5838 86.9075 41.5982V42.4504H80.8266V41.5982C80.9999 41.5838 81.1875 41.5693 81.3898 41.5404C81.5775 41.526 81.751 41.4827 81.881 41.4394C82.0977 41.3671 82.2565 41.2227 82.372 41.0349C82.4732 40.8472 82.5309 40.5871 82.5309 40.2838V32.4551C82.5309 32.1951 82.4731 31.9351 82.3576 31.6751C82.242 31.4152 82.0832 31.2129 81.881 31.0541C81.7366 30.953 81.5632 30.8807 81.361 30.823C81.1588 30.7796 80.942 30.7507 80.7109 30.7218V29.8696L84.5531 29.5807L84.712 29.7541V31.5452H84.7698C85.2465 30.8518 85.7953 30.3174 86.3875 29.9563C86.9797 29.5952 87.5142 29.4219 88.0197 29.4219C88.5253 29.4219 88.9152 29.5952 89.2185 29.9563C89.5218 30.303 89.6808 30.7796 89.6808 31.3718" fill="#231F20"/>
<path d="M103.379 42.4504H97.7455V41.5982C97.9188 41.5838 98.1211 41.5693 98.3377 41.5549C98.5544 41.5404 98.7277 41.4971 98.8722 41.4538C99.0888 41.3816 99.2477 41.2371 99.3632 41.0493C99.4643 40.8616 99.5221 40.6016 99.5221 40.2983V33.784C99.5221 32.8884 99.3343 32.1951 98.9443 31.704C98.5543 31.2129 98.0921 30.9674 97.5288 30.9674C97.1099 30.9674 96.7343 31.0396 96.3876 31.1841C96.041 31.3285 95.7376 31.5018 95.4777 31.704C95.2177 31.9062 95.0155 32.1085 94.8567 32.3396C94.6978 32.5707 94.5967 32.744 94.5245 32.8884V40.1827C94.5245 40.4716 94.5822 40.7172 94.6833 40.9049C94.7844 41.0927 94.9577 41.2371 95.1744 41.3382C95.3333 41.4249 95.521 41.4827 95.7088 41.526C95.8966 41.5694 96.0989 41.5982 96.3011 41.6127V42.4649H90.6534V41.6127C90.8267 41.5982 91.0145 41.5838 91.2023 41.5693C91.39 41.5549 91.5633 41.5116 91.6933 41.4682C91.91 41.396 92.069 41.2516 92.1845 41.0638C92.2857 40.876 92.3434 40.616 92.3434 40.3127V32.484C92.3434 32.1951 92.2856 31.9207 92.1701 31.6751C92.0545 31.4296 91.8955 31.2274 91.6933 31.0829C91.5489 30.9818 91.3756 30.9096 91.1734 30.8663C90.9711 30.823 90.7545 30.7941 90.5234 30.7652V29.913L94.3656 29.6241L94.5245 29.7974V31.5885H94.5821C94.7699 31.3863 95.001 31.1407 95.2899 30.8518C95.5643 30.5629 95.8388 30.3319 96.0844 30.1441C96.3733 29.9419 96.7199 29.7685 97.1098 29.6241C97.5143 29.4796 97.9621 29.4219 98.4532 29.4219C99.5654 29.4219 100.389 29.7974 100.923 30.563C101.458 31.3141 101.718 32.3251 101.718 33.5962V40.1971C101.718 40.5005 101.761 40.746 101.862 40.9193C101.963 41.1071 102.122 41.2516 102.339 41.3527C102.526 41.4394 102.685 41.4971 102.83 41.526C102.974 41.5549 103.148 41.5838 103.393 41.5982V42.4504H103.379Z" fill="#231F20"/>
<path d="M115.712 42.2205C115.351 42.3649 115.033 42.4805 114.744 42.5816C114.47 42.6682 114.152 42.7116 113.805 42.7116C113.199 42.7116 112.708 42.5527 112.347 42.2494C111.985 41.9316 111.754 41.4838 111.653 40.8772H111.581C111.075 41.4983 110.527 41.9605 109.949 42.2927C109.371 42.6249 108.663 42.7838 107.854 42.7838C106.988 42.7838 106.28 42.4949 105.717 41.9027C105.153 41.3249 104.879 40.5594 104.879 39.6206C104.879 39.1295 104.937 38.6961 105.067 38.3061C105.197 37.9162 105.384 37.5695 105.63 37.2662C105.818 37.0062 106.078 36.7751 106.396 36.5729C106.713 36.3707 107.017 36.2118 107.291 36.0962C107.638 35.9518 108.346 35.6773 109.429 35.2873C110.512 34.8973 111.22 34.5796 111.595 34.3629V33.0918C111.595 32.9763 111.581 32.7596 111.538 32.4418C111.494 32.1241 111.408 31.8208 111.263 31.5463C111.104 31.2286 110.888 30.9541 110.599 30.723C110.31 30.4919 109.905 30.3619 109.385 30.3619C109.024 30.3619 108.692 30.4341 108.389 30.5641C108.086 30.6941 107.869 30.8385 107.739 30.983C107.739 31.1563 107.782 31.4019 107.854 31.7485C107.927 32.0807 107.97 32.3985 107.97 32.673C107.97 32.9763 107.84 33.2507 107.594 33.4963C107.349 33.7418 107.002 33.8718 106.569 33.8718C106.179 33.8718 105.89 33.7274 105.702 33.4096C105.515 33.1063 105.428 32.7596 105.428 32.3841C105.428 31.9941 105.558 31.6185 105.803 31.2574C106.049 30.8963 106.381 30.5786 106.786 30.2897C107.132 30.0441 107.566 29.8419 108.057 29.683C108.562 29.5097 109.039 29.4375 109.516 29.4375C110.166 29.4375 110.743 29.4808 111.234 29.5819C111.725 29.683 112.159 29.8852 112.563 30.2174C112.968 30.5352 113.257 30.9686 113.473 31.5175C113.675 32.0663 113.777 32.7596 113.777 33.6263C113.777 34.854 113.776 35.9373 113.733 36.8906C113.704 37.844 113.704 38.8695 113.704 39.9961C113.704 40.3283 113.762 40.6028 113.863 40.7905C113.964 40.9927 114.138 41.1516 114.354 41.2961C114.47 41.3683 114.658 41.4116 114.918 41.4261C115.178 41.4405 115.423 41.4261 115.698 41.4261V42.2494L115.712 42.2205ZM111.639 35.4318C110.974 35.6484 110.397 35.8507 109.891 36.0673C109.386 36.2695 108.923 36.5295 108.504 36.8473C108.114 37.1362 107.811 37.4828 107.58 37.8872C107.349 38.2917 107.248 38.7684 107.248 39.3172C107.248 40.025 107.421 40.5594 107.753 40.8916C108.085 41.2239 108.519 41.3972 109.039 41.3972C109.588 41.3972 110.079 41.2528 110.498 40.9494C110.917 40.6461 111.278 40.2994 111.567 39.895L111.639 35.4462V35.4318Z" fill="#231F20"/>
<path d="M122.268 42.4496H116.635V41.5974C116.808 41.583 117.011 41.5685 117.213 41.5396C117.415 41.5252 117.588 41.4819 117.718 41.4385C117.935 41.3663 118.094 41.2219 118.21 41.0341C118.325 40.8463 118.368 40.5863 118.368 40.283V25.5789C118.368 25.2756 118.311 24.9867 118.195 24.7123C118.08 24.4378 117.921 24.2356 117.718 24.0767C117.574 23.9756 117.314 23.8745 116.938 23.7879C116.563 23.7012 116.26 23.6434 116.043 23.629V22.8057L120.39 22.5312L120.55 22.719V40.1241C120.55 40.4275 120.607 40.673 120.694 40.8608C120.795 41.0486 120.954 41.2074 121.185 41.3085C121.358 41.3952 121.532 41.453 121.69 41.4963C121.864 41.5396 122.052 41.5685 122.254 41.583V42.4352L122.268 42.4496Z" fill="#231F20"/>
</svg>
