<svg width="884" height="414" viewBox="0 0 884 414" fill="none" xmlns="http://www.w3.org/2000/svg">
<path d="M408.612 112.196L409.095 112.674C411.389 112.674 421.295 111.599 421.295 96.0498V56.0999C421.295 56.0999 422.261 41.269 408.612 41.269V37.2024H430.837V10.7694C417.187 21.0555 388.199 38.1592 388.199 77.1514C388.199 120.209 427.574 138.151 430.837 141.379V115.306H408.612V112.196Z" fill="white"/>
<path d="M430.816 10.7694V37.2024H452.075V41.269C439.392 41.269 439.392 56.0999 439.392 56.0999V96.0498C439.392 111.599 449.417 112.674 451.592 112.674L452.075 112.196V115.424H430.816V141.5C430.816 141.5 431.782 140.543 433.957 139.226C443.982 132.887 473.332 114.946 473.332 77.2699C473.454 37.2024 444.466 21.0555 430.816 10.7694Z" fill="white"/>
<path d="M430.841 12.0788C418.16 21.5275 388.688 38.5116 388.688 76.3071C388.688 118.529 427.702 135.513 430.841 138.742C430.841 138.742 431.807 137.785 433.982 136.47C443.524 130.131 472.996 113.147 472.996 76.3071C472.151 38.9901 444.49 22.4845 430.841 12.0788ZM451.739 39.4686C451.739 39.4686 438.089 39.4686 438.089 56.0941V97.3587C438.089 101.424 439.417 112.19 451.739 113.026V114.343H409.584V113.026C421.42 112.069 423.231 102.262 423.231 97.3587V56.0941C423.231 39.4686 409.584 39.4686 409.584 39.4686V38.153H451.739V39.4686Z" fill="white"/>
<path d="M408.622 41.2604L409.589 39.4663V38.1506L408.622 37.1939V41.2604Z" fill="white"/>
<path d="M409.589 114.467V113.032L408.622 112.193V115.303L409.589 114.467Z" fill="white"/>
<path d="M452.226 115.304L408.622 115.303L409.589 114.467L451.26 114.466L452.226 115.304Z" fill="white"/>
<path d="M408.622 41.2667L409.589 39.9511C409.589 39.9511 423.236 39.9511 423.236 56.5772V97.8396C423.236 101.907 421.908 112.671 409.589 113.509L408.622 112.552C408.622 112.552 421.305 113.509 421.305 95.9279V55.978C421.305 55.978 422.269 41.2667 408.622 41.2667Z" fill="white"/>
<path d="M452.236 41.2667L451.269 39.9511C451.269 39.9511 437.62 39.9511 437.62 56.5772V97.8396C437.62 101.907 438.95 112.671 451.269 113.509L452.236 112.552C452.236 112.552 439.553 113.509 439.553 95.9279V55.978C439.553 55.978 439.433 41.2667 452.236 41.2667Z" fill="white"/>
<path d="M452.24 41.2604L451.274 39.4663V38.1506L452.24 37.1939V41.2604ZM451.274 114.459V113.024L452.24 112.187V115.298L451.274 114.459Z" fill="white"/>
<path d="M430.832 147.593C419.962 139.101 383.243 120.205 383.243 76.6688C383.243 33.1309 420.445 14.2332 430.832 5.74105V0C419.962 9.44894 378.774 29.6625 378.774 76.7873C378.774 123.912 419.962 144.125 430.832 153.575V147.593ZM430.832 5.86067C432.524 4.42541 432.282 2.51165 430.832 0V5.86067ZM430.832 153.456C432.162 151.661 432.162 149.747 430.832 147.593V153.456Z" fill="white"/>
<path d="M430.816 147.593C441.686 139.101 478.406 120.205 478.406 76.6688C478.406 33.1309 441.203 14.3528 430.816 5.86067V0C442.652 9.44894 482.874 29.6625 482.874 76.7873C482.874 123.912 441.686 144.125 430.816 153.575V147.593Z" fill="white"/>
<path d="M423.087 56.5768V56.0983C423.087 39.4723 409.437 39.4723 409.437 39.4723L408.471 41.2662L409.437 39.9506C409.557 39.9506 423.087 39.9506 423.087 56.5768Z" fill="white"/>
<path d="M451.228 38.1506L452.195 37.1939H430.816V38.1506H451.228Z" fill="white"/>
<path d="M409.589 38.1506H430.845V37.1939H408.622L409.589 38.1506Z" fill="white"/>
<path d="M409.589 38.988L408.622 37.1939V41.2604L409.589 39.4663V38.988Z" fill="white"/>
<path d="M409.589 38.1506L408.622 37.1939L409.589 38.988V38.1506Z" fill="white"/>
<path d="M408.622 112.671V115.303L409.589 114.467V113.509L408.622 112.671ZM409.105 112.671L408.622 112.193V112.671H409.105Z" fill="white"/>
<path d="M430.816 114.466V115.304H452.195L451.228 114.466H430.816Z" fill="white"/>
<path d="M409.589 114.467L408.622 115.303L430.845 115.304V114.466L409.589 114.467Z" fill="white"/>
<path d="M409.589 114.467L408.622 115.303L430.845 115.304V114.466L409.589 114.467Z" fill="white"/>
<path d="M423.087 97.3543V56.4497C423.087 39.8242 409.437 39.8242 409.437 39.8242L408.471 41.1398C422.12 41.1398 421.154 55.9712 421.154 55.9712V95.9188C421.154 111.468 411.128 112.545 408.954 112.545L409.437 113.024C421.274 112.185 423.087 102.258 423.087 97.3543Z" fill="white"/>
<path d="M423.087 97.3543V56.4497C423.087 39.8242 409.437 39.8242 409.437 39.8242L408.471 41.1398C422.12 41.1398 421.154 55.9712 421.154 55.9712V95.9188C421.154 111.468 411.128 112.545 408.954 112.545L409.437 113.024C421.274 112.185 423.087 102.258 423.087 97.3543Z" fill="white"/>
<path d="M409.589 113.029L409.105 112.551H408.622L409.589 113.505V113.029Z" fill="white"/>
<path d="M409.589 113.029L409.105 112.551H408.622L409.589 113.505V113.029Z" fill="white"/>
<path d="M452.219 41.2667L451.252 39.9511C451.252 39.9511 446.178 39.9511 442.315 43.659C440.019 46.051 438.086 49.9981 438.086 56.0988V97.3611C438.086 101.31 439.416 111.955 451.252 113.031L451.616 112.671C449.319 112.671 439.416 111.595 439.416 96.0464V56.0988C439.416 56.0988 439.416 41.2667 452.219 41.2667Z" fill="white"/>
<path d="M451.757 39.4663H451.274L452.121 41.2604V37.1939L451.637 38.1506V39.4663H451.757Z" fill="white"/>
<path d="M451.757 38.1506L452.24 37.1939L451.274 38.1506H451.757ZM452.24 112.666V112.187L451.757 112.666H452.24ZM451.757 114.459H451.274L452.24 115.298V112.666L451.757 113.024V114.459Z" fill="white"/>
<path d="M451.717 113.029L452.2 112.551H451.717L451.355 112.908C451.475 113.029 451.597 113.029 451.717 113.029Z" fill="white"/>
<path d="M442.315 43.6412C446.302 39.9335 451.254 39.9335 451.254 39.9335L452.221 41.2492L451.374 39.455C449.924 39.5746 445.578 40.1725 442.315 43.6412Z" fill="white"/>
<path d="M430.845 38.1506V37.1939H408.622L409.589 38.1506H430.845ZM451.258 38.1508L452.224 37.1939H430.845V38.1506L451.258 38.1508Z" fill="white"/>
<path d="M409.589 38.988L408.622 37.1939V41.2604L409.589 39.4663V38.988Z" fill="white"/>
<path d="M409.589 38.1506L408.622 37.1939L409.589 38.988V38.1506Z" fill="white"/>
<path d="M409.589 113.509L408.622 112.671V115.303L409.589 114.467V113.509ZM409.105 112.671L408.622 112.193V112.671H409.105Z" fill="white"/>
<path d="M409.589 114.467L408.622 115.423H430.845V114.466L409.589 114.467Z" fill="white"/>
<path d="M451.228 114.466H430.816V115.423H452.075L451.228 114.466Z" fill="white"/>
<path d="M451.228 114.466H430.816V115.423H452.075L451.228 114.466Z" fill="white"/>
<path d="M423.087 97.3543V56.4497C423.087 39.8242 409.437 39.8242 409.437 39.8242L408.471 41.1398C422.12 41.1398 421.154 55.9712 421.154 55.9712V95.9188C421.154 111.468 411.128 112.545 408.954 112.545L409.437 113.024C421.274 112.185 423.087 102.258 423.087 97.3543Z" fill="white"/>
<path d="M409.589 113.029L409.105 112.551H408.622L409.589 113.505V113.029Z" fill="white"/>
<path d="M409.589 113.029L409.105 112.551H408.622L409.589 113.505V113.029Z" fill="white"/>
<path d="M442.315 43.659C440.019 46.051 438.086 49.9981 438.086 56.0988V97.3634C438.086 101.31 439.416 111.955 451.252 113.031L451.616 112.673C449.319 112.673 439.416 111.595 439.416 96.0464V56.0988C439.416 56.0988 439.416 41.267 452.099 41.267L451.132 39.9511C451.252 39.9511 446.178 39.9513 442.315 43.659Z" fill="white"/>
<path d="M442.315 43.659C440.019 46.051 438.086 49.9981 438.086 56.0988V97.3634C438.086 101.31 439.416 111.955 451.252 113.031L451.616 112.673C449.319 112.673 439.416 111.595 439.416 96.0464V56.0988C439.416 56.0988 439.416 41.267 452.099 41.267L451.132 39.9511C451.252 39.9511 446.178 39.9513 442.315 43.659Z" fill="white"/>
<path d="M451.757 39.4663H451.274L452.121 41.2604V37.1939L451.637 38.1506V39.4663H451.757Z" fill="white"/>
<path d="M451.757 38.1506L452.24 37.1939L451.274 38.1506H451.757ZM451.757 114.459H451.274L452.24 115.298V112.666L451.757 113.024V114.459ZM452.24 112.666V112.187L451.757 112.666H452.24Z" fill="white"/>
<path d="M451.717 113.029L452.2 112.551H451.717L451.355 112.908C451.475 113.029 451.597 113.029 451.717 113.029Z" fill="white"/>
<path d="M517.714 269.319V267.444C516.444 267.338 512.478 267.468 512.468 262.532V209.78C512.478 204.868 516.444 204.999 517.714 204.892V203.005H498.865V204.892C500.136 204.999 504.102 204.868 504.111 209.792V262.556C504.111 267.468 500.136 267.338 498.865 267.444V269.319H517.714Z" fill="white"/>
<path d="M863.297 269.319V258.463H861.413C861.316 259.732 861.447 263.695 856.51 263.707H839.743V209.78C839.753 204.868 843.719 204.999 844.989 204.892V203.005H826.145V204.892C827.401 204.999 831.377 204.868 831.386 209.792V262.556C831.377 267.468 827.411 267.338 826.145 267.444V269.319H863.312H863.297Z" fill="white"/>
<path fill-rule="evenodd" clip-rule="evenodd" d="M344.783 270.709C325.061 270.709 317.086 251.772 317.086 236.193C317.086 220.614 324.859 201.666 345.46 201.666C362.572 201.666 373.228 214.432 373.228 234.603C373.228 254.774 362.227 270.697 344.783 270.697V270.709ZM347.761 265.702C352.769 265.702 364.363 262.783 364.363 237.842C364.363 218.503 355.131 206.519 343.407 206.519C335.195 206.519 325.844 212.048 325.844 233.524C325.844 251.464 334.483 265.702 347.655 265.702" fill="white"/>
<path d="M571.953 204.903C573.224 205.011 577.175 204.88 577.19 209.792V254.085L543.168 203.005L531.975 203.029V204.903C533.231 205.011 537.207 204.88 537.221 209.792V262.532C537.207 267.456 533.246 267.326 531.975 267.444V269.319H548.399V267.444C547.143 267.326 543.177 267.456 543.168 262.544V218.56L577.19 269.319H583.131V209.792C583.146 204.868 587.107 204.999 588.377 204.892V203.005H571.953V204.903Z" fill="white"/>
<path d="M696.662 203.017V204.903C697.932 205.011 701.884 204.88 701.908 209.792V254.085L667.881 203.005L656.703 203.029V204.903C657.974 205.011 661.94 204.88 661.94 209.792V262.532C661.94 267.456 657.964 267.326 656.703 267.444V269.319H673.118V267.444C671.847 267.326 667.896 267.456 667.881 262.544V218.56L701.908 269.319H707.849V209.792C707.849 204.868 711.825 204.999 713.096 204.892V203.005H696.672L696.662 203.017Z" fill="white"/>
<path d="M189.033 269.314V258.457H187.146C187.039 259.727 187.17 263.69 182.245 263.702H162.653V238.026H178.459C183.373 238.038 183.242 242 183.348 243.27H185.235V228H183.348C183.242 229.257 182.981 232.402 178.448 232.402H162.653V208.588H182.245C187.17 208.588 187.039 212.563 187.146 213.821H189.033V202.965H149.054V204.851C150.312 204.958 154.287 204.827 154.287 209.751V262.515C154.275 267.427 150.312 267.297 149.054 267.404V269.279H189.033V269.314Z" fill="white"/>
<path d="M641.773 269.314V258.457H639.875C639.769 259.727 639.89 263.69 634.977 263.702H615.369V238.026H631.19C636.117 238.038 635.986 242 636.093 243.27H637.967V228H636.093C635.986 229.257 635.721 232.402 631.19 232.402H615.384V208.588H634.987C639.914 208.588 639.783 212.563 639.89 213.821H641.773V202.965H601.796V204.851C603.052 204.958 607.027 204.827 607.027 209.751V262.515C607.003 267.427 603.042 267.297 601.796 267.404V269.279H641.788L641.773 269.314Z" fill="white"/>
<path d="M290.931 270.098C295.287 270.098 304.341 269.042 309.29 266.183L311.532 251.755L309.515 251.458C305.908 262.338 298.942 264.403 291.976 264.403C281.474 264.403 267.257 255.469 267.257 232.154C267.257 215.448 273.725 198.137 289.223 198.137C306.383 198.137 308.234 211.307 308.388 213.277H310.429V196.321C304.151 194.446 295.595 193.331 290.73 193.331C268.112 193.331 257.681 209.159 257.681 232.415C257.681 253.476 269.299 270.086 290.92 270.086L290.931 270.098Z" fill="white"/>
<path d="M765.026 213.862H763.137C763.04 212.592 763.161 208.629 758.239 208.629H746.713V262.544C746.713 267.48 750.679 267.349 751.959 267.457V269.343H733.1V267.457C734.371 267.349 738.337 267.48 738.361 262.568V208.629H726.695C721.782 208.629 721.898 212.604 721.806 213.862H719.918V203.005H765.026V213.862Z" fill="white"/>
<path d="M789.773 216.425L799.029 241.828H780.518L789.788 216.425H789.773ZM800.927 247.037L806.589 262.544C808.332 267.457 804.338 267.326 803.111 267.433V269.307H821.66V267.433C820.274 267.433 816.805 266.673 814.066 259.732L793.478 203.005H787.971L767.277 259.804C764.534 266.745 761.77 267.421 760.379 267.421V269.296H776.436V267.421C775.19 267.314 771.18 267.433 772.958 262.532L778.619 247.025H800.942L800.927 247.037Z" fill="white"/>
<path d="M72.3089 203.017V204.903C73.5668 205.011 77.5303 204.88 77.554 209.792V254.085L43.5197 203.005L32.3412 203.029V204.903C33.611 205.011 37.5745 204.88 37.5863 209.792V262.532C37.5745 267.456 33.611 267.326 32.3412 267.444V269.319H48.7651V267.444C47.507 267.326 43.5435 267.456 43.5197 262.544V218.56L77.554 269.319H83.499V209.792C83.499 204.868 87.4745 204.999 88.744 204.892V203.005H72.3205L72.3089 203.017Z" fill="white"/>
<path d="M140.72 213.862H138.821C138.714 212.592 138.845 208.629 133.92 208.629H122.397V262.544C122.41 267.48 126.373 267.349 127.631 267.457V269.343H108.786V267.457C110.056 267.349 114.02 267.48 114.031 262.568V208.629H102.39C97.4653 208.629 97.5958 212.604 97.4774 213.862H95.5906V203.005H140.696V213.862H140.72Z" fill="white"/>
<path d="M422.097 204.903C423.366 205.011 427.33 204.88 427.342 209.792V254.085L393.319 203.005L382.141 203.029V204.903C383.41 205.011 387.362 204.88 387.386 209.792V262.532C387.386 267.456 383.41 267.326 382.141 267.444V269.319H398.553V267.444C397.295 267.326 393.331 267.456 393.319 262.544V218.56L427.342 269.319H433.287V209.792C433.287 204.868 437.25 204.999 438.52 204.892V203.005H422.097V204.903Z" fill="white"/>
<path d="M490.474 213.862H488.585C488.479 212.592 488.624 208.629 483.696 208.629H472.174V262.544C472.174 267.48 476.15 267.349 477.407 267.457V269.343H458.563V267.457C459.821 267.349 463.796 267.48 463.796 262.568V208.629H452.155C447.218 208.629 447.361 212.604 447.254 213.862H445.367V203.005H490.459V213.862H490.474Z" fill="white"/>
<path d="M215.971 235.242H215.033V207.431H216.042C228.55 207.431 232.644 211.974 232.644 220.399C232.644 226.569 229.558 235.242 215.971 235.242ZM250.278 264.525C242.351 257.181 237.082 249.029 229.582 238.042C229.582 238.042 241.781 233.486 241.781 219.995C241.781 213.387 237.925 203.029 219.673 203.029H201.41V204.903C202.692 205.01 206.644 204.879 206.655 209.803V262.567C206.632 267.479 202.68 267.349 201.41 267.456V269.331H220.255V267.456C218.985 267.349 215.021 267.479 215.021 262.544V240.012L221.382 239.917C224.313 244.165 232.181 255.223 234.637 258.723C241.354 268.263 247.406 270.303 253.992 270.303C255.796 270.303 257.374 270.019 257.885 269.829V267.942C256.84 267.942 254.122 267.918 250.278 264.537V264.525Z" fill="white"/>
<path d="M875.005 259.647V262.008H876.571C877.228 262.008 877.711 261.913 878.02 261.723C878.329 261.545 878.483 261.225 878.483 260.821C878.483 260.418 878.329 260.086 878.044 259.908C877.749 259.73 877.228 259.647 876.479 259.647H875.005ZM875.005 266.445H873.725V258.567H876.464C877.426 258.567 878.116 258.65 878.517 258.792C878.923 258.946 879.242 259.196 879.479 259.564C879.715 259.908 879.836 260.299 879.836 260.691C879.836 261.296 879.624 261.806 879.208 262.222C878.778 262.625 878.232 262.862 877.57 262.909C877.865 263.028 878.15 263.23 878.401 263.515C878.672 263.799 878.996 264.262 879.411 264.903L880.358 266.434H878.817L878.116 265.2C877.604 264.322 877.228 263.74 876.928 263.479C876.643 263.23 876.252 263.088 875.754 263.088H875.005V266.445ZM876.667 256.396C874.981 256.396 873.523 257.001 872.325 258.199C871.127 259.398 870.532 260.833 870.532 262.518C870.532 264.203 871.127 265.662 872.325 266.837C873.523 268.035 874.957 268.628 876.667 268.628C878.377 268.628 879.802 268.023 880.986 266.837C882.184 265.639 882.792 264.203 882.792 262.518C882.792 260.833 882.184 259.398 880.986 258.199C879.778 257.001 878.353 256.396 876.667 256.396ZM876.667 255.173C877.971 255.173 879.194 255.494 880.334 256.158C881.474 256.823 882.362 257.725 883.015 258.852C883.681 259.991 884 261.213 884 262.518C884 263.823 883.681 265.057 883.015 266.196C882.362 267.311 881.464 268.214 880.324 268.866C879.194 269.519 877.962 269.851 876.658 269.851C875.348 269.851 874.092 269.519 872.967 268.866C871.827 268.225 870.924 267.335 870.272 266.196C869.619 265.057 869.286 263.835 869.286 262.518C869.286 261.201 869.619 259.979 870.272 258.852C870.924 257.725 871.851 256.823 872.967 256.158C874.117 255.506 875.339 255.185 876.658 255.185L876.667 255.173Z" fill="white"/>
<path d="M19.9837 269.322V267.281C18.6191 267.186 14.3351 267.317 14.3233 262.001V201.252C14.3233 195.948 18.6191 196.067 19.9837 195.972V193.931H0V195.972C1.36468 196.079 5.6486 195.948 5.66048 201.264V262.013C5.6486 267.329 1.36468 267.186 0 267.281V269.322H19.9837Z" fill="white"/>
<path d="M352.514 413.992C352.248 412.885 351.104 413.158 350.006 412.832C339.906 409.855 335.133 398.626 339.914 389.042C343.422 381.995 351.385 379.048 359.068 380.351C366.076 381.533 371.281 386.503 372.827 393.284C374.835 402.089 368.963 411.597 359.56 412.961C358.833 413.067 358.158 413.317 358.075 413.992H352.514ZM367.652 396.876C367.728 391.875 365.197 388.026 360.636 386.049C355.582 383.859 349.816 384.98 346.217 389.269C342.997 393.095 342.285 398.831 345.407 403.498C349.453 409.537 358.408 410.446 363.674 405.756C366.538 403.202 367.599 400.369 367.652 396.883V396.876Z" fill="white"/>
<path d="M493.61 413.992C493.087 412.863 491.784 413.09 490.594 412.522C486.973 410.809 485.238 405.892 487.314 402.225C488.844 399.52 491.45 397.702 493.974 395.936C491.299 393.724 489.321 389.663 490.617 386.526C492.117 382.859 495.368 380.866 499.482 381.23C501.747 381.427 504.035 382.124 505.278 383.723C509.059 388.587 505.839 393.906 501.187 397.065C502.74 398.778 503.755 400.24 505.392 401.392C506.952 399.732 507.703 398.217 508.642 396.633C510.4 396.618 511.855 396.815 513.537 396.414C512.696 399.846 510.877 402.513 508.604 405.248L514.749 412.651C505.149 414.772 507.453 408.786 504.581 409.582C502.626 410.12 501.353 412.302 499.201 412.598C498.065 412.749 496.83 412.939 496.542 413.992H493.61ZM498.307 393.307C499.891 392.239 501.497 390.981 501.982 389.185C502.505 387.246 500.641 385.958 499.148 385.624C497.656 385.291 495.549 386.458 495.542 388.375C495.534 390.292 497.035 392.133 498.315 393.307H498.307ZM501.528 405.134C500.035 403.407 498.929 401.422 496.868 400.013C494.474 401.248 490.746 403.809 491.897 406.498C492.291 407.415 493.511 408.521 494.913 408.552C497.55 408.605 499.626 407.127 501.528 405.134Z" fill="white"/>
<path d="M316.297 413.994H311.941C312.07 413.062 310.971 413.146 310.153 412.82L305.167 410.804L305.637 403.682C307.918 407.016 311.168 409.243 315.153 408.751C316.957 408.524 318.313 407.41 318.745 406.046C320.684 399.947 308.425 398.916 305.629 391.4C303.561 385.839 308.425 381.21 311.562 380.543C315.35 379.732 319.548 380.088 322.245 382.52C322.98 383.884 322.776 386.498 321.904 388.476C319.821 385.566 316.881 384.589 313.593 385.043C311.971 385.043 310.638 385.915 310.13 387.18C308.683 390.802 315.078 393.605 316.517 394.476C318.904 395.916 321.094 397.628 322.503 399.97C325.193 404.447 323.829 410.569 318.972 412.577C317.873 413.032 316.494 412.752 316.297 414.002V413.994Z" fill="white"/>
<path d="M562.029 413.992H558.817C559.415 412.772 554.445 412.711 552.248 410.59C552.013 408.68 552.126 406.203 552.551 403.786C553.968 407.332 560.203 410.196 563.598 408.089C565.567 406.87 566.439 404.869 565.113 402.884C561.635 397.679 549.846 396.694 552.376 386.284C553.005 383.708 555.703 380.874 558.968 380.404C562.703 379.866 566.34 380.215 569.174 382.548L569.326 388.261C565.09 384.473 558.37 383.548 556.983 387.193C554.975 392.466 564.726 393.413 569.31 399.528C570.439 401.036 570.28 402.202 570.454 403.9C570.924 408.438 568.333 412.249 563.666 413.105C563.007 413.227 562.332 413.514 562.037 413.999L562.029 413.992Z" fill="white"/>
<path d="M262.303 356.733L262.175 333.647C259.993 334.291 259.53 336.518 258.227 337.897C256.083 340.163 254.552 342.671 252.113 344.853L242.377 333.42L242.058 356.589C240.475 357.082 238.869 357.051 237.156 356.665L237.194 324.631C238.876 324.434 240.46 324.206 241.861 324.661L252.014 337.056L256.447 332.056C261.637 326.199 260.637 323.471 267.365 324.615V356.566C265.781 357.051 264.364 357.044 262.296 356.733H262.303Z" fill="white"/>
<path d="M338.494 356.19C337.464 357.13 334.357 357.493 333.402 356.418L324.159 345.977C320.477 341.817 317.317 337.453 312.998 333.468L312.801 356.622C311.256 357.077 309.801 357.039 307.96 356.675L307.922 324.618C314.241 323.444 312.46 326.649 317.688 330.21C317.946 332.043 319.522 332.672 320.522 333.854L333.115 348.485L333.516 324.679C334.956 324.338 336.357 324.216 338.509 324.732L338.494 356.19Z" fill="white"/>
<path d="M199.975 357.181C198.497 356.537 196.687 356.81 195.285 356.022C191.837 354.074 188.496 351.256 186.996 347.604C184.48 341.467 185.594 334.769 189.443 329.829C190.89 329.177 191.216 327.904 192.345 327.238C197.179 324.343 202.043 323.32 207.711 324.449C210.741 325.056 213.514 326.95 215.954 329.018C218.159 330.89 218.992 333.61 220.477 336.178C220.515 340.436 221.084 345.869 218.462 349.513C215.265 353.953 211.044 356.408 205.953 357.287C203.945 357.635 202.278 358.196 199.982 357.188L199.975 357.181ZM209.105 351.256C212.666 349.491 214.772 346.073 215.28 343.005C215.954 338.86 214.886 335.663 212.151 332.723C209.173 329.511 204.703 328.223 200.225 329.321C193.095 331.071 189.231 338.095 191.807 344.891C194.383 351.688 202.195 354.681 209.112 351.256H209.105Z" fill="white"/>
<path d="M170.33 344.066C169.966 348.264 167.162 351.082 164.374 353.621C161.321 356.401 157.207 356.947 153.085 356.916L141 356.833V324.511C147.417 324.632 155.259 323.609 161.184 325.912C165.465 327.579 168.716 331.739 170.231 336.224C170.958 338.384 170.549 341.422 170.322 344.051L170.33 344.066ZM165.473 340.528C165.382 335.702 162.677 331.61 158.237 330.064C154.418 328.739 150.206 328.731 146.243 329.307L146.319 352.423C149.615 352.681 152.433 352.598 155.275 352.173C161.207 351.295 165.594 347.105 165.473 340.52V340.528Z" fill="white"/>
<path d="M601.992 349.035C601.439 354.437 596.234 356.923 591.862 356.892L579.527 356.816L579.398 324.305C585.93 324.964 596.795 322.274 598.931 330.783C599.871 334.526 598.681 337.344 595.484 339.875C599.515 341.216 602.424 344.663 601.985 349.028L601.992 349.035ZM593.521 335.117C594.241 333.526 594.12 331.381 592.332 330.199C590.173 328.775 587.309 328.828 584.664 329.169C584.46 332.215 584.52 334.859 584.634 337.844C588.756 338.375 591.938 338.647 593.529 335.109L593.521 335.117ZM596.567 347.899C597.136 342.837 588.65 342.178 584.649 342.762V352.452C589.195 352.695 595.976 353.202 596.567 347.899Z" fill="white"/>
<path d="M642.216 356.553C640.587 356.917 637.738 357.538 636.306 356.371C633.586 354.159 628.548 340.725 622.623 343.468L622.312 356.636C620.668 357.068 619.016 357.061 617.372 356.636L617.273 324.367L627.987 324.648C630.919 324.723 634.139 326.671 635.48 329.391C636.821 332.111 636.465 335.52 635.458 338.134C634.806 339.824 632.844 340.725 631.692 341.65C633.056 343.385 634.639 344.627 635.715 346.309L642.224 356.546L642.216 356.553ZM629.108 337.558C631.048 336.573 631.177 334.368 630.904 332.573C630.427 329.466 625.729 328.345 622.501 329.186C622.357 332.224 622.342 334.808 622.532 337.884C624.661 338.096 627.032 338.604 629.101 337.558H629.108Z" fill="white"/>
<path d="M414.83 412.681C413.292 412.742 410.481 413.682 408.792 412.613C404.579 408.893 402.192 397.907 394.759 399.271L394.6 412.689C392.964 413.159 391.312 413.144 389.592 412.719L389.539 380.352C393.259 380.996 397.479 379.798 401.291 380.776C404.526 381.609 407.42 383.807 408.322 386.678C409.739 391.194 407.844 395.035 404.109 397.778C406.284 399.468 407.413 401.597 408.769 403.62L414.838 412.674L414.83 412.681ZM402.366 392.861C403.92 390.86 403.73 387.527 401.632 386.148C399.533 384.769 397.252 384.776 394.744 385.163C394.714 388.322 394.411 391.254 394.85 394.429C395.009 395.588 396.888 394.278 397.57 394.156C399.018 393.906 401.147 394.437 402.374 392.853L402.366 392.861Z" fill="white"/>
<path d="M255.037 408.724C255.878 410.323 257.636 411.035 257.56 412.967C255.621 412.937 253.636 413.217 251.742 412.732L244.733 402.246C243.218 399.981 240.604 398.571 237.808 399.337L237.649 412.717C236.065 413.157 234.588 413.088 232.663 412.793L232.641 380.546C240.126 380.509 251.158 378.834 251.605 389.26C251.764 392.942 250.476 395.617 246.877 397.837C249.059 398.632 254.075 406.936 255.022 408.732L255.037 408.724ZM244.741 393.427C246.498 392.533 246.408 390.146 246.211 388.593C245.824 385.502 240.99 384.335 237.785 385.176L237.823 395.018C240.111 394.147 242.612 394.51 244.733 393.427H244.741Z" fill="white"/>
<path d="M447.648 356.463C445.36 354.016 445.004 350.554 443.443 347.674H430.214L426.138 356.729C424.357 356.933 422.812 357.191 421.031 356.615C422.031 353.834 422.956 351.599 424.032 349.106L434.495 324.884C435.192 324.171 437.655 324.103 438.329 324.778C439.625 326.649 440.829 329.483 441.61 331.748C442.451 334.195 443.693 336.074 444.686 338.325L452.71 356.516C451.429 356.804 448.717 357.608 447.641 356.463H447.648ZM440.86 342.371L436.541 332.612L432.548 342.393C435.465 342.727 438.109 342.863 440.86 342.371Z" fill="white"/>
<path d="M538.694 356.55C537.618 357.36 535.307 356.8 533.731 356.785C533.299 355.292 534.284 354.262 534.913 353.004C535.459 351.913 541.497 337.608 541.815 336.646C542.922 333.357 545.324 329.864 546.127 326.356C546.763 323.583 551.559 324.371 551.12 324.265C551.552 324.371 551.135 325.144 551.362 325.652L565.167 356.535C563.614 356.989 561.129 357.345 560.113 356.497L555.651 347.594H542.641L538.694 356.542V356.55ZM553.203 342.237C552.597 339.76 551.536 338.373 550.68 336.615C550.112 335.449 550.317 334.024 548.582 333.229L545.081 342.374C548.059 342.745 550.635 342.904 553.203 342.237Z" fill="white"/>
<path d="M636.484 403.83C632.537 403.663 628.301 403.626 624.127 403.823C622.232 403.914 621.619 410.126 619.202 412.543C618.073 413.665 615.61 412.93 614.133 412.521L627.779 381.108C628.301 379.895 631.461 380.115 632.006 381.327L645.993 412.551C644.728 412.945 641.826 413.65 640.788 412.551L636.484 403.83ZM634.037 398.019L629.817 388.51L625.687 398.428C628.551 398.511 631.264 399.231 634.029 398.019H634.037Z" fill="white"/>
<path d="M406.535 349.013C406.686 350.597 407.345 353.097 406.467 354.408C404.845 356.817 401.504 356.363 399.102 357.075C396.518 357.84 394.457 357.961 391.98 357.393C387.517 356.378 383.221 354.734 380.562 350.672C377.486 345.982 376.592 340.679 378.561 334.989C380.047 330.708 383.956 326.692 389.176 324.934C394.798 323.04 400.996 324.351 406.504 326.783C406.914 328.798 406.656 330.511 406.815 332.238L399.587 329.503C395.45 327.935 391.215 328.92 387.57 331.503C383.161 334.625 381.782 340.398 383.774 345.452C385.699 350.332 390.798 353.135 396.48 352.658C400.042 352.362 403.178 351.082 406.542 349.006L406.535 349.013Z" fill="white"/>
<path d="M277.237 399.188L277.305 408.469L291.027 408.704C291.913 409.356 291.905 412.583 290.883 412.69C284.586 413.341 278.563 412.917 272.107 412.879L272.047 380.549L290.739 380.367C290.678 381.686 290.799 383.239 290.557 384.891L277.252 385.103C277.237 388.292 276.972 391.134 277.434 394.058L290.026 394.202L290.261 399.188H277.237Z" fill="white"/>
<path d="M497.881 348.195C503.238 354.946 512.701 353.029 519.475 348.952L519.422 354.446C517.126 356.438 513.959 356.347 511.314 357.272C507.67 358.545 500.275 356.84 497.199 354.612C491.039 350.165 488.531 342.936 490.819 335.579C494.29 324.419 507.337 321.623 517.815 326.199C519.702 327.025 518.808 330.374 518.634 332.087C512.421 329.306 507.443 327.283 501.116 330.844C494.79 334.405 493.221 342.338 497.881 348.202V348.195Z" fill="white"/>
<path d="M603.964 396.534C599.152 400.959 591.758 398.133 591.659 399.747C591.394 404.111 591.462 408.111 591.629 412.824C590.076 412.976 588.31 413.066 586.227 412.945L586.34 380.449C590.909 380.79 595.288 379.896 599.418 380.721C602.842 381.403 605.843 384.169 606.51 387.366C607.29 391.117 606.828 393.897 603.964 396.534ZM601.479 390.488C601.691 389.26 601.191 387.109 599.88 386.252C597.516 384.714 594.175 384.745 591.576 385.336L591.515 394.511C594.887 395.291 600.744 394.769 601.486 390.488H601.479Z" fill="white"/>
<path d="M735.091 353.357C733.091 356.698 727.658 358.653 723.809 357.099C722.18 356.44 719.476 356.448 718.422 354.531C717.369 352.614 718.294 349.894 718.203 347.924C720.711 351.371 724.423 353.591 728.628 352.478C730.083 352.091 731.704 349.758 731.394 348.394C729.962 342.226 713.217 339.915 718.566 328.922C721.597 322.701 730.674 322.86 735.447 326.876C735.447 328.558 735.47 330.21 735.281 332.005C733.121 331.596 732.076 329.778 730.022 329.232C727.969 328.687 724.279 328.566 722.991 330.543C721.226 333.248 724.226 335.536 726.151 336.71L731.28 339.855C736.144 342.832 737.592 349.159 735.091 353.341V353.357Z" fill="white"/>
<path d="M438.616 412.636C437.252 413.22 435.328 412.947 433.289 412.939V385.087L421.75 385.057C422.28 383.223 421.833 382.019 422.091 380.488H448.92C449.398 381.898 449.269 383.39 449.049 384.89L438.601 385.133L438.623 412.636H438.616Z" fill="white"/>
<path d="M692.997 356.569C691.444 357.137 689.966 356.97 688.027 356.743L687.883 329.118L677.344 328.959C676.935 327.58 677.056 326.254 677.321 324.504H703.953C704.302 326.065 704.393 327.595 703.9 328.936L693.073 329.118L692.99 356.576L692.997 356.569Z" fill="white"/>
<path d="M661.892 324.179L656.43 324.227L656.715 356.972L662.178 356.924L661.892 324.179Z" fill="white"/>
<path d="M285.045 324.179L285.039 356.91L290.146 356.911L290.151 324.18L285.045 324.179Z" fill="white"/>
<path d="M361.32 324.434H356.047V356.907H361.32V324.434Z" fill="white"/>
</svg>
