<svg width="884" height="357" viewBox="0 0 884 357" fill="none" xmlns="http://www.w3.org/2000/svg">
<path d="M178.74 342.789C177.713 342.542 178.189 340.527 178.417 339.615H190.982V355.618C190.488 356.322 188.473 356.321 188.016 355.751C187.37 354.972 188.226 353.585 187.294 352.197C181.686 357.006 175.109 358.241 168.646 355.162C162.772 352.368 159.293 346.305 159.579 339.216C159.959 330.112 166.821 323.554 176.06 323.668C182.143 323.744 187.978 326.462 190.393 332.164C189.309 332.886 188.188 333.001 186.876 333.191C184.595 329.655 181.135 327.47 177.295 327.223C173.17 326.956 168.912 328.002 166.213 331.461C162.031 336.84 162.164 345.127 167.315 349.859C172.847 354.953 181.743 354.003 186.743 348.7C187.921 347.445 188.073 344.404 187.18 343.34C184.804 342.238 181.781 343.549 178.702 342.789H178.74Z" fill="white"/>
<path d="M314.977 355.64C314.084 356.248 311.612 356.552 310.947 355.64L292.66 330.703L292.432 355.621C291.767 356.438 289.771 356.267 288.915 355.621V324.754C289.885 323.918 291.539 324.26 292.774 324.583L310.871 349.045L311.346 324.773C312.107 323.975 313.761 324.26 314.996 324.602V355.64H314.977Z" fill="white"/>
<path d="M643.145 340.219C643.145 349.418 635.674 356.888 626.454 356.888C617.235 356.888 609.764 349.418 609.764 340.219C609.764 331.02 617.235 323.55 626.454 323.55C635.674 323.55 643.145 331.02 643.145 340.219ZM639.495 340.181C639.495 332.997 633.659 327.162 626.473 327.162C619.288 327.162 613.452 332.997 613.452 340.181C613.452 347.366 619.288 353.201 626.473 353.201C633.659 353.201 639.495 347.366 639.495 340.181Z" fill="white"/>
<path d="M407.842 340.189C407.899 348.495 402.691 354.539 394.859 355.831C389.993 356.63 385.164 356.459 379.88 355.983L379.823 324.433C384.461 324.357 389.061 324.072 393.68 324.547C401.93 325.383 407.766 331.636 407.823 340.189H407.842ZM404.078 339.676C403.793 333.537 399.858 329.146 393.966 328.101C390.696 327.512 387.331 327.797 383.643 327.911V352.543C387.008 352.847 390.012 352.79 393.053 352.543C399.839 351.973 404.421 346.708 404.097 339.695L404.078 339.676Z" fill="white"/>
<path d="M511.091 355.768L503.658 344.003C501.985 343.11 499.115 343.794 497.062 343.775L496.796 355.616C496.169 356.395 494.135 356.243 493.203 355.73V324.427C497.556 324.274 501.966 324.027 506.282 324.579C511.756 325.282 515.159 329.406 514.855 334.842C514.627 339.004 511.984 341.855 507.707 343.015L515.083 355.73C514.323 355.901 511.775 356.795 511.11 355.73L511.091 355.768ZM507.346 339.955C510.654 338.909 511.338 335.602 510.92 332.941C509.95 326.84 502.309 327.525 497.005 327.867V340.506C500.541 340.582 503.905 341.057 507.365 339.955H507.346Z" fill="white"/>
<path d="M231.48 355.795C225.929 358.855 223.933 348.23 220.188 343.897C217.926 343.536 215.74 343.555 213.383 343.859L213.136 355.643C212.699 356.441 210.342 356.422 209.638 355.624L209.6 324.51C217.166 324.244 230.834 322.363 231.252 333.671C231.423 338.176 229.256 341.73 224.256 342.985L231.461 355.795H231.48ZM224.18 339.792C227.165 338.632 227.792 335.42 227.317 332.854C226.214 326.772 218.554 327.551 213.364 327.875V340.514C217.014 340.571 220.607 341.16 224.161 339.792H224.18Z" fill="white"/>
<path d="M678.333 355.735L670.92 343.989C669.171 343.134 666.3 343.78 664.266 343.799L664 355.621C663.582 356.4 661.225 356.4 660.598 355.602L660.56 324.507C668.106 324.222 681.66 322.36 682.154 333.65C682.344 338.154 680.12 341.746 675.121 342.963L682.363 355.773C681.584 355.944 679.018 356.78 678.352 355.735H678.333ZM675.52 339.561C678.428 338.211 678.675 334.847 678.067 332.357C676.736 326.769 669.209 327.586 664.228 327.872V340.511C668.049 340.53 671.908 341.252 675.52 339.561Z" fill="white"/>
<path d="M266.713 341.254L253.121 341.444C252.893 345.435 252.836 348.856 253.159 352.62L270.381 352.848C271.085 353.247 270.8 355.052 270.553 356.003C263.595 356.516 256.752 356.478 249.319 356.041L249.281 324.433L270.248 324.395C270.971 325.022 271.009 327.037 270.286 327.664L253.235 327.854C252.779 331.161 252.931 334.088 253.159 337.642C257.873 337.756 261.96 337.947 267.036 337.566L266.732 341.254H266.713Z" fill="white"/>
<path d="M550.365 341.227L536.793 341.436C536.412 345.2 536.622 348.431 536.66 352.441L554.034 352.859C554.699 353.41 554.395 354.969 554.205 355.995C547.286 356.566 540.461 356.451 532.953 356.052L532.896 324.407H553.939C554.528 325.148 554.585 326.915 553.958 327.657L536.85 327.847C536.374 331.097 536.507 334.138 536.774 337.578L550.346 337.806C550.498 338.889 550.536 339.783 550.346 341.227H550.365Z" fill="white"/>
<path d="M589.4 355.604C585.294 357.334 581.511 357.429 577.614 356.041C574.003 354.749 570.619 351.898 570.904 347.925C576.74 343.782 571.493 354.749 585.009 353.285C588.108 352.943 590.256 351.118 590.541 348.439C591.586 338.289 572.881 344.77 571.55 333.747C571.094 329.964 572.52 326.372 576.208 324.852C582.367 322.286 592.423 323.73 593.715 331.39C592.67 332.074 591.662 332.207 590.522 332.473C589.039 328.216 585.085 326.581 580.694 327.075C577.9 327.398 575.675 328.881 575.314 331.409C573.889 341.159 592.803 335.02 594.267 346.063C594.799 350.13 593.392 353.95 589.4 355.623V355.604Z" fill="white"/>
<path d="M445.319 347.925L429.199 347.678L425.455 355.68C424.979 356.706 423.002 355.68 421.368 356.174L434.978 324.661C435.853 324.015 438.001 324.186 439.198 324.547L452.41 355.642C451.611 356.06 449.444 356.573 448.817 355.737C447.163 353.627 446.802 351.042 445.338 347.906L445.319 347.925ZM443.608 344.029L437.069 329.242L430.397 344.295C435.168 344.2 439.122 344.675 443.589 344.029H443.608Z" fill="white"/>
<path d="M355.516 347.921C349.927 347.408 344.699 347.617 339.377 347.807C337.628 350.506 337.381 353.452 335.632 355.714C335.005 356.531 332.857 356.189 331.963 355.657L345.118 324.809C345.897 324.144 348.977 323.821 349.433 324.752L362.758 355.714C361.77 356.17 359.641 356.531 359.032 355.714C357.436 353.528 357.094 350.981 355.516 347.921ZM353.976 344.139L347.247 328.819L340.879 344.253L353.995 344.139H353.976Z" fill="white"/>
<path d="M711.815 355.45C711.777 356.382 708.697 356.439 708.298 355.564L708.108 327.948L697.501 327.663C697.159 326.522 697.14 325.496 697.577 324.337L722.479 324.413C723.201 324.85 722.954 326.674 722.764 327.606L712.062 327.872L711.815 355.45Z" fill="white"/>
<path d="M408.612 112.196L409.095 112.674C411.389 112.674 421.295 111.599 421.295 96.0498V56.0999C421.295 56.0999 422.261 41.269 408.612 41.269V37.2024H430.837V10.7694C417.187 21.0555 388.199 38.1592 388.199 77.1514C388.199 120.209 427.574 138.151 430.837 141.379V115.306H408.612V112.196Z" fill="white"/>
<path d="M430.816 10.7694V37.2024H452.075V41.269C439.392 41.269 439.392 56.0999 439.392 56.0999V96.0498C439.392 111.599 449.417 112.674 451.592 112.674L452.075 112.196V115.424H430.816V141.5C430.816 141.5 431.782 140.543 433.957 139.226C443.982 132.887 473.332 114.946 473.332 77.2699C473.454 37.2024 444.466 21.0555 430.816 10.7694Z" fill="white"/>
<path d="M430.841 12.0788C418.16 21.5275 388.688 38.5116 388.688 76.3071C388.688 118.529 427.702 135.513 430.841 138.742C430.841 138.742 431.807 137.785 433.982 136.47C443.524 130.131 472.996 113.147 472.996 76.3071C472.151 38.9901 444.491 22.4845 430.841 12.0788ZM451.739 39.4686C451.739 39.4686 438.089 39.4686 438.089 56.0941V97.3587C438.089 101.424 439.417 112.19 451.739 113.026V114.343H409.584V113.026C421.42 112.069 423.231 102.262 423.231 97.3587V56.0941C423.231 39.4686 409.584 39.4686 409.584 39.4686V38.153H451.739V39.4686Z" fill="white"/>
<path d="M408.622 41.2604L409.589 39.4663V38.1506L408.622 37.1939V41.2604Z" fill="white"/>
<path d="M409.589 114.467V113.032L408.622 112.193V115.303L409.589 114.467Z" fill="white"/>
<path d="M452.226 115.304L408.622 115.303L409.589 114.467L451.26 114.466L452.226 115.304Z" fill="white"/>
<path d="M408.622 41.2667L409.589 39.9511C409.589 39.9511 423.236 39.9511 423.236 56.5772V97.8396C423.236 101.907 421.908 112.671 409.589 113.509L408.622 112.552C408.622 112.552 421.305 113.509 421.305 95.9279V55.978C421.305 55.978 422.269 41.2667 408.622 41.2667Z" fill="white"/>
<path d="M452.236 41.2667L451.269 39.9511C451.269 39.9511 437.62 39.9511 437.62 56.5772V97.8396C437.62 101.907 438.95 112.671 451.269 113.509L452.236 112.552C452.236 112.552 439.553 113.509 439.553 95.9279V55.978C439.553 55.978 439.433 41.2667 452.236 41.2667Z" fill="white"/>
<path d="M452.24 41.2604L451.274 39.4663V38.1506L452.24 37.1939V41.2604ZM451.274 114.459V113.024L452.24 112.187V115.298L451.274 114.459Z" fill="white"/>
<path d="M430.832 147.593C419.962 139.101 383.243 120.205 383.243 76.6688C383.243 33.1309 420.445 14.2332 430.832 5.74105V0C419.962 9.44894 378.774 29.6625 378.774 76.7873C378.774 123.912 419.962 144.125 430.832 153.575V147.593ZM430.832 5.86067C432.524 4.42541 432.282 2.51165 430.832 0V5.86067ZM430.832 153.456C432.162 151.661 432.162 149.747 430.832 147.593V153.456Z" fill="white"/>
<path d="M430.816 147.593C441.686 139.101 478.406 120.205 478.406 76.6688C478.406 33.1309 441.203 14.3528 430.816 5.86067V0C442.652 9.44894 482.874 29.6625 482.874 76.7873C482.874 123.912 441.686 144.125 430.816 153.575V147.593Z" fill="white"/>
<path d="M423.087 56.5768V56.0983C423.087 39.4723 409.437 39.4723 409.437 39.4723L408.471 41.2662L409.437 39.9506C409.557 39.9506 423.087 39.9506 423.087 56.5768Z" fill="white"/>
<path d="M451.228 38.1506L452.195 37.1939H430.816V38.1506H451.228Z" fill="white"/>
<path d="M409.589 38.1506H430.845V37.1939H408.622L409.589 38.1506Z" fill="white"/>
<path d="M409.589 38.988L408.622 37.1939V41.2604L409.589 39.4663V38.988Z" fill="white"/>
<path d="M409.589 38.1506L408.622 37.1939L409.589 38.988V38.1506Z" fill="white"/>
<path d="M408.622 112.671V115.303L409.589 114.467V113.509L408.622 112.671ZM409.105 112.671L408.622 112.193V112.671H409.105Z" fill="white"/>
<path d="M430.816 114.466V115.304H452.195L451.228 114.466H430.816Z" fill="white"/>
<path d="M409.589 114.467L408.622 115.303L430.845 115.304V114.466L409.589 114.467Z" fill="white"/>
<path d="M409.589 114.467L408.622 115.303L430.845 115.304V114.466L409.589 114.467Z" fill="white"/>
<path d="M423.087 97.3543V56.4497C423.087 39.8242 409.437 39.8242 409.437 39.8242L408.471 41.1398C422.12 41.1398 421.154 55.9712 421.154 55.9712V95.9188C421.154 111.468 411.128 112.545 408.954 112.545L409.437 113.024C421.274 112.185 423.087 102.258 423.087 97.3543Z" fill="white"/>
<path d="M423.087 97.3543V56.4497C423.087 39.8242 409.437 39.8242 409.437 39.8242L408.471 41.1398C422.12 41.1398 421.154 55.9712 421.154 55.9712V95.9188C421.154 111.468 411.128 112.545 408.954 112.545L409.437 113.024C421.274 112.185 423.087 102.258 423.087 97.3543Z" fill="white"/>
<path d="M409.589 113.029L409.105 112.551H408.622L409.589 113.505V113.029Z" fill="white"/>
<path d="M409.589 113.029L409.105 112.551H408.622L409.589 113.505V113.029Z" fill="white"/>
<path d="M452.219 41.2667L451.252 39.9511C451.252 39.9511 446.178 39.9511 442.315 43.659C440.019 46.051 438.086 49.9981 438.086 56.0988V97.3611C438.086 101.31 439.416 111.955 451.252 113.031L451.616 112.671C449.319 112.671 439.416 111.595 439.416 96.0464V56.0988C439.416 56.0988 439.416 41.2667 452.219 41.2667Z" fill="white"/>
<path d="M451.757 39.4663H451.274L452.121 41.2604V37.1939L451.637 38.1506V39.4663H451.757Z" fill="white"/>
<path d="M451.757 38.1506L452.24 37.1939L451.274 38.1506H451.757ZM452.24 112.666V112.187L451.757 112.666H452.24ZM451.757 114.459H451.274L452.24 115.298V112.666L451.757 113.024V114.459Z" fill="white"/>
<path d="M451.717 113.029L452.2 112.551H451.717L451.355 112.908C451.475 113.029 451.597 113.029 451.717 113.029Z" fill="white"/>
<path d="M442.315 43.6412C446.302 39.9335 451.254 39.9335 451.254 39.9335L452.221 41.2492L451.374 39.455C449.924 39.5746 445.578 40.1725 442.315 43.6412Z" fill="white"/>
<path d="M430.845 38.1506V37.1939H408.622L409.589 38.1506H430.845ZM451.258 38.1508L452.224 37.1939H430.845V38.1506L451.258 38.1508Z" fill="white"/>
<path d="M409.589 38.988L408.622 37.1939V41.2604L409.589 39.4663V38.988Z" fill="white"/>
<path d="M409.589 38.1506L408.622 37.1939L409.589 38.988V38.1506Z" fill="white"/>
<path d="M409.589 113.509L408.622 112.671V115.303L409.589 114.467V113.509ZM409.105 112.671L408.622 112.193V112.671H409.105Z" fill="white"/>
<path d="M409.589 114.467L408.622 115.423H430.845V114.466L409.589 114.467Z" fill="white"/>
<path d="M451.228 114.466H430.816V115.423H452.075L451.228 114.466Z" fill="white"/>
<path d="M451.228 114.466H430.816V115.423H452.075L451.228 114.466Z" fill="white"/>
<path d="M423.087 97.3543V56.4497C423.087 39.8242 409.437 39.8242 409.437 39.8242L408.471 41.1398C422.12 41.1398 421.154 55.9712 421.154 55.9712V95.9188C421.154 111.468 411.128 112.545 408.954 112.545L409.437 113.024C421.274 112.185 423.087 102.258 423.087 97.3543Z" fill="white"/>
<path d="M409.589 113.029L409.105 112.551H408.622L409.589 113.505V113.029Z" fill="white"/>
<path d="M409.589 113.029L409.105 112.551H408.622L409.589 113.505V113.029Z" fill="white"/>
<path d="M442.315 43.659C440.019 46.051 438.086 49.9981 438.086 56.0988V97.3634C438.086 101.31 439.416 111.955 451.252 113.031L451.616 112.673C449.319 112.673 439.416 111.595 439.416 96.0464V56.0988C439.416 56.0988 439.416 41.267 452.099 41.267L451.132 39.9511C451.252 39.9511 446.178 39.9513 442.315 43.659Z" fill="white"/>
<path d="M442.315 43.659C440.019 46.051 438.086 49.9981 438.086 56.0988V97.3634C438.086 101.31 439.416 111.955 451.252 113.031L451.616 112.673C449.319 112.673 439.416 111.595 439.416 96.0464V56.0988C439.416 56.0988 439.416 41.267 452.099 41.267L451.132 39.9511C451.252 39.9511 446.178 39.9513 442.315 43.659Z" fill="white"/>
<path d="M451.757 39.4663H451.274L452.121 41.2604V37.1939L451.637 38.1506V39.4663H451.757Z" fill="white"/>
<path d="M451.757 38.1506L452.24 37.1939L451.274 38.1506H451.757ZM451.757 114.459H451.274L452.24 115.298V112.666L451.757 113.024V114.459ZM452.24 112.666V112.187L451.757 112.666H452.24Z" fill="white"/>
<path d="M451.717 113.029L452.2 112.551H451.717L451.355 112.908C451.475 113.029 451.597 113.029 451.717 113.029Z" fill="white"/>
<path d="M517.714 269.319V267.444C516.444 267.338 512.478 267.468 512.468 262.532V209.78C512.478 204.868 516.444 204.999 517.714 204.892V203.005H498.865V204.892C500.136 204.999 504.102 204.868 504.111 209.792V262.556C504.111 267.468 500.136 267.338 498.865 267.444V269.319H517.714Z" fill="white"/>
<path d="M863.297 269.319V258.463H861.413C861.317 259.732 861.447 263.695 856.51 263.707H839.743V209.78C839.753 204.868 843.719 204.999 844.989 204.892V203.005H826.145V204.892C827.401 204.999 831.377 204.868 831.386 209.792V262.556C831.377 267.468 827.411 267.338 826.145 267.444V269.319H863.312H863.297Z" fill="white"/>
<path fill-rule="evenodd" clip-rule="evenodd" d="M344.783 270.709C325.061 270.709 317.086 251.772 317.086 236.193C317.086 220.614 324.859 201.666 345.46 201.666C362.572 201.666 373.228 214.432 373.228 234.603C373.228 254.774 362.227 270.697 344.783 270.697V270.709ZM347.761 265.702C352.769 265.702 364.363 262.783 364.363 237.842C364.363 218.503 355.131 206.519 343.407 206.519C335.195 206.519 325.844 212.048 325.844 233.524C325.844 251.464 334.483 265.702 347.655 265.702" fill="white"/>
<path d="M571.953 204.903C573.224 205.011 577.175 204.88 577.19 209.792V254.085L543.168 203.005L531.975 203.029V204.903C533.231 205.011 537.207 204.88 537.221 209.792V262.532C537.207 267.456 533.246 267.326 531.975 267.444V269.319H548.399V267.444C547.143 267.326 543.177 267.456 543.168 262.544V218.56L577.19 269.319H583.131V209.792C583.146 204.868 587.107 204.999 588.377 204.892V203.005H571.953V204.903Z" fill="white"/>
<path d="M696.662 203.017V204.903C697.932 205.011 701.884 204.88 701.908 209.792V254.085L667.881 203.005L656.703 203.029V204.903C657.974 205.011 661.94 204.88 661.94 209.792V262.532C661.94 267.456 657.964 267.326 656.703 267.444V269.319H673.118V267.444C671.847 267.326 667.896 267.456 667.881 262.544V218.56L701.908 269.319H707.849V209.792C707.849 204.868 711.825 204.999 713.096 204.892V203.005H696.672L696.662 203.017Z" fill="white"/>
<path d="M189.033 269.314V258.457H187.146C187.039 259.727 187.17 263.69 182.245 263.702H162.653V238.026H178.459C183.373 238.038 183.242 242 183.348 243.27H185.235V228H183.348C183.242 229.257 182.981 232.402 178.448 232.402H162.653V208.588H182.245C187.17 208.588 187.039 212.563 187.146 213.821H189.033V202.965H149.054V204.851C150.312 204.958 154.287 204.827 154.287 209.751V262.515C154.275 267.427 150.312 267.297 149.054 267.404V269.279H189.033V269.314Z" fill="white"/>
<path d="M641.773 269.314V258.457H639.875C639.769 259.727 639.89 263.69 634.977 263.702H615.369V238.026H631.19C636.117 238.038 635.986 242 636.093 243.27H637.967V228H636.093C635.986 229.257 635.721 232.402 631.19 232.402H615.384V208.588H634.987C639.914 208.588 639.783 212.563 639.89 213.821H641.773V202.965H601.796V204.851C603.051 204.958 607.027 204.827 607.027 209.751V262.515C607.003 267.427 603.042 267.297 601.796 267.404V269.279H641.788L641.773 269.314Z" fill="white"/>
<path d="M290.931 270.098C295.287 270.098 304.341 269.042 309.29 266.183L311.532 251.755L309.515 251.458C305.908 262.338 298.942 264.403 291.976 264.403C281.474 264.403 267.257 255.469 267.257 232.154C267.257 215.448 273.725 198.137 289.223 198.137C306.383 198.137 308.234 211.307 308.388 213.277H310.429V196.321C304.151 194.446 295.595 193.331 290.73 193.331C268.112 193.331 257.681 209.159 257.681 232.415C257.681 253.476 269.299 270.086 290.92 270.086L290.931 270.098Z" fill="white"/>
<path d="M765.026 213.862H763.137C763.04 212.592 763.161 208.629 758.239 208.629H746.713V262.544C746.713 267.48 750.679 267.349 751.959 267.457V269.343H733.1V267.457C734.371 267.349 738.337 267.48 738.361 262.568V208.629H726.695C721.782 208.629 721.898 212.604 721.806 213.862H719.918V203.005H765.026V213.862Z" fill="white"/>
<path d="M789.773 216.425L799.029 241.828H780.518L789.788 216.425H789.773ZM800.927 247.037L806.589 262.544C808.332 267.457 804.338 267.326 803.111 267.433V269.307H821.66V267.433C820.274 267.433 816.805 266.673 814.066 259.732L793.478 203.005H787.971L767.277 259.804C764.534 266.745 761.77 267.421 760.379 267.421V269.296H776.436V267.421C775.19 267.314 771.18 267.433 772.958 262.532L778.619 247.025H800.942L800.927 247.037Z" fill="white"/>
<path d="M72.3089 203.017V204.903C73.5668 205.011 77.5303 204.88 77.554 209.792V254.085L43.5197 203.005L32.3412 203.029V204.903C33.611 205.011 37.5745 204.88 37.5863 209.792V262.532C37.5745 267.456 33.611 267.326 32.3412 267.444V269.319H48.7651V267.444C47.507 267.326 43.5435 267.456 43.5197 262.544V218.56L77.554 269.319H83.499V209.792C83.499 204.868 87.4745 204.999 88.744 204.892V203.005H72.3205L72.3089 203.017Z" fill="white"/>
<path d="M140.72 213.862H138.821C138.714 212.592 138.845 208.629 133.92 208.629H122.397V262.544C122.41 267.48 126.373 267.349 127.631 267.457V269.343H108.786V267.457C110.056 267.349 114.02 267.48 114.031 262.568V208.629H102.39C97.4653 208.629 97.5958 212.604 97.4774 213.862H95.5906V203.005H140.696V213.862H140.72Z" fill="white"/>
<path d="M422.097 204.903C423.366 205.011 427.33 204.88 427.342 209.792V254.085L393.319 203.005L382.141 203.029V204.903C383.41 205.011 387.362 204.88 387.386 209.792V262.532C387.386 267.456 383.41 267.326 382.141 267.444V269.319H398.553V267.444C397.295 267.326 393.331 267.456 393.319 262.544V218.56L427.342 269.319H433.287V209.792C433.287 204.868 437.25 204.999 438.52 204.892V203.005H422.097V204.903Z" fill="white"/>
<path d="M490.474 213.862H488.585C488.479 212.592 488.624 208.629 483.696 208.629H472.174V262.544C472.174 267.48 476.15 267.349 477.407 267.457V269.343H458.563V267.457C459.821 267.349 463.796 267.48 463.796 262.568V208.629H452.155C447.218 208.629 447.361 212.604 447.254 213.862H445.367V203.005H490.459V213.862H490.474Z" fill="white"/>
<path d="M215.971 235.242H215.033V207.431H216.042C228.55 207.431 232.644 211.974 232.644 220.399C232.644 226.569 229.558 235.242 215.971 235.242ZM250.278 264.525C242.351 257.181 237.082 249.029 229.582 238.042C229.582 238.042 241.781 233.486 241.781 219.995C241.781 213.387 237.925 203.029 219.673 203.029H201.41V204.903C202.692 205.01 206.644 204.879 206.655 209.803V262.567C206.632 267.479 202.68 267.349 201.41 267.456V269.331H220.255V267.456C218.985 267.349 215.021 267.479 215.021 262.544V240.012L221.382 239.917C224.313 244.165 232.181 255.223 234.637 258.723C241.354 268.263 247.406 270.303 253.992 270.303C255.796 270.303 257.374 270.019 257.885 269.829V267.942C256.84 267.942 254.122 267.918 250.278 264.537V264.525Z" fill="white"/>
<path d="M875.005 259.647V262.008H876.571C877.228 262.008 877.711 261.913 878.02 261.723C878.329 261.545 878.483 261.225 878.483 260.821C878.483 260.418 878.329 260.086 878.044 259.908C877.749 259.73 877.228 259.647 876.479 259.647H875.005ZM875.005 266.445H873.725V258.567H876.464C877.426 258.567 878.116 258.65 878.517 258.792C878.923 258.946 879.242 259.196 879.479 259.564C879.715 259.908 879.836 260.299 879.836 260.691C879.836 261.296 879.624 261.806 879.208 262.222C878.778 262.625 878.232 262.862 877.57 262.909C877.865 263.028 878.15 263.23 878.401 263.515C878.672 263.799 878.996 264.262 879.411 264.903L880.358 266.434H878.817L878.116 265.2C877.604 264.322 877.228 263.74 876.928 263.479C876.643 263.23 876.252 263.088 875.754 263.088H875.005V266.445ZM876.667 256.396C874.981 256.396 873.523 257.001 872.325 258.199C871.127 259.398 870.532 260.833 870.532 262.518C870.532 264.203 871.127 265.662 872.325 266.837C873.523 268.035 874.957 268.628 876.667 268.628C878.377 268.628 879.802 268.023 880.986 266.837C882.184 265.639 882.792 264.203 882.792 262.518C882.792 260.833 882.184 259.398 880.986 258.199C879.778 257.001 878.353 256.396 876.667 256.396ZM876.667 255.173C877.971 255.173 879.194 255.494 880.334 256.158C881.474 256.823 882.362 257.725 883.015 258.852C883.681 259.991 884 261.213 884 262.518C884 263.823 883.681 265.057 883.015 266.196C882.362 267.311 881.464 268.214 880.324 268.866C879.194 269.519 877.962 269.851 876.658 269.851C875.348 269.851 874.092 269.519 872.967 268.866C871.827 268.225 870.924 267.335 870.272 266.196C869.619 265.057 869.286 263.835 869.286 262.518C869.286 261.201 869.619 259.979 870.272 258.852C870.924 257.725 871.851 256.823 872.967 256.158C874.117 255.506 875.339 255.185 876.658 255.185L876.667 255.173Z" fill="white"/>
<path d="M19.9837 269.322V267.281C18.6191 267.186 14.3351 267.317 14.3233 262.001V201.252C14.3233 195.948 18.6191 196.067 19.9837 195.972V193.931H0V195.972C1.36468 196.079 5.6486 195.948 5.66048 201.264V262.013C5.6486 267.329 1.36468 267.186 0 267.281V269.322H19.9837Z" fill="white"/>
</svg>
