<svg width="692" height="407" viewBox="0 0 692 407" fill="none" xmlns="http://www.w3.org/2000/svg">
<path d="M252.621 406.239L251.136 388.999L244.556 405.798C244.342 406.339 242.443 406.453 242.241 405.861L235.963 387.79L234.756 406.327C233.762 406.541 233.032 406.604 231.975 406.289L233.523 383.974C234.705 383.47 235.9 383.609 237.347 383.823L243.55 401.453L250.167 383.936C251.224 383.47 252.948 383.558 253.929 383.961L255.338 406.364C254.558 406.516 253.388 406.629 252.596 406.239H252.621Z" fill="white"/>
<path d="M417.958 406.178C415.794 407.122 414.675 406.216 413.769 404.73L403.628 388.182L403.591 406.115C402.961 406.694 401.817 406.518 400.848 406.354V383.787C401.867 383.712 403.502 383.322 404.194 384.027L415.039 401.053L415.178 383.787C416.058 383.611 416.826 383.636 417.895 383.838L417.958 406.178Z" fill="white"/>
<path d="M590.939 406.178C588.775 407.122 587.656 406.216 586.75 404.73L576.609 388.182L576.572 406.115C575.943 406.694 574.798 406.518 573.829 406.354V383.787C574.848 383.712 576.484 383.322 577.176 384.027L588.021 401.04L588.159 383.775C589.04 383.599 589.807 383.624 590.876 383.825L590.939 406.165V406.178Z" fill="white"/>
<path d="M628.841 394.542C628.816 400.461 625.57 404.818 620.009 405.939C616.738 406.594 613.429 406.644 609.856 406.115L609.793 384.216C613.467 383.612 617.065 383.498 620.626 384.153C625.784 385.098 628.854 389.064 628.829 394.555L628.841 394.542ZM623.167 401.481C626.375 398.182 626.64 392.238 623.784 388.838C621.091 385.639 616.348 385.475 612.838 386.508L612.926 403.849C616.461 404.302 620.412 404.327 623.18 401.481H623.167Z" fill="white"/>
<path d="M319.705 406.266C318.082 404.315 318.522 398.094 315.591 397.023C314.307 396.557 311.288 395.94 310.999 397.237C310.307 400.411 311.137 403.32 310.671 406.241C309.753 406.556 308.822 406.569 307.727 406.38L307.753 384.241C312.093 383.397 320.674 382.831 321.705 388.359C322.259 391.344 321.189 393.837 317.918 395.424C322.334 399.177 320.271 402.677 323.026 406.292C322.271 406.304 320.837 406.745 319.68 406.292L319.705 406.266ZM318.862 390.235C318.937 388.913 318.283 387.352 316.836 386.672C314.987 385.803 312.949 385.727 310.873 386.332C310.697 389.102 310.734 391.482 310.86 394.19C314.484 394.731 318.673 394.013 318.874 390.235H318.862Z" fill="white"/>
<path d="M76.2835 399.492C73.4402 399.014 70.6975 399.014 68.131 399.467C66.8603 401.709 67.0238 404.227 65.6525 406.091C65.0234 406.947 62.9475 406.33 62.5323 406.305L70.4333 384.015C71.314 383.461 73.3521 383.423 74.1322 384.028L81.7312 406.154C80.9889 406.481 79.3282 406.847 78.8627 406.23C77.5668 404.353 77.4536 402.023 76.2835 399.492ZM75.5916 396.835L72.094 387.164L68.8732 396.873C71.4524 396.961 73.2137 397.024 75.6042 396.835H75.5916Z" fill="white"/>
<path d="M159.621 399.83C157.495 398.394 153.997 399.389 151.758 399.414C150.399 401.769 150.625 404.199 149.229 406.101C148.6 406.957 146.524 406.328 146.109 406.315L153.997 384.025C154.89 383.471 156.916 383.433 157.708 384.038L165.307 406.164C164.49 406.504 163.068 406.831 162.426 406.189C160.942 404.716 161.458 401.429 159.621 399.83ZM159.18 396.832L155.683 387.161L152.462 396.87C155.041 396.958 156.803 397.021 159.193 396.832H159.18Z" fill="white"/>
<path d="M284.952 399.87C282.914 398.321 279.329 399.442 277.127 399.404C275.756 401.772 275.995 404.189 274.598 406.091C273.969 406.947 271.893 406.318 271.478 406.305L279.366 384.015C280.26 383.461 282.285 383.423 283.078 384.028L290.677 406.154C289.846 406.494 288.45 406.809 287.796 406.179C286.286 404.756 286.877 401.343 284.952 399.857V399.87ZM284.55 396.835L281.052 387.164L277.831 396.873C280.411 396.961 282.172 397.024 284.562 396.835H284.55Z" fill="white"/>
<path d="M377.809 399.492C374.966 399.014 372.223 399.014 369.656 399.467C368.386 401.709 368.549 404.227 367.178 406.091C366.549 406.947 364.473 406.33 364.058 406.305L371.946 384.015C372.839 383.461 374.865 383.423 375.658 384.028L383.257 406.154C382.514 406.481 380.854 406.847 380.401 406.23C379.105 404.353 378.992 402.023 377.821 399.492H377.809ZM377.13 396.835L373.632 387.164L370.411 396.873C372.99 396.961 374.752 397.024 377.142 396.835H377.13Z" fill="white"/>
<path d="M551.082 399.83C548.956 398.394 545.458 399.389 543.219 399.414C541.86 401.769 542.086 404.199 540.69 406.101C540.061 406.957 537.985 406.328 537.57 406.315L545.471 384.025C546.351 383.471 548.389 383.433 549.17 384.038L556.769 406.164C555.951 406.504 554.529 406.831 553.887 406.189C552.403 404.716 552.919 401.429 551.082 399.83ZM550.654 396.832L547.157 387.161L543.936 396.87C546.515 396.958 548.276 397.021 550.667 396.832H550.654Z" fill="white"/>
<path d="M487.404 406.39C484.246 407.435 480.585 407.121 477.968 405.572C477.943 404.703 478.157 403.758 478.27 402.537C480.359 404.237 482.686 404.791 485.341 404.35C487.115 404.048 488.423 402.864 488.725 401.34C489.09 399.514 488.222 397.777 486.398 396.958L481.705 394.83C479.415 393.797 478.157 391.619 478.245 389.276C478.333 386.934 479.73 384.692 482.259 383.798C485.228 382.753 488.298 383.017 491.304 384.39C490.726 385.108 490.449 385.939 489.795 386.569C487.694 385.687 485.467 385.259 483.341 386.128C482.171 386.607 481.416 387.778 481.277 388.81C480.573 394.339 492.059 392.563 491.833 400.383C491.757 402.978 490.424 405.408 487.417 406.403L487.404 406.39Z" fill="white"/>
<path d="M103.309 406.101C102.818 406.706 101.208 406.492 100.377 406.366L100.34 386.317C98.0246 385.927 95.7097 386.569 93.6212 385.965C93.1305 385.826 93.1431 384.189 93.6212 383.761L110.266 383.686C110.48 384.391 110.618 385.789 110.128 386.003L103.447 386.355L103.296 406.101H103.309Z" fill="white"/>
<path d="M194.857 404.126C195.41 404.139 195.398 405.978 194.92 406.355L182.364 406.456L182.338 383.789C183.446 383.575 184.314 383.587 185.345 383.927L185.433 403.824L194.844 404.126H194.857Z" fill="white"/>
<path d="M522.321 404.126C522.875 404.139 522.862 405.978 522.384 406.355L509.828 406.456L509.803 383.789C510.91 383.575 511.778 383.587 512.81 383.927L512.898 403.824L522.308 404.126H522.321Z" fill="white"/>
<path d="M345.584 405.486C343.093 407.602 338.048 407.199 337.759 406.053C337.658 405.65 337.897 404.844 338.237 404.366C338.476 404.026 339.344 404.34 339.986 404.429C342.477 404.781 344.628 403.283 344.641 400.714L344.779 383.789C345.836 383.575 346.704 383.587 347.786 383.927L347.685 400.626C347.685 402.603 346.666 404.555 345.572 405.486H345.584Z" fill="white"/>
<path d="M460.485 383.7H457.453V406.456H460.485V383.7Z" fill="white"/>
<path d="M597.38 351.168C590.813 351.043 584.9 350.942 578.773 351.168C578.333 351.181 578.018 350.677 577.968 350.463C577.779 349.569 580.761 350.174 581.83 349.154C583.969 347.101 583.051 331.208 583.101 327.065H558.769C558.744 330.894 558.077 346.799 559.952 348.826C561.424 350.426 565.5 349.28 565.475 350.476C565.475 350.703 565.11 351.169 564.657 351.156C558.517 351.08 552.566 350.917 546.364 351.168C545.76 351.194 545.533 350.841 545.496 350.602C545.244 349.217 549.018 350.602 549.799 348.486C550.579 346.371 550.629 344.167 550.629 341.875V309.133C550.641 307.76 550.214 306.325 549.358 305.695C547.484 304.31 544.414 305.456 544.527 304.184C544.552 303.919 545.005 303.592 545.458 303.592C551.384 303.705 557.108 303.881 563.034 303.554C563.374 303.541 564.128 304.108 563.915 304.398C563.197 305.342 559.046 304.07 558.844 308.012C558.58 313.163 558.48 318.162 558.781 323.439H583.063C583.025 319.623 583.982 307.647 582.069 305.846C580.635 304.499 576.835 305.09 576.974 304.247C577.012 304.045 577.427 303.567 577.779 303.567C583.705 303.68 589.442 303.856 595.418 303.554C595.946 303.529 596.286 303.806 596.361 304.058C596.751 305.317 593.82 304.423 592.398 305.67C591.706 306.274 591.228 307.559 591.228 308.755L591.392 345.539C591.392 346.811 591.782 348.134 592.449 348.839C594.046 350.514 599.972 348.99 597.343 351.143L597.38 351.168Z" fill="white"/>
<path d="M385.778 351.168C379.21 351.043 373.297 350.942 367.17 351.168C366.73 351.181 366.415 350.677 366.365 350.463C366.176 349.569 369.158 350.174 370.227 349.154C372.366 347.101 371.448 331.208 371.498 327.065H347.166C347.141 330.894 346.474 346.799 348.349 348.826C349.821 350.426 353.897 349.28 353.872 350.476C353.872 350.703 353.507 351.168 353.054 351.156C346.915 351.08 340.964 350.917 334.761 351.168C334.157 351.194 333.931 350.828 333.881 350.589C333.629 349.217 337.403 350.589 338.183 348.486C338.963 346.383 339.014 344.167 339.014 341.875V309.133C339.026 307.76 338.598 306.325 337.743 305.695C335.843 304.297 332.799 305.481 332.912 304.171C332.937 303.919 333.39 303.592 333.843 303.604C339.769 303.718 345.493 303.894 351.419 303.567C351.758 303.554 352.513 304.121 352.299 304.41C351.582 305.355 347.43 304.083 347.229 308.025C346.965 313.175 346.864 318.175 347.166 323.451H371.448C371.41 319.635 372.366 307.659 370.454 305.859C369.02 304.511 365.182 305.09 365.359 304.259C365.396 304.058 365.812 303.579 366.164 303.592C372.09 303.705 377.827 303.881 383.803 303.567C384.331 303.541 384.671 303.831 384.746 304.07C385.136 305.33 382.217 304.436 380.783 305.682C380.091 306.287 379.613 307.571 379.613 308.768L379.777 345.552C379.777 346.824 380.167 348.146 380.833 348.851C382.431 350.526 388.357 349.002 385.727 351.156L385.778 351.168Z" fill="white"/>
<path d="M243.51 351.244C242.68 351.32 242.403 350.803 242.365 350.564C242.189 349.254 245.9 350.577 246.68 348.486C247.46 346.396 247.511 344.167 247.511 341.875V309.133C247.523 307.76 247.096 306.325 246.24 305.695C244.353 304.297 241.271 305.481 241.409 304.171C241.434 303.932 241.887 303.567 242.34 303.592C252.87 303.97 266.32 302.874 275.252 304.687C284.902 306.639 291.62 314.195 292.526 324.043C293.306 332.468 290.45 341.031 283.581 346.207C271.478 355.337 257.739 349.909 243.497 351.244H243.51ZM283.266 336.296C284.16 332.166 284.411 328.022 283.669 323.854C281.316 310.531 268.194 304.788 255.751 307.294C255.299 319.484 255.525 331.045 255.714 342.933C255.751 345.527 256.859 347.441 259.564 348.02C269.012 350.06 280.889 347.302 283.266 336.296Z" fill="white"/>
<path d="M220.927 350.01C220.914 350.942 220.751 351.483 220.499 351.634C220.059 351.899 219.329 351.672 218.775 351.345L201.552 334.319L184.504 316.588L185.272 345.577C185.435 351.748 192.393 348.851 191.361 350.677C191.21 350.954 190.644 351.206 190.241 351.194C185.096 351.017 180.202 350.992 175.106 351.168C174.653 351.181 174.1 350.476 174.288 350.249C174.88 349.519 177.434 350.237 178.654 349.065C179.321 348.423 179.711 347.214 179.736 345.968L180.478 303.869C180.478 303.39 180.818 302.937 181.057 302.71C181.284 302.496 181.674 302.66 182.227 302.937L197.161 318.578L216.85 338.638L216.423 309.07C216.335 303.113 210.019 305.846 210.245 304.184C210.283 303.944 210.723 303.579 211.151 303.592C216.171 303.718 221.002 303.793 226.022 303.567C226.148 303.567 226.928 304.096 226.827 304.335C226.412 305.342 221.807 303.907 221.719 308.541L220.927 349.985V350.01Z" fill="white"/>
<path d="M636.772 349.028C638.32 350.224 641.251 349.405 642.081 350.325C642.27 350.526 641.792 351.194 641.339 351.181L621.26 351.017C622.253 349.128 624.292 350.363 625.625 349.317C627.059 348.184 627.122 345.842 627.135 343.978L627.286 307.395C623.398 307.256 619.85 307.496 616.101 307.634C610.817 307.823 611.522 312.13 610.075 312.231C608.628 312.331 610.88 303.793 611.32 302.685C613.686 303.365 615.699 303.756 617.988 303.756L647.24 303.793C648.888 303.793 650.221 303.05 651.895 303.327C652.109 306.778 652.083 309.951 651.555 313.389C649.655 312.546 651.618 308.541 646.296 307.773C642.572 307.244 639.037 307.357 635.187 307.382L635.489 345.061C635.489 346.383 635.602 348.121 636.772 349.028Z" fill="white"/>
<path d="M60.2779 345.804C55.5473 353.083 43.1675 353.473 36.2982 349.821C35.8956 349.456 36.0465 336.12 37.5437 338.5C38.1098 339.407 38.0595 349.405 48.0112 348.877C50.842 348.725 53.2576 347.391 54.5912 345.338C56.2141 342.832 55.9499 339.696 54.5157 337.064C51.4836 331.498 42.2868 328.463 38.6131 320.29C35.4301 313.238 38.6383 305.758 46.124 303.554C51.0559 302.106 56.3651 302.597 61.234 304.096L60.8566 313.477C60.8566 313.729 60.4288 313.906 60.3156 313.994C60.1646 314.12 59.6111 313.83 59.5985 313.452C59.3594 308.491 55.0818 305.229 50.1626 305.796C47.7093 306.073 45.5579 307.219 44.5262 309.196C40.6009 316.663 51.9869 320.844 58.5165 328.199C62.857 333.085 63.9264 340.225 60.2904 345.804H60.2779Z" fill="white"/>
<path d="M689.802 345.804C685.071 353.083 672.691 353.473 665.822 349.821C665.419 349.456 665.57 336.12 667.068 338.5C667.634 339.407 667.583 349.405 677.535 348.877C680.366 348.725 682.781 347.391 684.115 345.338C685.738 342.832 685.474 339.696 684.04 337.064C681.007 331.498 671.811 328.463 668.137 320.29C664.954 313.238 668.162 305.758 675.648 303.554C680.58 302.106 685.889 302.597 690.758 304.096L690.38 313.477C690.38 313.742 689.953 313.906 689.839 313.994C689.688 314.12 689.135 313.83 689.122 313.452C688.883 308.491 684.606 305.229 679.674 305.796C677.221 306.073 675.069 307.219 674.037 309.196C670.112 316.663 681.498 320.844 688.028 328.199C692.368 333.085 693.438 340.225 689.802 345.804Z" fill="white"/>
<path d="M110.376 341.346C111.999 340.238 110.452 349.934 109.747 350.766C107.81 351.559 105.696 351.307 103.532 351.294C95.5051 351.206 87.7677 350.791 79.7912 351.194C79.1874 351.219 78.9483 350.828 78.9106 350.602C78.6589 349.229 82.4333 350.602 83.2133 348.486C83.9934 346.371 84.0437 344.167 84.0437 341.887V309.145C84.0563 307.924 83.7166 306.728 83.0875 305.997C82.3201 305.103 80.9361 305.103 79.6025 304.889L78.5583 304.713C78.3947 304.687 78.3444 304.36 78.3947 304.108C78.4451 303.856 78.7848 303.592 79.3132 303.604C85.2892 303.793 91.0514 303.831 97.0149 303.579C97.3671 303.567 97.6817 303.844 97.8201 303.944C99.2669 305.065 94.8383 304.599 93.4418 305.556C92.5485 306.173 92.146 307.634 92.146 309.057L92.2969 342.857C92.2969 344.582 93.0266 346.61 94.8132 347.025C98.6001 347.907 102.676 348.045 106.426 347C109.483 346.156 109.533 341.887 110.363 341.321L110.376 341.346Z" fill="white"/>
<path d="M468.876 351.055L449.564 351.194C448.973 351.194 448.734 350.828 448.684 350.602C448.457 349.33 451.426 350.438 452.672 348.99C453.301 348.26 453.691 347.013 453.691 345.791L453.855 309.158C453.855 307.936 453.452 306.728 452.898 306.01C451.59 304.31 448.193 305.468 448.646 304.096C448.721 303.856 449.061 303.604 449.602 303.617C455.238 303.831 460.623 303.856 466.209 303.592C466.411 303.592 467.128 304.083 467.014 304.373C466.738 305.103 463.919 304.7 462.85 305.821C462.196 306.513 461.856 307.836 461.856 309.095L461.919 345.59C461.919 346.723 462.259 347.794 462.649 348.486C463.882 350.69 469.002 348.864 468.864 351.055H468.876Z" fill="white"/>
<path d="M20.2697 351.055L0.957656 351.194C0.366341 351.194 0.127299 350.828 0.0769744 350.589C-0.149487 349.33 2.80709 350.426 4.0652 348.99C4.69426 348.26 5.08428 347.013 5.08428 345.791L5.24783 309.158C5.24783 307.936 4.84524 306.728 4.29167 306.01C2.98322 304.31 -0.40111 305.468 0.0392309 304.096C0.114718 303.856 0.466991 303.592 0.9954 303.617C6.63176 303.831 12.0165 303.856 17.6025 303.592C17.8038 303.592 18.521 304.083 18.4077 304.385C18.1309 305.116 15.3128 304.713 14.2434 305.833C13.5891 306.526 13.2495 307.848 13.2495 309.108L13.3124 345.602C13.3124 346.736 13.6521 347.806 14.0421 348.499C15.275 350.703 20.3956 348.877 20.2572 351.068L20.2697 351.055Z" fill="white"/>
<path d="M517.993 347.088C519.012 342.202 518.144 337.215 518.383 332.405C518.648 327.065 511.413 330.163 512.395 327.481C518.522 327.544 524.259 327.846 530.222 327.393C530.537 327.368 530.914 327.733 531.078 327.783C531.229 327.834 531.304 328.022 531.229 328.299C530.927 329.483 526.586 327.67 526.536 332.329L526.372 348.096C526.372 349.015 524.749 349.758 523.869 350.023C514.974 352.743 505.362 352.768 496.681 349.708C487.056 346.32 481.659 338.097 481.407 328.123C481.118 316.311 488.314 306.236 500.053 303.63C505.437 302.433 510.973 302.282 516.484 303.138L526.272 304.65C525.58 307.307 526.574 317.444 524.9 316.701C523.667 316.147 525.102 312.281 520.17 309.196C515.867 306.513 511.174 305.783 506.092 306.035C499.008 306.375 493.07 310.657 491.195 317.621C489.661 323.325 490.013 329.168 491.875 334.772C497.197 350.791 517.389 349.934 517.993 347.063V347.088Z" fill="white"/>
<path d="M133.161 334.722C131.978 337.518 127.713 347.088 128.631 348.725C129.65 350.526 132.066 349.431 132.67 350.287C132.833 350.526 132.431 351.168 131.928 351.156C127.034 350.992 122.316 351.03 117.384 351.156C116.881 351.156 116.679 350.803 116.616 350.614C116.113 349.078 121.447 351.383 123.649 345.905L140.709 303.39C140.961 302.761 141.514 302.446 141.942 302.408C142.458 302.37 143.037 302.861 143.351 303.617L160.235 345.288C161.707 348.914 164.387 349.569 168.451 350.488C162.613 352.063 157.329 350.74 151.529 351.03C151.479 349.808 152.183 349.783 152.888 349.015L147.566 334.848L133.161 334.735V334.722ZM146.27 331.234L140.281 315.58L134.318 331.448C138.633 331.473 141.993 331.901 146.258 331.234H146.27Z" fill="white"/>
<path d="M414.878 343.222C414.853 348.889 422.1 348.121 426.352 347.567C432.102 346.811 429.887 340.477 432.227 341.812C432.227 344.859 432.039 347.894 430.982 351.068C425.195 351.571 419.47 351.206 413.544 351.005C409.368 350.866 405.404 351.496 401.215 350.816C402.498 348.914 404.813 350.526 405.706 348.826C406.663 347.013 406.725 344.608 406.725 342.429L406.763 309.145C406.763 307.773 406.323 306.337 405.48 305.707C403.605 304.322 400.485 305.481 400.649 304.184C400.687 303.932 401.114 303.617 401.58 303.617L426.541 303.756C427.912 303.756 429.007 303.151 430.642 303.214C430.303 305.405 430.579 312.583 429.133 312.483C427.962 312.394 429.686 307.672 424.553 307.395C421.383 307.231 418.363 306.879 414.928 307.282L414.954 324.005C419.307 324.005 426.818 324.962 429.598 322.129L428.881 332.367C428.868 332.606 428.252 332.707 428.164 332.581C427.157 330.982 428 327.783 423.987 327.594C421.03 327.456 418.162 327.393 414.941 327.468L414.853 343.235L414.878 343.222Z" fill="white"/>
<path d="M346.891 0C347.168 1.18375 348.439 1.33487 349.684 2.02749L347.81 137.516C348.263 138.247 348.816 137.68 349.71 137.743L346.212 252.176C344.463 251.32 345.545 249.708 345.495 248.134L342.123 137.265C342.903 137.378 343.57 138.033 344.023 137.038L342.186 1.96452C343.658 1.29709 344.765 0.994853 345.319 0H346.904H346.891Z" fill="white"/>
<path d="M327.089 252.315C325.076 249.217 326.85 246.245 326.334 242.845L323.163 129.306C323.83 128.978 323.956 129.205 324.22 129.104C324.661 128.928 324.849 128.286 324.837 127.467L323.189 12.2027L330.473 8.0092L328.863 129.595C328.85 130.93 329.064 131.572 330.196 132.24L327.605 224.333L327.089 252.328V252.315Z" fill="white"/>
<path d="M365.071 252.29C363.788 243.034 364.543 234.282 364.279 224.837L361.624 132.303C363.033 131.358 362.97 130.25 362.945 128.5L361.347 8.05957L368.632 12.1775L366.971 129.092C367.852 129.608 369.009 128.135 368.745 129.004L365.084 252.29H365.071Z" fill="white"/>
<path d="M308.368 252.176C306.091 251.459 307.575 250.099 307.538 248.663L304.166 120.768C304.581 120.39 305.676 120.843 305.663 119.999L304.266 22.0127L311.274 18.0711L309.966 120.579C309.941 122.128 310.419 122.883 311.236 124.054L308.695 219.019L308.318 244.961C308.28 247.315 307.814 249.419 308.355 252.176H308.368Z" fill="white"/>
<path d="M384.484 241.951C383.792 245.955 385.742 249.104 383.49 252.403L382.458 192.107L380.571 123.752C381.855 122.908 381.905 122.077 381.88 120.579L380.559 18.4363C383.188 19.4563 385.126 20.7156 387.579 21.9875L386.157 119.042C386.245 120.138 387.39 120.352 387.642 121.347L384.471 241.951H384.484Z" fill="white"/>
<path d="M288.754 251.925L285.168 112.469L286.477 110.542L285.281 31.999L292.201 28.1203L291.031 113.224C291.019 114.27 292.063 114.572 292.264 115.516L289.861 211.753L288.754 251.925Z" fill="white"/>
<path d="M403.57 237.317C402.865 242.832 404.576 247.29 402.727 252.416L402.161 219.031L399.556 115.101C400.99 114.194 400.84 113.212 400.814 111.587L399.607 28.1581L406.564 31.9486L405.356 108.955C405.331 110.504 405.394 111.398 406.652 112.456L403.582 237.317H403.57Z" fill="white"/>
<path d="M459.619 252L459.48 228.426L456.473 89.1212C458.851 87.8871 460.789 86.9048 463.569 85.9604L460.575 232.733L460.55 249.255C460.55 250.199 460.273 251.282 459.606 251.988L459.619 252Z" fill="white"/>
<path d="M231.9 251.849C230.918 249.28 232.139 246.371 231.409 243.538C230.994 241.888 231.434 240.906 231.409 239.092L228.201 85.8344L235.359 89.0708L232.151 237.216L231.9 251.849Z" fill="white"/>
<path d="M440.558 250.023L440.47 228.136L437.501 97.6845C439.954 96.5134 442.055 95.4052 444.635 94.5992L441.64 229.723L441.489 251.937C441.036 251.408 440.558 250.741 440.558 250.023Z" fill="white"/>
<path d="M250.998 251.824L250.268 245.364C249.614 242.341 250.381 239.722 250.318 236.448L247.173 94.1081L254.319 97.6467L251.174 235.528L250.985 251.824H250.998Z" fill="white"/>
<path d="M270.083 251.849C269.228 250.514 269.769 249.016 269.152 247.681L269.253 235.919L266.183 102.785C268.486 104.371 270.763 104.888 273.304 106.235L270.247 233.954L270.096 251.849H270.083Z" fill="white"/>
<path d="M421.51 247.353L421.586 235.906L418.541 106.273L425.637 102.747L422.592 233.866L422.404 251.962L421.51 247.353Z" fill="white"/>
</svg>
