<svg width="459" height="357" viewBox="0 0 459 357" fill="none" xmlns="http://www.w3.org/2000/svg">
<path d="M235.061 356.995H233.894L224.461 344.909L224.075 356.995H222.912L222.948 342.071C223.558 341.478 224.452 342.418 224.874 342.989C227.595 346.671 230.288 350.053 233.395 353.785C234.226 351.685 233.373 342.359 233.903 342.013C234.15 341.851 234.617 341.874 235.079 342.062L235.057 357L235.061 356.995Z" fill="white"/>
<path d="M279.887 356.995H271.837L271.819 342.049C275.128 341.757 280.12 341.347 282.944 343.375C285.027 344.873 285.836 347.472 285.683 349.985C285.427 354.235 282.724 355.462 279.887 356.995ZM284.278 350.903C284.92 347.912 283.73 344.841 280.677 343.627C278.275 342.674 275.55 342.8 273.053 343.218L273.165 355.215C277.714 356.213 283.24 355.732 284.278 350.903Z" fill="white"/>
<path d="M188 356.995H186.612C185.719 355.53 184.973 353.344 183.263 352.382C181.911 351.618 179.77 352.494 177.978 352.202L177.601 356.995H176.641L176.578 341.95C180.43 341.829 187.474 340.925 187.955 346.028C188.188 348.501 187.376 350.538 184.812 351.672C185.665 353.7 187.937 355.219 188 356.995ZM184.614 350.291C186.46 349.617 186.796 347.607 186.549 346.033C185.984 342.445 180.816 342.791 177.776 343.092V350.687C180.021 350.763 182.329 351.123 184.614 350.291Z" fill="white"/>
<path d="M309.779 356.995H308.527C307.93 355.611 307.597 354.181 306.583 352.625C304.001 352.85 301.33 352.144 298.842 352.872C297.311 353.322 297.082 355.858 296.418 356.995H295.183C296.817 352.063 299.511 347.539 301.5 342.553C301.711 342.026 302.273 341.901 302.65 341.905C303.081 341.914 303.292 342.283 303.53 342.791L308.67 353.807C309.191 354.918 309.734 355.93 309.784 357L309.779 356.995ZM305.959 351.083C304.531 348.317 304.221 346.231 302.371 343.928C301.096 346.617 299.969 348.542 299.08 351.217C301.514 351.505 303.399 351.806 305.959 351.083Z" fill="white"/>
<path d="M260.846 356.995H259.562C259.059 355.66 258.462 354.316 257.6 352.782C254.865 352.449 252.248 352.611 249.392 352.665C248.36 354.113 247.879 355.602 247.273 356.995H246.196C246.083 356.209 246.532 355.525 246.905 354.698L252.252 342.993C252.549 342.346 252.652 341.851 253.366 341.887C253.927 341.914 254.277 342.175 254.578 342.849L260.837 356.991L260.846 356.995ZM256.823 351.199C255.772 348.519 254.933 346.105 253.321 343.785C251.996 346.469 250.914 348.528 250.133 351.289C252.679 351.586 254.623 351.618 256.823 351.199Z" fill="white"/>
<path d="M160.59 356.995H155.911C155.507 356.218 154.524 356.339 153.702 355.795C149.765 353.178 149.029 347.296 152.584 343.866C155.696 340.862 160.724 341.271 163.809 343.717C162.826 346.366 159.97 340.408 154.43 344.068C152.347 345.444 151.184 347.903 151.713 350.637C152.162 352.958 153.918 354.576 155.736 355.269C157.734 356.033 160.275 356.056 161.847 354.545C162.799 353.632 161.968 350.017 162.453 349.599C164.321 347.998 163.499 354.307 163.418 355.197C162.529 356.137 161.259 356.105 160.59 356.995Z" fill="white"/>
<path d="M210.394 356.995H200.373L200.225 341.901H209.586C210.062 341.905 210.179 342.17 210.188 342.395C210.206 342.687 210.058 342.894 209.582 342.903L201.572 343.07C201.397 344.927 201.433 346.613 201.55 348.497C203.148 349.037 209.11 348.092 209.303 349.131C209.371 349.491 209.151 349.77 208.688 349.779L201.55 349.904C201.424 351.699 201.433 353.389 201.536 355.354L210.296 355.651C210.507 356.137 210.439 356.703 210.39 356.995H210.394Z" fill="white"/>
<path d="M459 268.606V270.625C457.298 271.898 459.283 274.681 456.329 274.668L427.612 274.569C428.887 272.909 429.664 271.718 429.664 269.847L429.7 233.074C429.7 230.867 429.107 229.36 427.513 227.544L455.592 227.472C456.122 229.527 456.876 231.451 456.849 233.582C454.995 231.788 453.94 229.135 451.349 228.897C446.249 228.434 441.261 228.821 435.86 228.771L435.846 247.072C441.104 247.387 445.764 247.301 450.627 246.299C451.165 248.232 451.457 250.035 451.471 251.924C449.899 250.813 449.172 248.835 447.3 248.615C443.564 248.169 439.905 248.439 435.837 248.511L435.869 273.26L452.746 273.364C456.207 273.386 457.276 269.479 458.996 268.606H459Z" fill="white"/>
<path d="M420.402 269.645C417.483 273.647 412.917 274.825 408.356 275.032C398.81 275.459 395.021 266.799 392.511 258.858L387.142 241.861C386.127 238.65 384.834 236.146 382.818 233.403C379.316 228.641 371.971 226.213 367.037 230.3C363.696 233.07 365.097 238.439 367.894 241.11C375.738 248.601 393.607 252.248 390.249 265.944C387.887 275.576 373.044 277.694 363.072 271.556C361.582 270.639 360.046 270.553 358.412 269.96C358.573 267.203 358.12 264.6 358.645 261.592C360.32 265.243 362.057 268.395 365.339 270.823C369.551 273.935 375.567 274.825 380.461 272.613C383.042 271.444 384.232 268.296 384.542 265.949C385.772 256.672 370.898 252.778 363.728 246.281C359.772 242.697 357.859 236.789 360.845 232.148C364.437 226.563 376.528 224.76 382.27 230.912C384.255 233.034 386.019 235.606 387.146 238.394C390.926 247.72 392.098 254.136 395.488 262.824C396.709 265.953 398.263 268.827 400.79 271.21C404.086 274.321 409.824 274.888 413.478 271.952C417.025 269.101 417.376 263.754 414.987 260.202C409.568 252.14 393.459 250.157 391.555 238.87C390.805 234.414 392.902 230.426 397.118 228.596C401.949 226.496 407.835 226.617 412.697 228.744C414.682 229.612 416.222 230.696 418.413 231.078C418.422 233.088 418.781 234.846 418.233 237.009C415.077 230.237 408.445 226.923 401.527 228.83C398.097 229.774 396.408 233.277 397.306 236.712C398.097 239.738 400.243 241.955 402.86 243.551L413.169 249.829C415.916 251.501 418.44 253.313 420.357 256.007C423.181 259.968 423.401 265.535 420.397 269.654L420.402 269.645Z" fill="white"/>
<path d="M308.001 247.657C298.505 247.9 296.628 245.368 291.73 252.837C291.654 250.579 292.637 248.592 292.983 246.33L316.217 246.38C314.646 248.223 314.165 250.071 314.165 252.396L314.134 274.69L308.284 274.6L307.709 271.219C303.951 274.339 299.574 275.081 294.832 275.005C286.603 274.874 279.653 270.211 276.9 262.307C274.409 255.152 274.382 247.266 276.802 240.08C279.442 232.229 286.244 227.413 294.415 227.157C303.237 226.878 302.42 229.365 309.891 230.714C309.994 232.908 310.385 235.147 309.698 237.45C306.358 229.266 296.875 225.898 289.193 230.071C286.015 231.802 284.219 235.251 283.262 238.686C280.771 247.684 280.64 260.472 286.513 268.233C289.606 272.316 294.617 274.528 299.605 273.476C304.593 272.424 307.79 268.193 307.974 263.116C308.158 257.958 308.127 253.116 308.005 247.661L308.001 247.657Z" fill="white"/>
<path d="M228.16 268.103C223.836 276.3 210.753 276.624 203.112 272.212C201.275 271.151 199.488 270.472 197.23 270.054C197.342 267.212 196.619 264.33 197.58 261.362C200.364 270.899 209.963 276.489 219.055 272.577C223.571 270.634 224.402 264.164 221.906 260.427C217.95 254.514 209.24 252.005 203.094 246.798C199.466 243.727 197.347 239.41 198.474 234.702C200.382 226.721 212.369 225.705 219.104 228.573C221.268 229.495 223.001 230.642 225.264 231.145C225.093 233.254 225.798 235.035 224.86 236.95C221.87 229.599 213.64 226.213 206.667 229.563C203.924 230.88 203.296 234.734 204.274 237.342C205.424 240.404 207.713 242.391 210.376 244.019L221.268 250.66C224.088 252.383 226.584 254.505 228.11 257.572C229.65 260.67 229.897 264.816 228.16 268.103Z" fill="white"/>
<path d="M345.935 252.486C342.469 246.294 337.543 248.898 330.185 248.493L330.194 273.341C336.304 273.184 342.204 273.723 348.148 273.103C350.573 272.851 351.399 269.996 353.231 268.53C353.204 270.535 352.508 272.532 351.938 274.627L322.022 274.663C322.687 273.256 323.832 272.343 323.832 270.756L323.85 231.721C323.85 229.904 322.804 228.906 321.511 227.431L350.029 227.503C350.636 229.67 351.129 231.793 351.246 233.92C349.63 232.346 348.53 229.302 345.93 228.974C340.7 228.313 335.536 228.861 330.203 228.731L330.194 247.054C335.303 247.324 339.999 247.4 345.041 246.272C345.423 248.304 346.047 250.193 345.944 252.491L345.935 252.486Z" fill="white"/>
<path d="M259.732 260.593L241.324 260.629L238.064 269.825C237.395 271.713 238.158 273.157 240.004 274.578L233.534 274.636C234.746 273.328 235.509 272.766 236.012 271.399L252.018 227.827C252.283 227.107 253.971 227.49 254.465 227.661L269.551 268.939C270.305 271.003 270.952 272.586 272.541 274.555C268.787 274.775 265.488 274.843 261.86 274.506C263.189 272.909 263.705 271.097 262.96 269.155L259.727 260.602L259.732 260.593ZM259.296 259.141L250.55 235.705L241.934 259.289L259.296 259.141Z" fill="white"/>
<path d="M36.0796 247.805L35.9988 269.712C36.0122 271.664 36.6453 273.238 38.293 274.654H27.7062C28.9364 272.945 29.7176 271.659 29.7176 269.658L29.6637 228.83C26.2291 228.659 23.4005 228.528 20.0287 228.911L19.9928 270.76C19.9928 272.284 21.0614 273.044 21.7797 274.609L11.6913 274.51C12.2884 273.301 13.4647 272.307 13.4647 270.765L13.4872 228.879C4.02281 228.654 5.19014 227.517 0 233.56C0.0718359 231.46 0.646523 229.495 1.22121 227.476L38.5444 227.449C36.8428 228.839 36.0347 230.03 36.0302 231.932L35.9808 246.33L56.4495 246.357L56.5214 232.13C56.5304 230.367 55.61 229.032 54.6985 227.566C58.2185 227.458 61.5364 227.296 65.3392 227.638C63.907 228.744 62.8654 229.927 62.8609 231.775L62.8025 269.402C62.8025 271.659 63.6331 273.278 65.236 274.69L54.6896 274.573C55.6818 273.062 56.4989 271.704 56.5349 269.874L56.5124 247.882L36.0796 247.801V247.805Z" fill="white"/>
<path d="M96.0177 252.423C93.0679 246.429 87.6982 248.808 80.564 248.507V273.328C86.7778 273.22 92.4977 273.696 98.3793 273.125C100.687 272.9 101.657 270.014 103.448 268.669C103.394 270.495 102.743 272.419 102.398 274.654L71.6024 274.672C73.4208 273.08 74.2738 271.916 74.2738 269.816L74.2873 232.602C74.2873 230.426 73.56 228.902 71.7371 227.562L100.162 227.467C100.741 229.414 101.419 231.42 101.598 233.605C99.5331 231.995 98.698 229.171 96.1119 228.911C91.0206 228.398 86.019 228.798 80.5819 228.762L80.5729 247.072C86.0594 247.355 90.8724 247.319 95.5597 246.2C95.2903 248.695 96.5205 250.287 96.0222 252.423H96.0177Z" fill="white"/>
<path d="M164.904 274.578C168.446 270.643 164.185 266.232 162.919 260.593L144.821 260.755C142.756 261.843 142.635 266.601 144.471 268.148C142.76 268.665 141.324 268.507 139.451 268.242C140.641 266.641 141.342 265.067 142.06 263.111L155.076 227.773C155.3 227.161 157.159 227.346 157.577 227.71L172.505 268.602C173.3 270.778 173.946 272.446 175.45 274.501C171.921 274.82 168.599 274.699 164.904 274.578ZM162.345 259.159L153.599 235.741L144.839 259.253L162.345 259.159Z" fill="white"/>
<path d="M149.086 273.269C151.565 273.175 153.311 269.335 154.618 268.719C154.474 270.832 153.998 272.658 153.468 274.636L126.799 274.596C127.985 272.914 128.739 271.448 128.739 269.402L128.761 233.079C128.761 230.876 128.061 229.36 126.822 227.566H136.946C135.837 229.302 134.962 230.669 134.962 232.638V273.242C139.905 273.449 144.372 273.449 149.091 273.274L149.086 273.269Z" fill="white"/>
<path d="M382.903 318.864C381.511 319.309 381.035 318.145 380.321 317.259L369.712 304.039C368.747 306.813 370.107 318.599 368.899 318.887C368.648 318.949 367.817 319.066 367.817 318.603L367.808 300.927C368.221 300.311 369.079 300.424 369.564 301.035L381.313 315.847L381.475 300.833C381.479 300.248 382.768 300.415 382.862 300.963L382.903 318.864Z" fill="white"/>
<path d="M127.671 309.674C127.671 314.957 123.392 319.242 118.112 319.242C112.832 319.242 108.554 314.957 108.554 309.674C108.554 304.39 112.832 300.105 118.112 300.105C123.392 300.105 127.671 304.39 127.671 309.674ZM120.613 317.169C124.542 316.072 126.598 312.21 126.122 308.577C125.646 304.943 122.651 302.11 118.92 301.764C113.618 301.27 109.582 305.406 110.089 310.497C110.596 315.587 115.198 318.68 120.613 317.169Z" fill="white"/>
<path d="M347.689 309.669C347.689 314.943 343.419 319.22 338.148 319.22C332.877 319.22 328.607 314.943 328.607 309.669C328.607 304.394 332.877 300.118 338.148 300.118C343.419 300.118 347.689 304.394 347.689 309.669ZM341.143 316.989C345.26 315.532 346.907 311.13 345.812 307.299C344.779 303.688 341.196 301.301 337.124 301.773C332.23 302.339 329.182 306.971 330.345 311.629C331.508 316.288 336.186 318.743 341.143 316.989Z" fill="white"/>
<path d="M221.005 309.988L211.253 310.213C210.961 312.51 210.88 314.822 211.334 317.196L222.177 317.501C222.522 317.51 222.491 318.945 221.984 318.945L209.583 318.873L209.376 300.549L220.843 300.473C221.283 300.473 221.705 300.603 221.871 300.747C222.037 300.891 221.988 301.768 221.755 301.773L211.244 302.002C210.903 304.331 211.051 306.363 211.145 308.792L219.492 308.94C220.116 308.954 220.893 308.868 221.005 309.983V309.988Z" fill="white"/>
<path d="M245.824 316.242C251.068 319.552 255.849 315.572 256.06 315.667C256.446 315.847 256.792 316.197 256.734 316.476C256.303 318.513 247.018 321.616 242.483 315.15C240.032 311.651 240.229 306.575 243.094 303.409C248.549 297.384 257.73 301.709 256.738 303.288C256.433 303.769 255.912 303.872 255.387 303.441C251.952 300.585 246.681 301.422 244.059 304.736C241.275 308.248 242.057 313.864 245.828 316.247L245.824 316.242Z" fill="white"/>
<path d="M78.8796 315.65C82.1706 318.379 86.6334 317.961 89.655 315.668C90.0186 315.393 90.2566 315.802 90.4003 315.933C91.3341 316.756 88.4113 319.13 83.5175 319.017C79.6249 318.932 76.2127 316.23 75.0723 312.83C73.8107 309.076 74.785 304.961 77.9233 302.434C83.6073 297.852 91.2892 301.863 90.4991 303.176C90.324 303.464 89.875 303.945 89.3407 303.509C85.9509 300.757 81.0167 301.225 78.1927 304.323C75.3686 307.421 75.3327 312.709 78.8796 315.645V315.65Z" fill="white"/>
<path d="M180.263 317.192C182.347 317.776 190.365 316.823 190.666 317.758C190.805 318.186 190.729 318.928 190.118 318.928L178.638 318.869L178.418 300.609C178.539 300.352 179.33 300.582 180.084 300.618L180.263 317.196V317.192Z" fill="white"/>
<path d="M281.673 318.086C281.673 318.563 281.435 318.913 281.282 318.94C281.152 318.963 280.878 318.724 280.169 319.21L280.124 302.051C278.193 301.3 273.613 302.748 273.636 301.071C273.64 300.698 274.098 300.477 274.642 300.477L287.626 300.527C288.066 300.527 288.205 300.932 288.183 301.089C287.963 302.762 283.967 301.282 281.717 302.051L281.677 318.081L281.673 318.086Z" fill="white"/>
<path d="M159.767 317.205C159.632 318.108 159.834 318.864 159.242 318.877L147.842 319.107L147.856 300.909C147.856 300.45 148.592 300.509 148.835 300.554C149.077 300.599 149.257 300.765 149.257 301.314L149.351 317.223C153.122 317.402 156.472 317.465 159.763 317.205H159.767Z" fill="white"/>
<path d="M308.539 317.673C308.539 318.226 308.454 318.496 308.382 318.738C308.297 319.017 307.91 318.743 307.053 319.202L307.098 300.878C307.098 300.325 308.467 300.374 308.467 300.918L308.539 317.677V317.673Z" fill="white"/>
<path d="M321.094 91.6219C321.094 142.222 280.125 183.244 229.584 183.244C179.043 183.244 138.074 142.222 138.074 91.6219C138.074 41.0221 179.047 0 229.584 0C280.12 0 321.094 41.0221 321.094 91.6219ZM315.67 91.6354C315.67 44.0483 277.143 5.47231 229.615 5.47231C182.087 5.47231 143.56 44.0483 143.56 91.6354C143.56 139.223 182.087 177.798 229.615 177.798C277.143 177.798 315.67 139.223 315.67 91.6354Z" fill="white"/>
<path d="M310.843 91.6395C310.843 136.574 274.462 173 229.583 173C184.703 173 148.323 136.574 148.323 91.6395C148.323 46.7054 184.708 10.2832 229.587 10.2832C274.467 10.2832 310.847 46.7099 310.847 91.644L310.843 91.6395ZM298.038 91.635C298.038 53.801 267.404 23.1299 229.614 23.1299C191.824 23.1299 161.19 53.801 161.19 91.635C161.19 129.469 191.824 160.14 229.614 160.14C267.404 160.14 298.038 129.469 298.038 91.635Z" fill="white"/>
<path d="M213.242 56.9447C204.352 61.0815 197.73 67.7859 193.73 76.7205C191.637 81.3925 190.38 86.1004 190.739 91.5412C185.091 93.6231 179.978 95.8804 175.102 99.1674L166.01 105.296C165.022 103.484 165.081 101.69 164.829 99.6935C162.714 82.7324 167.105 66.0547 177.302 52.4931C185.073 42.16 194.717 35.1319 206.696 30.3835C213.377 27.735 219.914 26.5704 227.017 26.3141C228.826 26.2511 230.379 25.9679 232.234 26.1972C237.505 26.8492 242.672 27.1774 247.723 28.7557C267.218 34.8441 281.545 47.421 289.72 66.1356C291.826 70.7131 292.984 75.502 293.918 80.5561C284.836 81.7972 276.7 83.933 268.223 87.3729C265.489 68.8426 250.678 54.6559 232.077 53.6487C225.517 53.2935 219.222 54.1568 213.242 56.9402V56.9447Z" fill="white"/>
<path d="M224.671 89.6925C217.856 87.044 200.889 87.9613 194.028 90.6638C193.081 89.4767 193.606 88.5504 193.804 87.3408C195.672 76.014 202.357 66.2699 212.4 60.8381C215.763 59.3992 218.704 57.8524 222.193 57.1959C242.904 53.2928 262.56 67.412 265.11 88.3255C261.895 90.2546 258.524 91.4327 255.363 93.3302L245.598 99.1892L239.658 96.1046C237.512 94.9894 235.446 94.1351 233.3 93.0289C230.602 91.6395 227.621 90.8481 224.662 89.697L224.671 89.6925Z" fill="white"/>
<path d="M234.333 107.846C218.089 120.953 202.442 128.485 179.8 122.235C168.621 119.15 170.484 119.861 166.524 109.096C177.802 99.8059 192.205 92.5529 206.9 91.3479C210.146 91.0826 213.563 90.8892 216.805 91.3074C226.053 92.508 234.458 96.5954 242.445 101.294L234.333 107.841V107.846Z" fill="white"/>
<path d="M281.812 130.405C258.69 122.325 235.981 122.864 215.184 136.597C209.509 140.342 204.925 144.965 200.543 150.163C189.054 144.533 178.517 134.542 172.406 123.058C179.976 126.331 186.257 127.001 194.383 127.239C203.462 127.505 212.266 125.328 220.366 121.362C232.488 115.431 234.796 110.526 245.593 103.187C250.725 105.418 256.773 109.644 261.622 111.92L266.161 114.046C272.316 116.933 281.184 120.063 288.228 119.932C287.658 122.122 283.343 129.596 281.808 130.4L281.812 130.405Z" fill="white"/>
<path d="M279.805 133.467C260.84 155.842 230.71 163.131 203.883 151.732C203.883 150.257 204.835 149.619 205.733 148.76L210.51 144.2C219.072 136.026 229.695 131.484 241.418 129.335C252.62 127.28 263.745 128.31 274.691 131.588C276.528 132.136 278.382 132.051 279.805 133.467Z" fill="white"/>
<path d="M266.135 110.633L252.814 103.519C251.197 102.656 249.904 101.478 248.216 101.298C262.525 92.0488 277.673 85.7581 294.429 83.7616C295.165 84.8543 294.694 85.92 294.779 87.1115C295.534 97.4536 293.765 107.449 289.706 117.158C281.472 116.578 273.583 114.608 266.135 110.633Z" fill="white"/>
</svg>
