<svg xmlns="http://www.w3.org/2000/svg" xmlns:xlink="http://www.w3.org/1999/xlink" xmlns:inkscape="http://www.inkscape.org/namespaces/inkscape" version="1.1" width="2332.22" height="798.029" viewBox="0 0 2332.22 798.029">
<defs>
<clipPath id="clip_0">
<path transform="matrix(1,0,0,-1,0,798.029)" d="M0 798.029H2332.215V0H0Z"/>
</clipPath>
<path id="font_1_3" d="M.07699585 .7001953V0H.32598878C.5349884 0 .69099429 .13101197 .69099429 .34709168 .69099429 .5631714 .5359955 .7001953 .31900025 .7001953H.07699585M.1579895 .07598877V.6241913H.31599427C.47898866 .6241913 .60899356 .52815249 .60899356 .34709168 .60899356 .1650238 .47799684 .07598877 .32199098 .07598877H.1579895Z"/>
<path id="font_1_4" d="M.07699585 0H.5499878V.07598877H.1579895V.328125H.46199037V.40411378H.1579895V.6241913H.5479889V.7001953H.07699585V0Z"/>
<path id="font_1_15" d="M.3919983 0 .66999819 .7001953H.58200076L.43699647 .32806397C.3809967 .1860199 .34700013 .09399414 .34599305 .09098816H.34399415C.34298707 .09399414 .30799867 .18702698 .25099183 .33306886L.10798645 .7001953H.016998291L.29499818 0H.3919983Z"/>
<path id="font_1_6" d="M.07699585 0H.5269928V.07598877H.1579895V.7001953H.07699585V0Z"/>
<path id="font_1_9" d="M.037994386 .35107423C.037994386 .13323975 .19599915-.0126953129 .40098573-.0126953129 .6049957-.0126953129 .7639923 .13323975 .7639923 .35107423 .7639923 .5679016 .6049957 .7138672 .40098573 .7138672 .19599915 .7138672 .037994386 .5679016 .037994386 .35107423M.11999512 .35107423C.11999512 .52793887 .24299622 .6368561 .40098573 .6368561 .55799868 .6368561 .6819916 .5289459 .6819916 .35107423 .6819916 .17321778 .55799868 .06529236 .40098573 .06529236 .24299622 .06529236 .11999512 .17321778 .11999512 .35107423Z"/>
<path id="font_1_10" d="M.07699585 .7001953V0H.1579895V.26490785H.2889862C.45199586 .26490785 .5499878 .34291078 .5499878 .4820404 .5499878 .6251831 .45199586 .7001953 .2889862 .7001953H.07699585M.1579895 .33691407V.6251831H.29100038C.4019928 .6251831 .46798707 .58013918 .46798707 .48104859 .46798707 .3879547 .4079895 .33691407 .29100038 .33691407H.1579895Z"/>
<path id="font_1_7" d="M.6439972 0H.7259979V.7001953H.6419983L.40299989 .27386476H.40098573L.16299439 .7001953H.07699585V0H.1579895V.31489564C.1579895 .42303468 .1559906 .56718447 .1559906 .5681915H.1579895C.15899658 .56718447 .18499756 .51112368 .25 .3959961L.3769989 .171875H.42599488L.55400088 .39900209C.61698916 .51112368 .6439972 .56718447 .644989 .5681915H.6469879C.6469879 .56718447 .6439972 .42303468 .6439972 .3149109V0Z"/>
<path id="font_1_8" d="M.56799319 0H.651001V.7001953H.56900027V.30007936C.56900027 .21902466 .57099917 .13699341 .57099917 .13598633H.56900027L.15899658 .7001953H.07699585V0H.1579895V.40107728C.1579895 .48815919 .1559906 .5681915 .1559906 .56918337H.1579895L.56799319 0Z"/>
<path id="font_1_13" d="M.59999087 .6241913V.7001953H.036987306V.6241913H.2769928V0H.35899354V.6241913H.59999087Z"/>
<path id="font_1_12" d="M.034988405 .1842041C.056991579 .026290894 .19198609-.0126953129 .30999757-.0126953129 .46598817-.0126953129 .55799868 .05429077 .55799868 .186203 .55799868 .3400879 .42999269 .37306214 .32598878 .39305116 .22599793 .4130249 .13798523 .43301393 .13798523 .52593997 .13798523 .5968933 .18899536 .6408539 .29100038 .6408539 .3939972 .6408539 .45098878 .59588626 .46998597 .5189514L.5479889 .53993228C.5179901 .65986636 .42199708 .7138672 .2919922 .7138672 .14498902 .7138672 .054992677 .64486697 .054992677 .5229492 .054992677 .38105775 .1769867 .34707643 .27198792 .32510377 .35899354 .30610658 .47499085 .30010987 .47499085 .18519593 .47499085 .10127258 .41299439 .060302736 .31098939 .060302736 .20399475 .060302736 .12098694 .105270389 .11299133 .20518494L.034988405 .1842041Z"/>
<path id="font_1_2" d="M0 0Z"/>
<path id="font_1_5" d="M.7299957 0V.36602784H.44599916V.29003907H.6539917V.1900177C.6259918 .13821411 .5339966 .06529236 .4019928 .06529236 .24198914 .06529236 .11999512 .17416382 .11999512 .35203553 .11999512 .52693179 .23599243 .6368561 .397995 .6368561 .548996 .6368561 .61499026 .5439148 .6380005 .50094607L.71798709 .52293398C.673996 .6268616 .55999758 .7138672 .3999939 .7138672 .19400025 .7138672 .037994386 .5718994 .037994386 .35102845 .037994386 .13122559 .19799805-.0126953129 .39698792-.0126953129 .5349884-.0126953129 .621994 .062301637 .6559906 .101257327H.6579895C.6579895 .0920105 .6569977 .08000183 .6569977 0H.7299957Z"/>
<path id="font_1_11" d="M.46699525 0H.5649872L.3919983 .28979493C.4909973 .31079103 .5519867 .37384034 .5519867 .48197938 .5519867 .61917117 .45498658 .7001953 .29100038 .7001953H.07699585V0H.1579895V.27378846H.24398804C.25898744 .27378846 .29299928 .27378846 .30799867 .27479554L.46699525 0M.1579895 .34179688V.6251831H.2939911C.40299989 .6251831 .46899415 .578125 .46899415 .47898866 .46899415 .37783814 .40098573 .34179688 .29899598 .34179688H.1579895Z"/>
<path id="font_1_14" d="M.6279907 .7001953H.5469971V.2922516C.5469971 .1402893 .48399354 .06529236 .34799195 .06529236 .21299744 .06529236 .15098572 .1402893 .15098572 .2922516V.7001953H.067993167V.2922516C.067993167 .09429932 .1659851-.0126953129 .34799195-.0126953129 .5289917-.0126953129 .6279907 .09429932 .6279907 .2922516V.7001953Z"/>
<path id="font_1_1" d="M.54299929 .1857605 .62098696 0H.70799258L.4099884 .7001953H.32099916L.022994996 0H.10998535L.18798828 .1857605H.54299929M.5119934 .25976563H.21899414L.29599 .4439392C.32199098 .5070648 .36299134 .6061859 .3639984 .607193H.3659973C.36698915 .6061859 .4079895 .5070648 .43499757 .4429779L.5119934 .25976563Z"/>
</defs>
<g>
<g inkscape:groupmode="layer" inkscape:label="Layer 1">
<g clip-path="url(#clip_0)">
<use data-text="D" xlink:href="#font_1_3" transform="matrix(129.2782,0,0,-129.2769,746.5586,666.8308)" fill="#ede7e4"/>
<use data-text="E" xlink:href="#font_1_4" transform="matrix(129.2782,0,0,-129.2769,844.03439,666.8308)" fill="#ede7e4"/>
<use data-text="V" xlink:href="#font_1_15" transform="matrix(129.2782,0,0,-129.2769,924.83328,666.8308)" fill="#ede7e4"/>
<use data-text="E" xlink:href="#font_1_4" transform="matrix(129.2782,0,0,-129.2769,1016.75009,666.8308)" fill="#ede7e4"/>
<use data-text="L" xlink:href="#font_1_6" transform="matrix(129.2782,0,0,-129.2769,1097.549,666.8308)" fill="#ede7e4"/>
<use data-text="O" xlink:href="#font_1_9" transform="matrix(129.2782,0,0,-129.2769,1167.23,666.8308)" fill="#ede7e4"/>
<use data-text="P" xlink:href="#font_1_10" transform="matrix(129.2782,0,0,-129.2769,1274.1431,666.8308)" fill="#ede7e4"/>
<use data-text="M" xlink:href="#font_1_7" transform="matrix(129.2782,0,0,-129.2769,1351.8392,666.8308)" fill="#ede7e4"/>
<use data-text="E" xlink:href="#font_1_4" transform="matrix(129.2782,0,0,-129.2769,1458.7523,666.8308)" fill="#ede7e4"/>
<use data-text="N" xlink:href="#font_1_8" transform="matrix(129.2782,0,0,-129.2769,1539.5512,666.8308)" fill="#ede7e4"/>
<use data-text="T" xlink:href="#font_1_13" transform="matrix(129.2782,0,0,-129.2769,1636.7683,666.8308)" fill="#ede7e4"/>
<use data-text="S" xlink:href="#font_1_12" transform="matrix(129.2782,0,0,-129.2769,1719.7649,666.8308)" fill="#ede7e4"/>
<use data-text=" " xlink:href="#font_1_2" transform="matrix(129.2782,0,0,-129.2769,1799.6588,666.8308)" fill="#ede7e4"/>
<use data-text="G" xlink:href="#font_1_5" transform="matrix(129.2782,0,0,-129.2769,1835.2103,666.8308)" fill="#ede7e4"/>
<use data-text="R" xlink:href="#font_1_11" transform="matrix(129.2782,0,0,-129.2769,1940.572,666.8308)" fill="#ede7e4"/>
<use data-text="O" xlink:href="#font_1_9" transform="matrix(129.2782,0,0,-129.2769,2021.2416,666.8308)" fill="#ede7e4"/>
<use data-text="U" xlink:href="#font_1_14" transform="matrix(129.2782,0,0,-129.2769,2128.5426,666.8308)" fill="#ede7e4"/>
<use data-text="P" xlink:href="#font_1_10" transform="matrix(129.2782,0,0,-129.2769,2221.752,666.8308)" fill="#ede7e4"/>
<use data-text=" " xlink:href="#font_1_2" transform="matrix(129.2782,0,0,-129.2769,2299.4483,666.8308)" fill="#ede7e4"/>
<use data-text="R" xlink:href="#font_1_11" transform="matrix(388.7727,0,0,-388.7688,730.0293,480.56999)" fill="#ede7e4"/>
<use data-text="A" xlink:href="#font_1_1" transform="matrix(388.7727,0,0,-388.7688,1025.4966,480.56999)" fill="#ede7e4"/>
<use data-text="N" xlink:href="#font_1_8" transform="matrix(388.7727,0,0,-388.7688,1369.5604,480.56999)" fill="#ede7e4"/>
<use data-text="G" xlink:href="#font_1_5" transform="matrix(388.7727,0,0,-388.7688,1711.6804,480.56999)" fill="#ede7e4"/>
<use data-text="E" xlink:href="#font_1_4" transform="matrix(388.7727,0,0,-388.7688,2078.293,480.56999)" fill="#ede7e4"/>
<path transform="matrix(1,0,0,-1,102.0615,573.8345)" d="M0 0C.462 .157 .924 .313 1.386 .469 1.121 2.547 .984 4.652 .567 6.699-1.197 15.359-3.51 23.937-4.753 32.668-6.659 46.071-7.758 59.587-9.438 73.025-9.709 75.192-10.69 77.777-12.236 79.197-23.424 89.475-31.918 101.764-39.612 114.705-40.35 115.946-41.391 117.007-43.103 119.185-43.269 115.784-43.438 113.893-43.442 112.002-43.467 100.197-43.319 88.389-43.525 76.588-43.602 72.207-42.08 68.793-39.793 65.156-28.536 47.258-17.576 29.171-6.541 11.133-4.295 7.462-2.177 3.713 0 0M55.026-112.377C55.333-112.03 55.639-111.684 55.946-111.337 55.498-110.472 55.153-109.531 54.585-108.753 51.379-104.358 47.616-100.284 44.972-95.578 37.126-81.612 29.227-67.634 22.324-53.195 18.537-45.272 14.26-39.101 6.211-34.65-11.149-25.052-24.464-10.566-36.995 4.591-38.577 6.504-40.383 8.231-42.085 10.045-43.271 7.638-43.438 5.914-43.443 4.19-43.47-5.11-42.566-14.517-43.672-23.684-45.22-36.502-39.17-45.032-30.349-52.663-28.79-54.012-27.274-55.444-25.569-56.586-14.335-64.107-2.916-71.358 8.175-79.083 22.039-88.741 35.64-98.777 49.371-108.627 51.208-109.944 53.139-111.13 55.026-112.377M74.388 319.586C74.701 319.336 75.015 319.087 75.329 318.837 76.696 319.904 78.153 320.873 79.414 322.052 90.045 331.989 100.685 341.918 111.186 351.991 112.44 353.194 113.158 355.162 113.66 356.908 116.324 366.193 118.069 375.82 121.548 384.779 133.229 414.86 149.742 442.205 170.038 467.285 170.875 468.319 171.12 469.831 171.641 471.121 170.286 471.467 168.933 472.107 167.576 472.115 154.296 472.193 141.011 471.952 127.739 472.279 122.833 472.4 120.343 470.273 118.933 466.092 113.234 449.194 107.066 432.433 102.046 415.335 98.085 401.84 95.842 387.85 92.296 374.22 89.008 361.581 85.184 349.072 81.236 336.62 79.392 330.803 76.697 325.255 74.388 319.586M-35.452-143.265C-18.422-143.033-1.504-142.296 15.423-145.834 34.586-149.839 53.652-153.98 72.159-160.416 81.063-163.512 89.871-167.001 99.554-166.494 101.306-166.402 103.038-165.932 105.401-165.53 104.368-164.203 103.982-163.593 103.488-163.089 93.488-152.905 83.508-142.7 73.416-132.608 72.386-131.578 70.667-130.656 69.272-130.662 55.522-130.716 42.487-127.094 29.589-122.975 3.394-114.61-20.961-103.01-39.955-82.279-40.649-81.522-41.704-81.095-43.075-80.196-43.238-82.21-43.437-83.508-43.435-84.805-43.384-110.176-43.222-135.547-43.324-160.916-43.342-165.291-41.596-166.597-37.599-166.574-22.702-166.489-7.804-166.568 7.093-166.494 8.502-166.487 9.907-165.846 12.47-165.215-3.429-155.571-19.376-149.444-35.452-143.265M156.597 385.557C156.913 385.302 157.229 385.046 157.545 384.791 164.526 388.493 171.521 392.169 178.482 395.91 181.569 397.57 185.64 398.639 187.425 401.24 191.785 407.59 197.744 411.651 204.139 415.233 228.849 429.072 253.841 442.413 281.21 450.334 295.183 454.378 309.33 457.968 323.584 460.852 335.11 463.185 346.879 464.487 358.6 465.651 377.577 467.535 396.581 468.066 415.39 463.867 428.611 460.916 441.823 457.925 455.008 454.816 458.631 453.962 460.037 455.092 459.711 458.739 459.475 461.383 459.202 464.044 459.266 466.69 459.368 470.851 457.633 472.275 453.406 472.269 380.635 472.153 307.863 472.202 235.092 472.024 232.463 472.017 229.207 470.712 227.307 468.898 201.808 444.55 179.295 417.599 158.563 389.129 157.769 388.039 157.246 386.752 156.597 385.557M121.364 351.051C121.59 350.652 121.817 350.252 122.043 349.853 123.231 350.179 124.432 350.462 125.604 350.839 135.364 353.978 145.057 357.346 154.889 360.24 173.97 365.857 193.7 368.151 213.404 368.839 232.374 369.5 251.527 368.96 270.412 367.074 305.087 363.612 339.625 358.781 374.218 354.503 383.088 353.406 391.929 352.041 400.819 351.153 418.263 349.41 435.729 347.884 453.191 346.338 458.604 345.858 458.961 346.26 459.027 351.754 459.236 369.172 459.393 386.59 459.63 404.008 459.729 411.267 459.629 411.634 452.293 411.157 436.406 410.126 420.495 409.235 404.669 407.567 388.71 405.885 372.81 403.543 356.945 401.092 345.087 399.26 333.403 396.108 321.504 394.776 305.114 392.942 288.599 391.375 272.131 391.302 244.572 391.18 217.009 392.348 189.446 392.899 187.892 392.93 186.154 392.619 184.788 391.914 166.995 382.73 149.539 372.978 133.664 360.653 129.555 357.463 125.463 354.252 121.364 351.051M-9.383 122.606C-8.855 124.273-8.524 125.039-8.373 125.839-5.029 143.626-1.591 161.396 1.48 179.229 1.872 181.504 .897 184.481-.41 186.51-13.077 206.162-20.519 227.761-23.103 250.795-25.76 274.474-23.147 297.84-14.63 320.257-5.384 344.593 4.28 368.759 19.622 390.12 23.132 395.007 26.702 399.851 30.245 404.715 30.63 404.55 31.016 404.386 31.401 404.221 11.137 343.851 6.949 282.025 13.856 218.106 15.063 220.435 15.888 221.804 16.508 223.26 19.669 230.686 22.295 238.387 26.028 245.509 30.52 254.08 36.096 262.077 40.854 270.519 42.211 272.927 42.968 276.03 42.92 278.796 42.831 283.932 41.603 289.043 41.453 294.183 40.831 315.618 43.309 336.752 47.96 357.672 53.372 382.014 63.269 404.33 78.469 424.084 89.307 438.168 100.811 451.738 111.983 465.566 113.359 467.27 114.521 469.148 115.782 470.945 115.511 471.354 115.241 471.762 114.97 472.171 113.261 472.171 111.553 472.17 109.844 472.171 60.688 472.199 11.532 472.229-37.625 472.254-43.367 472.257-43.424 472.239-43.425 466.213-43.435 389.593-43.438 312.974-43.403 236.354-43.401 233.416-43.459 230.355-42.708 227.561-39.199 214.495-35.684 201.419-31.669 188.502-25.175 167.608-18.299 146.832-11.534 126.023-11.213 125.035-10.408 124.205-9.383 122.606M214.379 150.826C213.575 149.257 213.351 148.414 212.826 147.854 199.97 134.149 187.829 119.658 174.008 107.003 157.383 91.781 138.956 78.613 122.66 62.874 103.119 44.003 86.567 23.367 78.254-2.916 74.843-13.703 72.524-24.879 68.514-35.424 62.881-50.239 56.316-64.713 49.746-79.149 47.898-83.211 48.216-86.216 50.559-89.77 66.256-113.581 84.264-135.418 105.401-154.617 106.505-155.62 107.712-156.509 108.872-157.451 109.215-157.221 109.559-156.99 109.902-156.759 109.383-155.033 109.028-153.235 108.317-151.591 101.334-135.431 96.634-118.532 94.606-101.157 92.697-84.806 92.643-68.326 95.655-51.876 98.146-38.273 102.508-25.461 108.682-13.213 116.163 1.627 123.896 16.341 131.469 31.135 133.126 34.371 134.571 37.716 136.661 42.18 136.87 39.183 137.06 37.576 137.083 35.966 137.335 17.833 137.24-.312 137.87-18.432 138.793-44.984 140.427-71.511 141.385-98.062 142.154-119.365 141.128-140.543 134.279-161.031 132.857-165.286 133.801-166.495 138.702-166.517 153.02-166.581 167.34-166.575 181.658-166.491 183.408-166.481 185.155-165.829 187.289-165.397 186.184-162.926 185.481-161.167 184.632-159.482 172.623-135.674 165.324-110.353 162.777-83.962 159.996-55.14 161.664-26.505 172.265 .971 179.341 19.312 188.331 36.563 200.394 52.211 215.092 71.278 232.584 87.648 249.721 104.378 250.864 105.493 252.146 106.466 253.364 107.505 252.628 105.53 251.621 103.91 250.597 102.301 241.046 87.295 231.858 72.011 226.2 55.097 221.942 42.37 219.156 29.153 215.66 16.168 211.947 2.375 210.374-11.657 211.118-25.909 212.332-49.122 218.582-71.384 224.227-93.751 227.107-105.166 230.437-116.48 232.937-127.976 235.404-139.323 237.145-150.83 239.058-162.292 239.501-164.945 240.804-166.254 243.35-166.425 245.115-166.544 246.89-166.541 248.66-166.541 316.122-166.563 383.583-166.572 451.045-166.603 458.73-166.607 458.901-166.562 458.882-158.675 458.824-134.317 458.635-109.959 458.619-85.601 458.568-6.176 458.543 73.25 458.564 152.675 458.575 192.83 458.704 232.984 458.786 273.139 458.824 292.036 458.909 310.932 458.898 329.829 458.895 335.008 457.873 335.277 453.14 334.165 437.289 330.443 421.37 326.997 405.433 323.655 400.422 322.604 395.277 322.177 390.186 321.526 381.785 320.451 373.405 319.004 364.968 318.469 349.045 317.461 333.268 319.585 317.481 321.442 300.225 323.473 282.906 324.965 265.653 327.015 248.237 329.084 230.869 331.55 213.479 333.842 188.589 337.122 163.647 339.758 138.49 339.246 119.216 338.855 101.531 332.844 87.949 319.387 76.218 307.763 66.707 293.894 56.28 280.964 55.449 279.934 55.129 278.492 54.571 277.242 54.827 276.974 55.083 276.706 55.338 276.438 56.533 277.044 57.832 277.502 58.906 278.275 91.379 301.666 127.949 314.103 167.485 317.629 187.899 319.45 208.426 318.302 228.613 314.166 245.554 310.695 261.685 304.533 277.137 297.028 303.934 284.012 328.559 267.325 352.711 249.97 355.57 247.915 358.201 245.542 360.938 243.316 349.253 247.018 338.17 251.51 327.06 255.932 302.377 265.756 278.071 276.711 251.015 278.83 237.409 279.896 223.896 282.63 210.289 283.1 194.72 283.638 179.084 282.679 163.491 282.038 149.401 281.458 135.855 277.756 122.666 273.125 96.458 263.922 70.381 254.336 42.909 249.481 37.997 248.614 34.931 246.167 33.074 241.743 26.993 227.262 20.768 212.84 14.851 198.292 13.203 194.242 12.431 189.835 11.257 185.592 11.921 185.177 12.584 184.761 13.248 184.346 13.896 185.479 14.407 186.722 15.214 187.728 32.476 209.263 54.955 223.178 80.743 232.036 96.388 237.41 112.48 241.103 129.031 242.196 146.668 243.36 164.328 244.186 181.984 245.05 183.848 245.142 185.747 244.501 187.685 244.192 187.423 243.228 187.415 242.985 187.342 242.963 185.701 242.473 184.044 242.033 182.407 241.531 166.454 236.645 151.693 229.273 137.261 220.932 116.115 208.711 95.288 196.088 76.085 180.923 54.352 163.76 31.05 149.406 4.439 140.939 3.068 140.503 1.668 138.73 1.174 137.276 .236 134.517-.249 131.56-.583 128.647-3.046 107.171-3.52 85.657-1.485 64.119-1.267 61.802-.543 59.533-.054 57.241 3.299 67.222 5.265 77.218 8.804 86.621 20.914 118.791 41.758 144.106 70.985 162.199 95.91 177.628 123.209 187.199 151.993 192.121 171.416 195.442 191.077 197.348 210.586 200.194 218.796 201.392 226.868 203.506 235.044 204.977 242.224 206.269 249.461 207.243 256.673 208.358 256.822 208.011 256.97 207.664 257.119 207.316 253.993 205.614 250.993 203.607 247.722 202.259 227.108 193.765 206.331 185.66 185.809 176.952 165.72 168.427 145.68 159.739 125.966 150.39 101.511 138.793 78.67 124.541 60.036 104.566 39.977 83.064 25.501 57.808 12.887 31.479 9.153 23.684 5.935 15.382 8.375 6.309 13.772-13.754 20.482-33.344 29.672-52.02 31.863-56.472 34.253-60.826 36.551-65.225 37.059-65.07 37.567-64.915 38.075-64.761 38.075-62.604 38.013-60.445 38.085-58.29 38.515-45.475 38.574-32.63 39.516-19.852 41.141 2.179 47.945 22.699 58.835 41.911 71.005 63.382 87.307 81.228 107.206 95.567 117.114 102.706 127.804 108.963 138.734 114.433 156.057 123.101 173.93 130.664 191.464 138.92 198.948 142.444 206.165 146.535 214.379 150.826M321.757 553.453C318.206 550.967 314.484 548.689 311.136 545.953 302.846 539.177 294.552 532.387 286.579 525.245 274.573 514.49 262.819 503.453 251.024 492.464 249.939 491.453 249.328 489.932 248.498 488.648 249.963 488.248 251.428 487.5 252.894 487.499 319.758 487.463 386.622 487.494 453.487 487.507 459.092 487.508 464.698 487.381 470.303 487.419 473.582 487.442 475.017 486.331 474.775 482.707 474.129 473.037 473.902 463.34 473.376 453.661 473.24 451.157 473.624 449.677 476.415 448.76 489.195 444.563 501.88 440.077 514.604 435.712 523.784 432.563 532.859 429.031 542.189 426.413 552.714 423.46 563.515 421.504 574.119 418.813 585.859 415.835 597.513 412.516 609.204 409.346 609.151 408.952 609.098 408.558 609.045 408.164 606.056 408.164 603.061 408.038 600.08 408.19 593.311 408.534 586.553 409.257 579.782 409.399 546.312 410.103 512.839 410.682 479.367 411.269 473.095 411.379 473.087 411.305 473.093 404.973 473.111 387.406 473.202 369.839 473.1 352.274 473.079 348.645 473.186 345.48 478.282 344.218 472.285 342.312 473.173 337.809 473.173 333.639 473.178 174.214 473.177 14.789 473.189-144.636 473.19-154.968 473.312-165.299 473.344-175.631 473.364-182.091 473.336-182.093 466.814-182.093 355.079-182.099 243.343-182.111 131.608-182.107 69.762-182.105 7.916-182.027-53.929-182.154-58.376-182.163-59.807-181.005-59.742-176.489-59.489-158.779-59.565-141.065-59.564-123.352-59.558 68.844-59.558 261.041-59.565 453.237-59.566 462.387-59.752 471.539-59.64 480.688-59.567 486.654-58.893 487.116-52.902 487.124 25.179 487.23 103.259 487.371 181.34 487.374 186.405 487.374 190.417 488.89 194.178 492.156 215.702 510.848 240.258 524.589 266.576 535.104 283.72 541.954 301.297 547.718 318.688 553.945 319.488 554.231 320.369 554.291 321.213 554.457 321.394 554.122 321.576 553.788 321.757 553.453" fill="#ede7e4"/>
<path transform="matrix(1,0,0,-1,505.7044,676.3344)" d="M0 0C14.586 .7 23.811-13.312 23.316-24.376 22.739-37.27 12.123-47.36-1.126-46.998-14.137-46.643-24.509-35.832-24.124-22.861-23.744-10.069-12.296 1.137 0 0" fill="#ede7e4"/>
</g>
</g>
</g>
</svg>
