<svg width="1505" height="357" viewBox="0 0 1505 357" fill="none" xmlns="http://www.w3.org/2000/svg">
<path d="M832.66 355.231C829.606 356.412 826.824 356.055 823.732 355.661L823.318 342.212C819.591 340.979 815.403 341.189 811.146 341.624L810.348 355.226C807.488 356.018 804.738 356.223 801.462 355.588L801.216 321.243C803.997 320.267 806.827 320.576 809.997 320.949L810.968 333.879C815.119 334.666 819.177 334.713 823.019 333.895L823.486 321.038C826.53 320.335 829.905 320.12 832.923 321.148L832.66 355.226V355.231Z" fill="white"/>
<path d="M714.62 354.622C713.623 356.747 708.495 355.85 706.217 355.729L705.414 341.745C701.614 340.947 697.599 341.099 693.431 341.54L692.413 355.546C689.574 356.118 687.06 356.249 683.884 355.672L683.695 321.211C685.852 320.644 690.387 319.821 691.92 321.767C694.077 325.11 691.894 329.581 693.027 333.506C696.743 334.65 700.921 334.634 705.099 333.921C706.023 329.45 705.288 325.755 705.75 321.122C708.632 320.104 711.786 320.177 714.988 321.232L714.62 354.617V354.622Z" fill="white"/>
<path d="M415.492 355.32C412.307 356.391 409.241 356.396 406.67 355.189L406.376 341.944C402.444 341.357 398.65 341.136 394.587 341.598L393.889 355.446C390.997 356.186 388.263 356.139 385.019 355.494L384.83 321.353C387.827 320.262 390.74 320.587 393.768 321.028L394.561 333.722C398.382 334.724 402.282 334.771 406.192 334.015L406.628 321.211C409.325 320.199 412.17 320.351 415.319 320.765L415.492 355.32Z" fill="white"/>
<path d="M1064.26 321.637C1065.83 319.842 1070.08 320.635 1072.98 321.049C1073.22 329.87 1074.15 338.933 1072.33 347.791C1070.9 354.775 1063.01 356.927 1056.79 356.712C1048.2 356.418 1042.71 350.908 1042.81 342.297L1043.05 321.354C1045.73 320.215 1048.76 320.535 1051.68 321.133L1052.33 342.186C1052.44 345.655 1054.98 348.42 1058.1 348.399C1061.25 348.378 1063.62 345.886 1063.72 342.26L1064.26 321.632V321.637Z" fill="white"/>
<path d="M522.085 356.239C516.968 357.64 510.202 356.58 506.89 352.634C505.384 350.839 508.318 345.445 510.281 346.006C513.556 346.951 515.645 349.511 518.947 348.137C520.096 347.659 521.125 346.856 521.335 345.807C522.096 342.034 512.606 342.259 509.174 337.909C505.741 333.559 507.016 327.86 509.935 323.977C515.776 316.205 527.722 320.471 529.113 323.426C529.869 325.032 528.31 326.727 527.665 328.023C525.523 332.341 522.479 326.359 518.605 328.579C517.771 329.062 517.304 329.991 517.587 331.229C518.112 333.533 526.016 333.433 529.759 338.203C532.136 341.236 532.016 345.277 530.761 348.75C529.612 351.92 526.772 354.958 522.09 356.239H522.085Z" fill="white"/>
<path d="M752.435 341.404C751.574 343.614 745.523 341.898 744.211 343.23C743.408 344.044 743.497 344.983 743.665 345.985C744.127 348.782 751.391 346.006 752.761 348.006C754.241 350.173 753.396 353.143 753.076 355.394C746.583 355.604 740.93 356.302 734.275 355.714L734.369 320.734L752.997 320.388C753.112 323.054 754.172 326.16 752.666 328.27C751.517 329.876 745.182 328.501 743.943 330.411C743.345 331.334 743.219 333.544 744.741 334.032C747.428 334.897 750.388 333.449 752.398 334.792C753.196 336.057 753.259 339.284 752.43 341.41L752.435 341.404Z" fill="white"/>
<path d="M365.668 331.86C360.294 328.528 355.014 328.323 351.476 332.295C348.353 335.801 348.442 341.484 352.106 345.157C355.785 348.841 361.281 348.285 365.731 344.375C365.836 347.288 367.453 352.923 364.823 354.681C357.685 359.457 347.975 355.405 343.456 349.659C337.998 342.722 338.134 333.723 343.519 326.628C347.907 320.85 357.607 317.188 364.703 321.554C367.159 323.506 366.729 328.937 365.668 331.86Z" fill="white"/>
<path d="M562.132 355.143C559.796 356.765 555.949 356.046 553.482 355.358L553.041 329.692L546.675 328.648C545.882 325.878 545.809 323.301 547.042 320.798H569.58C570.635 323.028 570.362 325.547 569.984 328.239L563.024 329.692L562.132 355.143Z" fill="white"/>
<path d="M488.187 354.911C486.192 356.748 482.193 355.939 479.269 355.567L478.854 320.959C482.298 320.366 485.484 320.12 488.533 321.332L488.187 354.911Z" fill="white"/>
<path fill-rule="evenodd" clip-rule="evenodd" d="M992.575 325.13C998.554 319.284 1007.38 317.788 1015.33 321.43C1022.82 324.856 1026.66 332.141 1025.71 340.311C1024.84 347.752 1019.41 354.72 1010.64 356.494L1010.65 356.499C1001.87 358.278 993.804 354.568 989.946 347.447C986.089 340.326 986.771 330.808 992.575 325.13ZM1006.89 329.1C1003.32 328.995 1000.11 330.534 998.481 333.252C996.734 336.154 996.766 339.622 998.555 342.733C1000.5 346.113 1003.34 347.824 1006.72 347.776C1010.11 347.729 1013.08 346.139 1014.92 342.167C1016.46 338.851 1016.42 335.539 1014.34 332.621C1013.01 330.748 1010.16 329.195 1006.89 329.1Z" fill="white"/>
<path fill-rule="evenodd" clip-rule="evenodd" d="M588.062 327.248C591.862 321.823 598.543 319.173 604.705 319.471C610.866 319.771 617.166 322.631 620.672 328.697C625.615 337.235 622.739 347.436 616.173 352.662C608.642 358.666 598.013 358.282 591.279 352.473C584.167 346.339 582.651 334.973 588.062 327.248ZM611.543 332.555C609.212 329.564 605.071 328.362 600.967 329.485C596.631 330.671 594.127 334.507 594.51 338.658C594.825 342.048 597.177 345.837 600.09 346.97C603.974 348.481 608.304 348.077 610.86 344.451L610.866 344.457C613.789 340.317 614.115 335.856 611.543 332.555Z" fill="white"/>
<path fill-rule="evenodd" clip-rule="evenodd" d="M1091.97 321.77C1100.51 319.823 1116.26 318.464 1117.77 330.271C1118.36 334.873 1115.83 339.039 1111.57 341.542C1113.52 347.036 1117.85 350.332 1120.64 355.8L1110.7 355.448V355.443C1106.04 353.548 1105.64 347.262 1101.61 344.072C1100.1 347.446 1102.23 351.465 1100.46 354.782C1099.37 356.828 1094.79 355.805 1092.19 355.511L1091.97 321.77ZM1107.52 331.429C1107.42 329.787 1104.31 327.027 1102.54 328.548C1100.43 330.38 1100.82 334.368 1102.31 336.646V336.641C1105.93 336.677 1107.69 333.932 1107.52 331.429Z" fill="white"/>
<path fill-rule="evenodd" clip-rule="evenodd" d="M861.417 321.957C862.577 319.459 869.673 319.696 871.636 321.643L884.443 355.116C881.687 355.772 876.365 357.74 875.047 355.127L875.053 355.122L872.68 350.404C872.2 349.449 863.842 348.799 860.557 350.283C859.386 350.813 859.554 353.579 858.058 354.702C855.628 356.528 852.048 355.705 848.636 355.615C852.489 344.128 856.184 333.218 861.417 321.957ZM866.68 333.91C865.026 336.313 864.382 338.386 864.219 341.456C864.975 342.6 867.924 343.45 868.506 341.681C869.535 338.533 867.493 336.276 866.68 333.91Z" fill="white"/>
<path fill-rule="evenodd" clip-rule="evenodd" d="M434.903 321.024C444.408 320.484 457.814 318.259 460.202 329.421C461.293 334.527 458.689 338.599 454.233 341.763L463.608 355.753C460.391 355.522 456.124 356.881 452.948 355.223V355.218C448.891 353.098 448.245 347.42 444.498 344.481L443.317 354.876C442.194 356.807 437.281 355.932 434.819 355.412L434.903 321.024ZM449.071 329.452C448.262 328.707 446.346 327.432 445.213 328.492C443.864 329.746 443.869 333.991 445.102 335.665V335.671C446.398 337.428 448.776 335.099 449.663 334.076C450.713 332.864 450.094 330.392 449.071 329.452Z" fill="white"/>
<path fill-rule="evenodd" clip-rule="evenodd" d="M640.339 321.143C645.818 320.592 651.561 320.12 657.114 320.944C664.525 322.046 668.141 328.747 666.829 335.312C665.48 342.065 658.777 345.996 650.542 343.687C647.986 347.659 650.175 351.563 649.131 355.394C646.097 355.782 643.273 356.118 640.365 355.677L640.339 321.143ZM655.965 329.77C654.947 328.967 652.103 327.75 650.622 329.024C649.142 330.299 648.958 335.704 650.911 336.555L650.916 336.56C653.304 337.594 655.441 335.846 656.238 334.828C657.23 333.553 657.188 330.736 655.965 329.77Z" fill="white"/>
<path fill-rule="evenodd" clip-rule="evenodd" d="M945.065 320.867C956.061 321.109 961.273 318.464 967.083 325.076C970.29 328.723 966.58 333.104 967.393 336.195C968.517 340.456 973.356 342.786 971.472 348.081C967.913 358.077 955.689 355.732 945.202 355.705L945.065 320.867ZM957.772 341.663C955.263 341.417 954.234 343.117 954.176 344.964C954.118 346.701 954.339 348.915 957.163 348.485C960.018 348.049 961.466 346.779 961.461 344.932C961.456 343.085 959.96 341.879 957.772 341.663ZM958.781 331.237C958.87 330.119 957.599 327.732 955.699 328.571C953.401 329.584 954.272 333.567 956.104 334.69H956.109C958.46 334.06 958.676 332.523 958.781 331.237Z" fill="white"/>
<path fill-rule="evenodd" clip-rule="evenodd" d="M900.711 320.979C910.799 320.696 922.907 318.482 925.867 328.704C927.337 333.778 925.022 338.648 919.842 341.587L929.19 355.734C926.288 355.43 922.01 356.936 918.777 355.283H918.781C914.714 353.2 914.005 347.322 910.111 344.598L908.956 354.664C908.699 356.925 903.067 355.792 900.416 355.587L900.711 320.979ZM914.871 329.416C913.973 328.75 911.497 327.407 910.667 328.682C909.502 330.477 909.628 334.648 910.977 336.065C912.468 337.104 914.756 334.832 915.528 333.751C916.299 332.67 915.994 330.251 914.871 329.416Z" fill="white"/>
<path d="M1204.19 232.469H256.158V235.927H1204.19V232.469Z" fill="white"/>
<path d="M255.476 0L255.474 2.85868L1204.09 3.5208L1204.09 0.66212L255.476 0Z" fill="white"/>
<path d="M1152.46 138.782C1161.3 149.368 1169.63 141.668 1164.73 146.574L1137.83 146.196L1143.82 141.751C1137.12 133.23 1130.54 124.894 1120.42 119.315C1117.84 127.209 1119.15 135.517 1120.1 143.143C1122.96 145.089 1125.84 143.143 1128.55 145.873C1119.43 147.127 1110.39 146.952 1100.52 146.011L1110.65 142.525L1110.24 93.8363C1109.56 90.2122 1103.39 91.8444 1100.71 89.41C1109.44 87.8884 1118.77 88.5063 1128.4 89.078C1126.28 92.6928 1120.94 90.1846 1120.08 93.7072C1118.28 101.13 1119.38 108.904 1119.19 116.991C1125.69 119.075 1142.74 97.7 1141.29 92.9233C1140.66 90.8208 1136.85 91.0514 1136.28 90.4889C1132.69 86.8372 1158.73 89.0872 1162.18 89.2993C1159.06 92.1303 1155.07 90.5258 1151.7 92.4991C1145 96.4183 1139.5 109.162 1130.81 115.949C1138.98 122.893 1145.47 130.445 1152.44 138.8L1152.46 138.782Z" fill="white"/>
<path d="M1347.6 144.786C1351.55 143.854 1357.23 145.514 1357.25 139.225L1357.34 93.3578C1350.9 92.2881 1344.59 92.5094 1338.49 93.3486L1333.76 104.737C1332.92 98.5772 1334.35 93.5146 1334.9 87.8065C1338.49 88.4889 1341.79 88.5719 1345.68 88.5811L1383.54 88.701C1385.94 88.701 1387 87.6221 1388.56 85.9345C1389.26 92.1498 1390.26 97.2769 1390.15 103.603C1385.1 102.819 1389.89 92.1314 1380.33 92.7953C1375.66 93.1181 1371.34 92.3066 1366.08 93.2472L1366.34 142.951L1377.53 145.819C1379.95 147.027 1336.66 147.386 1347.6 144.804V144.786Z" fill="white"/>
<path d="M972.635 140.479C972.662 146.731 984.302 142.627 984.653 146.15C985.926 146.777 943.304 147.266 953.782 144.757C956.558 144.093 963.42 144.407 963.605 141.705C964.684 125.549 963.909 109.697 964.029 93.2741C958.154 92.103 953.717 92.9606 948.589 92.6931C941.884 92.3427 944.374 100.753 939.403 103.989C940.344 98.4658 940.888 93.5784 941.275 87.9257C943.092 87.4923 944.595 88.5066 946.532 88.5158L987.512 88.6173C990.482 88.6173 992.945 88.3683 995.416 87.2709C996.459 92.7024 996.477 97.5436 996.791 103.095C992.742 104.303 995.444 93.7167 990.759 93.1542C984.616 92.4257 978.943 92.6655 972.441 93.1266L972.635 140.469V140.479Z" fill="white"/>
<path d="M1279.5 140.033C1279.55 147.18 1290.48 142.468 1291.34 146.129C1285.84 147.005 1263.12 146.811 1260.66 146.156C1260.24 146.046 1260.23 145.428 1260.37 144.995C1260.76 143.768 1270.14 145.096 1270.33 141.749C1271.28 125.482 1270.76 109.769 1270.86 93.2438C1263.95 92.377 1258.15 92.4969 1252.1 93.29C1249.35 96.4068 1250.69 100.639 1246.6 103.36L1247.95 87.379C1250.59 88.1167 1252.63 88.5501 1255.3 88.5501L1293.12 88.5778C1296.18 88.5778 1298.68 88.6239 1301.99 87.1485C1302.9 92.5338 1303.63 97.8822 1302.77 103.517C1299.78 100.759 1301.04 97.08 1299.08 93.5943C1292.7 92.2848 1286.15 92.5338 1279.17 93.3268L1279.51 140.024L1279.5 140.033Z" fill="white"/>
<path d="M907.924 137.657C903.838 147.201 892.982 149.7 883.712 147.45C880.097 146.574 877.284 145.422 873.594 146.454L871.74 132.143C873.308 131.848 873.853 133.314 874.452 134.798C877.957 143.531 888.13 148.142 896.385 143.374C899.604 141.521 901.357 137.934 901.587 134.881C901.836 131.58 899.687 128.417 896.708 126.305L878.418 113.331C873.557 109.882 871.215 104.543 872.506 98.5028C874.821 87.7229 887.319 84.5692 897.262 88.4975C899.669 89.4473 901.809 89.5396 904.447 88.7373C905.24 92.7302 906.061 96.4187 905.858 100.882C904.539 100.633 903.497 99.803 902.768 98.429C899.365 92.0109 891.82 88.5252 884.838 91.1625C881.988 92.2414 879.709 94.7405 879.405 97.3132C878.409 105.566 892.41 112.234 899.235 116.734C906.061 121.234 911.622 129.007 907.924 137.648V137.657Z" fill="white"/>
<path d="M1451.63 119.289C1456.61 122.691 1458.75 128.178 1458.32 133.573C1457.4 145.026 1444.15 150.9 1431.21 147.1C1428.3 146.243 1426.16 145.643 1422.57 146.381C1422.52 141.263 1420.25 136.56 1421.81 131.074C1425.78 141.383 1433.69 147.801 1443.58 144.435C1447.33 143.163 1449.92 139.88 1450.61 136.56C1451.41 132.669 1449.55 128.796 1446.02 126.306L1427.7 113.35C1420.53 108.278 1418.97 97.8487 1425.68 91.5412C1431.67 85.9069 1440.69 86.0176 1447.88 89.1252C1449.67 89.8998 1451.06 88.8947 1453.25 88.2676C1454.23 92.5648 1456.03 97.0095 1454.59 102.183C1451.73 97.6643 1449.18 93.3763 1444.07 91.3476C1439.17 89.4018 1432.66 90.0012 1429.77 94.8148C1427.07 99.3241 1430.11 104.571 1433.94 107.19L1451.64 119.307L1451.63 119.289Z" fill="white"/>
<path d="M1208.36 139.658C1208.33 146.666 1216.53 142.498 1215.4 146.491C1207.73 146.417 1200.33 147.413 1192.28 146.048C1197.62 143.641 1200 141.797 1200 136.486L1199.97 97.6449C1199.97 92.2042 1196.7 92.195 1193.29 90.3323C1188.2 87.5659 1215.17 88.5433 1216.27 89.1427C1214.1 91.9829 1211.01 91.0977 1208.52 93.4952L1208.36 139.649V139.658Z" fill="white"/>
<path d="M1505 98.6308C1505 108.664 1496.87 116.788 1486.83 116.788C1476.79 116.788 1468.66 108.654 1468.66 98.6308C1468.66 88.607 1476.79 80.4737 1486.83 80.4737C1496.87 80.4737 1505 88.607 1505 98.6308ZM1501.63 98.8152C1501.63 90.6726 1495.03 84.0793 1486.89 84.0793C1478.74 84.0793 1472.14 90.6819 1472.14 98.8152C1472.14 106.948 1478.74 113.551 1486.89 113.551C1495.03 113.551 1501.63 106.948 1501.63 98.8152Z" fill="white"/>
<path d="M1024.09 148.13C1026.7 148.13 1028.82 146.017 1028.82 143.409C1028.82 140.802 1026.7 138.688 1024.09 138.688C1021.49 138.688 1019.37 140.802 1019.37 143.409C1019.37 146.017 1021.49 148.13 1024.09 148.13Z" fill="white"/>
<path d="M1493.87 108.404C1491 110.424 1487.42 99.2382 1484.21 98.5281C1482.16 99.9943 1484.06 111.318 1480.93 108.377C1478.79 106.357 1479.84 93.7422 1480.13 89.196C1484.28 87.8958 1488.77 88.1724 1492.95 89.3159C1495.56 90.0259 1496.2 92.7831 1496.06 94.7196C1495.85 97.5875 1493.62 98.6295 1490.22 99.856L1494.39 106.219C1494.89 106.984 1494.29 108.128 1493.87 108.423V108.404ZM1491.35 93.152C1490.34 91.4091 1483.79 91.3907 1483.09 93.2719C1481.96 96.3057 1486.43 96.1766 1487.92 96.3795C1489.55 96.6008 1493.09 96.1582 1491.35 93.1428V93.152Z" fill="white"/>
<path fill-rule="evenodd" clip-rule="evenodd" d="M16.6871 119.236C17.895 119.521 19.9296 119.989 21.6886 119.989C31.8029 119.989 38.2878 113.051 38.2878 103.575C38.2878 96.2633 35.4148 89.0465 23.0841 89.0465C20.9557 89.0465 18.9094 89.0465 16.693 89.4201V119.236H16.6871ZM16.6871 137.429C16.6871 142.683 18.2644 144.652 24.1043 144.652H27.165V146.431H1.48343V144.652H2.77924C7.59893 144.652 8.99441 143.62 8.99441 139.208V94.8579C8.99441 91.3888 7.88037 89.8826 4.63793 89.8826H0V88.1036C2.59161 88.0147 7.14158 87.7359 11.6798 87.5403C15.5086 87.377 19.3399 87.2841 23.172 87.2615C42.5563 87.2615 47.0066 96.6369 47.0066 103.866C47.0066 114.836 38.2878 121.768 24.5675 121.768C21.9218 121.799 19.2803 121.546 16.6871 121.015V137.429ZM96.7104 94.5732L88.83 116.425H104.866L96.7104 94.5732ZM87.2528 120.547L81.8761 135.271C81.2253 137.05 80.0233 139.866 80.0233 141.177C80.0233 143.709 82.4272 144.652 87.5284 144.652H89.0177V146.431H67.5988V144.652C73.6205 144.551 74.6466 143.525 77.6076 135.366L94.4882 88.7618L93.6556 86.6982H101.718L121.096 138.746C122.949 143.709 124.89 144.652 129.534 144.652V146.431H104.034V144.652H106.438C111.726 144.652 113.679 144.089 113.679 141.456C113.679 139.961 113.028 138.55 112.659 137.619L106.444 120.553H87.2469L87.2528 120.547ZM172.19 119.989C174.418 120.274 175.807 120.173 177.942 120.173C188.232 120.173 195.004 115.767 195.004 104.518C195.004 95.7889 191.111 89.0405 176.833 89.0405C175.068 89.0405 173.861 89.0405 172.19 89.2303V119.989ZM172.19 137.613C172.19 143.247 174.418 144.652 179.613 144.652H181.741V146.431H155.508V144.652H157.08C162.556 144.652 164.503 143.146 164.503 136.866V97.39C164.503 91.5786 162.92 89.8826 157.549 89.8826H155.508V88.1036C157.736 88.1036 163.389 87.73 167.188 87.5403C170.988 87.3505 172.846 87.2615 178.868 87.2615C196.018 87.2615 203.717 94.3894 203.717 103.949C203.717 110.987 198.991 116.894 191.386 119.141C194.816 121.869 197.601 124.49 201.958 128.89L209.287 136.303C214.752 141.835 220.404 145.304 227.546 145.773V147.463C211.322 148.21 207.147 144.652 198.897 136.303L192.782 130.118C188.701 125.99 185.453 123.268 183.224 121.768C180.908 121.863 179.425 121.958 176.921 121.958C174.881 121.958 173.679 121.863 172.19 121.768V137.613ZM288.941 146.431V144.652C293.215 144.551 294.969 143.804 294.969 142.019C294.969 140.43 292.934 137.239 283.57 127.769C276.147 120.274 273.925 118.862 269.844 119.331V136.866C269.844 142.772 271.515 144.652 277.261 144.652H278.469V146.431H253.063V144.652H254.728C260.656 144.652 262.145 142.582 262.145 137.803V96.6369C262.145 91.0093 259.642 89.8826 254.728 89.8826H253.063V88.1036H278.088V89.8826H277.255C271.697 89.8826 269.838 91.6616 269.838 97.2951V117.552C273.456 117.178 276.329 115.488 280.228 111.545C287.458 104.233 293.11 95.7889 293.11 92.7942C293.11 90.6357 291.72 89.8885 286.719 89.8885V88.1036H311.099V89.8826C304.52 89.9834 301.641 90.9204 298.856 93.7312C295.983 96.6369 290.143 108.355 280.41 115.862C282.081 116.141 283.752 117.552 287.821 121.673C297.56 131.517 302.755 138.835 305.81 141.93C307.393 143.525 309.797 144.652 316.1 144.652V146.431H288.941ZM408.014 118.578V136.397C408.014 142.493 409.222 144.646 415.431 144.646H415.707V146.425H392.441V144.646H392.992C398.469 144.646 400.322 143.146 400.322 137.803V96.5479C400.322 91.6675 398.738 90.2621 393.649 89.8885V88.1095H415.707V89.8885C409.128 89.8885 408.014 91.6675 408.014 98.8903V115.204H444.361V96.7317C444.361 91.7624 442.778 89.8885 437.032 89.8885H435.273V88.1095H459.102V89.8885C453.532 90.0783 452.048 91.7624 452.048 97.5738V136.492C452.048 143.146 453.907 144.646 459.471 144.646H460.398V146.425H434.165V144.646H437.038C443.06 144.646 444.361 142.493 444.361 137.619V118.584L408.014 118.578ZM533.567 96.6369C536.533 91.4778 534.774 89.8826 528.841 89.8826V88.1036H549.791V89.8826C543.487 90.357 540.796 92.8891 538.204 97.2951L522.813 123.648V137.714C522.813 142.677 524.572 144.652 530.23 144.652H531.438V146.431H505.933V144.652H507.703C513.449 144.652 515.12 142.493 515.12 137.892V124.674L498.609 98.6056C494.071 91.3888 491.937 90.0783 485.909 89.8885V88.1036H510.57V89.8826C503.341 89.8826 502.884 91.6735 505.663 95.9846L520.497 119.147L533.567 96.6369ZM594.593 94.5732L586.712 116.425H602.749L594.593 94.5732ZM585.135 120.547L579.758 135.271C579.107 137.05 577.905 139.866 577.905 141.177C577.905 143.709 580.309 144.652 585.411 144.652H586.9V146.431H565.481V144.652C571.508 144.551 572.529 143.525 575.49 135.366L592.37 88.7618L591.538 86.6982H599.6L618.978 138.746C620.831 143.709 622.778 144.652 627.422 144.652V146.431H601.916V144.652H604.326C609.609 144.652 611.561 144.089 611.561 141.456C611.561 139.961 610.91 138.55 610.541 137.619L604.326 120.553L585.135 120.547ZM680.086 137.803C680.086 142.867 681.757 144.646 687.416 144.646H690.846V146.425H661.634V144.646H665.07C670.723 144.646 672.399 142.867 672.399 137.803V91.4837H656.258C652.552 91.4837 650.887 93.6363 649.491 101.891H647.82L649.304 86.7041H651.069C651.162 87.2675 651.532 87.6351 652.089 87.8249C652.64 88.0087 653.291 88.1095 653.942 88.1095H698.538C699.84 88.1095 701.236 87.8249 701.411 86.7041H703.176L704.66 101.885H702.989C701.599 93.6422 699.928 91.4837 696.222 91.4837H680.086V137.803ZM766.788 137.803C766.788 142.867 768.459 144.646 774.117 144.646H777.547V146.425H748.342V144.646H751.772C757.43 144.646 759.101 142.867 759.101 137.803V91.4837H742.959C739.259 91.4837 737.588 93.6363 736.193 101.891H734.528L736.005 86.7041H737.776C737.864 87.2675 738.233 87.6351 738.79 87.8249C739.342 88.0087 739.998 88.1095 740.643 88.1095H785.246C786.542 88.1095 787.931 87.8249 788.119 86.7041H789.878L791.367 101.885H789.69C788.301 93.6422 786.635 91.4837 782.924 91.4837H766.788V137.803Z" fill="white"/>
</svg>
