<svg width="751" height="357" viewBox="0 0 751 357" fill="none" xmlns="http://www.w3.org/2000/svg">
<path d="M59.5774 209.068C63.7631 208.976 67.3377 209.434 70.3013 210.411C73.2649 211.389 75.7091 212.732 77.7256 214.412C79.7115 216.091 81.2697 218.077 82.3696 220.336C83.4695 222.627 84.2638 225.009 84.7221 227.513C85.1804 230.017 85.3637 232.552 85.2721 235.178C85.1804 237.774 84.936 240.278 84.4777 242.66C84.0194 245.042 83.4695 247.211 82.8279 249.196C82.1863 251.181 81.5141 252.83 80.8725 254.143C78.4588 258.785 75.8313 262.908 72.9899 266.572C70.1486 270.206 67.2461 273.444 64.2519 276.192C61.2578 278.971 58.2331 281.323 55.1778 283.308C52.1226 285.262 49.159 286.881 46.3176 288.133C43.4762 289.385 40.7876 290.301 38.2823 290.912C35.777 291.492 33.5772 291.828 31.6524 291.859C29.1471 291.889 26.8251 291.767 24.6864 291.492C23.831 294.027 23.006 296.378 22.2422 298.577C21.4784 300.745 20.8063 302.639 20.2258 304.257C19.6453 305.876 19.1259 307.159 18.6981 308.136C18.2704 309.083 17.9649 309.632 17.8121 309.693C17.2927 309.968 16.7122 310.182 16.1012 310.274C15.4901 310.365 14.9096 310.396 14.3597 310.365C13.8097 310.335 13.3209 310.212 12.8932 310.06C12.4654 309.907 12.1905 309.693 12.0682 309.449C12.0377 309.357 12.1293 308.808 12.4043 307.769C12.6793 306.731 13.0459 305.326 13.5348 303.586C14.0236 301.845 14.6347 299.768 15.3068 297.417C16.0095 295.035 16.7733 292.469 17.6288 289.721C15.0929 288.744 12.8932 287.522 11.06 286.056C9.22686 284.59 7.63813 283.063 6.32437 281.414C5.01061 279.765 3.94127 278.086 3.11636 276.375C2.29144 274.665 1.64984 273.047 1.2221 271.55C0.763813 270.054 0.458288 268.741 0.274973 267.611C0.0916575 266.481 0 265.687 0 265.168C0 264.221 0.24442 263.549 0.702708 263.183C1.161 262.786 1.71094 262.663 2.26089 262.755C2.84138 262.847 3.36078 263.183 3.84962 263.732C4.33846 264.282 4.61343 265.015 4.64398 265.931C4.64398 266.633 4.85785 267.794 5.31614 269.412C5.77442 271.031 6.53824 272.772 7.66868 274.665C8.76857 276.559 10.2656 278.421 12.1293 280.223C13.9931 282.056 16.3456 283.521 19.187 284.621C20.2869 281.048 21.4173 277.353 22.6089 273.566C23.7699 269.748 24.9308 266.023 26.0918 262.327C27.2528 258.663 28.3222 255.181 29.361 251.883C30.3998 248.585 31.2858 245.684 32.1107 243.149C32.9051 240.614 33.5467 238.599 34.0355 237.041C34.5243 235.484 34.7993 234.629 34.8299 234.445C34.9826 233.926 35.502 233.499 36.3575 233.224C37.213 232.949 38.099 232.857 39.0461 232.949C39.9627 233.041 40.7571 233.377 41.4598 233.957C42.1319 234.537 42.3763 235.423 42.1625 236.614C42.1319 236.766 41.8875 237.621 41.4292 239.209C40.9709 240.767 40.3599 242.813 39.5961 245.317C38.8017 247.852 37.9157 250.753 36.8769 254.021C35.8381 257.289 34.7688 260.77 33.6078 264.374C32.4468 268.008 31.2552 271.703 30.0331 275.49C28.811 279.277 27.6195 282.88 26.4585 286.362C27.5278 286.453 28.6277 286.484 29.7276 286.484C30.8275 286.484 32.019 286.423 33.3022 286.3C36.8769 285.934 40.2377 285.048 43.4151 283.644C46.5926 282.239 49.5562 280.559 52.2753 278.605C54.9945 276.65 57.4693 274.482 59.7302 272.13C61.9605 269.779 63.9464 267.458 65.6573 265.168C67.3683 262.877 68.8348 260.77 69.9958 258.815C71.1568 256.861 72.0428 255.242 72.6233 253.96C75.3425 247.883 76.9923 242.691 77.6034 238.385C78.2144 234.048 78.1533 230.414 77.3895 227.483C76.6257 224.52 75.4036 222.169 73.6927 220.428C71.9817 218.687 70.1791 217.374 68.2238 216.458C66.2684 215.542 64.4047 214.992 62.6632 214.748C60.8912 214.503 59.5774 214.412 58.7219 214.503C54.7807 214.839 51.2977 215.359 48.3035 216.092C45.2788 216.824 42.6513 217.68 40.3904 218.657C38.1295 219.634 36.2353 220.642 34.7077 221.711C33.18 222.78 31.8663 223.757 30.8275 224.673C29.7887 225.589 28.9638 226.353 28.3222 226.963C27.7111 227.605 27.2223 227.971 26.9168 228.093C26.3974 228.307 25.9391 228.307 25.603 228.154C25.2669 228.002 25.0225 227.696 24.9308 227.238C24.8392 226.78 24.9003 226.23 25.1142 225.559C25.328 224.887 25.7558 224.123 26.3668 223.329C26.764 222.81 27.4362 222.077 28.3527 221.161C29.2693 220.275 30.4303 219.298 31.8663 218.26C33.2717 217.221 34.9215 216.183 36.8158 215.114C38.71 214.045 40.8182 213.068 43.1096 212.213C45.4316 211.358 47.9674 210.625 50.7477 210.045C53.528 209.465 56.4916 209.159 59.6996 209.129L59.5774 209.068Z" fill="white"/>
<path d="M196.789 246.111C195.75 245.134 194.314 244.34 192.45 243.76C190.587 243.18 188.417 242.783 186.004 242.538C183.559 242.294 180.963 242.172 178.152 242.202C175.371 242.202 172.53 242.324 169.658 242.538L172.194 237.927C172.469 237.408 172.408 236.98 171.95 236.644C171.491 236.308 170.88 236.125 170.116 236.033C169.322 235.942 168.497 236.003 167.581 236.156C166.664 236.308 165.931 236.644 165.32 237.133C165.106 237.286 164.647 237.927 163.914 238.996C163.181 240.095 162.264 241.53 161.134 243.332C158.751 243.607 156.521 243.912 154.382 244.218C152.274 244.523 150.41 244.829 148.791 245.103C147.171 245.378 145.827 245.653 144.788 245.867C143.75 246.081 143.108 246.233 142.864 246.325C141.794 246.722 141.091 247.211 140.755 247.73C140.419 248.249 140.267 248.768 140.297 249.226C140.328 249.684 140.542 250.081 140.878 250.356C141.214 250.631 141.58 250.723 141.947 250.6C142.039 250.57 142.497 250.478 143.352 250.356C144.208 250.234 145.369 250.081 146.805 249.929C148.241 249.776 149.921 249.562 151.815 249.348C153.71 249.135 155.787 248.921 157.987 248.707C156.337 251.547 154.657 254.662 152.885 258.113C151.113 261.564 149.524 265.045 148.057 268.527C146.591 272.039 145.399 275.459 144.422 278.788C144.086 279.948 143.841 281.048 143.597 282.117C143.413 282.392 143.261 282.666 143.077 282.972C142.13 284.499 141.061 286.117 139.808 287.797C138.586 289.477 137.272 291.003 135.928 292.408C134.584 293.813 133.209 294.943 131.834 295.859C130.459 296.775 129.145 297.203 127.862 297.142C127.496 297.142 127.068 297.05 126.61 296.836C126.151 296.623 125.724 296.256 125.388 295.737C125.051 295.218 124.807 294.485 124.746 293.538C124.654 292.622 124.838 291.431 125.235 289.996C125.632 288.56 126.365 286.82 127.404 284.804C128.443 282.758 129.97 280.376 131.926 277.627C132.048 277.475 132.048 277.047 131.926 276.375C131.773 275.703 131.559 275.001 131.223 274.299C130.887 273.596 130.49 272.955 130.062 272.436C129.604 271.917 129.145 271.672 128.718 271.764C128.473 271.795 128.076 271.947 127.557 272.161C127.037 272.375 126.396 272.65 125.662 272.924C124.929 273.199 124.104 273.535 123.249 273.841C122.363 274.177 121.477 274.451 120.56 274.696C121.049 273.871 121.477 272.924 121.813 271.825C122.149 270.726 122.363 269.535 122.454 268.221C122.668 265.87 122.21 264.129 121.11 262.938C120.01 261.747 118.299 261.32 116.008 261.656C114.694 261.869 113.564 262.358 112.586 263.183C111.608 264.007 110.845 264.954 110.203 266.023C109.592 267.091 109.134 268.191 108.889 269.351C108.614 270.512 108.523 271.459 108.553 272.253C108.645 274.054 108.981 275.52 109.592 276.62C110.203 277.689 110.936 278.513 111.792 279.093C111.364 279.46 110.936 279.826 110.478 280.223C109.103 281.353 107.545 282.422 105.803 283.43C104.062 284.438 102.137 285.171 100.059 285.69C100.762 283.98 101.251 282.239 101.526 280.468C101.801 278.696 101.801 277.017 101.526 275.368C101.312 274.177 100.976 272.986 100.457 271.764C99.9373 270.542 99.2346 269.474 98.318 268.557C97.4014 267.641 96.2404 266.908 94.835 266.42C93.4296 265.9 91.7797 265.748 89.8549 265.901C88.8161 265.992 87.8385 266.236 86.8913 266.633C85.9442 267.03 85.0582 267.58 84.2333 268.191C83.4084 268.832 82.7056 269.565 82.0946 270.42C81.4835 271.275 80.9947 272.13 80.6281 273.047C79.3143 273.749 78.0617 274.635 76.9007 275.734C75.7397 276.833 74.762 278.086 73.9676 279.582C73.1733 281.048 72.6539 282.697 72.4094 284.529C72.1345 286.362 72.2567 288.347 72.7455 290.515C72.8677 291.095 73.1122 291.828 73.5093 292.714C73.9065 293.599 74.5176 294.454 75.373 295.34C76.2285 296.195 77.359 296.959 78.7949 297.63C80.2003 298.272 82.0335 298.638 84.2333 298.669C86.6164 298.699 88.9078 298.027 91.1076 296.592C93.3074 295.187 95.2322 293.355 96.9126 291.156C99.8151 291.003 102.534 290.362 105.04 289.293C107.545 288.194 109.775 286.942 111.7 285.506C113.655 284.071 115.275 282.575 116.588 281.017C116.772 280.803 116.955 280.59 117.138 280.345C117.322 280.345 117.536 280.345 117.719 280.345C118.666 280.254 119.491 280.101 120.255 279.857C120.988 279.612 121.477 279.399 121.721 279.185C122.088 278.91 122.363 278.757 122.546 278.788C122.729 278.788 122.852 278.88 122.943 279.032C123.035 279.185 123.035 279.338 123.004 279.521C122.974 279.704 122.913 279.857 122.821 279.979C120.744 282.422 119.246 284.926 118.391 287.43C117.536 289.935 117.199 292.225 117.413 294.302C117.627 296.378 118.33 298.119 119.521 299.524C120.744 300.929 122.393 301.814 124.471 302.15C126.487 302.486 128.504 302.15 130.551 301.142C132.598 300.135 134.584 298.791 136.478 297.111C138.372 295.432 140.175 293.538 141.825 291.431C142.252 290.912 142.589 290.393 142.986 289.904C143.016 290.484 143.077 291.065 143.169 291.614C143.322 292.836 143.658 293.905 144.177 294.882C144.697 295.859 145.399 296.653 146.285 297.325C147.202 297.966 148.363 298.363 149.86 298.486C151.877 298.699 153.893 298.302 155.909 297.295C157.926 296.287 159.881 294.943 161.714 293.294C163.548 291.645 165.289 289.782 166.878 287.766C168.467 285.751 169.872 283.827 171.094 282.056C172.316 280.284 173.294 278.757 174.058 277.505C174.821 276.253 175.249 275.551 175.371 275.398C175.646 275.032 175.738 274.635 175.616 274.268C175.494 273.871 175.28 273.566 174.944 273.321C174.608 273.077 174.21 272.955 173.783 272.986C173.324 272.986 172.958 273.23 172.622 273.688C170.941 275.978 169.108 278.421 167.183 280.987C165.228 283.552 163.334 285.873 161.47 287.98C159.606 290.057 157.834 291.736 156.184 292.958C154.535 294.18 153.129 294.607 151.968 294.241C151.265 294.027 150.746 293.63 150.441 293.019C150.104 292.408 149.891 291.706 149.799 290.942C149.707 290.148 149.677 289.354 149.738 288.53C149.799 287.705 149.86 286.972 149.952 286.331C150.104 285.14 150.502 283.644 151.113 281.872C151.724 280.101 152.488 278.116 153.404 275.948C154.29 273.78 155.329 271.489 156.459 269.046C157.59 266.633 158.751 264.19 159.942 261.747C161.134 259.304 162.325 256.922 163.517 254.601C164.709 252.28 165.839 250.112 166.908 248.127C170.239 247.883 173.538 247.699 176.807 247.547C180.077 247.394 183.071 247.363 185.79 247.424C188.509 247.485 190.77 247.699 192.634 248.035C194.467 248.371 195.658 248.921 196.147 249.593C196.269 249.745 196.422 249.745 196.636 249.532C196.85 249.318 197.033 249.043 197.186 248.677C197.339 248.31 197.43 247.913 197.43 247.455C197.43 246.997 197.247 246.6 196.88 246.294L196.789 246.111ZM88.4801 293.08C87.3496 293.66 86.1581 293.935 84.8749 293.935C83.4389 293.966 82.2474 293.569 81.2697 292.714C80.292 291.859 79.7115 290.484 79.4671 288.652C79.3143 287.43 79.2838 286.239 79.4671 285.109C79.6198 283.98 79.8948 282.941 80.3531 281.994C80.5059 282.85 80.7808 283.674 81.1169 284.499C81.453 285.293 82.0029 286.056 82.6751 286.728C83.3778 287.43 84.2638 288.072 85.3637 288.652C86.4636 289.232 87.8079 289.782 89.3966 290.209C90.1299 290.454 90.8632 290.637 91.627 290.759C90.6799 291.706 89.6411 292.469 88.5106 293.019L88.4801 293.08ZM96.3015 281.292C95.9654 283.002 95.4155 284.651 94.6822 286.209C93.1546 286.117 91.5964 285.873 89.9466 285.476C88.6328 285.14 87.6246 284.712 86.8913 284.163C86.1886 283.613 85.6387 283.002 85.3332 282.33C84.9971 281.659 84.8138 280.956 84.7221 280.223C84.6305 279.49 84.5999 278.818 84.5999 278.208C86.4942 277.505 88.8467 277.353 91.6881 277.719C91.9325 277.75 92.0242 277.475 91.9936 276.894C91.9631 276.314 91.8103 275.612 91.5353 274.879C91.2603 274.115 90.9243 273.413 90.5271 272.772C90.1299 272.13 89.7022 271.733 89.305 271.672C88.2051 271.428 87.0136 271.397 85.7915 271.55C86.1886 270.97 86.708 270.481 87.258 270.054C87.8385 269.626 88.4801 269.351 89.2133 269.229C90.6187 269.077 91.7797 269.138 92.6963 269.474C93.6129 269.809 94.3462 270.298 94.9267 270.97C95.4766 271.642 95.8738 272.436 96.1182 273.383C96.3626 274.299 96.5154 275.306 96.607 276.375C96.7598 278.024 96.6681 279.704 96.3321 281.414L96.3015 281.292ZM113.075 269.779C113.35 269.046 113.778 268.252 114.389 267.366C115.305 266.145 116.008 265.717 116.497 266.145C117.016 266.542 117.169 267.427 116.955 268.741C116.741 270.298 116.375 271.642 115.886 272.741C115.366 273.841 114.877 274.757 114.389 275.459C113.778 275.245 113.35 274.909 113.167 274.421C113.044 274.146 112.922 273.78 112.8 273.352C112.678 272.924 112.617 272.405 112.647 271.825C112.647 271.245 112.8 270.573 113.075 269.84V269.779Z" fill="white"/>
<path d="M406.501 263.244C406.898 263.732 407.479 264.099 408.243 264.343C409.343 264.618 410.381 264.618 411.359 264.343C412.337 264.068 413.192 263.58 414.017 262.938C414.811 262.297 415.514 261.472 416.125 260.526C416.736 259.579 417.256 258.571 417.653 257.502C417.775 257.166 417.897 256.647 417.989 255.884C418.081 255.12 418.081 254.326 417.989 253.471C417.867 252.616 417.592 251.792 417.133 250.997C416.675 250.234 415.972 249.654 414.964 249.287C414.231 249.043 413.437 249.012 412.551 249.226C411.695 249.44 410.87 249.806 410.045 250.326C409.251 250.875 408.518 251.517 407.845 252.28C407.173 253.044 406.654 253.868 406.348 254.754C406.104 255.334 406.165 255.884 406.532 256.403C406.898 256.922 407.296 257.289 407.754 257.502C407.418 257.472 407.051 257.563 406.654 257.838C406.257 258.113 405.921 258.602 405.737 259.274C405.646 259.487 405.615 259.823 405.585 260.251C405.585 260.709 405.615 261.197 405.737 261.686C405.86 262.205 406.104 262.694 406.501 263.183V263.244ZM408.579 257.533C408.731 257.38 409.006 257.105 409.343 256.769C409.679 256.433 410.045 256.067 410.442 255.7C410.84 255.334 411.237 255.029 411.634 254.815C412.031 254.601 412.428 254.509 412.795 254.601C413.62 254.815 414.048 255.151 414.048 255.639C414.048 256.128 414.048 256.525 413.956 256.8C413.742 257.411 413.437 257.96 413.07 258.449C412.673 258.938 412.276 259.365 411.878 259.671C411.481 260.006 411.084 260.22 410.717 260.373C410.351 260.526 410.106 260.556 409.984 260.526C409.495 260.403 409.159 260.22 408.945 259.976C408.732 259.732 408.609 259.487 408.518 259.243C408.426 258.999 408.395 258.754 408.426 258.51C408.426 258.266 408.426 258.083 408.426 257.96C408.426 257.838 408.334 257.716 408.12 257.594C408.243 257.624 408.395 257.594 408.548 257.533H408.579Z" fill="white"/>
<path d="M482.271 271.581C482.119 271.123 481.844 270.726 481.446 270.39C481.049 270.054 480.591 269.871 480.102 269.779C479.583 269.687 479.186 269.779 478.911 270.084C476.253 272.802 473.32 275.154 470.173 277.169C467.026 279.185 463.97 280.987 461.007 282.636C460.06 280.468 459.143 278.452 458.257 276.65C457.371 274.818 456.821 273.352 456.638 272.253C456.485 271.428 456.546 270.573 456.852 269.626C457.157 268.71 457.646 267.855 458.288 267.03C458.96 266.236 459.754 265.534 460.732 264.954C461.679 264.374 462.748 264.007 463.909 263.885C464.276 263.854 464.398 263.641 464.307 263.244C464.215 262.847 463.97 262.419 463.634 261.961C463.298 261.503 462.871 261.045 462.412 260.678C461.954 260.281 461.496 260.068 461.098 260.037C459.937 259.915 458.685 260.19 457.31 260.892C455.935 261.594 454.682 262.602 453.521 263.946C452.36 265.29 451.474 266.878 450.772 268.771C450.1 270.665 449.886 272.741 450.13 274.971C450.13 275.032 450.13 275.062 450.13 275.123C448.786 276.956 447.35 278.849 445.822 280.865C443.867 283.43 441.973 285.751 440.109 287.858C438.245 289.935 436.473 291.614 434.823 292.836C433.174 294.057 431.768 294.485 430.607 294.118C429.904 293.905 429.385 293.508 429.079 292.897C428.743 292.286 428.53 291.584 428.438 290.82C428.346 290.026 428.316 289.232 428.377 288.408C428.438 287.583 428.499 286.85 428.591 286.209C428.743 285.018 429.141 283.521 429.752 281.75C430.363 279.979 431.126 277.994 432.043 275.826C432.96 273.657 433.968 271.367 435.098 268.924C436.229 266.511 437.39 264.068 438.581 261.625C439.773 259.182 440.964 256.8 442.156 254.479C443.347 252.158 444.478 249.99 445.547 248.005C448.878 247.76 452.177 247.577 455.446 247.424C458.715 247.272 461.71 247.241 464.429 247.302C467.148 247.363 469.409 247.577 471.272 247.913C473.106 248.249 474.297 248.799 474.786 249.471C474.908 249.623 475.061 249.623 475.275 249.409C475.489 249.196 475.672 248.921 475.825 248.554C475.978 248.188 476.069 247.791 476.069 247.333C476.069 246.875 475.886 246.478 475.519 246.172C474.48 245.195 473.045 244.401 471.181 243.821C469.317 243.241 467.148 242.844 464.734 242.599C462.29 242.355 459.693 242.233 456.882 242.263C454.102 242.263 451.261 242.386 448.389 242.599L450.925 237.988C451.199 237.469 451.138 237.041 450.68 236.705C450.222 236.369 449.611 236.186 448.847 236.094C448.083 236.003 447.228 236.064 446.311 236.217C445.395 236.369 444.661 236.705 444.02 237.194C443.806 237.347 443.347 237.988 442.614 239.057C441.881 240.156 440.964 241.591 439.834 243.393C437.451 243.668 435.221 243.974 433.082 244.279C430.974 244.584 429.11 244.89 427.491 245.165C425.871 245.439 424.527 245.714 423.488 245.928C422.45 246.142 421.808 246.294 421.564 246.386C420.494 246.783 419.792 247.272 419.455 247.791C419.119 248.31 418.967 248.829 418.997 249.287C419.028 249.745 419.242 250.142 419.578 250.417C419.914 250.692 420.28 250.784 420.647 250.662C420.739 250.631 421.197 250.539 422.052 250.417C422.908 250.295 424.069 250.142 425.505 249.99C426.941 249.837 428.621 249.623 430.515 249.409C432.41 249.196 434.487 248.982 436.687 248.768C435.037 251.608 433.357 254.723 431.585 258.174C429.813 261.625 428.224 265.106 426.758 268.588C425.291 272.1 424.099 275.52 423.122 278.849C422.816 279.918 422.572 280.926 422.358 281.933C422.175 282.147 422.022 282.361 421.839 282.575C420.861 283.735 419.761 284.957 418.508 286.3C417.256 287.644 415.942 288.866 414.536 289.965C413.131 291.065 411.726 291.981 410.29 292.744C408.854 293.477 407.479 293.844 406.165 293.844C405.707 293.844 405.31 293.752 404.943 293.599C404.576 293.447 404.271 293.141 403.996 292.744C403.721 292.347 403.538 291.767 403.415 291.095C403.293 290.393 403.263 289.507 403.354 288.377C403.446 287.4 403.69 286.27 404.087 284.987C404.485 283.705 404.974 282.422 405.493 281.109C406.012 279.796 406.593 278.483 407.204 277.2C407.815 275.917 408.395 274.696 408.884 273.596C409.404 272.497 409.831 271.52 410.167 270.695C410.504 269.871 410.717 269.29 410.748 268.893C410.779 268.313 410.412 267.947 409.618 267.733C408.823 267.519 407.907 267.458 406.837 267.55C405.798 267.641 404.79 267.855 403.782 268.221C402.804 268.588 402.132 269.046 401.827 269.565C401.307 270.512 400.696 271.764 400.024 273.321C399.352 274.879 398.71 276.589 398.099 278.421C397.488 280.254 396.999 282.208 396.633 284.193C396.541 284.712 396.51 285.232 396.419 285.751C395.961 286.423 395.472 287.125 394.952 287.827C393.73 289.507 392.416 291.034 391.072 292.439C389.728 293.844 388.353 294.974 386.978 295.89C385.603 296.806 384.289 297.233 383.006 297.172C382.64 297.172 382.212 297.081 381.754 296.867C381.295 296.653 380.868 296.287 380.532 295.768C380.195 295.248 379.982 294.515 379.89 293.569C379.798 292.653 379.982 291.462 380.379 290.026C380.776 288.591 381.509 286.85 382.548 284.835C383.587 282.788 385.114 280.406 387.07 277.658C387.192 277.505 387.192 277.078 387.039 276.406C386.886 275.734 386.673 275.032 386.337 274.329C386 273.627 385.603 272.986 385.176 272.466C384.717 271.947 384.259 271.703 383.831 271.794C383.587 271.825 383.19 271.978 382.67 272.191C382.12 272.405 381.509 272.68 380.776 272.955C380.043 273.23 379.218 273.566 378.332 273.871C377.446 274.207 376.56 274.482 375.643 274.726C376.132 273.902 376.56 272.955 376.896 271.856C377.232 270.756 377.446 269.565 377.537 268.252C377.751 265.9 377.293 264.16 376.193 262.969C375.093 261.778 373.382 261.35 371.091 261.686C369.777 261.9 368.647 262.389 367.669 263.213C366.691 264.038 365.927 264.984 365.286 266.053C364.675 267.122 364.217 268.221 363.972 269.382C363.697 270.542 363.605 271.489 363.636 272.283C363.728 274.085 364.064 275.551 364.675 276.65C364.675 276.65 364.675 276.681 364.705 276.711C362.567 277.505 360.489 277.933 358.442 277.994C358.473 277.75 358.503 277.505 358.503 277.261V276.589C358.534 276.253 358.625 275.551 358.717 274.482C358.809 273.383 358.748 272.192 358.534 270.848C358.32 269.504 357.831 268.191 357.098 266.878C356.365 265.565 355.142 264.496 353.462 263.671C351.782 262.908 350.285 262.724 348.94 263.183C347.596 263.641 346.496 264.435 345.579 265.626C344.663 266.786 344.021 268.16 343.594 269.687C343.196 271.214 343.044 272.68 343.166 274.024C343.41 276.742 344.235 278.788 345.61 280.162C346.985 281.567 348.726 282.483 350.865 282.941C350.498 284.529 350.01 286.087 349.368 287.583C348.726 289.08 347.932 290.362 346.954 291.462C345.977 292.561 344.785 293.355 343.441 293.935C342.096 294.485 340.477 294.668 338.644 294.454C338.064 294.424 337.3 294.21 336.353 293.844C335.405 293.477 334.519 292.805 333.633 291.859C332.778 290.881 332.075 289.599 331.525 287.919C330.975 286.27 330.761 284.102 330.884 281.445C330.884 281.231 330.884 281.017 330.884 280.803C330.884 280.59 330.884 280.376 330.884 280.162C332.778 278.147 334.947 275.703 337.453 272.833C339.927 269.962 342.402 266.786 344.846 263.274C347.29 259.762 349.551 256.006 351.69 251.975C353.798 247.944 355.448 243.76 356.639 239.423C357.159 237.499 357.342 235.911 357.128 234.659C356.914 233.407 356.487 232.46 355.784 231.758C355.081 231.086 354.195 230.689 353.095 230.567C351.995 230.445 350.834 230.567 349.551 230.933C346.893 231.666 344.327 233.132 341.883 235.362C339.438 237.591 337.208 240.248 335.161 243.424C333.114 246.569 331.281 250.081 329.723 253.899C328.134 257.747 326.881 261.594 325.934 265.534C324.987 269.443 324.407 273.291 324.193 277.047C324.07 279.093 324.101 281.017 324.223 282.85C323.948 283.338 323.673 283.827 323.398 284.315C322.482 285.903 321.474 287.339 320.404 288.652C319.335 289.965 318.235 291.065 317.074 291.95C315.913 292.836 314.813 293.263 313.683 293.263C312.124 293.263 310.963 292.989 310.23 292.408C309.497 291.828 309.008 291.126 308.794 290.271C308.58 289.415 308.519 288.438 308.672 287.369C308.825 286.27 309.008 285.201 309.253 284.132C310.2 282.422 310.963 280.865 311.605 279.46C312.216 278.055 312.705 277.017 313.01 276.314C313.133 276.039 313.285 275.52 313.499 274.787C313.713 274.054 313.805 273.291 313.835 272.527C313.835 271.764 313.713 271.062 313.438 270.451C313.163 269.84 312.583 269.504 311.727 269.474C310.933 269.474 310.291 269.565 309.772 269.718C309.619 269.107 309.375 268.466 309.069 267.824C308.764 267.183 308.336 266.572 307.755 266.023C307.175 265.473 306.442 265.015 305.525 264.648C304.609 264.282 303.478 264.099 302.103 264.099C299.384 264.129 296.818 264.923 294.404 266.45C291.99 267.977 289.882 269.932 288.11 272.314C286.338 274.696 284.933 277.291 283.924 280.101C283.619 280.987 283.375 281.842 283.161 282.697C282 284.193 280.533 285.873 278.761 287.766C276.928 289.69 274.789 291.706 272.376 293.752C269.931 295.829 267.243 297.722 264.34 299.402C261.438 301.112 258.321 302.517 254.991 303.616C251.661 304.715 248.178 305.265 244.542 305.265C240.387 305.265 236.874 304.777 233.971 303.86C231.069 302.914 228.624 301.662 226.639 300.104C224.683 298.547 223.125 296.745 221.995 294.729C220.864 292.714 220.039 290.576 219.459 288.408C218.909 286.209 218.573 284.01 218.512 281.842C218.42 279.643 218.481 277.597 218.634 275.734C218.787 273.841 219 272.192 219.245 270.756C219.489 269.321 219.673 268.283 219.795 267.611C220.681 262.663 221.872 258.113 223.369 253.99C224.836 249.868 226.547 246.081 228.472 242.63C231.069 243.668 233.941 244.615 237.118 245.5C240.296 246.386 243.931 247.027 248.025 247.424L250.317 247.608C250.561 249.043 250.989 250.478 251.569 251.944C252.18 253.41 253.066 254.693 254.258 255.853C255.45 257.014 257.008 257.899 258.933 258.602C260.857 259.274 263.24 259.518 266.082 259.365C267.121 259.335 268.434 259.121 270.023 258.754C271.612 258.388 273.353 257.777 275.248 256.983C277.142 256.159 279.097 255.12 281.083 253.807C283.1 252.524 285.024 250.906 286.827 248.982C288.66 247.058 290.279 244.798 291.746 242.233C293.212 239.668 294.343 236.705 295.168 233.346C296.084 229.651 296.451 226.444 296.268 223.696C296.115 220.947 295.565 218.565 294.71 216.55C293.823 214.534 292.693 212.854 291.288 211.511C289.882 210.167 288.385 209.068 286.766 208.212C285.147 207.388 283.497 206.747 281.847 206.35C280.197 205.953 278.7 205.647 277.356 205.494C276.011 205.342 274.912 205.25 274.025 205.25H272.651C267.182 205.647 262.171 206.777 257.558 208.579C252.944 210.381 248.697 212.641 244.848 215.328C240.998 218.046 237.515 221.069 234.429 224.459C231.344 227.849 228.563 231.33 226.15 234.873C223.492 233.926 220.834 233.102 218.237 232.338C215.64 231.605 213.134 231.147 210.721 230.994C208.307 230.842 206.046 230.994 203.907 231.544C201.769 232.094 199.813 233.132 198.072 234.751C196.605 236.094 195.842 237.224 195.842 238.141C195.842 238.782 195.933 239.209 196.117 239.393C196.3 239.576 196.544 239.637 196.85 239.576C197.155 239.515 197.522 239.393 197.919 239.179C198.316 238.965 198.744 238.782 199.202 238.568C201.585 237.591 203.785 236.95 205.832 236.705C207.849 236.43 209.804 236.43 211.637 236.705C213.47 236.95 215.304 237.408 217.076 238.049C218.848 238.721 220.711 239.454 222.636 240.278C220.681 243.607 218.97 246.814 217.534 249.959C216.098 253.105 214.906 255.945 213.959 258.541C213.012 261.136 212.309 263.335 211.79 265.137C211.301 266.969 211.026 268.221 210.935 268.924C210.079 275.49 210.018 281.109 210.751 285.812C211.484 290.515 212.737 294.454 214.479 297.661C216.22 300.868 218.359 303.402 220.834 305.326C223.339 307.22 225.905 308.686 228.563 309.663C231.221 310.64 233.788 311.251 236.324 311.495C238.86 311.739 240.998 311.831 242.801 311.739C247.384 311.495 251.692 310.671 255.663 309.327C259.635 307.953 263.302 306.273 266.632 304.257C269.962 302.242 272.956 300.074 275.614 297.753C278.272 295.401 280.594 293.172 282.58 291.003C282.672 290.881 282.764 290.79 282.886 290.668C283.1 291.767 283.405 292.744 283.833 293.569C284.536 294.912 285.422 295.981 286.46 296.745C287.469 297.508 288.599 297.997 289.821 298.272C291.043 298.547 292.174 298.638 293.243 298.608C295.321 298.516 297.276 297.875 299.079 296.684C300.881 295.462 302.531 293.935 304.059 292.103C305.128 293.569 306.411 294.76 307.878 295.645C309.344 296.531 310.75 297.02 312.063 297.081C313.896 297.203 315.669 296.867 317.318 296.073C318.968 295.279 320.496 294.241 321.901 292.958C323.154 291.828 324.284 290.545 325.354 289.141C326.026 291.339 327.004 293.263 328.287 294.851C329.906 296.867 332.075 298.089 334.825 298.547C338.155 299.127 341.058 299.005 343.594 298.211C346.129 297.417 348.299 296.226 350.132 294.638C351.965 293.05 353.462 291.248 354.623 289.202C355.784 287.156 356.701 285.171 357.312 283.247C358.045 283.155 359.114 283.002 360.52 282.758C361.925 282.514 363.392 282.117 364.98 281.567C366.111 281.17 367.211 280.651 368.311 280.071C368.799 280.254 369.288 280.376 369.838 280.437C370.877 280.559 371.885 280.59 372.832 280.498C373.779 280.406 374.604 280.254 375.368 280.009C376.101 279.765 376.59 279.551 376.835 279.338C377.201 279.063 377.476 278.91 377.66 278.941C377.843 278.941 377.965 279.032 378.057 279.185C378.148 279.338 378.148 279.49 378.118 279.674C378.087 279.857 378.026 280.009 377.935 280.132C375.826 282.575 374.36 285.079 373.504 287.583C372.649 290.087 372.313 292.378 372.527 294.454C372.741 296.531 373.443 298.272 374.665 299.677C375.888 301.081 377.537 301.967 379.615 302.303C381.631 302.639 383.648 302.303 385.695 301.295C387.742 300.287 389.728 298.944 391.622 297.264C393.333 295.737 394.952 294.027 396.449 292.164C396.602 292.988 396.847 293.752 397.183 294.393C397.763 295.493 398.496 296.317 399.382 296.959C400.299 297.569 401.277 297.997 402.407 298.241C403.507 298.486 404.637 298.608 405.798 298.608C407.326 298.608 408.884 298.272 410.504 297.569C412.123 296.867 413.712 295.981 415.239 294.851C416.767 293.752 418.264 292.5 419.7 291.156C420.372 290.515 421.044 289.874 421.655 289.232C421.686 290.087 421.747 290.912 421.869 291.736C422.022 292.958 422.358 294.027 422.877 295.004C423.397 295.981 424.099 296.775 425.016 297.447C425.902 298.089 427.094 298.486 428.591 298.608C430.607 298.821 432.624 298.424 434.64 297.417C436.687 296.409 438.612 295.065 440.445 293.416C442.278 291.767 444.02 289.904 445.608 287.888C447.197 285.873 448.603 283.949 449.825 282.178C450.375 281.353 450.894 280.59 451.352 279.857C451.474 280.162 451.597 280.498 451.719 280.803C452.544 282.788 453.369 284.804 454.133 286.85C451.749 288.316 449.794 289.812 448.236 291.339C446.678 292.866 445.792 294.577 445.578 296.5C445.486 296.989 445.486 297.63 445.517 298.363C445.547 299.127 445.731 299.89 446.036 300.654C446.342 301.417 446.861 302.15 447.533 302.761C448.236 303.402 449.183 303.83 450.436 304.013C451.627 304.227 452.88 304.257 454.194 304.135C455.507 304.013 456.76 303.677 457.982 303.127C459.204 302.578 460.274 301.753 461.251 300.623C462.229 299.524 462.962 298.088 463.512 296.317C463.909 294.912 464.032 293.447 463.818 291.859C463.604 290.271 463.237 288.683 462.718 287.033C464.398 286.117 466.109 285.171 467.881 284.163C469.653 283.155 471.364 282.086 473.045 280.956C474.725 279.826 476.344 278.605 477.872 277.322C479.399 276.039 480.805 274.635 482.027 273.169C482.394 272.68 482.485 272.192 482.332 271.733L482.271 271.581ZM239.929 227.544C242.77 224.856 245.581 222.566 248.392 220.642C251.203 218.748 253.922 217.16 256.519 215.939C259.116 214.717 261.468 213.74 263.577 213.007C265.654 212.305 267.426 211.816 268.832 211.541C270.237 211.266 271.154 211.144 271.52 211.144C272.009 211.144 272.956 211.144 274.331 211.053C275.706 210.991 277.233 211.083 278.914 211.358C280.594 211.633 282.275 212.152 283.955 212.915C285.635 213.709 287.041 214.9 288.171 216.55C289.302 218.199 290.004 220.367 290.279 223.024C290.554 225.711 290.157 229.101 289.057 233.193C288.416 235.575 287.255 237.927 285.635 240.309C284.016 242.66 282.214 244.798 280.258 246.691C278.272 248.585 276.286 250.173 274.239 251.425C272.192 252.677 270.39 253.38 268.832 253.563C266.54 253.807 264.585 253.777 262.996 253.502C261.407 253.227 260.063 252.769 258.963 252.158C257.863 251.547 257.038 250.814 256.427 249.929C255.847 249.074 255.388 248.157 255.113 247.211C258.321 246.753 261.132 245.684 263.607 243.943C266.051 242.233 267.884 239.668 269.015 236.247C269.931 233.499 270.145 231.33 269.718 229.742C269.29 228.154 268.465 227.055 267.243 226.505C266.021 225.956 264.554 225.894 262.813 226.291C261.071 226.688 259.33 227.513 257.649 228.735C255.938 229.956 254.411 231.514 253.066 233.468C251.722 235.423 250.806 237.652 250.347 240.126C250.317 240.278 250.256 240.523 250.225 240.859C250.195 241.194 250.133 241.591 250.103 242.019C247.353 241.775 244.451 241.164 241.365 240.156C238.279 239.148 235.163 238.049 231.955 236.858C234.46 233.285 237.118 230.17 239.959 227.483L239.929 227.544ZM254.747 241.988C254.839 241.286 254.93 240.675 255.083 240.187C255.236 239.668 255.358 239.24 255.48 238.935C256.061 237.347 256.733 236.003 257.527 234.934C258.321 233.865 259.146 233.041 259.971 232.43C260.796 231.85 261.56 231.483 262.324 231.33C263.057 231.178 263.638 231.239 264.065 231.514C264.493 231.788 264.707 232.247 264.738 232.918C264.738 233.59 264.493 234.415 263.913 235.423C262.752 237.469 261.438 238.996 259.88 240.034C258.352 241.072 256.641 241.714 254.747 241.988ZM304.395 274.268C303.57 275.673 302.928 277.23 302.5 279.002C302.042 280.773 301.798 282.666 301.706 284.712C301.675 285.323 301.706 285.903 301.767 286.453C301.859 287.003 301.981 287.583 302.134 288.133C301.309 289.69 300.331 291.003 299.201 292.103C298.07 293.202 296.787 293.783 295.351 293.905C294.282 293.996 293.426 293.752 292.785 293.172C292.143 292.591 291.654 291.859 291.318 290.942C290.982 290.026 290.738 289.018 290.677 287.888C290.585 286.789 290.585 285.72 290.615 284.743C290.615 283.583 290.768 282.361 291.104 281.078C291.44 279.796 291.838 278.513 292.357 277.23C292.876 275.948 293.487 274.757 294.19 273.596C294.893 272.436 295.687 271.428 296.543 270.573C297.368 269.718 298.254 269.046 299.17 268.557C300.087 268.069 301.003 267.855 301.95 267.886C302.836 267.977 303.478 268.252 303.845 268.771C304.211 269.29 304.425 269.871 304.456 270.542C304.486 271.214 304.456 271.886 304.364 272.527C304.272 273.169 304.211 273.657 304.211 273.932C304.211 274.054 304.272 274.146 304.395 274.177V274.268ZM335.283 260.526C336.689 256.861 338.186 253.502 339.805 250.509C341.424 247.486 343.105 244.829 344.816 242.508C346.527 240.187 348.115 238.324 349.551 236.889C350.193 236.247 350.804 235.85 351.323 235.728C351.843 235.606 352.27 235.667 352.576 235.911C352.882 236.156 353.065 236.553 353.095 237.133C353.126 237.713 352.973 238.354 352.607 239.087C350.529 243.546 348.543 247.486 346.679 250.845C344.816 254.204 343.013 257.197 341.302 259.823C339.591 262.45 337.941 264.74 336.414 266.756C334.886 268.741 333.42 270.573 332.014 272.253C332.778 268.099 333.878 264.19 335.283 260.526ZM351.721 275.276C351.721 275.826 351.721 276.406 351.659 277.017C349.826 276.253 348.543 275.245 347.84 273.993C347.351 273.138 347.077 272.253 347.077 271.367C347.077 270.481 347.168 269.718 347.443 269.077C347.718 268.405 348.054 267.916 348.512 267.611C348.971 267.275 349.399 267.244 349.857 267.488C350.315 267.733 350.712 268.344 351.048 269.29C351.384 270.268 351.598 271.672 351.69 273.566V275.245L351.721 275.276ZM368.188 269.779C368.463 269.046 368.891 268.252 369.502 267.366C370.419 266.145 371.121 265.717 371.641 266.145C372.16 266.542 372.313 267.427 372.099 268.741C371.885 270.298 371.519 271.642 371.03 272.741C370.969 272.772 370.938 272.802 370.877 272.833C370.113 273.535 369.349 274.146 368.524 274.696C368.433 274.574 368.341 274.482 368.28 274.36C368.158 274.085 368.036 273.718 367.913 273.291C367.791 272.863 367.73 272.344 367.761 271.764C367.761 271.184 367.913 270.512 368.188 269.779ZM455.691 295.004C455.446 296.959 454.957 298.363 454.224 299.218C453.491 300.043 452.758 300.471 452.024 300.471C451.291 300.471 450.68 300.135 450.191 299.432C449.702 298.73 449.55 297.844 449.764 296.775C449.977 295.798 450.588 294.821 451.597 293.844C452.605 292.866 453.919 291.92 455.477 290.912C455.813 292.439 455.874 293.783 455.721 294.974L455.691 295.004Z" fill="white"/>
<path d="M530.636 211.786C530.789 210.839 531.155 210.106 531.705 209.587C532.255 209.068 532.897 208.732 533.6 208.579C534.302 208.426 535.066 208.396 535.83 208.548C536.594 208.701 537.296 208.945 537.938 209.342C538.549 209.739 539.007 210.228 539.343 210.808C539.68 211.388 539.741 212.06 539.588 212.732C538.182 218.748 536.869 224.856 535.647 231.025C534.425 237.194 533.294 243.149 532.286 248.921C531.278 254.693 530.422 260.068 529.719 265.106C529.017 270.115 528.497 274.512 528.161 278.269C527.825 282.025 527.672 284.957 527.703 287.094C527.734 289.232 528.008 290.271 528.497 290.24C528.497 290.271 528.803 289.599 529.383 288.163C529.964 286.728 530.789 284.743 531.797 282.239C532.805 279.704 533.966 276.772 535.311 273.383C536.655 269.993 538.06 266.359 539.557 262.511C541.054 258.632 542.582 254.632 544.171 250.448C545.76 246.294 547.287 242.172 548.754 238.141C550.22 234.109 551.626 230.231 552.97 226.505C554.314 222.81 555.445 219.451 556.422 216.489C557.4 213.526 558.164 210.991 558.744 208.945C559.325 206.899 559.569 205.495 559.539 204.762C559.508 204.181 559.844 203.876 560.547 203.815C561.25 203.754 562.105 203.876 563.083 204.181C564.03 204.487 564.977 204.945 565.924 205.525C566.841 206.105 567.482 206.777 567.88 207.449C567.971 207.571 567.788 208.518 567.36 210.32C566.932 212.091 566.352 214.503 565.619 217.496C564.885 220.489 564.03 223.971 563.052 227.941C562.075 231.911 561.097 236.186 560.089 240.706C559.08 245.226 558.103 249.929 557.156 254.784C556.208 259.64 555.384 264.435 554.681 269.168C553.978 273.902 553.459 278.483 553.092 282.88C552.725 287.278 552.603 291.309 552.756 294.974C552.909 298.638 553.337 301.784 554.07 304.41C554.803 307.067 555.964 308.991 557.522 310.212C558.042 310.671 558.133 311.068 557.797 311.403C557.461 311.739 556.881 311.984 556.086 312.136C555.292 312.289 554.375 312.289 553.337 312.136C552.298 311.984 551.412 311.617 550.617 311.068C549.09 309.968 547.898 308.38 547.043 306.334C546.187 304.288 545.576 301.906 545.24 299.188C544.904 296.47 544.782 293.538 544.873 290.332C544.965 287.125 545.21 283.827 545.576 280.437C545.943 277.047 546.432 273.627 547.012 270.176C547.593 266.725 548.234 263.427 548.876 260.251C549.517 257.075 550.19 254.112 550.831 251.333C551.473 248.554 552.053 246.142 552.542 244.065C553.031 241.988 553.398 240.37 553.642 239.179C553.886 237.988 553.948 237.377 553.825 237.347C553 240.339 551.962 243.699 550.709 247.394C549.456 251.089 548.112 254.937 546.676 258.877C545.24 262.816 543.774 266.725 542.277 270.665C540.779 274.574 539.374 278.238 538.06 281.628C536.747 285.018 535.586 288.041 534.577 290.668C533.569 293.294 532.836 295.279 532.408 296.623C532.072 297.569 531.369 298.272 530.269 298.791C529.169 299.28 527.978 299.554 526.725 299.646C525.473 299.738 524.312 299.646 523.242 299.341C522.173 299.066 521.531 298.608 521.287 297.997C520.584 296.226 520.126 294.088 519.882 291.553C519.637 289.018 519.576 286.209 519.698 283.155C519.82 280.101 520.095 276.864 520.493 273.474C520.89 270.084 521.409 266.603 522.02 263.121C522.631 259.609 523.334 256.128 524.128 252.708C524.892 249.257 525.717 245.959 526.542 242.844C527.367 239.698 528.192 236.797 529.017 234.14C529.842 231.483 530.605 229.193 531.308 227.238C530.605 228.338 529.75 230.139 528.711 232.644C527.672 235.148 526.542 238.08 525.259 241.469C523.976 244.859 522.631 248.524 521.195 252.494C519.759 256.464 518.293 260.465 516.765 264.526C515.238 268.557 513.71 272.497 512.182 276.314C510.655 280.132 509.127 283.552 507.63 286.606C506.133 289.66 504.697 292.225 503.353 294.271C502.008 296.317 500.756 297.569 499.595 298.027C498.25 298.608 497.059 298.883 496.081 298.883C495.103 298.883 494.309 298.791 493.698 298.577C492.965 298.333 492.354 297.966 491.926 297.478C492.781 296.745 493.82 295.371 495.073 293.324C496.295 291.309 497.67 288.835 499.167 285.903C500.664 283.002 502.253 279.704 503.964 276.07C505.675 272.436 507.386 268.618 509.127 264.648C510.869 260.678 512.61 256.678 514.352 252.586C516.093 248.493 517.743 244.554 519.332 240.675C520.92 236.827 522.387 233.193 523.762 229.773C525.137 226.353 526.328 223.36 527.336 220.764C528.345 218.168 529.139 216.091 529.75 214.503C530.33 212.915 530.636 211.999 530.636 211.786Z" fill="white"/>
<path d="M644.811 263.244C645.208 263.732 645.788 264.099 646.552 264.343C647.652 264.618 648.691 264.618 649.669 264.343C650.646 264.068 651.502 263.58 652.327 262.938C653.121 262.297 653.824 261.472 654.435 260.526C655.046 259.579 655.565 258.571 655.962 257.502C656.085 257.166 656.207 256.647 656.298 255.884C656.39 255.12 656.39 254.326 656.268 253.471C656.146 252.616 655.871 251.792 655.412 250.997C654.954 250.234 654.251 249.654 653.274 249.287C652.541 249.043 651.746 249.012 650.86 249.226C650.005 249.44 649.18 249.806 648.385 250.326C647.591 250.875 646.858 251.517 646.155 252.28C645.483 253.044 644.964 253.868 644.658 254.754C644.414 255.334 644.475 255.884 644.841 256.403C645.208 256.922 645.605 257.289 646.063 257.502C645.727 257.472 645.361 257.563 644.964 257.838C644.566 258.113 644.23 258.602 644.047 259.274C643.955 259.487 643.925 259.823 643.894 260.251C643.894 260.709 643.925 261.197 644.047 261.686C644.169 262.205 644.414 262.694 644.811 263.183V263.244ZM646.858 257.533C647.011 257.38 647.286 257.105 647.622 256.769C647.958 256.433 648.324 256.067 648.721 255.7C649.119 255.334 649.516 255.029 649.913 254.815C650.31 254.601 650.707 254.509 651.074 254.601C651.899 254.815 652.327 255.151 652.327 255.639C652.327 256.128 652.327 256.525 652.235 256.8C652.021 257.411 651.746 257.96 651.349 258.449C650.952 258.938 650.555 259.365 650.157 259.671C649.76 260.006 649.363 260.22 648.996 260.373C648.63 260.526 648.385 260.556 648.263 260.526C647.774 260.403 647.408 260.22 647.224 259.976C647.011 259.732 646.888 259.487 646.797 259.243C646.705 258.999 646.674 258.754 646.705 258.51C646.705 258.266 646.736 258.083 646.736 257.96C646.736 257.838 646.644 257.716 646.43 257.594C646.552 257.624 646.705 257.594 646.858 257.533Z" fill="white"/>
<path d="M750.736 275.062C750.431 274.574 750.003 274.207 749.514 273.963C748.995 273.718 748.475 273.627 747.925 273.718C747.376 273.81 746.978 274.085 746.734 274.574C746.642 274.726 746.398 275.306 745.97 276.253C745.542 277.23 744.962 278.391 744.259 279.796C743.526 281.2 742.732 282.666 741.784 284.254C740.868 285.842 739.86 287.278 738.79 288.591C737.721 289.904 736.621 291.003 735.46 291.889C734.299 292.775 733.169 293.202 732.069 293.202C730.511 293.202 729.35 292.927 728.616 292.347C727.883 291.767 727.394 291.065 727.18 290.209C726.966 289.354 726.905 288.377 727.058 287.308C727.211 286.209 727.394 285.14 727.639 284.071C728.586 282.361 729.35 280.803 729.991 279.399C730.602 277.994 731.091 276.956 731.397 276.253C731.519 275.978 731.672 275.459 731.885 274.726C732.099 273.993 732.191 273.23 732.221 272.466C732.221 271.703 732.099 271 731.824 270.39C731.549 269.779 730.969 269.443 730.113 269.412C729.35 269.412 728.677 269.504 728.158 269.657C728.005 269.046 727.761 268.405 727.455 267.763C727.15 267.122 726.691 266.511 726.142 265.962C725.561 265.412 724.828 264.954 723.881 264.587C722.964 264.221 721.834 264.038 720.459 264.038C717.74 264.068 715.204 264.862 712.76 266.389C710.346 267.916 708.238 269.871 706.466 272.253C704.694 274.635 703.288 277.23 702.28 280.04C701.7 281.628 701.333 283.186 701.15 284.712C701.058 284.835 700.936 285.018 700.844 285.14C699.408 287.094 698.186 288.53 697.178 289.507C696.17 290.484 695.283 291.065 694.489 291.309C693.695 291.553 692.9 291.706 692.075 291.736C690.976 291.828 690.151 291.523 689.631 290.851C689.112 290.179 688.806 289.293 688.745 288.224C688.654 287.156 688.745 285.965 688.99 284.651C689.234 283.338 689.54 282.056 689.876 280.834C690.212 279.612 690.578 278.483 690.976 277.505C691.373 276.528 691.648 275.826 691.862 275.429C692.137 274.818 691.862 274.299 691.067 273.932C690.242 273.535 689.234 273.291 688.012 273.169C686.79 273.047 685.629 273.108 684.468 273.321C683.307 273.535 682.574 273.993 682.176 274.635C680.71 277.261 679.152 279.796 677.502 282.269C675.852 284.743 674.294 286.881 672.766 288.744C671.239 290.606 669.864 292.042 668.611 293.05C667.358 294.057 666.411 294.393 665.8 294.057C665.525 293.935 665.403 293.386 665.434 292.408C665.464 291.431 665.617 290.24 665.831 288.805C666.045 287.4 666.381 285.812 666.778 284.102C667.175 282.391 667.664 280.681 668.183 279.032C668.703 277.383 669.283 275.826 669.833 274.39C670.414 272.955 670.994 271.825 671.544 271C671.88 270.542 671.911 270.176 671.666 269.932C671.422 269.657 670.994 269.474 670.444 269.382C669.864 269.29 669.192 269.26 668.428 269.29C667.633 269.321 666.9 269.412 666.167 269.535C665.464 269.657 664.823 269.809 664.273 269.993C663.723 270.176 663.387 270.39 663.326 270.634C663.326 270.665 663.051 271.336 662.531 272.558C661.981 273.81 661.401 275.368 660.79 277.261C660.148 279.154 659.568 281.231 659.048 283.46C659.048 283.521 659.048 283.613 659.018 283.674C658.284 284.499 657.551 285.354 656.696 286.239C655.443 287.583 654.129 288.805 652.724 289.904C651.318 291.003 649.913 291.92 648.477 292.683C647.041 293.416 645.666 293.783 644.352 293.783C643.894 293.783 643.497 293.691 643.13 293.538C642.764 293.386 642.458 293.08 642.183 292.683C641.908 292.286 641.725 291.706 641.603 291.034C641.481 290.332 641.45 289.446 641.542 288.316C641.633 287.339 641.878 286.209 642.275 284.926C642.672 283.644 643.161 282.361 643.68 281.048C644.2 279.735 644.78 278.421 645.391 277.139C646.002 275.856 646.583 274.635 647.072 273.535C647.591 272.436 648.019 271.459 648.355 270.634C648.691 269.809 648.905 269.229 648.935 268.832C648.966 268.252 648.599 267.886 647.805 267.672C647.011 267.458 646.094 267.397 645.025 267.488C643.986 267.58 642.947 267.794 641.969 268.16C640.992 268.527 640.32 268.985 640.014 269.504C639.495 270.451 638.884 271.703 638.211 273.26C637.539 274.818 636.898 276.528 636.287 278.36C635.676 280.193 635.187 282.147 634.82 284.132C634.728 284.651 634.698 285.171 634.606 285.69C634.148 286.362 633.659 287.064 633.14 287.766C631.918 289.446 630.604 290.973 629.26 292.378C627.915 293.783 626.54 294.912 625.165 295.829C623.791 296.745 622.477 297.172 621.194 297.111C620.827 297.111 620.399 297.02 619.941 296.806C619.483 296.592 619.055 296.226 618.719 295.706C618.383 295.187 618.138 294.454 618.077 293.508C617.986 292.591 618.169 291.4 618.566 289.965C618.963 288.53 619.697 286.789 620.735 284.774C621.774 282.727 623.302 280.345 625.257 277.597C625.379 277.444 625.379 277.017 625.227 276.345C625.074 275.673 624.86 274.971 624.524 274.268C624.188 273.566 623.821 272.924 623.363 272.405C622.905 271.886 622.446 271.642 622.019 271.733C621.774 271.764 621.377 271.917 620.858 272.13C620.338 272.344 619.697 272.619 618.963 272.894C618.23 273.169 617.405 273.505 616.519 273.81C615.633 274.146 614.747 274.421 613.831 274.665C614.319 273.841 614.747 272.894 615.083 271.794C615.419 270.695 615.633 269.504 615.725 268.191C615.939 265.839 615.48 264.099 614.38 262.908C613.281 261.717 611.57 261.289 609.278 261.625C607.964 261.839 606.834 262.327 605.856 263.152C604.879 263.977 604.115 264.923 603.504 265.992C602.893 267.061 602.434 268.16 602.19 269.321C601.915 270.481 601.823 271.428 601.854 272.222C601.946 274.024 602.282 275.49 602.893 276.589C603.504 277.689 604.268 278.544 605.123 279.124C605.276 279.215 605.459 279.277 605.612 279.368C605.551 279.49 605.49 279.612 605.429 279.735C604.726 281.139 603.901 282.605 602.954 284.193C602.037 285.781 601.029 287.217 599.96 288.53C598.89 289.843 597.79 290.942 596.629 291.828C595.468 292.714 594.338 293.141 593.238 293.141C591.68 293.141 590.519 292.866 589.786 292.286C589.052 291.706 588.564 291.003 588.35 290.148C588.136 289.293 588.075 288.316 588.227 287.247C588.38 286.148 588.564 285.079 588.808 284.01C589.755 282.3 590.519 280.742 591.161 279.338C591.772 277.933 592.23 276.894 592.566 276.192C592.688 275.917 592.841 275.398 593.055 274.665C593.269 273.932 593.36 273.169 593.391 272.405C593.391 271.642 593.269 270.939 592.994 270.329C592.719 269.718 592.138 269.382 591.283 269.351C590.488 269.351 589.847 269.443 589.327 269.596C589.175 268.985 588.93 268.344 588.625 267.702C588.319 267.061 587.891 266.45 587.311 265.9C586.73 265.351 585.997 264.893 585.081 264.526C584.164 264.16 583.034 263.977 581.659 263.977C578.94 264.007 576.373 264.801 573.959 266.328C571.546 267.855 569.438 269.809 567.666 272.191C565.894 274.574 564.488 277.169 563.48 279.979C562.472 282.789 562.044 285.537 562.166 288.133C562.288 290.271 562.716 292.011 563.419 293.355C564.122 294.699 565.008 295.768 566.046 296.531C567.055 297.294 568.185 297.783 569.407 298.058C570.629 298.333 571.76 298.424 572.829 298.394C574.907 298.302 576.862 297.661 578.665 296.47C580.467 295.248 582.117 293.721 583.645 291.889C584.714 293.355 585.997 294.546 587.464 295.432C588.93 296.317 590.336 296.806 591.649 296.867C593.483 296.989 595.255 296.653 596.904 295.859C598.554 295.065 600.082 294.027 601.487 292.744C602.893 291.462 604.176 290.026 605.337 288.438C606.498 286.85 607.537 285.262 608.453 283.735C609.187 282.483 609.798 281.353 610.317 280.284C610.561 280.284 610.806 280.284 611.05 280.284C611.997 280.193 612.822 280.04 613.586 279.796C614.319 279.551 614.808 279.338 615.053 279.124C615.419 278.849 615.694 278.696 615.878 278.727C616.061 278.727 616.183 278.818 616.275 278.971C616.366 279.124 616.366 279.277 616.336 279.46C616.305 279.643 616.244 279.796 616.152 279.918C614.075 282.361 612.578 284.865 611.722 287.369C610.867 289.874 610.531 292.164 610.745 294.241C610.959 296.317 611.661 298.058 612.883 299.463C614.105 300.868 615.755 301.753 617.833 302.089C619.849 302.425 621.866 302.089 623.913 301.081C625.96 300.074 627.946 298.73 629.84 297.05C631.551 295.523 633.17 293.813 634.667 291.95C634.82 292.775 635.065 293.538 635.401 294.18C635.981 295.279 636.714 296.103 637.631 296.745C638.547 297.356 639.525 297.783 640.656 298.027C641.756 298.272 642.886 298.394 644.047 298.394C645.575 298.394 647.133 298.058 648.752 297.356C650.371 296.653 651.96 295.768 653.488 294.638C655.015 293.538 656.512 292.286 657.948 290.942C658.101 290.79 658.223 290.668 658.376 290.515C658.468 292.256 658.804 293.813 659.476 295.126C660.209 296.592 661.554 297.508 663.478 297.905C665.281 298.272 666.961 298.211 668.489 297.722C670.017 297.233 671.422 296.531 672.675 295.615C673.927 294.699 675.027 293.63 676.005 292.439C676.983 291.248 677.777 290.118 678.449 289.018C679.121 287.95 679.61 287.003 679.977 286.209C680.343 285.415 680.557 284.987 680.588 284.865C680.588 286.178 680.649 287.308 680.74 288.286C680.832 289.263 681.046 290.301 681.352 291.431C681.657 292.561 682.115 293.599 682.757 294.577C683.399 295.554 684.224 296.348 685.201 296.989C686.209 297.63 687.493 297.936 689.051 297.936C691.648 297.936 693.848 297.447 695.711 296.5C697.575 295.554 699.286 294.21 700.814 292.5C701.027 292.256 701.241 291.95 701.486 291.675C701.669 292.317 701.883 292.927 702.188 293.447C702.891 294.79 703.777 295.859 704.816 296.623C705.855 297.386 706.955 297.875 708.177 298.15C709.399 298.424 710.529 298.516 711.599 298.486C713.707 298.394 715.631 297.753 717.434 296.562C719.237 295.34 720.886 293.813 722.414 291.981C723.483 293.447 724.767 294.638 726.233 295.523C727.7 296.409 729.105 296.897 730.419 296.959C732.252 297.081 734.024 296.745 735.674 295.951C737.324 295.157 738.851 294.118 740.257 292.836C741.662 291.553 742.945 290.118 744.106 288.53C745.267 286.942 746.306 285.354 747.223 283.827C748.139 282.3 748.873 280.895 749.484 279.612C750.064 278.33 750.522 277.414 750.797 276.772C751.072 276.162 751.072 275.612 750.767 275.123L750.736 275.062ZM584.042 274.268C583.217 275.673 582.575 277.23 582.148 279.002C581.689 280.773 581.445 282.666 581.353 284.712C581.323 285.323 581.353 285.903 581.414 286.453C581.506 287.003 581.628 287.583 581.781 288.133C580.956 289.69 579.978 291.003 578.848 292.103C577.717 293.202 576.434 293.783 574.998 293.905C573.929 293.996 573.073 293.752 572.432 293.172C571.79 292.591 571.301 291.859 570.965 290.942C570.629 290.026 570.415 289.018 570.324 287.888C570.232 286.789 570.232 285.72 570.263 284.743C570.263 283.583 570.415 282.361 570.751 281.078C571.088 279.796 571.485 278.513 572.004 277.23C572.524 275.948 573.135 274.757 573.837 273.596C574.54 272.436 575.334 271.428 576.19 270.573C577.015 269.718 577.901 269.046 578.817 268.557C579.703 268.069 580.65 267.855 581.598 267.886C582.484 267.977 583.125 268.252 583.492 268.771C583.858 269.29 584.072 269.871 584.103 270.542C584.133 271.214 584.103 271.886 584.011 272.527C583.92 273.169 583.859 273.657 583.859 273.932C583.859 274.054 583.92 274.146 584.042 274.177V274.268ZM606.467 269.779C606.742 269.046 607.17 268.252 607.781 267.366C608.698 266.145 609.4 265.717 609.889 266.145C610.409 266.542 610.561 267.427 610.348 268.741C610.134 270.298 609.798 271.642 609.278 272.741C609.095 273.169 608.881 273.535 608.698 273.902C608.392 274.054 608.117 274.238 607.964 274.574C607.903 274.665 607.781 274.94 607.598 275.337C607.078 275.123 606.712 274.818 606.528 274.39C606.406 274.115 606.284 273.749 606.162 273.321C606.04 272.894 605.979 272.375 606.009 271.794C606.009 271.214 606.162 270.542 606.437 269.809L606.467 269.779ZM722.781 274.268C721.956 275.673 721.314 277.23 720.886 279.002C720.428 280.773 720.153 282.666 720.092 284.712C720.062 285.323 720.092 285.903 720.153 286.453C720.245 287.003 720.367 287.583 720.52 288.133C719.695 289.69 718.717 291.003 717.587 292.103C716.456 293.202 715.173 293.783 713.737 293.905C712.668 293.996 711.812 293.752 711.171 293.172C710.529 292.591 710.04 291.859 709.704 290.942C709.368 290.026 709.154 289.018 709.063 287.888C708.971 286.789 708.971 285.72 709.002 284.743C709.002 283.583 709.154 282.361 709.49 281.078C709.826 279.796 710.224 278.513 710.743 277.23C711.262 275.948 711.873 274.757 712.576 273.596C713.309 272.436 714.073 271.428 714.929 270.573C715.754 269.718 716.64 269.046 717.556 268.557C718.473 268.069 719.389 267.855 720.337 267.886C721.253 267.977 721.864 268.252 722.231 268.771C722.597 269.29 722.811 269.871 722.842 270.542C722.872 271.214 722.842 271.886 722.75 272.527C722.659 273.169 722.597 273.657 722.597 273.932C722.597 274.054 722.659 274.146 722.781 274.177V274.268Z" fill="white"/>
<path d="M248.669 333.119C248.669 332.783 248.944 332.477 249.28 332.477H257.468C264.128 332.477 269.597 337.913 269.597 344.54C269.597 351.167 264.128 356.664 257.468 356.664H249.28C248.944 356.664 248.669 356.359 248.669 355.992V333.119ZM257.071 352.45C261.562 352.45 264.862 349.06 264.862 344.54C264.862 340.02 261.562 336.661 257.071 336.661H253.129V352.45H257.071Z" fill="white"/>
<path d="M298.622 332.111C305.527 332.111 311.057 337.669 311.057 344.601C311.057 351.534 305.527 357 298.622 357C291.717 357 286.218 351.503 286.218 344.601C286.218 337.699 291.717 332.111 298.622 332.111ZM298.622 352.511C302.991 352.511 306.566 348.938 306.566 344.601C306.566 340.265 302.961 336.631 298.622 336.631C294.284 336.631 290.709 340.265 290.709 344.601C290.709 348.938 294.284 352.511 298.622 352.511Z" fill="white"/>
<path d="M331.863 332.63C331.894 332.355 332.108 332.111 332.474 332.111H333.024C333.299 332.111 333.513 332.263 333.605 332.447L341.212 348.754H341.304L348.912 332.447C349.003 332.233 349.187 332.111 349.492 332.111H350.042C350.409 332.111 350.623 332.355 350.653 332.63L354.747 355.87C354.839 356.359 354.564 356.664 354.136 356.664H350.989C350.684 356.664 350.409 356.389 350.317 356.145L348.27 343.044H348.178L342.129 356.634C342.068 356.847 341.854 357 341.548 357H340.937C340.632 357 340.449 356.817 340.357 356.634L334.246 343.044H334.155L332.138 356.145C332.108 356.389 331.833 356.664 331.527 356.664H328.411C327.953 356.664 327.678 356.359 327.739 355.87L331.863 332.63Z" fill="white"/>
<path d="M373.292 333.119C373.292 332.783 373.598 332.477 373.965 332.477H377.173C377.509 332.477 377.814 332.783 377.814 333.119V355.992C377.814 356.328 377.509 356.664 377.173 356.664H373.965C373.629 356.664 373.292 356.359 373.292 355.992V333.119Z" fill="white"/>
<path d="M397.857 332.722C397.857 332.386 398.162 332.111 398.529 332.111H399.384L413.775 347.38H413.805V333.119C413.805 332.783 414.08 332.477 414.477 332.477H417.655C417.991 332.477 418.296 332.783 418.296 333.119V356.389C418.296 356.725 417.991 357 417.655 357H416.83L402.378 341.12H402.348V355.992C402.348 356.328 402.073 356.664 401.706 356.664H398.559C398.223 356.664 397.887 356.359 397.887 355.992V332.722H397.857Z" fill="white"/>
<path d="M438.339 333.119C438.339 332.783 438.644 332.477 439.011 332.477H442.219C442.555 332.477 442.891 332.783 442.891 333.119V355.992C442.891 356.328 442.586 356.664 442.219 356.664H439.011C438.675 356.664 438.339 356.359 438.339 355.992V333.119Z" fill="white"/>
<path d="M473.657 332.111C477.14 332.111 479.676 333.21 482.029 335.317C482.334 335.592 482.334 336.02 482.059 336.295L479.951 338.463C479.707 338.738 479.371 338.738 479.096 338.463C477.629 337.18 475.705 336.417 473.78 336.417C469.35 336.417 466.08 340.112 466.08 344.479C466.08 348.846 469.411 352.45 473.841 352.45C475.918 352.45 477.69 351.656 479.126 350.465C479.401 350.22 479.799 350.251 479.982 350.465L482.121 352.694C482.396 352.938 482.334 353.396 482.09 353.641C479.737 355.931 476.774 357 473.688 357C466.783 357 461.192 351.503 461.192 344.601C461.192 337.699 466.753 332.111 473.688 332.111H473.657Z" fill="white"/>
<path d="M497.183 355.748L507.937 332.477C508.029 332.263 508.212 332.111 508.518 332.111H508.854C509.19 332.111 509.343 332.294 509.435 332.477L520.097 355.748C520.311 356.206 520.036 356.634 519.517 356.634H516.492C515.973 356.634 515.728 356.42 515.484 355.931L513.773 352.205H503.446L501.766 355.931C501.613 356.267 501.307 356.634 500.758 356.634H497.733C497.213 356.634 496.939 356.175 497.152 355.748H497.183ZM512.123 348.388L508.671 340.784H508.579L505.188 348.388H512.123Z" fill="white"/>
<path d="M390.909 9.19222C391.123 9.19222 391.337 9.19222 391.551 9.19222C391.856 10.1084 392.193 11.0246 392.468 11.9713C392.987 13.8341 393.537 15.7275 393.995 17.621C395.737 25.1641 397.509 32.7377 399.128 40.3114C400.778 48.0988 401.144 56.1611 404.108 63.7042C404.78 65.4144 404.841 67.5521 404.627 69.4455C403.711 76.9581 402.641 84.4401 401.48 91.9222C400.167 100.534 398.67 109.085 397.295 117.697C395.981 126.095 394.698 134.463 393.476 142.892C393.14 145.121 393.079 147.381 392.895 149.641C393.17 149.702 393.415 149.732 393.69 149.793C397.05 140.54 397.661 130.645 399.892 121.148C402.122 111.528 404.414 101.939 406.308 92.2581C408.202 82.5772 409.73 72.8353 411.196 63.0934C412.663 53.4126 413.885 43.7012 415.229 33.9898C415.718 36.7383 415.626 39.5174 415.718 42.2964C415.993 49.9922 414.007 57.3826 413.365 65.0174C412.357 77.1108 409.241 90.0593 408.11 102.55C407.163 112.872 405.177 122.675 404.139 132.997C403.65 137.731 403.314 142.464 403.191 147.198C403.1 151.656 403.864 152.359 408.233 153.153C408.813 153.244 409.363 153.366 409.944 153.489C412.754 154.099 415.046 153.58 417.032 151.168C419.72 147.9 422.409 144.449 425.678 141.853C432.583 136.448 432.491 122.98 432.583 120.049C432.766 113.727 427.939 57.5659 426.381 50.2365C425.373 45.5335 425.739 41.7162 423.906 36.1275C423.875 36.0359 419.201 20.9497 414.74 22.8737C413.396 22.4156 412.204 23.4844 411.868 25.1946C410.799 30.6916 409.638 36.1886 408.599 41.6856C408.049 44.6784 407.622 47.6713 407.133 50.6641C405.849 45.9611 405.116 41.2886 404.322 36.6162C403.039 29.1036 397.05 5.83293 396.317 4.5503C395.584 3.26766 394.576 2.07665 393.445 1.0994C392.712 0.488623 391.581 0.366467 390.604 0C388.832 0 388.129 1.46587 387.487 3.05389C385.776 7.26826 384.524 11.7269 382.202 15.5748C375.786 26.1719 350.794 61.7497 347.494 66.0252C344.683 69.6593 331.515 87.6467 327.696 92.9605C323.052 99.4653 318.225 105.848 313.55 112.322C312.298 114.063 311.839 116.078 312.878 118.063C313.642 119.499 314.62 120.873 315.75 122.034C318.561 125.026 321.28 128.141 324.396 130.737C326.81 132.753 329.682 134.249 332.493 135.654C338.237 138.525 343.828 141.884 349.908 143.747C359.104 146.556 368.606 148.419 378.047 150.343C380.155 150.771 382.721 151.381 385.349 149.641C381.255 146.984 352.78 141.243 344.592 137.914C334.723 133.883 325.252 127.805 318.164 119.346C316.911 117.85 316.728 116.567 317.644 115.071C321.616 108.535 359.074 58.7569 361.212 55.9778C363.931 52.3743 387.212 16.7659 390.94 9.28383L390.909 9.19222ZM330.049 171.843C331.24 172.117 332.554 172.514 333.868 172.667C340.223 173.369 385.685 176.087 396.928 176.21C398.975 176.149 410.738 175.996 412.815 175.446C420.331 174.713 423.356 161.123 419.781 159.688C416.512 158.375 417.979 162.711 412.388 163.78C409.088 164.727 397.753 164.757 395.706 164.635C394.453 164.574 393.995 163.841 394.301 162.375C394.881 159.413 395.187 156.39 395.523 153.397C395.676 151.931 395.095 151.351 393.415 151.809C391.337 152.389 390.818 153.794 390.543 155.596C390.146 158.283 389.596 161.581 389.168 164.208C385.96 164.208 383.027 164.177 380.094 164.208C371.02 164.36 362.037 163.994 352.933 164.055C346.761 164.116 326.627 164.666 324.396 163.628C323.541 163.231 320.577 161.246 323.999 159.108C326.718 157.52 329.529 156.023 332.462 154.863C336.129 153.397 339.978 152.359 343.706 151.076C345.233 150.435 345.172 149.488 345.081 149.305C343.4 149.457 341.689 149.61 340.009 149.732C332.951 150.343 326.169 151.84 319.966 155.413C318.866 156.054 317.767 157.398 317.431 158.344C316.667 160.543 317.644 162.559 318.714 165.185C328.674 184.455 336.343 184.15 337.167 184.211C341.903 184.699 346.639 184.944 351.344 185.493C365.092 186.929 360.723 187.631 360.693 187.845C353.971 188.547 347.097 188.395 340.498 187.845C340.437 188.059 338.756 188.883 343.828 189.86C346.669 190.319 349.541 190.777 352.413 190.777C360.632 190.777 368.881 190.502 377.13 190.38C381.866 190.319 386.571 190.38 391.306 190.38C390.695 190.838 390.023 190.929 389.351 191.021C383.241 191.876 355.988 194.044 353.696 194.014C347.372 193.892 341.017 193.922 334.693 193.831C333.196 193.831 331.576 193.739 330.079 193.769C327.146 193.8 325.282 195.541 325.496 198.198C325.741 201.068 329.56 204.305 332.462 204.519C337.626 204.916 342.82 205.16 348.014 205.16C364.268 205.16 380.521 205.038 396.745 204.977C398.181 204.977 416.757 204.428 397.57 208.153C394.789 208.886 391.918 209.253 389.137 210.047C384.004 211.513 371.142 213.284 371.692 217.804C371.631 219.728 372.242 221.774 375.175 222.751C379.33 223.972 383.485 225.072 387.671 226.202C388.373 226.385 392.101 227.026 388.129 228.278C384.554 229.836 382.263 232.584 380.613 236.005C379.819 237.654 379.849 239.211 381.346 240.219C385.41 237.929 388.221 234.905 392.101 232.615C402.764 224.431 390.268 223.423 387.946 222.629C383.882 221.285 373.555 219.422 376.397 218.262C384.004 216.002 407.591 211.421 411.929 210.077C424.028 206.382 417.857 201.343 405.116 201.496C401.633 201.557 389.473 201.007 385.349 201.007C381.682 201.007 378.016 201.007 374.319 201.007C369.981 200.396 380.155 199.847 383.088 199.725C391.948 199.328 400.442 197.007 408.966 194.96C414.649 193.586 420.209 192.487 425.923 190.563C428.336 189.983 433.53 188.303 433.622 186.196C434.141 179.813 426.564 180.027 426.014 180.18C416.023 181.859 411.043 181.126 402.733 181.34C398.639 181.432 364.542 180.668 361.09 180.241C353.574 179.325 346.028 178.317 338.542 177.278C335.793 176.881 330.232 173.247 329.988 171.69L330.049 171.843Z" fill="white"/>
<path d="M388.16 28.3707C388.16 28.3707 394.209 38.7539 391.612 49.1371C389.015 59.5204 359.196 120.934 354.888 127.836C350.58 134.768 328.491 123.225 330.69 114.429C334.143 100.595 388.16 28.3707 388.16 28.3707Z" fill="white"/>
</svg>
