<svg width="418" height="357" viewBox="0 0 418 357" fill="none" xmlns="http://www.w3.org/2000/svg">
<path d="M124.664 355.529C127.41 355.462 127.774 353.791 128.072 352.085C128.105 351.885 128.469 351.785 128.469 352.085C128.502 352.988 128.435 354.827 128.336 355.562C128.204 356.265 127.708 356.532 126.384 356.532C126.087 356.532 123.043 356.398 118.842 356.398C117.916 356.398 116.394 356.499 115.303 356.499C115.005 356.499 115.071 356.198 115.303 356.164C117.056 355.964 117.221 355.462 117.287 352.788C117.354 350.782 117.353 347.873 117.353 347.372C117.353 344.463 117.32 340.284 117.287 339.615C117.221 336.907 116.957 336.506 115.369 336.239C115.071 336.172 115.104 335.904 115.369 335.904C116.361 335.938 117.486 336.005 118.379 336.005C119.338 336.005 120.463 335.938 121.059 335.904C121.455 335.904 121.323 336.205 121.059 336.239C119.702 336.473 119.272 336.84 119.272 339.448C119.305 338.512 119.206 347.271 119.206 346.001C119.14 348.341 119.239 351.818 119.272 353.49C119.305 355.429 119.371 355.529 121.191 355.529C123.341 355.529 124.069 355.562 124.664 355.529Z" fill="white"/>
<path d="M137.599 346.87C139.451 342.123 141.932 335.938 141.833 336.172C142.031 335.603 142.097 335.537 142.23 335.537C142.362 335.537 142.428 335.603 142.594 336.138C143.255 338.211 144.578 341.922 146.133 346.201C147.06 348.742 148.019 351.417 148.912 353.724C149.64 355.629 150.235 355.964 151.757 356.164C151.989 356.198 151.989 356.499 151.724 356.499C150.467 356.465 150.037 356.398 148.647 356.398C147.853 356.398 146.53 356.465 145.736 356.499C145.472 356.499 145.538 356.198 145.769 356.164C147.026 356.03 147.225 355.663 146.795 354.158C146.365 352.587 145.604 350.213 144.909 348.308H138.227C137.731 349.645 136.772 352.286 136.275 354.058C135.746 355.897 136.606 356.03 137.698 356.164C137.929 356.198 137.962 356.499 137.698 356.499C136.639 356.465 135.448 356.398 134.82 356.398C133.927 356.398 132.967 356.465 131.842 356.499C131.545 356.499 131.611 356.198 131.842 356.164C132.67 356.03 133.563 355.897 134.456 354.292C135.382 352.587 136.54 349.611 137.599 346.87ZM144.645 347.405C143.917 345.065 143.156 342.858 141.734 339.248C141.337 340.25 140.642 341.855 140.046 343.427C139.583 344.63 138.922 346.402 138.525 347.405C139.219 347.438 140.278 347.438 141.337 347.438C142.561 347.438 144.115 347.438 144.645 347.405Z" fill="white"/>
<path d="M167.058 354.559C166.959 353.456 167.058 352.152 167.257 351.183C167.323 350.949 167.588 350.982 167.621 351.183C167.819 354.426 169.341 356.264 171.921 356.264C174.733 356.264 176.255 354.493 176.255 352.353C176.255 349.344 174.468 348.14 171.624 346.569C169.903 345.566 167.422 343.694 167.522 340.317C167.621 337.476 169.473 335.436 172.98 335.436C174.204 335.436 175.229 335.637 175.726 335.804C176.486 336.071 176.983 336.406 176.751 337.743C176.685 338.111 176.486 339.147 176.453 339.749C176.42 340.016 176.089 339.816 176.089 339.749C175.957 337.81 174.932 336.172 172.55 336.172C170.466 336.172 168.845 337.409 168.845 339.849C168.845 342.089 170.234 343.493 172.186 344.53C175.99 346.636 177.909 348.508 177.743 351.751C177.611 354.994 175.196 357 171.69 357C170.333 357 169.308 356.699 168.547 356.398C167.786 356.097 167.125 355.395 167.058 354.559Z" fill="white"/>
<path d="M188.267 346.87C190.119 342.123 192.6 335.938 192.501 336.172C192.7 335.603 192.766 335.537 192.898 335.537C193.03 335.537 193.097 335.603 193.262 336.138C193.924 338.211 195.247 341.922 196.802 346.201C197.728 348.742 198.687 351.417 199.58 353.724C200.308 355.629 200.904 355.964 202.425 356.164C202.657 356.198 202.657 356.499 202.392 356.499C201.135 356.465 200.705 356.398 199.316 356.398C198.522 356.398 197.199 356.465 196.405 356.499C196.14 356.499 196.206 356.198 196.438 356.164C197.695 356.03 197.893 355.663 197.463 354.158C197.033 352.587 196.272 350.213 195.578 348.308H188.895C188.399 349.645 187.44 352.286 186.944 354.058C186.414 355.897 187.274 356.03 188.366 356.164C188.598 356.198 188.631 356.499 188.366 356.499C187.307 356.465 186.117 356.398 185.488 356.398C184.595 356.398 183.636 356.465 182.511 356.499C182.213 356.499 182.279 356.198 182.511 356.164C183.338 356.03 184.231 355.897 185.124 354.292C186.05 352.587 187.208 349.611 188.267 346.87ZM195.313 347.405C194.585 345.065 193.824 342.858 192.402 339.248C192.005 340.25 191.31 341.855 190.715 343.427C190.252 344.63 189.59 346.402 189.193 347.405C189.888 347.438 190.946 347.438 192.005 347.438C193.229 347.438 194.784 347.438 195.313 347.405Z" fill="white"/>
<path d="M217.141 335.436C219.424 335.436 221.21 335.637 222.996 336.272C223.857 336.573 224.419 337.108 224.419 338.211C224.419 339.248 224.254 340.518 224.187 341.755C224.154 341.989 223.823 341.956 223.79 341.755C223.427 337.944 221.243 336.205 217.174 336.205C210.988 336.205 208.11 340.15 208.309 346.135C208.54 352.721 212.543 356.164 218.365 356.164C219.788 356.164 220.813 356.064 221.574 355.863C222.236 355.696 222.6 355.629 222.6 354.693C222.6 353.022 222.6 351.651 222.566 350.28C222.5 347.84 221.243 347.84 220.019 347.606C219.788 347.572 219.788 347.238 220.019 347.238C221.045 347.271 222.335 347.338 223.46 347.338C224.187 347.338 225.246 347.271 225.974 347.238C226.238 347.238 226.238 347.539 225.974 347.606C224.75 347.94 224.419 348.308 224.353 351.116C224.32 352.052 224.353 353.122 224.353 354.025C224.353 354.559 224.386 355.328 224.419 355.83C222.996 356.599 220.747 357 218.398 357C211.782 357 206.225 353.757 206.225 346.435C206.225 340.05 209.897 335.436 217.141 335.436Z" fill="white"/>
<path d="M235.971 346.268C235.938 347.906 235.971 351.317 236.037 353.423C236.103 355.429 236.5 355.529 238.22 355.562C239.61 355.596 240.238 355.596 241.065 355.562C243.844 355.496 244.075 353.791 244.472 351.684C244.506 351.45 244.869 351.417 244.869 351.684C244.869 352.955 244.869 354.76 244.704 355.596C244.572 356.331 244.009 356.532 242.752 356.532C241.098 356.532 238.783 356.398 235.64 356.398C234.912 356.398 233.027 356.465 231.902 356.499C231.637 356.499 231.67 356.198 231.902 356.164C233.655 355.964 234.019 355.663 234.085 352.788C234.151 350.447 234.151 348.174 234.151 345.8C234.151 343.761 234.151 341.989 234.085 339.883C234.019 337.108 233.986 336.506 231.803 336.239C231.571 336.205 231.505 335.904 231.803 335.904C232.894 335.938 234.581 336.005 235.673 336.005C237.757 336.005 240.139 335.938 241.892 335.904C242.851 335.904 243.414 335.938 243.315 336.74C243.215 337.609 243.149 338.479 242.984 339.615C242.951 339.849 242.587 339.849 242.587 339.615C242.554 337.944 242.223 336.941 240.536 336.84C239.213 336.774 237.856 336.74 236.004 336.774C235.971 339.548 235.971 342.256 235.971 345.299C237.327 345.366 239.18 345.399 241.197 345.265C242.157 345.198 242.091 344.964 242.289 344.931C242.455 344.964 242.322 345.031 242.256 345.7C242.19 346.569 242.024 347.338 241.925 347.672C241.859 347.906 241.561 347.906 241.561 347.672C241.561 346.268 240.734 346.335 239.378 346.268C238.783 346.235 237.029 346.235 235.971 346.268Z" fill="white"/>
<path d="M252.544 354.559C252.445 353.456 252.544 352.152 252.743 351.183C252.809 350.949 253.073 350.982 253.107 351.183C253.305 354.426 254.827 356.264 257.407 356.264C260.219 356.264 261.741 354.493 261.741 352.353C261.741 349.344 259.954 348.14 257.109 346.569C255.389 345.566 252.908 343.694 253.007 340.317C253.107 337.476 254.959 335.436 258.466 335.436C259.69 335.436 260.715 335.637 261.211 335.804C261.972 336.071 262.468 336.406 262.237 337.743C262.171 338.111 261.972 339.147 261.939 339.749C261.906 340.016 261.575 339.816 261.575 339.749C261.443 337.81 260.417 336.172 258.036 336.172C255.951 336.172 254.33 337.409 254.33 339.849C254.33 342.089 255.72 343.493 257.672 344.53C261.476 346.636 263.395 348.508 263.229 351.751C263.097 354.994 260.682 357 257.175 357C255.819 357 254.794 356.699 254.033 356.398C253.272 356.097 252.61 355.395 252.544 354.559Z" fill="white"/>
<path d="M270.295 354.559C270.196 353.456 270.295 352.152 270.494 351.183C270.56 350.949 270.825 350.982 270.858 351.183C271.056 354.426 272.578 356.264 275.158 356.264C277.97 356.264 279.492 354.493 279.492 352.353C279.492 349.344 277.705 348.14 274.86 346.569C273.14 345.566 270.659 343.694 270.758 340.317C270.858 337.476 272.71 335.436 276.217 335.436C277.441 335.436 278.466 335.637 278.962 335.804C279.723 336.071 280.22 336.406 279.988 337.743C279.922 338.111 279.723 339.147 279.69 339.749C279.657 340.016 279.326 339.816 279.326 339.749C279.194 337.81 278.169 336.172 275.787 336.172C273.703 336.172 272.082 337.409 272.082 339.849C272.082 342.089 273.471 343.493 275.423 344.53C279.227 346.636 281.146 348.508 280.98 351.751C280.848 354.994 278.433 357 274.927 357C273.57 357 272.545 356.699 271.784 356.398C271.023 356.097 270.362 355.395 270.295 354.559Z" fill="white"/>
<path d="M292.444 346.268C292.411 347.906 292.444 351.317 292.51 353.423C292.576 355.429 292.973 355.529 294.693 355.562C296.083 355.596 296.711 355.596 297.538 355.562C300.317 355.496 300.549 353.791 300.946 351.684C300.979 351.45 301.343 351.417 301.343 351.684C301.343 352.955 301.343 354.76 301.177 355.596C301.045 356.331 300.482 356.532 299.225 356.532C297.571 356.532 295.256 356.398 292.113 356.398C291.385 356.398 289.5 356.465 288.375 356.499C288.11 356.499 288.143 356.198 288.375 356.164C290.128 355.964 290.492 355.663 290.558 352.788C290.624 350.447 290.625 348.174 290.625 345.8C290.625 343.761 290.624 341.989 290.558 339.883C290.492 337.108 290.459 336.506 288.276 336.239C288.044 336.205 287.978 335.904 288.276 335.904C289.367 335.938 291.055 336.005 292.146 336.005C294.23 336.005 296.612 335.938 298.365 335.904C299.325 335.904 299.887 335.938 299.788 336.74C299.689 337.609 299.622 338.479 299.457 339.615C299.424 339.849 299.06 339.849 299.06 339.615C299.027 337.944 298.696 336.941 297.009 336.84C295.686 336.774 294.33 336.74 292.477 336.774C292.444 339.548 292.444 342.256 292.444 345.299C293.8 345.366 295.653 345.399 297.671 345.265C298.63 345.198 298.564 344.964 298.762 344.931C298.928 344.964 298.795 345.031 298.729 345.7C298.663 346.569 298.498 347.338 298.398 347.672C298.332 347.906 298.035 347.906 298.035 347.672C298.035 346.268 297.208 346.335 295.851 346.268C295.256 346.235 293.503 346.235 292.444 346.268Z" fill="white"/>
<path d="M194.812 39.9242C193.07 38.2344 191.581 36.3933 190.268 34.0226C189.057 34.2748 191.682 36.1663 190.117 36.0655C190.218 36.0655 188.956 34.6783 189.814 33.5434C189.385 32.3833 188.274 27.9192 187.239 28.1714C186.911 28.2471 186.81 29.382 186.406 28.8524C186.583 28.2471 186.735 27.9696 186.81 27.6166C186.861 27.3896 187.542 27.8435 187.669 27.667C188.098 27.1626 187.845 26.1285 187.416 25.6998C184.943 25.5989 188.678 25.5232 187.265 21.4879C186.583 21.3871 186.482 21.4123 186.331 21.5384C185.7 22.0932 187.214 22.5724 187.063 23.0516C186.987 23.3038 186.003 23.6065 186.028 23.203C186.078 22.1941 186.129 21.3618 185.775 20.4287C186.886 20.6557 188.022 19.8486 187.694 18.7137C187.593 18.3606 186.684 18.8398 186.406 19.1172C186.507 17.7553 186.684 16.5699 187.189 15.4098C187.29 15.1828 187.896 15.0315 187.946 14.7036C187.971 14.5018 187.568 14.3757 187.467 14.0731C188.224 13.6696 188.022 12.459 188.476 11.8789C190.47 9.28118 192.464 6.02772 194.913 3.60655C196.175 2.34552 197.992 2.24463 199.507 1.51324C200.592 0.983603 201.173 0 202.914 0C198.876 3.58132 195.241 8.4489 194.307 14.5523C197.285 9.48295 200.92 6.02772 206.271 4.08574C211.622 2.14375 217.302 1.63934 222.88 2.16897C223.435 2.92559 224.42 3.3039 225.026 3.88397C226.439 5.19544 227.853 6.63302 228.938 8.14625C229.821 9.35684 230.478 10.2143 231.815 10.8953C232.472 11.2232 232.85 12.7112 232.876 13.4174C232.926 14.4514 233.557 15.0567 233.683 15.9142C235.046 24.5649 235.021 20.8322 233.961 29.0541C233.759 30.5674 233.178 32.0554 232.699 33.4677C232.497 34.0983 231.513 34.2748 231.235 34.8801C228.13 41.5383 222.678 45.1449 215.611 46.3555C214.626 46.532 213.793 47.1625 212.607 47.1625C210.36 47.1625 208.24 47.4399 206.019 46.8347C202.99 46.0024 200.289 44.9431 197.462 43.4299C196.831 43.102 194.004 40.6304 194.029 40.7313C193.979 40.6304 194.206 40.4286 194.711 39.9999L194.812 39.9242Z" fill="white"/>
<path d="M278.927 107.313C278.144 108.448 277.387 110.012 276.832 111.071C275.494 112.307 273.677 114.198 272.162 115.485C270.244 117.099 264.287 121.21 262.268 121.159L259.643 121.109C257.674 121.084 255.276 121.109 253.307 120.857C251.944 120.68 251.086 120.529 249.799 120.907C248.511 121.285 244.321 118.334 243.084 117.401L241.09 115.913C237.935 113.568 237.733 112.206 236.85 111.248C235.613 109.911 232.306 105.119 233.669 103.328C231.726 100.1 232.13 95.182 232.912 91.4241C233.064 90.6423 233.467 90.2892 233.669 89.7343C234.427 87.7419 235.335 86.1782 236.421 84.438C240.106 78.5868 241.848 77.7545 248.259 74.7785C244.574 78.1076 240.485 84.5137 239.904 89.7091C242.605 84.5389 246.341 80.7054 251.717 78.6625C255.655 77.1745 259.643 76.4935 263.883 76.3926C268.326 76.2917 267.038 78.259 268.805 76.9727C268.957 77.2754 269.007 77.4519 269.058 77.5528C269.26 77.8806 269.613 78.032 269.714 77.5528C269.764 77.2753 269.613 77.0231 269.411 76.544C269.79 76.3926 269.865 77.0231 270.092 77.1997C270.496 77.5023 269.739 78.0067 269.562 78.3346C269.966 78.9147 270.673 79.3434 271.127 79.52C271.127 79.3182 272.137 78.9651 272.213 79.1417C272.288 79.3182 271.809 79.7974 271.935 80.0244C272.339 80.8819 273.197 81.9159 274.182 82.1934C274.813 82.3699 274.51 81.462 274.611 81.3106C277.059 81.7394 274.106 83.2526 275.847 84.7659C276.176 84.3371 276.352 83.984 276.908 83.6814C277.337 84.7406 278.144 85.5477 278.523 86.6322C278.624 86.9096 278.296 87.3384 278.498 87.5654C278.674 87.7671 278.876 87.7923 279.381 87.7671C278.674 88.5742 279.709 88.9273 279.886 89.5578C280.441 91.7015 280.769 93.9462 280.946 96.1404C281.375 101.134 281.905 100.604 279.432 105.094C279.078 105.749 279.432 106.657 278.902 107.364L278.927 107.313Z" fill="white"/>
<path d="M168.772 115.536C163.749 117.225 158.095 118.411 153.097 117.251C149.563 116.444 146.787 113.291 144.768 110.794C144.111 109.987 144.187 109.104 143.203 108.65C142.774 108.474 143.329 107.692 143.152 107.44C142.042 105.775 141.688 103.732 141.183 101.765C140.855 100.529 140.401 99.5205 140.401 98.1334C140.401 95.9644 140.098 93.9216 140.805 91.8787C141.537 89.7097 141.941 87.5407 143.203 85.5735C143.708 84.7917 143.884 83.7577 144.44 83.001C145.146 82.0427 146.105 81.3365 146.787 80.2016C147.166 80.2772 147.267 80.6051 147.67 80.8321C149.362 78.9153 151.305 77.5029 153.526 76.2671C152.618 75.6618 152.163 76.4185 151.507 76.7211C151.255 75.7627 152.29 76.0149 152.719 75.5357C153.148 75.0565 153.653 76.141 154.056 75.9645C155.773 75.1827 157.388 74.6782 158.928 74.0729C158.045 72.8876 158.322 73.6946 158.524 73.3415C158.65 73.1398 158.877 73.3416 159.079 73.7955C159.635 73.6946 159.13 73.1902 159.458 72.7615C159.685 73.4929 159.862 73.9973 160.569 73.9216C161.427 73.8207 161.982 73.9216 161.982 72.5849C163.244 74.4765 165.97 73.2911 166.021 73.0893C166.122 72.7615 165.945 72.5093 165.869 72.2066C165.794 71.9292 166.197 71.8283 166.399 71.904C167.51 72.2571 167.207 74.7539 169.933 73.6442C169.731 72.9632 169.201 73.4929 169.05 73.392C168.848 73.2407 168.368 72.6102 168.696 72.4588C173.568 72.9128 172.407 74.88 173.492 73.619C174.022 74.3252 174.931 74.0982 175.587 74.5521L179.348 77.0994C186.264 81.7905 185.305 84.3377 185.886 85.2709L187.324 87.5912C187.981 88.6505 188.031 90.4663 188.637 91.5508C188.485 92.1057 188.485 92.9884 188.485 93.6694L188.435 97.5785C188.41 100.025 187.047 107.44 185.608 108.953L183.715 110.92C182.453 112.232 180.888 113.922 179.449 114.981C174.603 118.537 179.525 117.805 172.886 119.167C176.774 115.41 180.181 110.239 181.014 104.464C178.187 109.785 174.552 113.594 168.823 115.536H168.772Z" fill="white"/>
<path d="M320.006 194.704C319.678 194.452 319.223 194.654 319.122 194.326C319.021 193.998 319.324 193.645 319.425 193.267L313.973 193.796C313.569 193.847 313.292 193.822 313.065 194.099C312.762 194.452 313.14 194.629 313.67 195.032C313.241 195.158 312.736 195.108 312.232 195.032C311.727 194.25 311.399 193.494 310.338 193.116C310.036 193.696 310.49 194.074 310.237 194.831C309.152 194.276 307.764 194.477 306.779 193.67C305.795 192.863 304.407 193.191 303.397 192.535C301.529 191.35 299.788 189.963 298.021 188.677C295.497 186.861 293.705 184.969 293.149 181.741C292.998 180.884 291.66 180.152 291.66 179.143C291.66 177.781 290.777 176.773 290.575 175.612C290.474 175.032 290.6 173.998 290.6 173.393V169.534C290.65 166.457 292.089 161.01 293.225 158.16C294.159 157.857 294.765 157.025 295.345 156.243C297.566 153.217 301.555 151.275 302.287 149.433C302.69 148.45 305.391 148.021 306.653 147.845C303.271 150.064 298.248 158.059 298.248 162.372C300.974 157.252 304.634 153.544 310.137 151.653C315.084 149.963 320.915 148.677 325.938 149.887C329.875 150.821 332.778 154.326 334.873 157.126C335.554 158.034 335.554 158.689 335.908 159.421C336.816 161.312 337.347 163.053 337.902 165.07C339.719 171.88 338.508 176.369 335.403 182.649C333.257 186.987 331.465 186.583 331.39 186.634L327.629 189.509C327.427 189.66 327.2 189.988 327.225 190.14C327.25 190.291 327.452 190.518 327.78 190.694C327.023 191.779 325.912 191.325 324.852 191.401C323.363 191.501 321.924 192.662 320.359 192.838C320.233 193.09 321.722 194.023 320.738 193.822C320.384 193.771 320.309 193.544 320.183 193.469C320.006 193.368 319.779 193.368 319.728 193.67C319.678 194.099 319.905 194.225 320.561 194.15C320.99 194.629 320.561 195.032 320.006 194.654V194.704Z" fill="white"/>
<path d="M119.551 189.889C120.03 190.216 120.434 190.166 120.737 190.696C117.556 193.445 117.077 191.629 116.648 193.117C113.316 194.655 111.398 194.428 107.914 195.084C101.604 196.269 97.9188 192.738 95.2937 191.982L93.2997 191.402C92.8453 191.276 92.4162 190.242 91.8861 189.687L88.9077 186.635C86.9136 184.592 83.607 179.472 82.875 176.673C83.0517 176.017 83.1274 175.059 82.9508 174.176C82.2188 170.595 83.7837 166.887 83.0265 164.164C82.6731 162.877 84.1371 161.692 84.541 160.683C85.0458 159.422 85.5506 158.615 86.3583 157.606C87.6961 155.942 88.7058 153.899 90.3717 152.688L92.5677 151.099C93.6278 150.317 97.0101 147.619 98.6256 147.694C94.5617 151.503 91.1542 156.421 90.2202 162.423C92.9715 157.455 96.4296 153.899 101.629 151.881C106.829 149.863 112.685 149.208 118.44 149.687C123.993 152.108 129.294 160.002 130.076 164.92L130.48 167.417C130.707 168.804 130.278 169.233 129.95 170.317C129.294 172.562 129.622 174.983 128.688 177.329C129.975 177.127 129.142 176.017 130.051 175.462C130.758 176.875 129.218 177.253 128.663 177.984C127.83 179.094 127.502 180.658 126.77 181.919C126.643 182.171 127.476 182.65 127.401 182.902C127.274 183.331 127.148 183.81 126.643 184.189L125.962 183.382C125.053 184.037 124.801 184.895 124.801 185.551C124.144 185.349 121.898 187.467 122.125 188.35C122.277 188.955 122.832 188.426 123.16 188.501C123.16 190.796 120.283 188.047 119.525 189.914L119.551 189.889Z" fill="white"/>
<path d="M221.041 190.339C220.738 190.516 220.183 190.188 219.855 190.491C218.82 191.449 217.659 192.029 216.195 192.155C218.012 191.172 218.542 189.507 220.385 189.658C220.208 189.331 219.93 189.179 219.93 188.952C219.981 189.457 226.619 179.545 225.862 176.67C223.287 181.386 220.107 184.791 215.311 186.834C210.515 188.877 204.937 189.835 199.46 189.431C198.4 189.356 196.885 189.759 196.077 189.003C196.077 189.003 191.761 184.589 191.812 184.64C189.565 182.092 186.738 177.83 185.779 174.677C185.956 173.946 185.981 172.912 185.804 171.979C185.148 168.297 186.713 164.993 185.88 162.143C185.476 160.806 187.066 159.595 187.495 158.461C187.95 157.2 188.581 156.493 189.338 155.459L190.827 153.442C191.66 152.332 192.291 151.399 193.427 150.541C196.759 147.994 196.456 148.271 199.838 146.153C201.05 145.396 202.06 145.27 203.246 146.027C205.467 143.807 212.03 144.16 215.311 144.892C216.119 145.068 216.447 145.396 217.078 145.648C219.022 146.43 220.713 147.187 222.455 148.398C223.338 149.003 224.322 149.331 225.155 150.087C226.973 151.701 228.639 153.189 229.8 155.358C231.516 158.561 234.267 164.211 233.434 167.717C233.384 167.893 232.702 167.817 232.702 168.221C232.728 170.566 232.324 172.66 231.87 175.031C232.829 174.804 232.4 173.921 233.106 173.316C233.737 174.652 232.122 175.106 231.642 176.014L229.547 180.024C230.077 180.529 230.481 180.302 230.734 180.604C230.254 180.932 230.002 180.655 229.8 180.756C229.648 180.806 229.648 181.083 229.673 181.285C229.724 181.891 230.153 181.26 230.759 181.361C230.002 181.563 229.8 182.193 229.623 183.025C229.219 182.471 229.648 181.815 229.017 181.31C228.437 181.815 227.932 182.471 227.604 183.076C227.553 183.152 227.881 183.353 227.982 183.379C228.235 183.454 227.982 183.681 227.856 183.832C227.326 184.513 228.109 182.218 225.256 185.648C224.852 186.128 225.483 186.682 225.963 186.809C225.256 188.826 224.6 185.901 222.53 187.843C223.035 188.07 223.666 188.322 223.641 188.751L221.117 190.365L221.041 190.339Z" fill="white"/>
<path d="M281.07 286.606C281.07 286.908 280.869 287.11 280.742 287.161C280.54 287.236 280.389 287.009 280.111 286.908L261.483 267.186L247.752 253.415C247.626 262.949 247.878 272.003 248.257 281.209C248.459 286.152 253.633 284.84 254.189 286.429C249.696 286.454 245.48 286.051 241.164 286.505C240.886 286.53 240.76 286.127 240.785 285.975C240.886 285.244 244.244 286.051 244.572 282.217C245.203 274.727 245.253 267.413 245.354 259.847C245.43 254.399 245.026 249.254 245.556 243.453L268.273 267.035L278.774 277.325C278.849 267.564 278.925 258.359 278.294 248.977C277.966 244.059 273.246 246.026 273.498 244.387L280.995 244.513C282.711 244.538 284.327 243.958 285.992 244.689C283.519 245.37 281.929 246.581 281.878 249.027L281.096 286.581L281.07 286.606Z" fill="white"/>
<path d="M321.794 286.328C317.25 288.068 312.278 287.816 307.886 286.076C305.993 285.319 305.033 283.579 305.008 281.637C305.008 280.351 305.21 275.155 305.967 274.903C306.725 274.651 306.447 277.753 307.633 280.527C309.148 284.058 312.404 286.025 316.24 285.823C318.967 285.697 321.718 284.941 323.409 282.671C326.211 278.938 325.252 273.642 321.667 270.716C317.755 267.513 313.994 266.706 310.334 263.503C307.406 260.931 305.942 257.349 306.144 253.44C306.371 248.85 309.274 245.218 313.767 244.008C317.452 243.024 321.364 243.226 324.999 244.436C328.356 245.571 326.514 250.742 326.11 253.844C325.378 253.188 325.403 252.204 325.226 251.372C324.217 246.908 320.456 244.512 316.089 245.117C312.631 245.597 310.107 247.917 309.88 251.523C309.501 257.501 313.59 260.098 318.184 262.469C323.838 265.395 329.038 268.85 329.013 275.861C329.013 280.552 326.413 284.562 321.819 286.328H321.794Z" fill="white"/>
<path d="M356.819 265.698C356.617 271.171 356.718 276.215 356.97 281.435C357.021 282.369 357.576 283.756 358.586 283.907C361.791 284.411 364.972 284.311 368.177 284.084C370.903 283.882 372.822 282.167 373.73 279.695C374.261 278.232 374.16 276.719 375.194 275.357C375.699 278.459 375.371 281.284 375.169 284.21C375.068 285.496 374.033 286.303 372.746 286.404C369.843 286.631 366.991 286.454 363.987 286.353C358.333 286.202 352.856 286.177 347.278 286.454C347.076 286.454 347.101 285.773 347.253 285.773C349.448 285.521 351.619 284.84 351.72 281.839C352.149 270.868 352.124 259.973 351.72 248.977C351.543 244.159 346.445 245.9 346.798 244.437C349.221 244.21 351.543 244.538 354.017 244.512L370.626 244.336C371.484 244.336 372.317 244.79 372.266 245.698C372.14 248.144 371.888 250.465 371.434 252.911C369.919 253.34 371.686 247.413 366.915 246.757C363.584 246.303 360.302 246.379 356.768 246.505L356.693 263.277C358.788 263.403 369.288 264.033 370.449 262.293C370.399 264.714 370.171 266.858 369.364 269.128C368.177 268.447 369.566 266.303 366.512 265.748C363.356 265.572 360.479 265.446 356.768 265.673L356.819 265.698Z" fill="white"/>
<path d="M410.655 286.378C406.137 288.068 401.29 287.79 396.949 286.126C395.283 285.495 394.147 284.007 394.021 282.267C393.92 280.829 394.021 275.306 395.03 274.877C395.889 274.499 394.854 279.644 398.463 283.376C402.073 287.109 410.377 286.453 412.926 281.788C415.097 277.803 413.759 272.986 410.2 270.363C406.061 267.286 403.108 266.706 399.549 263.704C396.469 261.107 394.904 257.5 395.106 253.44C395.333 248.925 398.186 245.293 402.603 244.058C406.263 243.024 410.2 243.225 413.835 244.411C417.47 245.596 415.4 250.337 415.249 253.515C414.491 253.515 414.441 252.809 414.39 252.305C413.785 247.488 409.923 244.436 405.152 245.142C402.931 245.47 400.785 246.403 399.725 248.522C397.984 252.002 398.817 256.138 401.593 258.837C406.54 263.604 418 265.192 418 275.886C418 280.627 415.324 284.663 410.68 286.403L410.655 286.378Z" fill="white"/>
<path d="M214.404 265.876C210.946 265.548 207.715 265.498 204.282 265.75C204.231 271.248 204.206 276.317 204.56 281.588C204.635 282.824 205.392 283.909 206.655 284.035C209.784 284.287 212.864 284.363 215.943 284.06C218.594 283.808 220.31 282.118 221.294 279.772C221.875 278.411 221.522 276.872 222.859 275.561C223.238 278.789 223.036 281.815 222.607 284.817C222.456 285.825 221.143 286.355 220.26 286.431C216.978 286.658 213.823 286.431 210.491 286.355C205.191 286.229 200.092 286.204 194.842 286.506C194.64 286.103 194.614 285.926 194.715 285.825C194.867 285.674 195.245 285.598 195.473 285.598C197.719 285.598 199.259 284.136 199.335 281.765C199.688 270.895 199.637 260.025 199.335 249.129C199.208 244.136 193.983 246.027 194.362 244.413L202.793 244.565L218.139 244.363C218.644 244.363 219.073 244.514 219.401 244.716C220.386 245.346 219.401 250.517 219.199 252.332C219.174 252.585 218.644 253.089 218.518 252.812C218.013 251.727 218.619 247.238 214.176 246.733C211.021 246.38 207.967 246.456 204.433 246.506L204.332 263.379C208.295 263.43 214.833 263.934 218.064 262.648C218.089 263.833 217.609 269.079 216.751 269.104C216.271 269.104 216.877 266.103 214.454 265.876H214.404Z" fill="white"/>
<path d="M176.301 278.36C174.408 287.389 163.327 289.104 155.603 286.128C153.559 285.346 152.448 283.455 152.575 281.311C152.701 278.991 152.549 276.721 153.609 274.552C154.316 276.116 154.24 277.578 154.619 278.991C155.856 283.53 159.617 286.204 164.286 285.8C167.139 285.548 169.94 284.564 171.48 281.942C173.171 279.066 172.919 275.233 170.925 272.559C167.972 268.6 162.974 267.389 158.86 264.312C154.114 260.756 152.221 254.476 154.897 249.054C157.951 242.875 166.609 242.497 172.49 244.413C175.872 245.523 174.156 250.718 173.6 253.921C172.843 252.812 172.944 251.652 172.566 250.491C171.329 246.834 168.199 244.741 164.337 245.069C161.914 245.271 159.516 246.229 158.33 248.499C156.512 251.979 157.421 256.166 160.197 258.865C162.974 261.563 167.189 262.85 171.581 266.103C175.494 269.003 177.336 273.543 176.326 278.385L176.301 278.36Z" fill="white"/>
<path d="M105.303 282.543C108.104 286.503 110.553 285.191 110.629 285.973C110.629 286.124 110.528 286.503 110.225 286.477C105.908 286.175 101.668 286.225 97.3264 286.477C97.1498 286.477 97.175 285.822 97.3264 285.796C98.1089 285.645 99.169 285.418 99.4719 284.788C99.6486 284.435 99.7244 283.754 99.3962 283.199L90.0065 267.688C86.6494 272.833 83.8729 277.701 81.1721 282.795C80.9197 283.274 80.9197 283.854 80.9701 284.283C81.1721 285.897 84.8068 285.166 84.3525 286.427C79.91 286.326 75.72 286.124 71.3785 286.503C71.1765 286.503 71.1008 286.023 71.1513 285.923C71.2523 285.796 71.4037 285.67 71.7823 285.645C73.7007 285.443 75.518 284.662 76.7549 283.022C81.0206 277.322 84.8825 271.471 88.7192 265.393L77.4869 247.764C76.25 245.822 74.6093 245.519 72.1357 244.662C75.1647 243.93 77.7897 244.788 80.7177 244.536C82.7623 244.359 84.7311 244.258 86.8513 244.46C86.4475 245.494 84.2263 244.99 83.6962 246.049C83.4943 246.427 83.469 247.159 83.7719 247.688C86.2455 252.278 88.6687 256.692 91.5967 261.459C94.6004 256.793 97.074 252.354 99.2953 247.587C99.5477 247.032 99.5729 246.427 99.3962 245.897C99.0681 245.04 96.0139 245.166 97.2507 244.409C97.3769 244.334 97.7051 244.283 98.008 244.309C101.491 244.536 104.773 244.536 108.205 244.309C108.534 244.309 108.71 244.409 108.71 244.662C108.71 244.838 108.634 244.939 108.332 245.116C106.489 245.217 104.899 246.099 103.738 247.663C99.9515 252.757 96.5692 257.902 93.0102 263.476C97.0488 269.958 100.936 276.314 105.353 282.518L105.303 282.543Z" fill="white"/>
<path d="M16.9453 286.254C12.4019 288.045 7.47984 287.818 3.01215 286.128C1.64912 285.598 0.336581 284.312 0.159892 282.849C-0.168243 279.974 -0.0420374 277.099 1.01809 274.4C1.75009 276.04 1.62388 277.553 2.02774 278.99C3.26456 283.404 6.84881 286.103 11.4175 285.8C14.194 285.598 17.021 284.741 18.6365 282.294C21.1353 278.511 20.0752 273.518 16.5919 270.668C12.2757 267.162 7.90894 266.33 4.4509 262.648C0.992852 258.965 0.0336866 253.568 2.3054 249.028C5.38482 242.875 13.7901 242.547 19.6714 244.312C23.3061 245.397 21.6149 250.491 20.9839 253.896C20.2519 252.812 20.3276 251.651 19.949 250.516C18.7122 246.733 15.3803 244.665 11.468 245.094C8.94383 245.346 6.57116 246.481 5.51103 248.928C4.0218 252.282 4.88 256.141 7.4546 258.738C12.2504 263.555 23.9371 265.069 23.9624 275.888C23.9624 280.529 21.4635 284.489 16.9453 286.279V286.254Z" fill="white"/>
<path d="M57.0731 286.508C52.0753 286.23 47.4814 286.18 42.7361 286.508C42.5089 286.508 42.2565 286.255 42.206 286.155C41.9536 285.348 44.9068 285.877 45.8912 284.314C46.598 283.204 46.7999 281.766 46.8251 280.354L46.9009 252.863C46.9009 251.022 46.7494 249.307 46.3203 247.592C45.5126 244.238 41.7769 246.029 42.2312 244.465L50.5861 244.566C52.5801 244.591 54.4228 244.238 56.442 244.541C55.3314 245.978 52.1763 244.465 51.9996 249.358C51.621 260.304 51.6967 271.123 52.1763 282.018C52.4035 286.962 57.8303 284.767 57.0731 286.558V286.508Z" fill="white"/>
</svg>
