<svg width="450" height="453" viewBox="0 0 450 453" fill="none" xmlns="http://www.w3.org/2000/svg">
<path d="M86.8344 165.696C90.7444 109.316 127.884 58.8364 180.914 39.6764C217.794 26.3464 259.234 32.8164 290.454 56.3964C306.904 68.8164 319.604 85.4964 327.434 104.546C346.764 151.606 324.094 205.966 277.434 225.066C262.494 231.186 246.484 232.536 230.754 228.526C209.394 223.076 191.504 208.146 182.124 188.506C167.644 158.206 180.764 122.336 211.284 108.666C231.974 99.3964 256.754 106.236 269.544 125.106C283.154 145.176 277.464 169.636 257.014 181.236C250.344 185.016 243.134 185.526 235.424 184.566C242.944 187.456 251.054 186.726 258.464 183.876C281.484 175.026 292.664 148.966 283.614 126.166C273.064 99.5964 244.084 85.1864 216.534 93.2164C199.744 98.1064 185.924 109.446 177.044 124.436C158.604 155.586 167.794 191.646 192.914 215.746C213.244 235.246 240.874 244.346 268.864 238.906C282.944 236.166 295.884 230.626 307.604 222.326C348.484 193.396 365.094 141.216 347.014 93.8764C337.214 68.2064 319.724 45.9964 297.104 30.4064C274.484 14.8164 245.944 6.13642 217.494 6.55642C190.544 6.95642 164.964 15.2564 142.304 29.5164C125.284 40.2264 110.244 53.3364 97.9144 69.2864C76.6544 96.7964 63.9744 129.956 61.6944 164.756C60.2444 186.826 63.2744 208.366 70.3544 229.216C77.4844 250.206 87.8644 269.576 101.034 287.286C101.244 287.566 101.214 287.916 101.034 288.076C100.924 288.176 100.984 288.236 100.504 287.996C84.0844 267.416 71.8544 243.876 64.6044 218.496C53.9744 181.256 56.1944 141.806 71.1344 106.056C90.9444 58.6764 130.944 21.0364 180.264 5.89642C228.494 -8.90358 282.064 4.88643 318.684 39.0864C341.154 60.0764 357.784 90.9264 360.804 121.476C365.784 171.826 337.234 219.836 290.634 239.396C277.174 245.046 262.634 247.856 247.824 246.836C219.344 244.876 193.094 229.936 176.804 206.526C167.804 193.606 162.364 178.606 161.834 162.816C161.074 140.306 170.714 118.866 187.324 104.006C192.514 99.3564 197.924 96.0164 204.134 92.9864C236.254 77.3264 274.704 91.7764 286.994 125.386C292.894 141.536 289.544 159.806 278.324 172.806C273.524 178.366 267.704 182.266 261.084 185.146C241.634 193.586 219.334 184.006 211.784 164.266C211.634 163.886 211.844 163.656 212.084 163.646C212.934 163.616 214.054 168.896 218.064 172.736L223.334 177.776C228.544 182.766 236.424 184.846 243.664 184.306C257.754 183.266 269.154 173.946 274.004 160.736C278.034 149.756 276.464 137.846 270.314 127.866C259.354 110.086 237.404 101.396 217.454 107.846C186.854 117.736 170.704 150.906 181.374 181.286C189.624 204.776 210.324 221.986 234.794 226.806C253.324 230.456 271.364 226.636 287.344 217.036C322.984 195.626 339.704 151.466 326.124 111.786C321.144 97.2464 312.834 83.7264 302.184 72.4864C280.254 49.3664 249.324 36.7864 217.544 37.5164C207.964 37.7364 199.334 39.2864 190.264 41.9664C144.384 55.5364 109.154 94.0064 97.1844 140.096C83.4644 192.926 102.864 244.566 139.854 282.656C138.124 284.566 136.674 285.976 134.744 287.686C103.634 255.886 83.7344 210.796 86.8544 165.696H86.8344Z" fill="white"/>
<path d="M193.544 152.286C189.224 179.626 208.594 204.726 235.714 208.296C267.094 212.426 296.874 191.786 303.504 160.396C307.294 142.446 304.234 124.156 295.344 108.186C284.224 88.2164 265.294 74.4564 242.674 70.2764C224.964 67.0064 206.664 68.8064 189.874 75.6764C162.344 86.9364 141.104 110.646 133.544 139.496C126.504 166.356 129.974 194.716 141.874 219.576C157.204 251.586 185.944 274.956 220.394 283.456C236.674 287.476 253.224 288.396 269.824 286.576C315.534 281.566 355.974 256.116 380.334 217.276C381.144 217.396 382.904 218.136 382.924 219.006C368.394 242.426 347.524 261.026 323.024 273.556C299.784 285.436 274.324 291.036 248.194 289.956C228.714 289.146 210.024 284.646 192.964 275.736C144.194 250.256 118.304 194.226 131.284 140.536C138.554 110.486 160.704 85.6164 189.404 74.0464C206.364 67.2164 224.774 65.4964 242.624 68.7464C265.464 72.9164 284.654 86.6864 296.024 106.766C305.694 123.836 308.804 143.676 304.064 162.786C299.324 181.896 284.864 198.476 265.674 205.666C252.314 210.676 237.774 211.276 224.324 206.246C203.254 198.376 190.164 176.866 192.504 154.676C194.544 135.366 209.314 120.616 228.504 118.536C231.094 118.256 233.154 118.386 235.674 118.566C244.874 119.216 252.404 123.656 258.284 130.666C262.454 135.636 264.564 141.726 265.234 148.266C265.574 151.636 264.454 161.566 261.554 163.946C266.474 152.496 265.254 140.966 257.914 131.036C252.874 124.216 244.504 120.446 235.974 119.406C229.124 118.576 222.484 119.866 216.064 122.596C203.934 127.746 195.614 138.946 193.504 152.276L193.544 152.286Z" fill="white"/>
<path d="M160.59 341.096C160.6 343.756 160.79 346.616 160.42 349.856C159.26 347.226 159.29 344.416 156.38 343.796C153.17 343.116 149.77 343.326 146.2 343.626L146.1 362.816C148.9 363.336 152.11 363.516 154.71 362.196C156.15 361.466 155.94 359.576 157.05 358.306L157.14 371.336C156.01 369.416 156.33 367.086 154.23 366.106C151.84 364.996 149.11 365.066 146.15 365.316L146.2 386.476C149.92 386.816 153.34 387.036 156.63 386.226C159.23 385.596 159.59 383.006 160.78 380.486C161.36 383.046 160.69 385.556 160.87 388.426C163.67 387.716 164.83 385.146 165.68 382.446L179.29 339.426L191.35 385.456C191.79 387.136 192.48 388.146 194.02 388.716L183.37 388.736C184.18 388.076 185.02 388.286 185.41 387.696C186.93 385.386 183.16 374.336 182.35 370.666H171.53C171.01 374.156 164.33 388.956 170.38 388.446C170.51 388.716 170.02 388.946 169.96 389.096C169.73 389.716 169.37 388.816 168.91 388.816L138.22 388.796C140.12 387.966 141.14 386.706 141.14 384.476V345.726C141.13 343.596 140.4 341.956 138.44 341.306L160.57 341.086L160.59 341.096ZM181.93 368.186L177.4 350.706L172.29 368.486C175.95 368.506 178.51 369.036 181.94 368.186H181.93Z" fill="white"/>
<path d="M64.37 388.746L53.8 388.716C55.42 388.226 56.6 387.416 56.6 385.496L56.63 364.446H38.16L38.2 385.496C38.22 387.276 39.2 388.186 40.96 388.706C37.44 388.926 34.1 388.886 30.29 388.706C31.95 388.216 33.12 387.476 33.12 385.456L33.09 344.266C33.09 342.206 31.72 342.076 30.1 341.216L41.13 341.176C39.81 342.166 38.34 341.966 38.27 343.796C38.01 349.856 38.13 355.806 38.19 362.216H56.55V344.216C56.55 343.356 56.02 342.666 55.68 342.126C55.27 341.476 54.15 342.366 53.65 341.086C57.39 341.316 60.83 341.316 64.57 341.086C64.09 342.376 62.94 341.466 62.54 342.126C62.22 342.666 61.65 343.336 61.65 344.256V385.456C61.63 387.326 62.69 388.106 64.33 388.736L64.37 388.746Z" fill="white"/>
<path d="M267.82 388.746L257.25 388.716C258.87 388.226 260.05 387.416 260.05 385.496L260.08 364.446H241.61L241.65 385.496C241.67 387.276 242.65 388.186 244.41 388.706C240.89 388.926 237.55 388.886 233.74 388.706C235.4 388.216 236.57 387.476 236.57 385.456L236.54 344.266C236.54 342.206 235.17 342.076 233.55 341.216L244.58 341.176C243.26 342.166 241.79 341.966 241.72 343.806C241.46 349.866 241.58 355.816 241.64 362.226H260V344.226C260 343.366 259.47 342.676 259.13 342.136C258.72 341.486 257.6 342.376 257.1 341.096C260.84 341.326 264.28 341.326 268.02 341.096C267.54 342.386 266.39 341.476 265.99 342.136C265.67 342.676 265.1 343.346 265.1 344.266V385.466C265.08 387.336 266.14 388.116 267.78 388.746H267.82Z" fill="white"/>
<path d="M319.64 388.746L309.07 388.716C310.69 388.226 311.87 387.416 311.87 385.496L311.9 364.446H293.43L293.47 385.496C293.49 387.276 294.47 388.186 296.23 388.706C292.71 388.926 289.37 388.886 285.56 388.706C287.22 388.216 288.39 387.476 288.39 385.456L288.36 344.266C288.36 342.206 286.99 342.076 285.37 341.216L296.4 341.176C295.08 342.166 293.61 341.966 293.54 343.796C293.28 349.856 293.4 355.806 293.46 362.216H311.82V344.216C311.82 343.356 311.29 342.666 310.95 342.126C310.55 341.476 309.42 342.366 308.92 341.086C312.66 341.316 316.1 341.316 319.84 341.086C319.36 342.376 318.21 341.466 317.81 342.126C317.49 342.666 316.92 343.336 316.92 344.256V385.456C316.9 387.326 317.96 388.106 319.6 388.736L319.64 388.746Z" fill="white"/>
<path d="M131.13 385.826C128.85 388.166 125.68 389.046 122.49 388.986L108.96 388.756C110.67 388.106 111.82 387.046 111.82 384.986L111.89 344.746C111.89 343.816 111.38 343.116 111.14 342.446C110.82 341.526 109.53 342.426 108.84 341.086L121.9 341.246C127.33 341.316 131.1 345.646 131.44 350.916C131.76 355.846 129.59 359.806 124.49 362.216C130.55 364.176 134.15 368.726 134.32 374.936C134.43 378.846 133.85 382.656 131.13 385.826ZM125.43 357.386C126.75 353.806 126.39 350.236 125.29 346.866C124.26 343.736 119.85 341.356 117.18 343.256L116.86 362.086C120.71 362.556 124.14 360.876 125.43 357.376V357.386ZM127.35 383.296C129.51 378.916 129.52 373.636 127.73 369.346C125.94 365.056 121.26 363.426 116.89 364.096L116.87 386.296C120.37 387.986 125.39 387.276 127.35 383.296Z" fill="white"/>
<path d="M344.51 389.266C337.98 390.226 332.23 387.036 328.57 381.896C321.14 371.466 321.63 357.046 329.8 347.146C333.16 343.076 337.89 340.646 343.1 340.836C348.6 341.046 353.43 344.016 356.57 348.646C362.81 357.846 363.26 370.196 357.65 379.806C354.79 384.716 350.33 388.406 344.51 389.256V389.266ZM351.95 348.146C350.12 345.086 347.15 342.986 344.29 342.556C336.51 341.386 331.84 347.186 330.3 354.566C328.48 363.246 328.07 379.296 335.58 385.516C338.5 387.936 342.28 388.436 346.2 387.166C357.9 383.396 357.63 357.646 351.95 348.146Z" fill="white"/>
<path d="M398.39 341.476C396.12 342.046 394.95 343.746 394.92 346.236L394.68 373.506C394.63 379.156 393.32 387.646 387 389.266C383.39 390.196 379.58 389.986 376.02 389.036C369.52 387.306 368.04 380.506 368.01 374.466L367.85 344.766C367.84 342.746 366.87 342.176 364.98 341.186L376.09 341.206C374.56 342.116 373.09 342.286 373.05 344.286C372.84 355.496 372.54 366.536 373.21 377.806C373.38 380.736 374.15 384.086 376.52 385.886C379.86 388.416 385.67 388.436 388.95 385.736C391.63 383.516 392.46 379.626 392.63 376.246C393.11 366.246 392.9 356.416 392.68 346.466C392.62 343.656 391.15 342.416 388.45 341.216L398.39 341.496V341.476Z" fill="white"/>
<path d="M84.92 366.116C82.37 364.916 79.55 365.126 76.81 365.316L76.78 386.306C80.3 386.936 84.27 387.136 87.82 386.026C90.25 385.266 90.38 382.556 91.46 380.416C91.99 383.176 91.39 385.796 91.46 388.946L68.73 388.716C70.86 388.216 71.85 386.646 71.84 384.516V345.246C71.8 342.916 70.62 342.026 68.49 341.236H91.26C91.38 344.256 91.71 346.946 90.77 349.856C90.29 346.846 89.59 344.026 86.47 343.646C83.35 343.266 80.13 343.226 76.82 343.676V362.986C79.52 363.186 82.13 363.416 84.57 362.616C86.65 361.926 86.92 359.636 87.72 357.676V371.146C86.83 369.366 86.96 367.076 84.94 366.126L84.92 366.116Z" fill="white"/>
<path d="M442.41 366.116C439.86 364.916 437.04 365.126 434.3 365.326L434.27 386.316C437.79 386.946 441.76 387.146 445.31 386.036C447.74 385.276 447.87 382.566 448.95 380.426C449.48 383.186 448.88 385.806 448.95 388.956L426.22 388.726C428.35 388.226 429.34 386.656 429.33 384.526V345.256C429.29 342.926 428.11 342.036 425.98 341.246H448.75C448.87 344.266 449.2 346.956 448.26 349.866C447.78 346.856 447.08 344.036 443.96 343.656C440.84 343.276 437.62 343.236 434.31 343.686V362.996C437.01 363.196 439.62 363.426 442.06 362.626C444.14 361.936 444.41 359.646 445.21 357.686V371.156C444.32 369.376 444.45 367.086 442.43 366.136L442.41 366.116Z" fill="white"/>
<path d="M205.13 349.326C199.16 360.236 199.88 385.406 215.03 387.676C221.91 388.706 227.55 384.586 229.22 377.736L229.13 385.266C226.45 387.126 223.57 388.416 220.3 389.066C211.47 390.836 203.11 386.656 199.04 378.566C194.57 369.696 194.81 359.086 199.69 350.396C206.01 339.136 218.52 338.976 229.13 344.096L228.69 353.046C227.8 347.406 224.18 343.326 218.47 342.506C212.76 341.686 207.88 344.296 205.13 349.326Z" fill="white"/>
<path d="M16.63 385.216C16.63 387.366 17.84 388.376 19.32 388.666C15.58 388.906 12.21 388.966 8.7 388.706C10.46 388.216 11.51 387.326 11.51 385.476V344.116C6.24 343.626 1.79 343.306 0 347.826L0.99 339.656C5.48 342.646 19.3 341.826 25.03 341.516C26.24 341.456 27.09 340.756 28.28 340.216C28.12 342.756 27.77 345.146 27.21 347.706C26.51 342.836 21.02 343.846 16.57 344.116L16.62 385.206L16.63 385.216Z" fill="white"/>
<path d="M408.18 389.186C406.02 388.726 404.07 388.076 401.99 388.136L401.74 382.056C401.68 380.616 401.43 378.916 402.76 377.836C402.3 383.016 405.38 387.226 410.36 387.686C413.41 387.966 416.12 386.346 417.18 383.516C419.15 378.256 417.71 372.576 413.49 368.926L407.07 363.376C402.17 359.146 400.65 352.386 403.05 346.356C404.98 341.506 409.87 339.366 414.94 340.376C417.05 340.796 418.93 341.486 420.82 341.026L420.26 349.656C419.55 346.326 418.22 343.116 414.88 342.046C412.73 341.356 410.53 341.496 408.75 342.726C404.97 345.346 405.25 353.036 409.37 357.266C415.77 363.856 424.31 367.486 421.72 380.206C420.43 386.546 414.98 390.626 408.19 389.196L408.18 389.186Z" fill="white"/>
<path d="M177.51 424.746L169.02 444.196L160.18 424.556C158.66 429.546 158.27 434.586 157.29 439.696C156.95 441.476 157.69 442.766 159.25 443.806C157.04 444.156 155.11 444.126 152.89 443.826C154.36 442.696 155.18 441.606 155.5 439.916L160.31 414.576L170.36 436.766L180.1 414.606L184.91 440.906C185.19 442.436 185.98 443.366 187.3 443.876C184.39 444.016 181.89 444.206 179.27 443.806C180.24 443.056 180.91 442.336 180.67 441.246C179.5 435.896 179.24 430.816 177.51 424.736V424.746Z" fill="white"/>
<path d="M352.07 435.636C351.88 431.996 353.4 429.016 355.78 427.126C358.48 424.986 361.86 424.606 365.28 426.026L365.43 418.106C365.45 416.826 364.71 416.286 364 415.176C365.93 415.056 367.41 415.096 369.11 413.836L369.23 440.686C369.23 441.386 369.36 442.016 369.82 442.216C370.28 442.416 370.79 442.236 371.9 442.226C371.35 443.256 370.08 443.916 369.14 444.216C367.7 444.666 366.48 443.596 365.32 442.906C362.55 444.506 359.27 444.836 356.34 443.166C354.01 441.836 352.26 439.166 352.07 435.636ZM365.21 440.936C365.5 436.546 365.61 432.416 365.17 428.376C364.98 426.666 362.19 426.176 360.97 426.346C359.63 426.536 358.06 427.586 357.45 429.166C355.73 433.636 356.04 442.156 361.3 442.736C362.42 442.856 365.09 442.676 365.21 440.936Z" fill="white"/>
<path d="M79.61 434.156C76.8 434.256 74.05 433.616 71.54 434.356C70.53 435.406 66.87 443.136 70.7 443.876C68.23 444.056 65.91 444.196 63.39 443.836C65.72 442.946 66.74 441.376 67.56 439.336L77.49 414.416L86.35 441.156C86.82 442.586 87.61 443.436 88.94 443.876C85.8 444.116 83.05 444.076 80.08 443.906C80.32 442.736 81.11 443.126 81.38 442.976C81.98 442.646 82.01 441.916 81.8 441.256L79.61 434.166V434.156ZM79.01 432.356L75.77 422.646C74.03 425.886 73.2 429.026 71.92 432.446C74.52 432.566 76.39 432.756 79.01 432.356Z" fill="white"/>
<path d="M124.71 434.136C121.95 434.336 119.09 433.496 116.68 434.406C115.71 435.076 111.96 443.196 115.81 443.866C113.34 444.046 111.03 444.186 108.5 443.826C110.83 442.936 111.85 441.366 112.67 439.326L122.6 414.406L131.46 441.146C131.93 442.576 132.72 443.426 134.05 443.866C130.91 444.106 128.16 444.066 125.19 443.896C125.43 442.726 126.22 443.116 126.49 442.966C127.09 442.636 127.12 441.906 126.91 441.246L124.72 434.136H124.71ZM124.11 432.356L120.87 422.646C119.13 425.886 118.3 429.026 117.02 432.456C119.62 432.576 121.49 432.756 124.11 432.366V432.356Z" fill="white"/>
<path d="M260.57 430.826C260.57 429.066 259.89 427.566 258.44 426.876C256.99 426.186 253.25 426.486 252.76 428.326C251.84 432.496 252.68 436.846 252.43 441.076C252.35 442.426 253.12 443.366 254.44 443.856C251.85 444.106 249.33 444.086 246.72 443.866C247.74 443.216 248.57 442.846 248.58 441.676L248.63 428.656C248.63 427.526 247.86 427.066 247.11 426.366C249.09 425.876 250.77 426.296 252.32 424.876C252.71 425.366 252.29 425.916 252.65 426.776C254.77 425.466 257.05 424.986 259.57 425.246C262.09 425.506 264.26 427.416 264.3 430.166L264.45 441.566C264.47 442.906 265.4 443.466 266.45 443.866C263.65 444.116 261.22 444.086 258.71 443.866C259.71 443.216 260.55 442.836 260.55 441.666V430.816L260.57 430.826Z" fill="white"/>
<path d="M345.01 430.826C345.01 429.046 344.38 427.586 342.88 426.866C341.5 426.196 337.7 426.476 337.21 428.326C336.29 432.496 337.13 436.846 336.88 441.076C336.8 442.426 337.57 443.366 338.89 443.856C336.3 444.106 333.78 444.086 331.17 443.866C332.19 443.216 333.02 442.846 333.03 441.676L333.08 428.656C333.08 427.526 332.31 427.066 331.56 426.366C333.54 425.876 335.22 426.296 336.77 424.876C337.16 425.366 336.74 425.916 337.1 426.776C339.22 425.466 341.5 424.986 344.02 425.246C346.54 425.506 348.71 427.416 348.75 430.166L348.9 441.566C348.92 442.906 349.85 443.466 350.9 443.866C348.1 444.116 345.67 444.086 343.16 443.866C344.16 443.216 345 442.836 345 441.666V430.816L345.01 430.826Z" fill="white"/>
<path d="M190.54 443.776C188.72 442.886 187.9 441.276 188.05 439.576C188.45 435.106 194.3 434.196 198.55 435.506C198.58 432.796 199.2 429.926 198.16 427.476C197.46 425.836 195.31 426.036 194.2 426.606C192.77 427.356 192.53 428.896 192.13 430.546C191.93 431.386 189.33 431.376 188.94 430.606C189.25 426.956 192.92 425.076 196.32 425.126C200.06 425.186 202.49 427.256 202.54 431.146L202.67 441.866L204.82 441.986C204.24 443.596 202.91 443.866 202.07 444.206C200.71 444.756 199.46 443.156 198.45 442.956C195.96 443.976 193.24 445.106 190.54 443.776ZM198.26 436.936C197.05 435.366 194.08 435.866 193.02 437.066C191.81 438.436 191.72 441.036 193.43 442.276C194.77 443.246 197.26 443.026 198.27 441.516C198.99 440.436 199.1 438.006 198.27 436.936H198.26Z" fill="white"/>
<path d="M231.33 443.776C229.51 442.876 228.69 441.276 228.84 439.576C229.24 435.106 235.09 434.186 239.34 435.506C239.37 432.796 239.99 429.926 238.95 427.476C238.25 425.836 236.1 426.036 234.99 426.606C233.54 427.356 233.37 428.896 232.92 430.546C232.69 431.376 230.14 431.376 229.73 430.606C230.04 426.956 233.71 425.076 237.11 425.126C240.85 425.186 243.28 427.256 243.33 431.146L243.46 441.866L245.61 441.996C245.03 443.616 243.7 443.866 242.88 444.206C241.46 444.796 240.25 443.156 239.24 442.966C236.75 443.996 234.01 445.116 231.33 443.786V443.776ZM239.04 436.936C237.83 435.366 234.86 435.866 233.8 437.066C232.59 438.436 232.5 441.036 234.21 442.276C235.55 443.246 238.04 443.026 239.05 441.516C239.77 440.436 239.88 438.006 239.05 436.936H239.04Z" fill="white"/>
<path d="M316.38 444.086C314.51 443.526 313.37 442.206 313.14 440.846C312.82 438.956 313.53 437.256 315.14 436.176C317.63 434.516 320.62 434.716 323.58 435.576C323.73 432.696 324.52 427.486 322.09 426.436C320.98 425.956 319.54 426.136 318.55 427.066C317.48 428.076 317.42 429.506 317.12 430.896C316.08 431.226 315.06 431.206 313.88 430.856C314.13 427.066 317.52 425.246 321.14 425.146C324.76 425.046 327.47 427.046 327.5 430.766L327.59 440.696C327.59 441.266 327.69 441.886 328.15 442.106C328.55 442.296 329.13 441.916 329.72 441.626C329.62 443.406 328.27 443.806 327.01 444.196C325.58 444.636 324.63 443.606 323.69 442.666C321.6 443.906 319.03 444.876 316.37 444.086H316.38ZM323.17 436.736C321.2 435.326 318.67 435.956 317.69 437.476C316.81 438.846 316.76 441.266 318.59 442.386C319.95 443.216 322.38 442.936 323.37 441.426C324.04 440.406 324.18 437.466 323.17 436.736Z" fill="white"/>
<path d="M286.56 443.906C283.94 444.026 281.45 444.186 278.51 443.856C279.7 443.046 280.33 442.176 280.33 440.726V418.996C280.33 417.496 279.82 416.246 278.61 415.676L286.92 415.506C285.41 416.696 284.5 416.936 284.5 418.636L284.53 441.126C284.53 442.346 285.08 442.966 286.56 443.906Z" fill="white"/>
<path d="M304.11 443.866C304.87 443.006 305.57 442.466 305.58 441.186L305.61 418.126C305.61 416.916 305.01 416.266 304.56 415.186C306.29 415.136 307.56 414.756 309.3 414.326L309.35 441.186C309.35 442.376 309.9 442.986 310.84 443.836C308.64 444.126 306.64 444.116 304.12 443.876L304.11 443.866Z" fill="white"/>
<path d="M297.07 444.046C294.5 444.606 292.1 444.046 289.82 443.356C289.94 441.296 289.52 439.496 290.51 437.496C290.83 439.536 290.82 441.136 292.04 442.276C293.26 443.416 295.23 443.796 296.82 442.796C297.95 442.086 298.1 440.776 297.93 439.506C297.36 435.096 288.71 436.146 289.7 429.486C290.44 424.486 297 424.756 300.7 425.816C300.67 427.456 300.82 428.676 300.54 430.066C299.61 428.486 298.93 426.756 297.11 426.226C295.53 425.766 293.79 426.296 293.23 427.526C290.63 433.286 302.53 431.896 301.55 439.306C301.26 441.496 299.76 443.446 297.07 444.036V444.046Z" fill="white"/>
<path d="M134.54 443.806C135.39 443.316 136.42 442.796 136.42 441.456L136.38 416.956C136.38 416.176 135.03 415.996 134.91 415.276C136.81 414.956 138.49 415.226 140.15 413.856L140.24 441.446C140.24 442.686 141.04 443.216 142.2 443.866C139.84 444.026 137.69 444.196 134.54 443.796V443.806Z" fill="white"/>
<path d="M95.07 439.406C95.07 441.226 95.84 442.346 97.24 442.546C98.74 442.766 99.19 441.696 100.73 440.426C100.19 443.026 98.16 444.366 95.62 444.306C93.08 444.246 91.29 442.446 91.28 439.826L91.22 428.656C91.22 427.526 90.46 427.206 89.42 426.506C92.48 425.126 93.73 422.666 95.08 419.626C95.75 421.626 94.79 423.266 95.17 425.206C97.07 425.636 98.84 425.296 100.52 424.746C100.34 425.596 99.78 427.046 98.86 427.246C97.68 427.496 96.47 426.716 95.05 427.346V439.406H95.07Z" fill="white"/>
<path d="M219.69 452.406C221.03 451.356 221.65 450.066 221.65 448.366L221.7 428.666C221.7 427.586 221.02 426.976 220.33 426.426L225.42 425.476L225.4 446.436C225.4 449.816 222.87 452.456 219.68 452.406H219.69Z" fill="white"/>
<path d="M211.68 441.296C211.7 442.836 212.66 443.476 213.68 443.866C210.89 444.116 208.45 444.086 205.94 443.866C206.94 443.226 207.8 442.846 207.8 441.676V428.176C207.8 427.246 206.75 427.046 206.37 426.316C208.48 426.006 210.2 426.036 211.62 424.946C211.67 426.156 211.46 426.806 212.05 427.206C213.51 425.836 215.18 424.736 217.16 425.376C218.69 425.866 219.54 428.106 218.89 429.416C218.06 429.796 216.15 429.896 215.64 429.246C215.03 428.466 214.96 427.426 213.88 427.556C213.19 427.636 211.74 428.076 211.69 429.226C211.52 433.206 211.61 437.096 211.67 441.296H211.68Z" fill="white"/>
<path d="M223.77 423.056C224.847 423.056 225.72 422.183 225.72 421.106C225.72 420.029 224.847 419.156 223.77 419.156C222.693 419.156 221.82 420.029 221.82 421.106C221.82 422.183 222.693 423.056 223.77 423.056Z" fill="white"/>
</svg>
