<svg width="884" height="286" viewBox="0 0 884 286" fill="none" xmlns="http://www.w3.org/2000/svg">
<path d="M127.221 187.665C125.373 187.665 115.164 187.603 114.589 187.603C113.501 187.665 113.131 187.152 113.131 185.941V184.403C113.131 183.254 113.377 182.946 114.795 182.946C114.795 182.946 143.119 183.069 145.276 182.946C146.365 182.884 146.817 183.52 146.734 184.731V186.331C146.734 187.418 146.55 187.665 145.194 187.665H132.315C132.069 196.466 132.377 222.008 132.377 222.89C132.315 224.285 133.014 226.275 130.652 226.275H128.803C127.016 226.275 127.016 224.614 127.016 223.28C127.078 222.008 127.262 194.927 127.201 187.665H127.221Z" fill="white"/>
<path d="M155.341 186.393C155.341 184.936 154.642 182.946 157.005 182.946H158.853C160.578 182.946 160.64 184.608 160.578 185.941C160.517 186.762 160.517 194.599 160.517 202.764H186.274V186.393C186.274 184.936 185.576 182.946 187.938 182.946H189.786C191.512 182.946 191.573 184.608 191.512 185.941C191.512 187.459 191.45 220.716 191.635 222.89C191.635 224.285 192.272 226.275 189.91 226.275H188.061C186.274 226.275 186.212 224.552 186.274 223.218C186.336 221.762 186.336 214.417 186.336 207.032H160.496C160.558 214.745 160.62 221.823 160.681 222.89C160.743 224.285 161.318 226.275 158.956 226.275H157.169C155.382 226.275 155.259 224.552 155.382 223.218C155.443 219.895 155.259 187.418 155.32 186.393H155.341Z" fill="white"/>
<path d="M204.822 186.393C204.822 184.936 204.432 182.946 206.794 182.946H230.969C232.304 182.946 232.571 183.705 232.571 184.669V186.003C232.571 187.152 232.181 187.603 230.969 187.603H210.06V202.641C215.729 202.641 226.635 202.58 228.299 202.58C228.997 202.518 229.573 202.908 229.573 203.975V205.698C229.573 206.662 229.244 206.908 228.361 206.908C226.451 206.908 215.996 206.847 210.06 206.908C210.06 212.201 210.06 217.351 210.121 221.618C215.605 221.618 228.546 221.618 230.908 221.495C231.996 221.434 232.51 222.07 232.51 223.218V224.942C232.51 226.029 232.263 226.275 230.908 226.275H206.937C205.212 226.275 204.966 224.552 205.027 223.218C205.15 219.895 204.842 187.418 204.842 186.393H204.822Z" fill="white"/>
<path d="M265.415 185.182C265.415 183.726 265.477 182.946 268.167 182.946H280.163C291.131 182.946 295.342 187.726 295.342 193.84C295.342 201.923 287.188 203.523 287.188 203.523V203.913C287.188 203.913 297.067 204.734 297.006 214.109C297.006 221.187 292.097 226.275 280.8 226.275H267.654C265.538 226.275 265.415 224.675 265.415 223.342C265.6 219.977 265.415 186.208 265.415 185.182ZM280.142 201.944C286.386 201.944 290.022 199.01 290.022 194.045C290.022 189.388 285.75 187.111 280.081 187.111H270.571V201.944H280.142ZM280.779 222.131C286.653 222.131 291.624 219.833 291.624 213.904C291.624 208.755 287.475 206.067 280.779 206.067H270.571V222.111H280.779V222.131Z" fill="white"/>
<path d="M307.563 186.393C307.563 184.936 307.173 182.946 309.535 182.946H333.711C335.046 182.946 335.313 183.705 335.313 184.669V186.003C335.313 187.152 334.923 187.603 333.711 187.603H312.801V202.641C318.47 202.641 329.377 202.58 331.041 202.58C331.739 202.518 332.314 202.908 332.314 203.975V205.698C332.314 206.662 331.985 206.908 331.102 206.908C329.192 206.908 318.737 206.847 312.801 206.908C312.801 212.201 312.801 217.351 312.863 221.618C318.347 221.618 331.287 221.618 333.649 221.495C334.738 221.434 335.251 222.07 335.251 223.218V224.942C335.251 226.029 335.005 226.275 333.649 226.275H309.679C307.954 226.275 307.707 224.552 307.769 223.218C307.892 219.895 307.584 187.418 307.584 186.393H307.563Z" fill="white"/>
<path d="M357.311 185.182C357.763 183.787 358.523 182.946 360.31 182.946H362.405C364.521 182.946 365.075 183.89 365.651 185.551C366.226 187.459 379.371 222.5 379.946 224.408C380.275 225.557 379.823 226.255 378.488 226.255H377.215C375.304 226.255 375.243 225.106 374.976 224.408C374.277 222.87 372.675 218.418 371.402 215.299H351.19C349.732 219.177 348.068 223.198 347.74 224.285C347.288 225.803 346.528 226.255 345.562 226.255H343.652C342.625 226.255 342.194 225.557 342.687 224.224C343.508 221.475 356.592 187.398 357.291 185.162L357.311 185.182ZM370.128 211.299C366.616 201.821 362.467 190.27 361.46 187.213H361.07C360.125 190.147 356.099 201.738 352.402 211.299H370.128Z" fill="white"/>
<path d="M407.306 182.31C413.694 182.31 417.453 184.28 418.911 185.244C420.061 186.003 420.944 187.275 419.24 189.265C418.726 189.962 418.151 190.209 418.151 190.209C418.151 190.209 414.331 186.762 407.244 186.762C397.097 186.762 392.065 194.476 392.065 204.529C392.065 214.581 397.796 222.439 407.244 222.439C411.393 222.439 414.187 221.167 415.851 220.08C416.549 219.628 417.309 219.32 417.946 220.408L418.973 222.008C419.425 222.644 419.548 223.28 418.644 223.916C417.494 224.819 413.673 226.911 407.224 226.911C393.441 226.911 386.807 217.474 386.745 204.611C386.684 192.117 393.441 182.31 407.285 182.31H407.306Z" fill="white"/>
<path d="M431.091 186.393C431.091 184.936 430.393 182.946 432.755 182.946H434.604C436.329 182.946 436.391 184.608 436.329 185.941C436.267 186.762 436.267 194.599 436.267 202.764H462.045V186.393C462.045 184.936 461.347 182.946 463.709 182.946H465.558C467.283 182.946 467.345 184.608 467.283 185.941C467.283 187.459 467.221 220.716 467.406 222.89C467.406 224.285 468.043 226.275 465.681 226.275H463.832C462.045 226.275 461.984 224.552 462.045 223.218C462.107 221.762 462.107 214.417 462.107 207.032H436.267C436.329 214.745 436.391 221.823 436.452 222.89C436.514 224.285 437.089 226.275 434.727 226.275H432.94C431.153 226.275 431.03 224.552 431.153 223.218C431.215 219.895 431.03 187.418 431.091 186.393Z" fill="white"/>
<path d="M502.201 186.146C502.201 184.608 502.448 182.967 504.748 182.967H517.688C528.349 182.967 533.894 188.957 534.018 196.979C534.018 204.631 528.349 208.96 523.234 210.355L531.265 221.003C532.292 222.398 533.114 222.459 535.229 222.459C536.051 225.516 534.531 226.911 532.107 226.911C529.355 226.911 528.287 225.639 526.87 223.67L518.058 211.114H507.213C507.213 212.776 507.09 221.249 507.213 223.731C507.336 225.762 506.823 226.275 505.549 226.275H503.885C502.098 226.275 502.098 224.819 502.098 223.465C502.16 220.141 502.222 187.152 502.16 186.126L502.201 186.146ZM517.75 207.093C524.056 207.093 528.78 203.585 528.657 196.958C528.657 192.117 525.144 187.09 517.688 187.09H507.233C507.172 191.173 507.172 204.939 507.172 207.093H517.75Z" fill="white"/>
<path d="M545.869 186.393C545.869 184.936 545.479 182.946 547.841 182.946H572.017C573.352 182.946 573.619 183.705 573.619 184.669V186.003C573.619 187.152 573.229 187.603 572.017 187.603H551.086V202.641C556.755 202.641 567.662 202.58 569.326 202.58C570.024 202.518 570.6 202.908 570.6 203.975V205.698C570.6 206.662 570.271 206.908 569.388 206.908C567.477 206.908 557.023 206.847 551.086 206.908C551.086 212.201 551.086 217.351 551.148 221.618C556.632 221.618 569.573 221.618 571.935 221.495C573.023 221.434 573.537 222.07 573.537 223.218V224.942C573.537 226.029 573.29 226.275 571.935 226.275H547.944C546.218 226.275 545.972 224.552 546.034 223.218C546.157 219.895 545.849 187.418 545.849 186.393H545.869Z" fill="white"/>
<path d="M582.985 220.469C583.232 218.931 584.772 218.295 584.772 218.295C584.772 218.295 588.593 222.439 596.192 222.439C603.012 222.439 607.161 219.259 607.161 214.54C607.161 211.176 604.162 208.55 599.314 207.339L592.372 205.493C586.888 204.036 581.65 201.287 581.65 194.599C581.65 187.911 587.196 182.31 596.891 182.31C602.621 182.31 606.072 183.644 608.188 184.792C609.585 185.675 610.673 186.947 609.79 188.608C609.215 189.757 608.188 190.27 608.188 190.27C608.188 190.27 603.915 186.762 596.891 186.762C589.866 186.762 586.949 190.127 586.949 194.537C586.949 198.497 591.037 200.015 594.611 200.979L601.553 202.887C609.009 205 612.46 208.693 612.46 214.479C612.46 222.131 605.887 226.911 596.192 226.911C590.462 226.911 586.251 225.25 584.649 224.162C583.108 223.136 582.677 221.988 582.985 220.469Z" fill="white"/>
<path d="M623.038 186.393C623.1 184.936 622.402 182.946 624.764 182.946H626.551C628.338 182.946 628.399 184.608 628.338 185.941C628.091 193.265 628.338 216.387 628.338 222.89C628.399 224.285 629.036 226.275 626.674 226.275H624.949C623.162 226.275 623.1 224.552 623.162 223.218C623.223 219.895 623.038 193.594 623.038 186.393Z" fill="white"/>
<path d="M642.367 186.393C642.367 184.485 642.428 182.946 644.79 182.946H653.848C671.123 182.946 677.203 191.993 677.059 204.282C676.997 217.146 671.184 226.255 653.787 226.255H644.667C642.88 226.255 642.305 224.798 642.305 223.198C642.49 219.874 642.428 189.06 642.367 186.372V186.393ZM653.91 222.131C668.452 222.131 671.759 214.109 671.759 204.241C671.698 195.132 668.185 187.111 653.972 187.111H647.522C647.461 194.825 647.399 212.284 647.461 222.152H653.91V222.131Z" fill="white"/>
<path d="M687.965 186.393C687.965 184.936 687.575 182.946 689.937 182.946H714.113C715.448 182.946 715.715 183.705 715.715 184.669V186.003C715.715 187.152 715.325 187.603 714.113 187.603H693.183V202.641C698.852 202.641 709.758 202.58 711.422 202.58C712.121 202.518 712.696 202.908 712.696 203.975V205.698C712.696 206.662 712.367 206.908 711.484 206.908C709.574 206.908 699.119 206.847 693.183 206.908C693.183 212.201 693.183 217.351 693.244 221.618C698.728 221.618 711.669 221.618 714.031 221.495C715.119 221.434 715.633 222.07 715.633 223.218V224.942C715.633 226.029 715.386 226.275 714.031 226.275H690.04C688.315 226.275 688.068 224.552 688.13 223.218C688.253 219.895 687.945 187.418 687.945 186.393H687.965Z" fill="white"/>
<path d="M726.93 185.367C726.992 183.91 727.32 182.946 729.169 182.946H731.469L756.672 214.869H757.186C757.186 211.812 756.939 186.782 756.939 184.792C756.939 184.095 756.939 182.946 758.603 182.946H760.451C762.238 182.946 762.3 184.608 762.3 185.941C762.3 189.449 762.177 220.716 762.3 222.89C762.362 224.285 762.998 226.275 760.636 226.275H758.788C757.186 226.275 757.124 224.614 756.939 223.526C756.61 221.557 735.886 196.384 732.579 191.87H731.942C731.942 196.138 732.271 222.07 732.332 222.89C732.332 224.285 732.969 226.275 730.607 226.275H728.82C727.033 226.275 726.971 224.552 727.033 223.218C727.094 219.895 726.971 186.393 726.971 185.367H726.93Z" fill="white"/>
<path d="M793.685 182.31C800.073 182.31 803.832 184.28 805.29 185.244C806.441 186.003 807.324 187.275 805.619 189.265C805.106 189.962 804.53 190.209 804.53 190.209C804.53 190.209 800.71 186.762 793.624 186.762C783.477 186.762 778.444 194.476 778.444 204.529C778.444 214.581 784.175 222.439 793.624 222.439C797.773 222.439 800.566 221.167 802.23 220.08C802.928 219.628 803.688 219.32 804.325 220.408L805.352 222.008C805.804 222.644 805.927 223.28 805.023 223.916C803.873 224.819 800.053 226.911 793.603 226.911C779.821 226.911 773.186 217.474 773.125 204.611C773.063 192.117 779.821 182.31 793.665 182.31H793.685Z" fill="white"/>
<path d="M817.409 186.393C817.409 184.936 817.019 182.946 819.381 182.946H843.557C844.892 182.946 845.159 183.705 845.159 184.669V186.003C845.159 187.152 844.768 187.603 843.557 187.603H822.626V202.641C828.295 202.641 839.202 202.58 840.866 202.58C841.564 202.518 842.139 202.908 842.139 203.975V205.698C842.139 206.662 841.811 206.908 840.928 206.908C839.017 206.908 828.562 206.847 822.626 206.908C822.626 212.201 822.626 217.351 822.688 221.618C828.172 221.618 841.112 221.618 843.474 221.495C844.563 221.434 845.077 222.07 845.077 223.218V224.942C845.077 226.029 844.83 226.275 843.474 226.275H819.484C817.758 226.275 817.512 224.552 817.573 223.218C817.697 219.895 817.389 187.418 817.389 186.393H817.409Z" fill="white"/>
<path d="M854.525 220.469C854.771 218.931 856.312 218.295 856.312 218.295C856.312 218.295 860.132 222.439 867.732 222.439C874.552 222.439 878.701 219.259 878.701 214.54C878.701 211.176 875.702 208.55 870.854 207.339L863.912 205.493C858.428 204.036 853.19 201.287 853.19 194.599C853.19 187.911 858.736 182.31 868.431 182.31C874.161 182.31 877.612 183.644 879.728 184.792C881.124 185.675 882.213 186.947 881.33 188.608C880.755 189.757 879.728 190.27 879.728 190.27C879.728 190.27 875.455 186.762 868.431 186.762C861.406 186.762 858.489 190.127 858.489 194.537C858.489 198.497 862.577 200.015 866.151 200.979L873.093 202.887C880.549 205 884 208.693 884 214.479C884 222.131 877.427 226.911 867.732 226.911C862.002 226.911 857.791 225.25 856.189 224.162C854.648 223.136 854.217 221.988 854.525 220.469Z" fill="white"/>
<path d="M277.452 115.162C267.551 89.7222 198.147 92.9637 122.456 122.383C46.7661 151.823 -6.57645 196.281 3.34441 221.721C3.98115 223.342 4.84383 224.86 5.953 226.234C1.41364 201.759 50.7715 161.815 119.683 135.021C191.43 107.14 257.22 104.063 266.607 128.169C269.605 135.842 266.504 145.361 258.596 155.639C274.33 140.437 281.704 126.056 277.452 115.182V115.162Z" fill="white"/>
<path d="M277.452 68.8782C267.551 43.4591 198.147 46.6801 122.456 76.0997C46.7661 105.519 -6.57645 149.977 3.34441 175.417C3.98115 177.037 4.84383 178.535 5.953 179.93C1.41364 155.455 50.7715 115.511 119.683 88.7169C191.43 60.836 257.22 57.7586 266.607 81.8646C269.605 89.5375 266.504 99.0569 258.596 109.335C274.33 94.1331 281.704 79.7515 277.452 68.8576V68.8782Z" fill="white"/>
<path d="M277.452 27.9286C267.551 2.50959 198.147 5.73057 122.456 35.1502C46.7661 64.5698 -6.57645 109.048 3.34441 134.467C3.98115 136.088 4.84383 137.586 5.953 138.981C1.41364 114.505 50.7715 74.561 119.683 47.7674C191.43 19.8659 257.22 16.8091 266.607 40.9151C269.605 48.588 266.504 58.1074 258.596 68.3858C274.33 53.1836 281.704 38.802 277.452 27.9286Z" fill="white"/>
<path d="M146.098 7.47441C139.402 -5.98395 101.485 -0.772938 61.4317 19.1274C21.3581 39.0277 -5.69323 66.0675 1.02338 79.5258C1.45472 80.3875 2.0093 81.1671 2.68712 81.8646C-1.03063 68.6525 24.0693 44.3002 60.5485 26.1848C98.5066 7.3308 134.431 2.38649 140.799 15.1473C142.812 19.2094 141.6 24.5846 137.759 30.6162C145.646 21.4867 148.974 13.2393 146.098 7.47441Z" fill="white"/>
<path d="M305.778 262.591C306.024 261.812 306.456 261.34 307.462 261.34H308.633C309.824 261.34 310.132 261.873 310.461 262.797C310.79 263.863 318.164 283.538 318.472 284.605C318.657 285.241 318.41 285.631 317.65 285.631H316.931C315.863 285.631 315.822 284.995 315.678 284.605C315.288 283.743 314.384 281.24 313.665 279.496H302.327C301.506 281.671 300.581 283.928 300.397 284.543C300.15 285.405 299.719 285.651 299.185 285.651H298.117C297.541 285.651 297.295 285.261 297.583 284.502C298.055 282.964 305.388 263.843 305.778 262.591ZM312.967 277.24C310.995 271.906 308.674 265.443 308.099 263.72H307.894C307.36 265.361 305.1 271.865 303.026 277.24H312.967Z" fill="white"/>
<path d="M328.906 263.987C327.859 263.987 322.148 263.946 321.82 263.946C321.204 263.987 320.998 263.699 320.998 263.022V262.161C320.998 261.525 321.142 261.34 321.922 261.34C321.922 261.34 337.821 261.402 339.032 261.34C339.649 261.299 339.895 261.668 339.854 262.345V263.248C339.854 263.863 339.751 264.007 338.991 264.007H331.761C331.617 268.951 331.802 283.271 331.802 283.784C331.761 284.564 332.151 285.672 330.837 285.672H329.789C328.783 285.672 328.783 284.749 328.783 283.989C328.824 283.271 328.927 268.09 328.886 264.007L328.906 263.987Z" fill="white"/>
<path d="M362.756 262.591C363.003 261.812 363.434 261.34 364.44 261.34H365.611C366.803 261.34 367.111 261.873 367.439 262.797C367.768 263.863 375.142 283.538 375.45 284.605C375.635 285.241 375.368 285.631 374.628 285.631H373.909C372.841 285.631 372.8 284.995 372.656 284.605C372.266 283.743 371.362 281.24 370.644 279.496H359.305C358.484 281.671 357.56 283.928 357.375 284.543C357.128 285.405 356.697 285.651 356.163 285.651H355.095C354.52 285.651 354.273 285.261 354.561 284.502C355.033 282.964 362.366 263.843 362.756 262.591ZM369.966 277.24C367.994 271.906 365.673 265.443 365.098 263.72H364.892C364.358 265.361 362.099 271.865 360.024 277.24H369.966Z" fill="white"/>
<path d="M380.626 280.461C380.626 276.501 380.626 269.731 380.585 265.771C380.585 264.848 380.585 263.946 380.544 262.981C380.544 261.976 380.462 261.34 381.365 261.34H382.475C383.645 261.34 383.399 262.55 383.399 263.412C383.399 263.802 383.358 264.233 383.358 265.341C383.358 269.916 383.399 279.968 383.419 283.046C386.501 283.046 393.402 283.046 394.552 282.964C395.168 282.882 395.518 283.251 395.518 283.887V284.708C395.518 285.323 395.333 285.631 394.593 285.631H381.858C380.79 285.631 380.606 284.81 380.606 283.948V280.44L380.626 280.461Z" fill="white"/>
<path d="M414.599 262.509C414.599 261.935 414.702 261.32 415.667 261.32H417.701C418.235 261.32 418.81 261.422 419.139 262.243C419.57 263.494 425.876 279.086 425.876 279.086H426.122C426.122 279.086 432.346 263.576 432.818 262.284C433.147 261.319 433.784 261.32 434.42 261.32H436.31C437.625 261.32 437.522 262.243 437.604 263.002C437.851 265.648 438.857 280.132 439.186 284.051C439.227 284.872 439.576 285.631 438.261 285.631H437.255C436.187 285.631 436.331 284.913 436.29 284.195C436.249 283.23 435.222 267.29 434.996 264.315H434.749C433.989 266.469 428.69 279.722 428.382 280.645C428.033 281.466 427.622 281.712 426.882 281.712H425.198C424.274 281.712 423.883 281.322 423.616 280.748C423.37 279.845 417.824 266.202 417.208 264.274H417.023C416.838 269.177 415.873 281.897 415.811 284.215C415.811 285.036 415.914 285.61 414.907 285.61H413.839C412.833 285.61 412.771 285.036 412.833 284.297C413.018 282.41 414.517 263.556 414.579 262.489L414.599 262.509Z" fill="white"/>
<path d="M452.167 262.591C452.414 261.812 452.845 261.34 453.851 261.34H455.043C456.234 261.34 456.542 261.873 456.871 262.797C457.199 263.863 464.573 283.538 464.881 284.605C465.066 285.241 464.799 285.631 464.06 285.631H463.341C462.273 285.631 462.232 284.995 462.088 284.605C461.698 283.743 460.794 281.24 460.096 279.496H448.757C447.936 281.671 447.012 283.928 446.827 284.543C446.58 285.405 446.149 285.651 445.615 285.651H444.547C443.972 285.651 443.725 285.261 444.013 284.502C444.485 282.964 451.818 263.843 452.208 262.591H452.167ZM459.356 277.24C457.384 271.906 455.063 265.443 454.488 263.72H454.262C453.728 265.361 451.469 271.865 449.394 277.24H459.356Z" fill="white"/>
<path d="M470.016 263.125C470.016 262.263 470.16 261.34 471.454 261.34H478.725C484.703 261.34 487.825 264.705 487.886 269.198C487.886 273.485 484.703 275.927 481.827 276.706L486.346 282.676C486.921 283.456 487.393 283.497 488.564 283.497C489.037 285.22 488.174 286 486.798 286C485.257 286 484.662 285.282 483.86 284.174L478.931 277.137H472.851C472.851 278.06 472.769 282.82 472.851 284.215C472.933 285.364 472.625 285.651 471.927 285.651H471.002C469.996 285.651 469.996 284.831 469.996 284.072C470.037 282.205 470.078 263.699 470.037 263.125H470.016ZM478.746 274.88C482.279 274.88 484.949 272.911 484.867 269.198C484.867 266.49 482.895 263.658 478.705 263.658H472.83C472.789 265.956 472.789 273.67 472.789 274.88H478.746Z" fill="white"/>
<path d="M492.035 281.815L492.898 281.035C493.432 280.604 493.802 280.851 494.048 281.179C494.582 281.794 495.938 283.497 498.629 283.497C501.525 283.497 503.209 281.815 503.291 278.142C503.435 271.844 503.332 263.166 503.332 262.633C503.291 261.812 503.23 261.34 504.257 261.34H505.263C506.27 261.34 506.27 262.263 506.27 263.022C506.27 263.884 506.188 274.429 506.188 278.101C506.188 283.395 503.25 286 498.629 286C494.808 286 492.754 283.825 492.159 283.066C491.809 282.533 491.584 282.164 492.056 281.815H492.035Z" fill="white"/>
<path d="M519.292 262.591C519.539 261.812 519.97 261.34 520.976 261.34H522.168C523.339 261.34 523.667 261.873 523.996 262.797C524.324 263.863 531.698 283.538 532.006 284.605C532.191 285.241 531.924 285.631 531.185 285.631H530.466C529.398 285.631 529.357 284.995 529.213 284.605C528.823 283.743 527.919 281.24 527.221 279.496H515.882C515.061 281.671 514.116 283.928 513.952 284.543C513.705 285.405 513.274 285.651 512.74 285.651H511.672C511.097 285.651 510.85 285.261 511.138 284.502C511.61 282.964 518.943 263.843 519.333 262.591H519.292ZM526.481 277.24C524.509 271.906 522.188 265.443 521.613 263.72H521.387C520.853 265.361 518.594 271.865 516.519 277.24H526.481Z" fill="white"/>
<path d="M537.08 262.694C537.121 261.873 537.306 261.34 538.333 261.34H539.627L553.758 279.25H554.046C554.046 277.527 553.902 263.494 553.902 262.386C553.902 261.997 553.902 261.361 554.826 261.361H555.853C556.86 261.361 556.901 262.284 556.901 263.043C556.901 265.012 556.819 282.553 556.901 283.784C556.942 284.564 557.291 285.672 555.977 285.672H554.929C554.025 285.672 554.005 284.749 553.902 284.133C553.717 283.025 542.092 268.91 540.222 266.366H539.873C539.873 268.767 540.058 283.312 540.099 283.784C540.099 284.564 540.448 285.672 539.134 285.672H538.127C537.121 285.672 537.08 284.707 537.121 283.948C537.162 282.081 537.08 263.289 537.08 262.715V262.694Z" fill="white"/>
<path d="M576.825 263.269C576.866 262.448 576.476 261.34 577.79 261.34H578.797C579.803 261.34 579.824 262.263 579.803 263.022C579.659 267.125 579.803 280.112 579.803 283.764C579.844 284.543 580.193 285.651 578.879 285.651H577.913C576.907 285.651 576.886 284.687 576.907 283.928C576.948 282.061 576.825 267.31 576.825 263.269Z" fill="white"/>
<path d="M586.561 282.389C586.705 281.528 587.567 281.179 587.567 281.179C587.567 281.179 589.703 283.497 593.976 283.497C597.817 283.497 600.138 281.712 600.138 279.066C600.138 277.178 598.454 275.701 595.742 275.024L591.84 273.998C588.759 273.178 585.821 271.639 585.821 267.885C585.821 264.13 588.944 260.991 594.366 260.991C597.591 260.991 599.522 261.75 600.692 262.386C601.473 262.879 602.089 263.597 601.596 264.54C601.268 265.176 600.692 265.464 600.692 265.464C600.692 265.464 598.289 263.494 594.366 263.494C590.443 263.494 588.779 265.382 588.779 267.844C588.779 270.059 591.08 270.921 593.072 271.454L596.975 272.521C601.165 273.691 603.096 275.783 603.096 279.025C603.096 283.312 599.419 286 593.976 286C590.751 286 588.389 285.077 587.506 284.461C586.643 283.887 586.397 283.251 586.581 282.389H586.561Z" fill="white"/>
<path d="M608.683 280.461C608.683 276.501 608.683 269.731 608.641 265.771C608.641 264.848 608.641 263.946 608.6 262.981C608.6 261.976 608.518 261.34 609.422 261.34H610.531C611.702 261.34 611.455 262.55 611.455 263.412C611.455 263.802 611.414 264.233 611.414 265.341C611.414 269.916 611.455 279.968 611.497 283.046C614.578 283.046 621.479 283.046 622.629 282.964C623.225 282.882 623.595 283.251 623.595 283.887V284.708C623.595 285.323 623.41 285.631 622.67 285.631H609.915C608.847 285.631 608.662 284.81 608.662 283.948V280.44L608.683 280.461Z" fill="white"/>
<path d="M635.344 262.591C635.59 261.812 636.021 261.34 637.028 261.34H638.219C639.39 261.34 639.719 261.873 640.047 262.797C640.376 263.863 647.75 283.538 648.058 284.605C648.243 285.241 647.976 285.631 647.236 285.631H646.517C645.449 285.631 645.408 284.995 645.264 284.605C644.874 283.743 643.97 281.24 643.272 279.496H631.934C631.112 281.671 630.167 283.928 630.003 284.543C629.757 285.405 629.325 285.651 628.791 285.651H627.723C627.148 285.651 626.902 285.261 627.189 284.502C627.662 282.964 634.994 263.843 635.385 262.591H635.344ZM642.533 277.24C640.561 271.906 638.24 265.443 637.665 263.72H637.439C636.905 265.361 634.645 271.865 632.571 277.24H642.533Z" fill="white"/>
<path d="M653.131 262.694C653.172 261.873 653.357 261.34 654.384 261.34H655.678L669.81 279.25H670.097C670.097 277.527 669.954 263.494 669.954 262.386C669.954 261.997 669.954 261.361 670.878 261.361H671.905C672.911 261.361 672.952 262.284 672.952 263.043C672.952 265.012 672.87 282.553 672.952 283.784C672.994 284.564 673.343 285.672 672.028 285.672H670.981C670.077 285.672 670.056 284.749 669.954 284.133C669.769 283.025 658.143 268.91 656.274 266.366H655.925C655.925 268.767 656.11 283.312 656.151 283.784C656.151 284.564 656.5 285.672 655.185 285.672H654.179C653.172 285.672 653.131 284.707 653.172 283.948C653.213 282.081 653.131 263.289 653.131 262.715V262.694Z" fill="white"/>
<path d="M680.409 263.269C680.409 262.202 680.45 261.34 681.764 261.34H686.838C696.532 261.34 699.942 266.407 699.86 273.321C699.819 280.543 696.574 285.651 686.796 285.651H681.682C680.676 285.651 680.367 284.831 680.367 283.928C680.47 282.061 680.45 264.766 680.409 263.269ZM686.899 283.333C695.054 283.333 696.923 278.819 696.923 273.28C696.882 268.172 694.91 263.658 686.94 263.658H683.325C683.284 267.987 683.243 277.773 683.284 283.312H686.899V283.333Z" fill="white"/>
</svg>
