<svg width="838" height="551" viewBox="0 0 838 551" fill="none" xmlns="http://www.w3.org/2000/svg">
<path d="M268.597 195.128L204.003 101.4C204.003 101.4 270.101 135.872 315.837 148.263C371.348 163.304 462.379 163.567 462.379 163.567C462.379 163.567 411.067 177.69 377.539 183.65C335.426 191.138 268.597 195.128 268.597 195.128Z" fill="white"/>
<path d="M344.799 306.043L281.17 212.316C281.17 212.316 365.428 212.827 419.035 195.1C514.479 163.539 571.36 116.675 571.36 116.675C571.36 116.675 501.603 201.186 419.035 263.005C367.937 301.261 344.799 306.043 344.799 306.043Z" fill="white"/>
<path d="M419.021 417L357.319 324.228C357.319 324.228 372.784 316.441 382.386 310.839C391.987 305.237 406.488 295.537 406.488 295.537C406.488 295.537 417.713 302.287 422.877 306.057C443.604 321.188 480.723 329.011 480.723 329.011L419.021 417Z" fill="white"/>
<path d="M703.429 0L492.293 313.701C492.293 313.701 462.774 308.299 445.053 301.268C430.591 295.529 420.951 285.965 420.951 285.965C420.951 285.965 458.879 255.466 480.724 233.363C577.133 135.809 703.429 0 703.429 0Z" fill="white"/>
<path d="M0 469.689V462.054H33.0207V469.689H21.1743V500.949H11.8651V469.689H0Z" fill="white"/>
<path d="M62.8631 500.949V462.054H72.3056V477.666H87.6998V462.054H97.1236V500.949H87.6998V485.319H72.3056V500.949H62.8631Z" fill="white"/>
<path d="M128.296 500.949V462.054H155.537V469.689H137.739V477.666H154.144V485.319H137.739V493.315H155.537V500.949H128.296Z" fill="white"/>
<path d="M223.502 500.949V462.054H239.793C242.718 462.054 245.166 462.466 247.137 463.289C249.121 464.112 250.609 465.264 251.601 466.745C252.605 468.227 253.108 469.942 253.108 471.892C253.108 473.374 252.796 474.697 252.173 475.861C251.55 477.013 250.692 477.969 249.598 478.729C248.504 479.489 247.239 480.02 245.802 480.324V480.704C247.379 480.78 248.835 481.204 250.17 481.977C251.518 482.749 252.599 483.825 253.413 485.205C254.227 486.572 254.634 488.193 254.634 490.067C254.634 492.156 254.1 494.024 253.032 495.67C251.963 497.303 250.418 498.594 248.396 499.544C246.374 500.481 243.92 500.949 241.033 500.949H223.502ZM232.945 493.372H238.782C240.829 493.372 242.337 492.986 243.303 492.213C244.282 491.441 244.772 490.365 244.772 488.984C244.772 487.984 244.537 487.123 244.066 486.402C243.596 485.667 242.928 485.104 242.063 484.712C241.198 484.306 240.162 484.104 238.953 484.104H232.945V493.372ZM232.945 478.045H238.171C239.202 478.045 240.117 477.875 240.919 477.533C241.72 477.191 242.343 476.697 242.788 476.051C243.246 475.405 243.474 474.627 243.474 473.715C243.474 472.411 243.011 471.386 242.082 470.639C241.154 469.892 239.901 469.518 238.324 469.518H232.945V478.045Z" fill="white"/>
<path d="M284.434 500.949V462.054H311.674V469.689H293.879V477.666H310.28V485.319H293.879V493.315H311.674V500.949H284.434Z" fill="white"/>
<path d="M351.288 500.949H341.141L354.322 462.054H366.891L380.072 500.949H369.925L360.748 471.854H360.445L351.288 500.949ZM349.935 485.642H371.147V492.783H349.935V485.642Z" fill="white"/>
<path d="M443.131 476.144H433.595C433.464 475.169 433.207 474.29 432.813 473.505C432.419 472.72 431.894 472.049 431.248 471.491C430.597 470.934 429.829 470.51 428.941 470.219C428.063 469.915 427.088 469.763 426.018 469.763C424.125 469.763 422.489 470.225 421.116 471.15C419.758 472.074 418.708 473.41 417.971 475.157C417.244 476.904 416.881 479.019 416.881 481.5C416.881 484.083 417.25 486.248 417.992 487.995C418.739 489.73 419.789 491.04 421.137 491.927C422.5 492.8 424.105 493.237 425.963 493.237C427.008 493.237 427.951 493.104 428.805 492.838C429.668 492.572 430.425 492.186 431.076 491.68C431.738 491.16 432.278 490.534 432.697 489.799C433.131 489.052 433.429 488.21 433.595 487.273L443.131 487.33C442.965 489.052 442.465 490.749 441.627 492.42C440.799 494.091 439.658 495.617 438.209 496.997C436.76 498.364 434.994 499.453 432.909 500.264C430.834 501.074 428.456 501.479 425.771 501.479C422.237 501.479 419.072 500.707 416.27 499.162C413.489 497.605 411.288 495.339 409.672 492.363C408.057 489.388 407.249 485.767 407.249 481.5C407.249 477.22 408.072 473.593 409.713 470.618C411.353 467.643 413.569 465.382 416.366 463.838C419.168 462.293 422.303 461.521 425.771 461.521C428.138 461.521 430.324 461.85 432.333 462.508C434.342 463.154 436.109 464.104 437.639 465.357C439.163 466.598 440.405 468.124 441.359 469.934C442.313 471.745 442.904 473.815 443.131 476.144Z" fill="white"/>
<path d="M473.771 500.949V462.054H483.211V477.666H498.608V462.054H508.033V500.949H498.608V485.319H483.211V500.949H473.771Z" fill="white"/>
<path d="M584.864 462.054L593.603 490.542H593.926L602.664 462.054H613.23L600.049 500.949H587.479L574.299 462.054H584.864Z" fill="white"/>
<path d="M652.134 462.054V500.949H642.694V462.054H652.134Z" fill="white"/>
<path d="M704.451 473.714C704.325 472.321 703.76 471.238 702.755 470.466C701.761 469.681 700.342 469.288 698.5 469.288C697.278 469.288 696.263 469.447 695.45 469.763C694.633 470.08 694.022 470.517 693.618 471.074C693.209 471.618 693.002 472.245 692.987 472.954C692.962 473.536 693.078 474.049 693.33 474.492C693.598 474.935 693.981 475.328 694.476 475.67C694.986 475.999 695.592 476.29 696.309 476.543C697.02 476.796 697.818 477.018 698.711 477.208L702.068 477.968C704.002 478.386 705.703 478.942 707.182 479.639C708.666 480.335 709.913 481.165 710.918 482.127C711.938 483.089 712.705 484.197 713.225 485.45C713.75 486.704 714.017 488.109 714.027 489.667C714.017 492.122 713.391 494.231 712.16 495.991C710.923 497.751 709.151 499.099 706.834 500.036C704.537 500.973 701.756 501.441 698.5 501.441C695.233 501.441 692.381 500.954 689.953 499.979C687.525 499.004 685.637 497.522 684.289 495.535C682.941 493.547 682.25 491.034 682.209 487.995H691.25C691.326 489.249 691.664 490.293 692.26 491.129C692.861 491.964 693.679 492.598 694.724 493.028C695.779 493.458 697 493.674 698.383 493.674C699.655 493.674 700.741 493.503 701.629 493.161C702.533 492.819 703.224 492.344 703.709 491.736C704.194 491.129 704.441 490.432 704.451 489.647C704.441 488.913 704.209 488.286 703.765 487.767C703.32 487.235 702.634 486.78 701.705 486.4C700.791 486.007 699.62 485.647 698.197 485.317L694.113 484.368C690.73 483.595 688.065 482.348 686.121 480.626C684.173 478.892 683.209 476.55 683.219 473.599C683.209 471.194 683.855 469.086 685.167 467.275C686.475 465.465 688.287 464.053 690.604 463.04C692.916 462.027 695.556 461.521 698.52 461.521C701.543 461.521 704.174 462.034 706.4 463.059C708.636 464.072 710.373 465.496 711.604 467.332C712.841 469.168 713.467 471.295 713.492 473.714H704.451Z" fill="white"/>
<path d="M742.742 469.689V462.054H775.762V469.689H763.919V500.949H754.605V469.689H742.742Z" fill="white"/>
<path d="M809.216 500.949H799.064L812.25 462.054H824.82L838 500.949H827.853L818.676 471.854H818.373L809.216 500.949ZM807.858 485.642H829.07V492.783H807.858V485.642Z" fill="white"/>
<path d="M120.084 550.508H117L125.919 526.325H128.956L137.875 550.508H134.79L127.532 530.151H127.342L120.084 550.508ZM121.222 541.062H133.652V543.659H121.222V541.062Z" fill="white"/>
<path d="M150.52 528.922V526.325H168.738V528.922H161.1V550.508H158.158V528.922H150.52Z" fill="white"/>
<path d="M209.703 550.508H206.619L215.539 526.325H218.575L227.494 550.508H224.41L217.152 530.151H216.962L209.703 550.508ZM210.842 541.062H223.272V543.659H210.842V541.062Z" fill="white"/>
<path d="M244.303 550.508V526.325H247.244V547.91H258.536V550.508H244.303Z" fill="white"/>
<path d="M298.546 526.325H302.056L310.311 546.399H310.596L318.85 526.325H322.361V550.508H319.61V532.134H319.373L311.782 550.508H309.125L301.534 532.134H301.297V550.508H298.546V526.325Z" fill="white"/>
<path d="M342.294 550.508H339.21L348.129 526.325H351.165L360.084 550.508H357L349.742 530.151H349.552L342.294 550.508ZM343.432 541.062H355.862V543.659H343.432V541.062Z" fill="white"/>
<path d="M376.889 550.508V526.325H385.097C386.994 526.325 388.552 526.648 389.77 527.293C390.988 527.931 391.889 528.809 392.474 529.926C393.059 531.044 393.352 532.316 393.352 533.741C393.352 535.165 393.059 536.429 392.474 537.531C391.889 538.633 390.991 539.499 389.782 540.129C388.572 540.75 387.026 541.062 385.144 541.062H378.502V538.416H385.049C386.346 538.416 387.39 538.228 388.181 537.85C388.979 537.472 389.556 536.936 389.912 536.244C390.276 535.543 390.458 534.709 390.458 533.741C390.458 532.772 390.276 531.926 389.912 531.202C389.548 530.478 388.967 529.919 388.169 529.525C387.37 529.124 386.314 528.922 385.002 528.922H379.831V550.508H376.889ZM388.323 539.645L394.3 550.508H390.885L385.002 539.645H388.323Z" fill="white"/>
<path d="M420.591 526.325H423.532V543.612C423.532 545.155 423.248 546.465 422.679 547.544C422.111 548.623 421.304 549.441 420.27 550C419.237 550.559 418.011 550.838 416.605 550.838C415.277 550.838 414.095 550.598 413.059 550.118C412.023 549.63 411.209 548.937 410.616 548.04C410.023 547.143 409.726 546.076 409.726 544.84H412.62C412.62 545.525 412.79 546.123 413.13 546.635C413.478 547.138 413.953 547.532 414.553 547.816C415.155 548.099 415.839 548.241 416.605 548.241C417.453 548.241 418.172 548.064 418.766 547.709C419.355 547.355 419.805 546.835 420.115 546.151C420.431 545.458 420.591 544.612 420.591 543.612V526.325Z" fill="white"/>
<path d="M443.425 550.508H440.339L449.257 526.325H452.296L461.214 550.508H458.133L450.869 530.151H450.683L443.425 550.508ZM444.563 541.062H456.99V543.659H444.563V541.062Z" fill="white"/>
<path d="M497.28 526.325V550.508H494.432L481.192 531.521H480.96V550.508H478.018V526.325H480.862L494.147 545.36H494.385V526.325H497.28Z" fill="white"/>
<path d="M541.58 526.325V550.508H538.639V526.325H541.58Z" fill="white"/>
<path d="M573.773 532.378C573.629 531.181 573.05 530.252 572.042 529.591C571.028 528.93 569.788 528.599 568.314 528.599C567.239 528.599 566.298 528.772 565.492 529.119C564.696 529.465 564.07 529.941 563.62 530.548C563.176 531.153 562.954 531.843 562.954 532.614C562.954 533.26 563.109 533.814 563.419 534.279C563.734 534.735 564.137 535.117 564.629 535.424C565.12 535.723 565.631 535.972 566.169 536.168C566.707 536.357 567.203 536.511 567.653 536.629L570.119 537.29C570.749 537.455 571.458 537.684 572.228 537.975C573.014 538.266 573.758 538.663 574.471 539.167C575.19 539.663 575.784 540.301 576.25 541.08C576.715 541.86 576.953 542.816 576.953 543.95C576.953 545.257 576.606 546.437 575.919 547.492C575.236 548.547 574.244 549.385 572.931 550.007C571.623 550.629 570.041 550.94 568.175 550.94C566.433 550.94 564.928 550.66 563.657 550.101C562.39 549.543 561.392 548.764 560.664 547.764C559.945 546.764 559.542 545.603 559.444 544.28H562.483C562.561 545.193 562.866 545.949 563.403 546.547C563.951 547.138 564.639 547.579 565.471 547.87C566.309 548.153 567.208 548.295 568.175 548.295C569.297 548.295 570.305 548.114 571.199 547.752C572.093 547.382 572.802 546.87 573.319 546.216C573.841 545.555 574.104 544.784 574.104 543.902C574.104 543.099 573.877 542.446 573.427 541.942C572.977 541.438 572.383 541.029 571.649 540.714C570.915 540.399 570.119 540.124 569.266 539.887L566.278 539.038C564.38 538.494 562.876 537.719 561.77 536.711C560.663 535.704 560.11 534.385 560.11 532.756C560.11 531.402 560.477 530.221 561.211 529.213C561.956 528.198 562.954 527.411 564.199 526.851C565.456 526.285 566.862 526.002 568.413 526.002C569.974 526.002 571.37 526.281 572.585 526.84C573.805 527.391 574.766 528.146 575.479 529.107C576.198 530.067 576.581 531.158 576.617 532.378H573.773Z" fill="white"/>
<path d="M594.821 550.508V526.325H597.762V547.91H609.053V550.508H594.821Z" fill="white"/>
<path d="M629.171 550.508H626.085L635.008 526.325H638.042L646.96 550.508H643.879L636.62 530.151H636.429L629.171 550.508ZM630.308 541.062H642.741V543.659H630.308V541.062Z" fill="white"/>
<path d="M683.021 526.325V550.508H680.173L666.939 531.521H666.701V550.508H663.76V526.325H666.603L679.889 545.36H680.126V526.325H683.021Z" fill="white"/>
<path d="M709.425 550.508H701.93V526.325H709.756C712.114 526.325 714.13 526.809 715.805 527.777C717.485 528.738 718.767 530.119 719.661 531.922C720.555 533.717 721 535.866 721 538.369C721 540.888 720.55 543.057 719.651 544.875C718.746 546.686 717.433 548.079 715.711 549.055C713.99 550.024 711.891 550.508 709.425 550.508ZM704.871 547.91H709.234C711.245 547.91 712.91 547.524 714.228 546.753C715.551 545.982 716.534 544.883 717.185 543.458C717.831 542.034 718.157 540.337 718.157 538.369C718.157 536.417 717.836 534.736 717.195 533.327C716.554 531.91 715.598 530.824 714.326 530.068C713.049 529.305 711.467 528.922 709.57 528.922H704.871V547.91Z" fill="white"/>
</svg>
